<?xml version="1.0" encoding="utf-8"?>
<!DOCTYPE svg PUBLIC "-//W3C//DTD SVG 1.1//EN" "http://www.w3.org/Graphics/SVG/1.1/DTD/svg11.dtd">
<svg xmlns="http://www.w3.org/2000/svg" xmlns:xlink="http://www.w3.org/1999/xlink" version="1.1" baseProfile="full" width="408.558" height="97.4385" viewBox="0 0 408.56 97.44" enable-background="new 0 0 408.56 97.44" xml:space="preserve">
	<radialGradient id="SVGID_Fill1_" cx="259.064" cy="47.9672" r="30.5188" gradientUnits="userSpaceOnUse" gradientTransform="rotate(44.932903 259.063721 47.967224)">
		<stop offset="0.88787" stop-color="#ADF8FF" stop-opacity="0.388235"/>
		<stop offset="0.924567" stop-color="#E2FAFF" stop-opacity="0.376471"/>
		<stop offset="1" stop-color="#88DAFF" stop-opacity="0.0509804"/>
	</radialGradient>
	<ellipse fill="url(#SVGID_Fill1_)" stroke-width="0.2" stroke-linejoin="round" cx="259.382" cy="48.3812" rx="30.6756" ry="30.604"/>
	<path fill="#56B5C4" fill-opacity="1" stroke-linejoin="round" d="M 259.775,27.7318C 271.566,27.7318 281.124,37.2039 281.124,48.8882C 281.124,60.5726 271.566,70.0445 259.775,70.0445C 247.984,70.0445 238.426,60.5726 238.426,48.8882C 238.426,37.2039 247.984,27.7318 259.775,27.7318 Z "/>
	<path fill="#000000" fill-opacity="1" stroke-width="0.2" stroke-linejoin="round" d="M 257.062,32.1297C 247.687,33.774 241.358,42.5075 242.953,51.5983C 244.548,60.6933 253.471,66.752 262.846,65.1076C 272.218,63.4638 278.548,54.73 276.952,45.6351C 275.358,36.5443 266.434,30.4859 257.062,32.1297 Z M 263.768,69.3629C 251.405,71.5312 239.637,64.5403 237.534,52.5482C 235.431,40.5604 243.778,30.0418 256.14,27.8736C 268.5,25.7057 280.268,32.6964 282.37,44.6841C 284.474,56.6763 276.128,67.1951 263.768,69.3629 Z "/>
	<path fill="#000000" fill-opacity="1" stroke-width="0.2" stroke-linejoin="round" d="M 72.0527,40.4141C 70.3901,40.4141 69.0377,39.0651 69.0377,37.4026L 69.0377,31.9926C 69.0377,30.3267 70.3901,28.9777 72.0527,28.9777C 73.722,28.9777 75.071,30.3267 75.071,31.9926L 75.071,37.4026C 75.071,39.0651 73.722,40.4141 72.0527,40.4141 Z "/>
	<path fill="#000000" fill-opacity="1" stroke-width="0.2" stroke-linejoin="round" d="M 87.3594,40.4141C 85.6934,40.4141 84.3444,39.0651 84.3444,37.4026L 84.3444,31.9926C 84.3444,30.3267 85.6934,28.9777 87.3594,28.9777C 89.0249,28.9777 90.374,30.3267 90.374,31.9926L 90.374,37.4026C 90.374,39.0651 89.0249,40.4141 87.3594,40.4141 Z "/>
	<path fill="#000000" fill-opacity="1" stroke-width="0.2" stroke-linejoin="round" d="M 80.2868,76.3233C 66.3907,76.3233 55.0838,61.1885 55.0838,48.7403C 55.0838,47.0743 56.4329,45.7253 58.0984,45.7253C 59.7643,45.7253 61.1134,47.0743 61.1134,48.7403C 61.1134,57.8602 69.7156,68.2868 80.2868,68.2868C 90.8614,68.2868 99.4602,57.8602 99.4602,48.7403C 99.4602,47.0743 100.813,45.7253 102.479,45.7253C 104.141,45.7253 105.497,47.0743 105.497,48.7403C 105.497,61.1885 94.1829,76.3233 80.2868,76.3233 Z "/>
	<path fill="#7AB000" fill-opacity="1" stroke-linejoin="round" stroke="#B1E6FF" stroke-opacity="1" d="M 253.626,34.3897C 253.626,34.3896 248.185,36.3693 248.625,36.8261C 249.065,37.283 250.465,36.2551 250.586,36.8642C 250.706,37.4733 250.265,42.9554 249.705,42.3843C 249.145,41.8133 247.865,41.8514 248.625,43.0696C 249.385,44.2878 250.145,47.3336 250.986,48.171C 251.826,49.0086 253.586,49.0467 253.666,49.4273C 253.746,49.808 254.026,50.303 254.346,50.4551C 254.666,50.6075 255.346,52.4349 255.786,52.1684C 256.226,51.9019 254.986,50.9501 255.346,50.4171C 255.706,49.8841 254.986,49.6939 254.666,49.808C 254.346,49.9222 254.826,48.209 255.106,48.209C 255.386,48.209 253.906,48.0187 253.466,48.4376C 253.026,48.8563 251.786,45.2396 253.386,45.43C 254.986,45.6203 253.866,46.1534 254.546,46.001C 255.226,45.8487 255.226,44.6306 255.586,45.5062C 255.946,46.3817 256.266,46.8005 256.066,47.1812C 255.866,47.5618 257.026,47.8665 257.267,47.1812C 257.507,46.4959 256.186,45.7346 257.227,45.1254C 258.267,44.5163 259.667,43.298 259.947,43.5645C 260.227,43.831 260.147,41.9276 260.547,42.2701C 260.947,42.6127 261.147,43.0696 261.587,42.7651C 262.027,42.4605 262.787,42.0799 262.067,41.8895C 261.347,41.699 260.467,41.0139 261.227,40.9377C 261.987,40.8615 262.627,41.5089 262.908,40.9758C 263.188,40.4428 262.347,40.3287 262.147,39.5291C 261.947,38.7296 261.747,38.387 262.027,38.3109C 262.307,38.2347 262.267,37.8922 262.067,37.3972C 261.867,36.9023 262.347,36.9023 262.507,36.8261C 262.667,36.7499 260.787,35.5699 260.427,35.5318C 260.067,35.4937 259.947,35.4556 260.387,36.1028C 260.827,36.7499 260.187,37.1688 259.907,37.1688C 259.627,37.1688 260.587,36.9023 261.027,37.3972C 261.467,37.8922 261.867,38.4251 261.507,38.7296C 261.147,39.0342 260.747,39.6815 260.707,39.1865C 260.667,38.6915 260.747,37.7779 260.467,37.7779C 260.187,37.7779 259.227,38.5012 259.227,38.5012C 259.227,38.5012 259.227,38.92 259.187,39.1103C 259.147,39.3006 259.147,39.4529 258.827,39.6813C 258.507,39.9097 258.507,40.6712 258.507,40.6712L 258.427,41.2803C 258.427,41.2803 258.187,40.2144 258.067,39.491C 257.947,38.7676 256.667,38.6535 256.466,38.6535C 256.266,38.6535 257.067,37.0926 257.387,37.2068C 257.707,37.321 258.747,37.4733 258.747,37.4733C 258.747,37.4733 258.907,36.7501 259.547,36.5215C 260.187,36.2932 260.147,35.8743 259.987,35.7982C 259.827,35.7221 259.787,35.3414 259.987,35.3033C 260.187,35.2652 261.707,34.5419 261.987,34.9227C 262.267,35.3033 262.987,36.712 263.388,36.9402C 263.788,37.1688 263.548,38.0063 264.188,38.4251C 264.828,38.8438 264.868,39.2245 265.028,39.2245C 265.188,39.2245 265.108,37.4352 265.588,37.5875C 266.068,37.7398 266.588,37.283 266.228,36.9023C 265.868,36.5215 265.428,35.0369 264.348,34.8465C 263.268,34.6561 261.307,33.8947 259.827,33.8566C 258.347,33.8185 258.347,34.8084 258.307,34.9608C 258.267,35.113 257.547,35.7602 257.427,35.3033C 257.307,34.8465 255.866,35.3033 255.866,35.3033L 255.066,35.5698L 254.306,34.618L 253.626,34.3897 Z "/>
	<path fill="#7AB000" fill-opacity="1" stroke-linejoin="round" stroke="#B1E6FF" stroke-opacity="1" d="M 254.167,52.4232C 254.167,52.4232 254.773,52.7986 254.542,53.232C 254.311,53.6653 253.416,54.4164 253.387,54.8497C 253.358,55.283 253.445,56.2652 253.82,56.6696C 254.196,57.074 255.091,57.623 254.831,58.4896C 254.571,59.3563 254.08,60.0495 253.936,60.3384C 253.791,60.6273 253.878,61.0894 253.878,61.0894L 253.56,61.6961L 253.965,62.3316L 254.802,61.205L 255.236,61.205L 255.582,60.2518L 256.276,60.3384L 258.182,59.0963C 258.182,59.0963 258.933,59.3851 259.165,58.6917C 259.396,57.9985 259.569,57.1896 260.002,57.0452C 260.436,56.9007 260.724,56.3807 260.724,56.3807L 259.193,55.2252L 259.367,54.8209L 258.471,55.1674C 258.471,55.1674 258.731,54.3008 258.529,54.1563C 258.327,54.012 258.153,53.5208 258.125,53.4053C 258.096,53.2897 256.969,52.192 256.969,52.192L 256.333,52.6542L 255.698,51.8743C 255.698,51.8743 255.034,51.441 255.005,51.9898C 254.976,52.5386 254.918,52.3942 254.918,52.3942L 254.167,52.4232 Z "/>
	<path fill="#7AB000" fill-opacity="1" stroke-linejoin="round" stroke="#B1E6FF" stroke-opacity="1" d="M 267.066,42.2858C 267.23,42.2857 267.805,42.0804 267.805,42.0804L 268.257,42.4501L 268.792,42.1624L 267.888,40.231L 268.545,39.2036L 267.189,38.0939L 266.696,39.3268L 267.107,40.1899C 267.107,40.1899 267.353,40.8475 267.025,41.0118C 266.696,41.1761 266.983,42.2857 267.066,42.2858 Z "/>
	<path fill="#7AB000" fill-opacity="1" stroke-linejoin="round" stroke="#B1E6FF" stroke-opacity="1" d="M 268.429,37.2945C 268.437,37.1993 268.429,37.4991 269.514,38.4401C 270.598,39.3812 269.896,40.2814 270.024,40.6087C 270.152,40.9361 270.79,42.2454 270.79,42.2454L 271.683,43.8821L 270.088,45.3553L 271.491,45.7234C 271.491,45.7234 272.512,46.3372 271.236,46.2554C 269.96,46.1736 269.833,45.6008 269.577,45.6006C 269.322,45.6006 268.684,46.5009 268.684,46.5009L 270.279,48.5059L 272.512,48.2603L 273.66,47.483C 273.66,47.483 274.426,46.8692 274.617,47.1556C 274.809,47.442 275.383,48.3013 275.383,48.3013C 275.383,48.3013 275.893,46.7874 275.064,45.2734C 274.234,43.7595 272.512,40.6497 271.746,39.8723C 270.981,39.0948 269.45,37.499 268.429,37.2945 Z "/>
	<path fill="#7AB000" fill-opacity="1" stroke-linejoin="round" stroke="#B1E6FF" stroke-opacity="1" d="M 274.171,49.1606C 273.214,48.7923 272.001,48.9151 271.491,49.1606C 270.981,49.4061 270.279,49.2834 270.279,49.938C 270.279,50.5927 270.088,51.1247 270.407,51.2883C 270.726,51.452 271.683,51.4111 271.683,51.5748C 271.683,51.7383 271.045,52.3113 270.088,52.5158C 269.131,52.7204 268.365,53.5798 268.62,53.6616C 268.876,53.7433 270.853,53.4161 271.108,53.457C 271.364,53.4979 270.151,54.1526 269.322,54.7254C 268.493,55.2983 268.684,56.2393 268.876,56.4439C 269.067,56.6485 270.024,56.8941 269.769,57.5486C 269.514,58.2034 268.939,59.1036 268.62,59.3082C 268.302,59.5128 267.217,60.904 266.707,61.1495C 266.196,61.395 264.665,62.3361 264.665,62.3361C 264.665,62.3361 268.939,61.0268 271.172,58.3262C 273.405,55.6255 275.638,51.1247 275.574,49.1606C 275.51,47.1966 274.617,49.2834 274.426,48.3422C 274.234,47.4012 274.298,49.1197 274.171,49.1606 Z "/>
	<path fill="#FFFFFF" fill-opacity="1" stroke-linejoin="round" stroke="#B4B4B4" stroke-opacity="1" d="M 263.562,33.4186C 264.007,33.6308 263.452,27.023 267.201,27.4641C 270.951,27.9051 270.62,30.331 270.62,30.331C 270.62,30.331 274.038,28.8975 274.92,30.6618C 275.803,32.4261 275.141,33.0877 275.141,33.0877C 275.141,33.0877 277.236,31.8748 278.008,33.1981C 277.457,39.4835 267.863,37.1678 267.863,37.1678C 267.679,37.5352 265.768,37.7191 263.452,39.0423C 261.137,40.3655 261.688,40.4759 257.718,38.7115C 253.749,36.9472 258.931,31.3233 263.562,33.4186 Z "/>
	<path fill="#FFFFFF" fill-opacity="1" stroke-linejoin="round" stroke="#B4B4B4" stroke-opacity="1" d="M 244.327,56.0475C 244.664,56.0313 242.943,52.3249 245.17,51.92C 247.023,51.5828 248.876,53.8575 248.202,54.5312C 247.529,55.2051 249.55,52.5096 250.393,53.8574C 251.235,55.2051 249.719,56.1317 249.719,56.1317C 249.719,56.1317 252.246,56.3002 251.825,57.4796C 251.403,58.6588 244.58,59.8382 243.654,58.8272C 242.727,57.8165 241.885,56.3001 244.327,56.0475 Z "/>
	<path fill="#FFFFFF" fill-opacity="1" stroke-linejoin="round" stroke="#B4B4B4" stroke-opacity="1" d="M 261.004,50.6802C 261.02,50.6727 259.152,50.9228 258.96,51.7003C 258.767,52.4778 258.73,53.991 259.905,54.3077C 261.079,54.6242 263.48,54.5706 265.765,54.2116C 268.085,53.8472 270.195,53.3338 271.507,52.8889C 272.484,52.5576 274.333,51.4595 272.668,50.0848C 271.003,48.71 267.8,49.4688 267.607,50.2463C 267.415,51.0237 268.503,49.2025 266.828,48.6121C 265.152,48.0217 264.588,49.9899 264.588,49.9899C 264.588,49.9899 265.364,47.7193 263.627,47.3272C 261.889,46.9354 261.924,48.4876 261.442,48.6889C 260.96,48.8903 260.348,49.6707 261.004,50.6802 Z "/>
	<g>
		<path fill="#000000" fill-opacity="1" stroke-width="0.2" stroke-linejoin="round" d="M 12.9544,73.5063C 8.7876,73.5063 5.58685,72.3088 3.35211,69.9138C 1.11737,67.5187 0,64.1666 0,59.8574C 0,52.5922 2.91138,44.9308 8.73419,36.8734C 14.557,28.8157 19.9703,24.7869 24.9739,24.7869C 27.2532,24.7869 29.2164,26.0424 30.8635,28.5532C 32.5106,31.0639 33.3342,33.726 33.3342,36.5395C 33.3342,38.231 32.9736,39.6868 32.2524,40.9066C 31.5313,42.1263 30.8057,42.7361 30.0756,42.7361C 28.4285,42.7361 27.2666,41.0891 26.5899,37.7949C 25.8331,34.2513 24.7335,32.4796 23.2912,32.4796C 20.3531,32.4796 16.8763,35.8538 12.8609,42.6026C 8.84546,49.3514 6.83777,55.0496 6.83777,59.6971C 6.83777,64.3447 9.52216,66.6685 14.8909,66.6685C 18.9775,66.6685 23.7898,64.7764 29.3277,60.9925C 31.2775,59.6481 32.711,58.9759 33.6281,58.9759C 34.5718,58.9759 35.0437,59.5235 35.0437,60.6186C 35.0437,62.7465 32.5574,65.4265 27.5848,68.6584C 22.6123,71.8903 17.7355,73.5063 12.9544,73.5063 Z "/>
		<path fill="#000000" fill-opacity="1" stroke-width="0.2" stroke-linejoin="round" d="M 51.5505,15.3851C 50.9807,15.3851 50.5488,14.7707 50.2551,13.5421C 50.1482,13.1503 50.0013,12.723 49.8143,12.2599C 49.0842,10.4793 48.7192,8.93011 48.7192,7.61237C 48.7192,6.51727 49.358,5.40216 50.6357,4.26691C 51.9133,3.13177 53.3356,2.56427 54.9026,2.56427C 55.6772,2.56427 56.5497,2.8714 57.5202,3.48566C 58.4907,4.10004 58.9759,4.69659 58.9759,5.27521C 58.9759,6.18341 58.6465,7.7193 57.9876,9.88275C 57.3287,12.0462 56.2782,13.5042 54.8358,14.2565C 53.3935,15.0089 52.2983,15.3851 51.5505,15.3851 Z M 46.155,61.9675C 46.155,64.0865 46.3954,66.4681 46.8762,69.1124C 46.9653,69.6199 47.0098,70.0384 47.0098,70.3677C 47.0098,70.8664 46.5401,71.5141 45.6008,72.311C 44.6615,73.1078 43.6621,73.5063 42.6026,73.5063C 39.8425,73.5063 38.4625,71.0223 38.4625,66.0541C 38.4625,60.9258 39.522,52.8148 41.6411,41.7213C 42.3711,37.8394 42.7361,35.4532 42.7361,34.5629C 42.7361,32.8089 43.0678,31.311 43.7311,30.0689C 44.3944,28.827 45.327,28.2059 46.529,28.2059C 47.998,28.2059 49.1577,28.5464 50.008,29.2276C 50.8583,29.9088 51.2834,30.6677 51.2834,31.5046C 51.2834,32.3415 51.092,33.4455 50.7091,34.8167C 48.6614,42.1797 47.3904,47.4505 46.8962,50.629C 46.4021,53.8076 46.155,57.587 46.155,61.9675 Z "/>
		<path fill="#000000" fill-opacity="1" stroke-width="0.2" stroke-linejoin="round" d="M 124.202,15.3851C 123.632,15.3851 123.2,14.7707 122.907,13.5421C 122.8,13.1503 122.653,12.723 122.466,12.2599C 121.736,10.4793 121.371,8.93011 121.371,7.61237C 121.371,6.51727 122.01,5.40216 123.287,4.26691C 124.565,3.13177 125.987,2.56427 127.554,2.56427C 128.329,2.56427 129.201,2.8714 130.172,3.48566C 131.142,4.10004 131.627,4.69659 131.627,5.27521C 131.627,6.18341 131.298,7.7193 130.639,9.88275C 129.98,12.0462 128.93,13.5042 127.487,14.2565C 126.045,15.0089 124.95,15.3851 124.202,15.3851 Z M 118.807,61.9675C 118.807,64.0865 119.047,66.4681 119.528,69.1124C 119.617,69.6199 119.661,70.0384 119.661,70.3677C 119.661,70.8664 119.192,71.5141 118.252,72.311C 117.313,73.1078 116.314,73.5063 115.254,73.5063C 112.494,73.5063 111.114,71.0223 111.114,66.0541C 111.114,60.9258 112.174,52.8148 114.293,41.7213C 115.023,37.8394 115.388,35.4532 115.388,34.5629C 115.388,32.8089 115.719,31.311 116.383,30.0689C 117.046,28.827 117.979,28.2059 119.18,28.2059C 120.65,28.2059 121.809,28.5464 122.659,29.2276C 123.51,29.9088 123.935,30.6677 123.935,31.5046C 123.935,32.3415 123.743,33.4455 123.361,34.8167C 121.313,42.1797 120.042,47.4505 119.548,50.629C 119.054,53.8076 118.807,57.587 118.807,61.9675 Z "/>
		<path fill="#000000" fill-opacity="1" stroke-width="0.2" stroke-linejoin="round" d="M 143.914,6.10352e-005C 145.98,6.10352e-005 147.012,1.28656 147.012,3.85968C 147.012,6.15668 145.784,11.6144 143.326,20.233C 141.777,25.6551 140.58,31.6404 139.734,38.1888C 138.888,44.7372 138.465,49.8723 138.465,53.5938C 138.465,58.2059 138.706,62.7911 139.186,67.3495C 139.275,68.2221 139.32,68.8543 139.32,69.2459C 139.32,70.6439 138.835,71.8458 137.864,72.8519C 136.894,73.858 135.87,74.3609 134.793,74.3609C 133.279,74.3609 132.231,73.4373 131.647,71.5898C 131.064,69.7424 130.773,66.762 130.773,62.6486C 130.773,53.2823 131.928,41.6745 134.238,27.8253C 136.549,13.9761 138.387,5.87628 139.754,3.5257C 141.121,1.17535 142.507,6.10352e-005 143.914,6.10352e-005 Z "/>
		<path fill="#000000" fill-opacity="1" stroke-width="0.2" stroke-linejoin="round" d="M 150.231,70.0873C 148.548,70.0873 147.306,69.7491 146.505,69.0723C 145.704,68.3957 145.303,66.6107 145.303,63.717C 145.303,62.1055 145.374,60.8724 145.517,60.0176C 145.659,59.1629 146.34,58.4908 147.56,58.001C 148.78,57.5113 150.543,57.2665 152.849,57.2665C 154.567,57.2665 155.876,57.6783 156.775,58.5018C 157.674,59.3254 158.124,60.2269 158.124,61.2062C 158.124,62.8267 157.877,64.0687 157.383,64.9323C 156.888,65.796 155.82,66.871 154.177,68.1575C 152.535,69.4442 151.219,70.0873 150.231,70.0873 Z "/>
		<path fill="#000000" fill-opacity="1" stroke-width="0.2" stroke-linejoin="round" d="M 192.58,37.6078C 189.989,37.6613 184.451,45.3627 175.966,60.7121C 173.099,65.8849 171.43,68.7006 170.958,69.1592C 170.486,69.6177 169.616,70.0295 168.347,70.3946C 167.078,70.7596 166.026,70.9421 165.189,70.9421C 163.328,70.9421 162.398,67.3006 162.398,60.0176C 162.398,55.9131 163.408,48.4879 165.429,37.7414C 166.257,33.3876 166.671,30.2759 166.671,28.4062C 166.671,26.5633 167.464,25.6417 169.048,25.6417C 172.022,25.6417 173.509,27.872 173.509,32.3326C 173.509,34.4249 172.988,38.525 171.946,44.6326C 170.735,51.6129 170.117,55.8553 170.09,57.3599C 171.791,55.6683 174.284,51.9645 177.569,46.2486C 182.225,38.4136 185.655,33.4478 187.859,31.351C 190.063,29.2542 192.344,28.2059 194.703,28.2059C 196.484,28.2059 197.9,29.4368 198.95,31.8985C 200.001,34.3604 200.638,40.2388 200.86,49.534C 200.913,51.8577 201.125,53.585 201.494,54.7156C 201.864,55.8464 202.133,56.4118 202.302,56.4118C 203.62,56.4118 206.491,51.8889 210.916,42.8431C 213.276,38.062 215.575,34.4271 217.814,31.9387C 220.054,29.4501 222.54,28.2059 225.273,28.2059C 227.552,28.2059 229.213,29.3655 230.255,31.6849C 231.296,34.0042 232.044,37.4432 232.498,42.0016C 232.926,46.6136 233.589,50.836 234.488,54.669C 235.387,58.5018 237.039,60.9614 239.443,62.0477C 241.072,62.7955 241.887,63.6724 241.887,64.6785C 241.887,65.6579 241.208,66.6618 239.85,67.6901C 238.492,68.7184 237.248,69.2326 236.117,69.2326C 233.856,69.2326 231.837,67.8793 230.061,65.1727C 228.285,62.4661 226.943,56.6077 226.034,47.5975C 225.643,43.9737 225.264,41.4029 224.899,39.8848C 224.534,38.3669 223.96,37.6078 223.176,37.6078C 222.01,37.6078 220.623,38.743 219.016,41.0134C 217.409,43.2838 214.816,47.8957 211.237,54.8492C 208.441,60.2625 206.322,63.8705 204.88,65.6735C 203.438,67.4764 202.044,68.3779 200.7,68.3779C 199.498,68.3779 198.423,67.8882 197.475,66.9089C 196.526,65.9295 195.925,64.7542 195.672,63.3831C 195.418,62.012 195.153,58.6331 194.877,53.2466C 194.459,44.2899 193.693,39.077 192.58,37.6078 Z "/>
		<path fill="#000000" fill-opacity="1" stroke-width="0.2" stroke-linejoin="round" d="M 310.118,39.3173C 308.693,39.3173 307.137,40.2632 305.45,42.1553C 303.763,44.0472 301.197,48.2874 297.751,54.8759C 293.086,63.7259 290.072,68.763 288.71,69.9871C 287.347,71.2114 286.217,71.8235 285.317,71.8235C 282.005,71.8235 280.349,70.2387 280.349,67.0692C 280.349,65.7336 280.607,63.8416 281.124,61.3932C 282.887,52.9885 283.768,44.085 283.768,34.6832C 283.768,33.5969 284.207,32.3882 285.084,31.0572C 285.961,29.7261 286.791,29.0606 287.574,29.0606C 288.981,29.0606 289.981,29.6193 290.573,30.7366C 291.165,31.8541 291.461,33.7615 291.461,36.4593C 291.461,39.2728 290.606,45.06 288.897,53.8209C 288.327,56.7144 288.042,58.553 288.042,59.3365C 288.042,59.7817 288.153,60.0042 288.376,60.0042C 288.794,60.0042 290.74,56.6789 294.212,50.0281C 297.64,43.2615 300.642,38.5026 303.22,35.7515C 305.797,33.0003 308.635,31.6248 311.734,31.6248C 314.2,31.6248 316.208,32.7466 317.757,34.9903C 319.306,37.2339 320.437,41.3294 321.149,47.2769C 321.915,54.0435 322.607,58.2547 323.226,59.9108C 323.845,61.5668 324.822,62.3948 326.157,62.3948C 327.012,62.3948 328.085,62.0877 329.376,61.4733C 329.589,61.5179 329.754,61.5401 329.87,61.5401C 331.045,61.5401 331.633,62.2034 331.633,63.5301C 331.633,64.7053 330.825,65.9495 329.209,67.2628C 327.593,68.576 325.65,69.2326 323.379,69.2326C 321.056,69.2326 319.257,68.3 317.984,66.4348C 316.711,64.5695 315.7,59.5903 314.952,51.4971C 314.187,43.3773 312.575,39.3173 310.118,39.3173 Z "/>
		<path fill="#000000" fill-opacity="1" stroke-width="0.2" stroke-linejoin="round" d="M 366.677,56.7724C 366.677,59.5413 364.188,62.8801 359.211,66.7886C 354.234,70.6972 349.101,72.6516 343.813,72.6516C 339.379,72.6516 335.955,71.3472 333.543,68.7385C 331.13,66.1298 329.923,62.4927 329.923,57.8275C 329.923,49.9747 332.586,42.5047 337.91,35.4177C 343.234,28.3306 349.052,24.7869 355.365,24.7869C 357.439,24.7869 359.131,25.4615 360.44,26.8104C 361.749,28.1592 362.403,29.7818 362.403,31.6783C 362.403,35.9162 360.348,39.9739 356.24,43.8514C 352.131,47.7288 346.631,51.5372 339.739,55.2767C 338.324,56.0245 337.616,56.9949 337.616,58.188C 337.616,60.494 338.268,62.3414 339.572,63.7303C 340.877,65.1192 342.807,65.8138 345.362,65.8138C 351.202,65.8138 357.163,62.5596 363.244,56.0512C 364.161,55.1519 364.86,54.7023 365.341,54.7023C 366.231,54.7023 366.677,55.3924 366.677,56.7724 Z M 338.284,50.1483C 349.805,43.1502 355.565,37.5233 355.565,33.2674C 355.565,31.6026 354.831,30.7701 353.362,30.7701C 350.86,30.7701 348.04,32.6464 344.901,36.3992C 341.763,40.152 339.557,44.735 338.284,50.1483 Z "/>
		<path fill="#000000" fill-opacity="1" stroke-width="0.2" stroke-linejoin="round" d="M 399.77,56.3316C 394.571,60.8456 390.003,64.1243 386.068,66.1677C 382.133,68.211 379.119,69.2326 377.027,69.2326C 374.231,69.2326 372.092,68.0662 370.609,65.7336C 369.127,63.4009 368.386,60.6765 368.386,57.5604C 368.386,53.2066 369.285,47.8267 371.084,41.4207C 372.882,35.0147 374.22,31.2108 375.097,30.0089C 375.974,28.8069 377.374,28.2059 379.297,28.2059C 380.107,28.2059 380.771,28.6734 381.287,29.6082C 381.803,30.543 382.062,31.607 382.062,32.8001C 382.062,33.5123 381.723,34.4338 381.047,35.5645C 379.444,38.2355 378.605,39.7134 378.529,39.9984C 378.453,40.2833 377.884,41.9927 376.82,45.1268C 375.756,48.2608 375.224,51.2078 375.224,53.9678C 375.224,54.9294 375.455,56.4318 375.918,58.4752C 376.381,60.5185 377.343,61.5401 378.803,61.5401C 380.352,61.5401 382.26,61.0705 384.526,60.1312C 386.791,59.1918 389.342,57.6561 392.178,55.5237C 395.014,53.3913 396.923,51.6663 397.907,50.3486C 398.891,49.0308 399.588,47.5307 399.997,45.848C 400.407,44.1652 400.696,40.5192 400.865,34.9102C 401.035,29.3011 402.392,26.4964 404.939,26.4964C 406.452,26.4964 407.434,26.897 407.883,27.6984C 408.333,28.4997 408.558,30.0222 408.558,32.2658C 408.558,34.1266 408.447,36.446 408.224,39.2238C 407.948,42.7407 407.774,45.2425 407.703,46.7293C 407.311,54.4575 406.314,62.2213 404.712,70.0206C 403.109,77.8199 400.776,84.3394 397.714,89.579C 394.651,94.8187 390.431,97.4385 385.053,97.4385C 379.586,97.4385 374.73,95.9517 370.483,92.9778C 366.236,90.0042 364.112,87.4846 364.112,85.419C 364.112,84.4664 364.328,83.5247 364.76,82.5943C 365.192,81.6639 365.742,81.1988 366.409,81.1988C 366.748,81.1988 367.113,81.4703 367.504,82.0135C 371.119,87.7383 376.808,90.6006 384.572,90.6006C 388.579,90.6006 391.942,87.0461 394.662,79.9367C 397.382,72.8273 398.88,66.1609 399.156,59.9376C 399.263,58.7355 399.468,57.5336 399.77,56.3316 Z "/>
	</g>
</svg>
