<?xml version="1.0" encoding="utf-8"?>
<!DOCTYPE svg PUBLIC "-//W3C//DTD SVG 1.1//EN" "http://www.w3.org/Graphics/SVG/1.1/DTD/svg11.dtd">
<svg xmlns="http://www.w3.org/2000/svg" xmlns:xlink="http://www.w3.org/1999/xlink" version="1.1" baseProfile="full" width="1063.72" height="647.676" viewBox="0 0 1063.72 647.68" enable-background="new 0 0 1063.72 647.68" xml:space="preserve">
	<radialGradient id="SVGID_Fill1_" cx="283.853" cy="261.912" r="220.54" gradientUnits="userSpaceOnUse" gradientTransform="rotate(44.933075 283.853027 261.911621)">
		<stop offset="0.88787" stop-color="#ADF8FF" stop-opacity="0.388235"/>
		<stop offset="0.924567" stop-color="#E2FAFF" stop-opacity="0.376471"/>
		<stop offset="1" stop-color="#88DAFF" stop-opacity="0.0509804"/>
	</radialGradient>
	<ellipse fill="url(#SVGID_Fill1_)" stroke-linejoin="round" cx="286.15" cy="264.903" rx="221.672" ry="221.155"/>
	<ellipse fill="#56B5C4" fill-opacity="1" stroke-linejoin="round" stroke="#006A6E" stroke-opacity="1" cx="287.327" cy="257.973" rx="178.973" ry="178.555"/>
	<path fill="#99C21D" fill-opacity="1" stroke-linejoin="round" stroke="#8DD7FA" stroke-opacity="1" d="M 234.345,94.0195C 234.345,94.0186 177.607,115.713 182.197,120.719C 186.786,125.725 201.387,114.461 202.639,121.136C 203.891,127.811 199.301,187.886 193.461,181.628C 187.62,175.37 174.27,175.788 182.197,189.137C 190.124,202.486 198.05,235.862 206.811,245.04C 215.572,254.218 233.927,254.636 234.762,258.807C 235.597,262.979 238.517,268.402 241.854,270.071C 245.192,271.74 252.283,291.765 256.873,288.844C 261.462,285.924 248.529,275.494 252.284,269.654C 256.039,263.813 248.529,261.728 245.192,262.979C 241.854,264.23 246.86,245.457 249.781,245.457C 252.701,245.457 237.265,243.371 232.676,247.96C 228.087,252.549 215.154,212.917 231.842,215.002C 248.529,217.088 236.848,222.929 243.94,221.26C 251.032,219.591 251.032,206.242 254.787,215.837C 258.542,225.432 261.879,230.021 259.793,234.193C 257.707,238.365 269.805,241.703 272.309,234.193C 274.812,226.684 261.044,218.34 271.892,211.665C 282.739,204.99 297.339,191.641 300.26,194.561C 303.181,197.48 302.346,176.622 306.518,180.376C 310.69,184.131 312.775,189.138 317.365,185.8C 321.954,182.462 329.88,178.291 322.371,176.204C 314.862,174.118 305.683,166.609 313.61,165.774C 321.537,164.94 328.211,172.033 331.132,166.192C 334.052,160.351 325.291,159.1 323.205,150.339C 321.119,141.578 319.033,137.824 321.954,136.989C 324.874,136.154 324.457,132.4 322.371,126.977C 320.285,121.553 325.291,121.554 326.96,120.719C 328.629,119.884 309.021,106.952 305.267,106.534C 301.512,106.117 300.26,105.7 304.849,112.792C 309.438,119.884 302.763,124.474 299.843,124.474C 296.923,124.474 306.935,121.554 311.524,126.977C 316.113,132.4 320.285,138.241 316.531,141.578C 312.776,144.916 308.604,152.008 308.187,146.584C 307.77,141.161 308.604,131.148 305.684,131.148C 302.763,131.148 292.751,139.075 292.751,139.075C 292.751,139.075 292.75,143.664 292.334,145.75C 291.917,147.836 291.916,149.505 288.579,152.008C 285.241,154.511 285.241,162.854 285.241,162.854L 284.407,169.529C 284.407,169.529 281.904,157.849 280.653,149.922C 279.401,141.995 266.051,140.744 263.965,140.744C 261.879,140.744 270.223,123.64 273.561,124.891C 276.898,126.142 287.745,127.811 287.745,127.811C 287.745,127.811 289.413,119.885 296.088,117.381C 302.763,114.878 302.346,110.29 300.677,109.455C 299.009,108.62 298.591,104.449 300.677,104.031C 302.763,103.614 318.616,95.688 321.537,99.8594C 324.457,104.031 331.966,119.468 336.138,121.97C 340.31,124.474 337.807,133.652 344.482,138.24C 351.157,142.83 351.573,147.002 353.243,147.001C 354.911,147.001 354.077,127.394 359.083,129.063C 364.089,130.731 369.513,125.726 365.758,121.553C 362.003,117.381 357.414,101.111 346.151,99.0254C 334.887,96.9395 314.444,88.5957 299.009,88.1782C 283.573,87.7612 283.573,98.6084 283.156,100.276C 282.739,101.945 275.229,109.038 273.978,104.031C 272.726,99.0254 257.707,104.031 257.707,104.031L 249.364,106.952L 241.437,96.522L 234.345,94.0195 Z "/>
	<path fill="#99C21D" fill-opacity="1" stroke-linejoin="round" stroke="#8DD7FA" stroke-opacity="1" d="M 332.332,163.847C 333.931,165.308 334.314,173.338 337.13,168.228C 339.946,163.117 351.573,169.53 350.323,165.358C 349.071,161.186 331.081,165.098 332.332,163.847 Z "/>
	<path fill="#99C21D" fill-opacity="1" stroke-linejoin="round" stroke="#8DD7FA" stroke-opacity="1" d="M 261.879,248.378C 261.879,248.377 276.063,253.802 279.401,258.808C 282.739,263.813 287.327,262.979 286.493,259.642C 285.659,256.304 278.984,247.96 278.984,247.96L 262.714,242.119L 261.879,248.378 Z "/>
	<path fill="#99C21D" fill-opacity="1" stroke-linejoin="round" stroke="#8DD7FA" stroke-opacity="1" d="M 288.579,265.065C 288.579,265.064 291.081,270.489 293.585,270.071C 296.088,269.654 297.339,266.316 299.009,266.733C 300.677,267.15 299.843,261.31 299.843,261.31L 290.248,261.31L 288.579,265.065 Z "/>
	<path fill="#99C21D" fill-opacity="1" stroke-linejoin="round" stroke="#8DD7FA" stroke-opacity="1" d="M 278.566,268.402L 282.738,271.322L 283.156,267.568L 280.235,264.647L 278.566,268.402 Z "/>
	<path fill="#99C21D" fill-opacity="1" stroke-linejoin="round" stroke="#8DD7FA" stroke-opacity="1" d="M 263.13,288.01C 263.131,288.01 271.891,293.434 268.554,299.691C 265.217,305.949 252.283,316.796 251.867,323.054C 251.449,329.311 252.701,343.496 258.125,349.336C 263.548,355.177 276.48,363.104 272.726,375.619C 268.971,388.134 261.879,398.146 259.793,402.318C 257.707,406.49 258.959,413.165 258.959,413.165L 254.37,421.926L 260.21,431.104L 272.309,414.834L 278.567,414.834L 283.573,401.066L 293.585,402.318L 321.119,384.379C 321.119,384.379 331.966,388.552 335.304,378.539C 338.641,368.526 341.144,356.846 347.402,354.759C 353.66,352.673 357.832,345.164 357.832,345.164L 335.721,328.477L 338.224,322.636L 325.291,327.642C 325.291,327.642 329.045,315.127 326.125,313.041C 323.205,310.955 320.702,303.863 320.285,302.194C 319.868,300.525 303.598,284.672 303.598,284.672L 294.419,291.347L 285.241,280.083C 285.241,280.083 275.646,273.826 275.229,281.752C 274.812,289.679 273.978,287.593 273.978,287.593L 263.13,288.01 Z "/>
	<path fill="#99C21D" fill-opacity="1" stroke-linejoin="round" stroke="#8DD7FA" stroke-opacity="1" d="M 369.513,157.432C 369.513,157.431 373.267,166.192 377.022,166.609C 380.777,167.026 383.28,163.689 382.863,162.02C 382.446,160.351 372.434,154.928 372.434,154.928L 369.513,157.432 Z "/>
	<path fill="#99C21D" fill-opacity="1" stroke-linejoin="round" stroke="#8DD7FA" stroke-opacity="1" d="M 378.691,134.069C 378.691,134.068 380.776,143.248 384.948,144.916C 389.121,146.584 394.127,141.578 394.127,141.578L 379.943,131.148L 378.691,134.069 Z "/>
	<path fill="#99C21D" fill-opacity="1" stroke-linejoin="round" stroke="#8DD7FA" stroke-opacity="1" d="M 407.894,186.217C 409.563,186.217 415.403,184.131 415.403,184.131L 419.992,187.885L 425.416,184.965L 416.238,165.357L 422.913,154.928L 409.146,143.664L 404.14,156.18L 408.312,164.94C 408.312,164.94 410.814,171.616 407.477,173.284C 404.14,174.953 407.06,186.217 407.894,186.217 Z "/>
	<path fill="#99C21D" fill-opacity="1" stroke-linejoin="round" d="M 401.636,156.598C 401.636,156.598 405.807,162.855 404.556,164.941C 403.305,167.026 400.385,169.947 400.385,169.947"/>
	<path fill="#99C21D" fill-opacity="1" stroke-linejoin="round" stroke="#8DD7FA" stroke-opacity="1" d="M 415.82,138.241C 415.874,137.271 415.82,140.328 422.912,149.922C 430.005,159.518 425.415,168.696 426.25,172.033C 427.084,175.37 431.256,188.72 431.256,188.72L 437.097,205.408L 426.667,220.426L 435.845,224.181C 435.845,224.181 442.52,230.439 434.177,229.604C 425.833,228.77 424.998,222.93 423.33,222.93C 421.661,222.93 417.489,232.107 417.489,232.107L 427.919,252.55L 442.52,250.046L 450.03,242.12C 450.03,242.12 455.035,235.862 456.287,238.782C 457.539,241.703 461.293,250.464 461.293,250.464C 461.293,250.464 464.631,235.028 459.208,219.592C 453.784,204.156 442.52,172.45 437.514,164.523C 432.508,156.597 422.496,140.326 415.82,138.241 Z "/>
	<path fill="#99C21D" fill-opacity="1" stroke-linejoin="round" stroke="#8DD7FA" stroke-opacity="1" d="M 453.367,259.225C 447.109,255.47 439.182,256.722 435.845,259.225C 432.508,261.728 427.918,260.477 427.919,267.151C 427.919,273.826 426.667,279.25 428.753,280.918C 430.839,282.587 437.096,282.17 437.097,283.839C 437.097,285.507 432.925,291.348 426.667,293.434C 420.409,295.52 415.403,304.281 417.072,305.115C 418.741,305.949 431.673,302.612 433.342,303.029C 435.011,303.446 427.084,310.121 421.661,315.962C 416.238,321.802 417.489,331.398 418.741,333.483C 419.992,335.569 426.25,338.073 424.581,344.748C 422.913,351.422 419.157,360.601 417.072,362.687C 414.986,364.772 407.894,378.957 404.557,381.46C 401.219,383.963 391.207,393.558 391.207,393.558C 391.207,393.558 419.157,380.208 433.759,352.674C 448.361,325.14 462.962,279.25 462.545,259.225C 462.128,239.2 456.287,260.477 455.036,250.881C 453.784,241.286 454.201,258.808 453.367,259.225 Z "/>
	<path fill="#FFFFFF" fill-opacity="1" stroke-linejoin="round" stroke="#B4B4B4" stroke-opacity="1" d="M 200.818,210.866C 200.933,210.812 187.42,212.621 186.027,218.246C 184.633,223.871 184.365,234.819 192.863,237.109C 201.36,239.4 218.732,239.012 235.264,236.415C 252.043,233.778 267.31,230.064 276.801,226.845C 283.869,224.448 297.245,216.504 285.199,206.558C 273.154,196.613 249.983,202.102 248.59,207.727C 247.197,213.352 255.07,200.175 242.949,195.903C 230.828,191.632 226.743,205.872 226.743,205.872C 226.743,205.872 232.36,189.444 219.791,186.608C 207.221,183.772 207.47,195.003 203.985,196.459C 200.499,197.917 196.069,203.563 200.818,210.866 Z "/>
	<path fill="#FFFFFF" fill-opacity="1" stroke-linejoin="round" stroke="#B4B4B4" stroke-opacity="1" d="M 164.28,347.779C 165.945,347.698 157.423,329.342 168.452,327.337C 177.631,325.667 186.808,336.933 183.471,340.269C 180.133,343.607 190.146,330.257 194.318,336.932C 198.49,343.607 190.98,348.195 190.98,348.195C 190.98,348.195 203.495,349.031 201.41,354.871C 199.324,360.711 165.531,366.552 160.943,361.546C 156.354,356.539 152.183,349.029 164.28,347.779 Z "/>
	<path fill="#FFFFFF" fill-opacity="1" stroke-linejoin="round" stroke="#B4B4B4" stroke-opacity="1" d="M 296.161,355.06C 298.972,358.113 316.186,356.312 327.033,350.471C 337.88,344.63 360.825,364.238 369.169,336.703C 377.513,309.169 352.064,330.029 358.739,336.286C 365.415,342.543 357.07,317.931 344.138,323.353C 331.206,328.776 334.959,320.851 334.959,320.851C 334.959,320.851 330.37,302.077 317.021,311.672C 303.671,321.267 303.253,335.035 308.26,337.955C 313.266,340.875 274.885,336.703 296.161,355.06 Z "/>
	<path fill="#FFFFFF" fill-opacity="1" stroke-linejoin="round" stroke="#B4B4B4" stroke-opacity="1" d="M 377.459,160.955C 378.009,161.35 358.686,153.445 358.269,164.292C 357.853,175.139 356.183,177.225 373.288,177.225C 390.393,177.225 435.031,170.967 437.535,166.795C 440.038,162.623 443.375,143.85 435.031,146.353C 426.688,148.855 427.939,152.193 427.939,152.193C 427.939,152.193 428.356,139.261 422.099,143.015C 415.842,146.769 415.841,149.273 415.841,149.273C 415.841,149.273 423.35,126.328 401.657,121.739C 379.963,117.15 388.724,140.513 392.896,145.101C 397.068,149.69 389.141,138.844 379.963,146.77C 370.785,154.696 376.209,155.947 377.459,160.955 Z "/>
	<path fill="#FFFFFF" fill-opacity="1" stroke-linejoin="round" stroke="#B4B4B4" stroke-opacity="1" d="M 331.835,273.569C 333.519,274.372 331.417,249.373 345.602,251.041C 359.787,252.71 358.535,261.888 358.535,261.888C 358.535,261.888 371.468,256.465 374.806,263.14C 378.143,269.814 375.64,272.317 375.64,272.317C 375.64,272.317 383.566,267.729 386.487,272.734C 384.401,296.514 348.106,287.753 348.106,287.753C 347.41,289.144 340.179,289.839 331.418,294.845C 322.657,299.852 324.743,300.269 309.725,293.594C 294.706,286.919 314.314,265.642 331.835,273.569 Z "/>
	<path fill="#E2E2E2" fill-opacity="1" stroke-linejoin="round" d="M 663.722,530.177C 841.417,530.177 985.472,542.824 985.472,558.427C 985.472,574.029 841.419,586.677 663.722,586.677C 486.024,586.677 341.972,574.029 341.972,558.427C 341.972,542.824 486.026,530.177 663.722,530.177 Z "/>
	<rect x="472.429" y="537.918" fill="#5C637D" fill-opacity="1" stroke-linejoin="round" width="326.048" height="18.3569"/>
	<rect x="456.223" y="492.959" fill="#454056" fill-opacity="1" stroke-linejoin="round" width="360.396" height="46.1792"/>
	<rect x="443.136" y="429.14" fill="#5C647B" fill-opacity="1" stroke-linejoin="round" width="385.313" height="64.6084"/>
	<path fill="#454056" fill-opacity="1" stroke-linejoin="round" d="M 436.338,415.346L 837.22,415.346C 841.049,415.346 844.154,418.451 844.154,422.279L 844.154,422.279C 844.154,426.108 841.049,429.212 837.22,429.212L 436.338,429.212C 432.509,429.212 429.405,426.108 429.405,422.279L 429.405,422.279C 429.405,418.451 432.509,415.346 436.338,415.346 Z "/>
	<path fill="#F9C69F" fill-opacity="1" stroke-linejoin="round" d="M 621.037,347.467L 602.376,350.479L 604.581,354.404L 628.405,355.641"/>
	<linearGradient id="SVGID_Fill2_" gradientUnits="objectBoundingBox" x1="0.579249" y1="0.90855" x2="1.5291" y2="0.90855" gradientTransform="rotate(-90.000000 0.579249 0.908550)">
		<stop offset="0" stop-color="#B6B6B6" stop-opacity="1"/>
		<stop offset="0.64526" stop-color="#DADADA" stop-opacity="1"/>
		<stop offset="1" stop-color="#FFFFFF" stop-opacity="1"/>
	</linearGradient>
	<path fill="url(#SVGID_Fill2_)" stroke-linejoin="round" d="M 512.136,410.154L 720.115,410.154C 722.325,410.154 724.115,411.945 724.115,414.154L 724.115,415.103C 724.115,417.312 722.325,419.103 720.115,419.103L 512.136,419.103C 509.927,419.103 508.136,417.312 508.136,415.103L 508.136,414.154C 508.136,411.945 509.927,410.154 512.136,410.154 Z "/>
	<path fill="#F9C69F" fill-opacity="1" stroke-linejoin="round" d="M 753.174,318.694C 751.851,317.621 745.537,315.898 743.924,317.78C 742.311,319.662 744.031,323.965 741.611,325.578C 739.191,327.191 717.787,344.886 716.442,344.724C 715.098,344.563 714.453,343.486 714.453,343.486L 708.429,351.931C 708.429,351.931 711.817,359.515 715.636,359.46C 717.967,359.427 732.689,348.467 743.801,339.937C 746.375,337.96 747.77,333.134 748.217,330.239C 749.002,325.162 747.339,322.029 747.339,322.029C 747.339,322.028 750.592,322.567 751.238,322.271C 751.883,321.975 754.761,319.877 753.174,318.694 Z "/>
	<path fill="#FFFFFF" fill-opacity="1" stroke-linejoin="round" d="M 766.198,330.161L 771.89,359.078C 772.808,363.741 768.94,364.046 764.278,364.964L 757.523,366.294C 752.861,367.212 749.168,368.394 748.25,363.731L 742.559,334.813C 741.788,330.898 744.635,331.307 748.062,329.64L 745.13,314.743C 744.947,313.811 745.554,312.906 746.486,312.722L 753.346,311.372C 754.279,311.189 755.184,311.796 755.367,312.729L 758.264,327.447C 762.425,327.287 765.369,325.947 766.198,330.161 Z "/>
	<path fill="#53A0E3" fill-opacity="1" stroke-linejoin="round" d="M 744.633,311.771L 754.701,309.79C 755.243,309.683 755.769,310.036 755.875,310.578L 756.175,312.099C 756.281,312.64 755.928,313.166 755.387,313.272L 745.318,315.254C 744.776,315.361 744.251,315.008 744.144,314.466L 743.845,312.945C 743.738,312.404 744.091,311.878 744.633,311.771 Z "/>
	<path fill="#53A0E3" fill-opacity="1" stroke-linejoin="round" d="M 743.611,340.859L 767.435,336.171L 771.309,355.851L 747.485,360.54L 743.611,340.859 Z "/>
	<path fill="#F9C69F" fill-opacity="1" stroke-linejoin="round" d="M 752.367,316.436C 752.206,317.107 751.937,317.673 752.986,318.022C 754.034,318.373 754.223,320.066 754.142,321.652C 754.061,323.239 755.89,325.9 757.449,326.869C 759.009,327.837 759.036,327.675 761.402,326.546C 763.769,325.417 762.37,322.298 760.676,323.454C 760.297,323.712 761.241,322.89 761.241,322.89C 762.316,322.244 760.327,319.287 758.767,320.2C 757.208,321.113 759.224,319.878 759.224,319.878C 759.224,319.878 760.596,319.151 759.117,317.619C 758.108,316.573 757.127,317.619 757.127,317.619C 757.127,317.619 760,314.383 755.97,314.5C 752.26,314.607 752.744,315.011 752.529,315.306C 752.313,315.602 752.421,316.06 752.367,316.436 Z "/>
	<path fill="#D4D4D4" fill-opacity="1" stroke-linejoin="round" d="M 619.836,346.857L 632.098,355.893L 649.092,336.746L 653.18,362.561L 687.168,360.839L 690.825,335.24L 707.82,353.525L 717.07,342.555L 688.244,312.653C 688.244,312.653 676.627,320.183 669.313,319.967C 662,319.752 653.18,312.654 650.168,313.943C 647.156,315.234 619.836,346.642 619.836,346.857 Z "/>
	<path fill="#FFFFFF" fill-opacity="1" stroke-linejoin="round" d="M 669.815,302.292C 678.727,302.292 685.949,308.985 685.949,317.243C 685.949,325.5 678.726,332.193 669.815,332.193C 660.905,332.193 653.682,325.5 653.682,317.243C 653.682,308.985 660.904,302.292 669.815,302.292 Z "/>
	<path fill="#FF735C" fill-opacity="1" stroke-linejoin="round" d="M 640.272,396.979C 640.273,396.979 653.394,348.337 653.18,347.503C 651.029,339.113 651.889,313.083 651.889,313.083L 656.191,315.02L 657.697,334.38C 657.697,334.38 661.139,332.875 669.098,332.875C 677.058,332.875 682.651,333.734 682.651,333.734L 684.372,314.374L 688.459,314.589C 688.459,314.589 688.674,344.921 686.738,352.45C 684.802,359.979 703.518,394.183 703.518,394.183L 640.272,396.979 Z "/>
	<path fill="#E8E8E8" fill-opacity="1" stroke-linejoin="round" d="M 555.484,405.493L 570.826,405.493L 570.826,397.078L 535.524,397.078C 528.723,397.078 523.209,391.564 523.209,384.764L 523.209,333.146C 523.209,326.345 528.723,320.831 535.524,320.831L 624.393,320.831C 631.194,320.831 636.708,326.345 636.708,333.146L 636.708,384.764C 636.708,391.564 631.194,397.078 624.393,397.078L 588.476,397.078L 588.476,405.493L 604.844,405.493C 607.819,405.493 610.232,407.905 610.232,410.881C 610.232,413.857 607.819,416.269 604.844,416.269L 555.484,416.269C 552.508,416.269 550.096,413.857 550.096,410.881C 550.096,407.905 552.508,405.493 555.484,405.493 Z "/>
	<path fill="#FFFFFF" fill-opacity="1" stroke-linejoin="round" d="M 533.137,329.143L 626.677,329.143C 627.229,329.143 627.677,329.59 627.677,330.142L 627.677,388.997C 627.677,389.549 627.229,389.998 626.677,389.998L 533.137,389.998C 532.585,389.998 532.137,389.549 532.137,388.997L 532.137,330.142C 532.137,329.59 532.585,329.143 533.137,329.143 Z "/>
	<linearGradient id="SVGID_Fill3_" gradientUnits="objectBoundingBox" x1="0.424884" y1="0.9043" x2="1.21157" y2="0.9043" gradientTransform="rotate(-90.000000 0.424884 0.904300)">
		<stop offset="0" stop-color="#242424" stop-opacity="1"/>
		<stop offset="0.64526" stop-color="#616161" stop-opacity="1"/>
		<stop offset="1" stop-color="#9E9E9E" stop-opacity="1"/>
	</linearGradient>
	<path fill="url(#SVGID_Fill3_)" stroke-linejoin="round" d="M 644.81,385.363L 683.463,385.363C 683.538,383.767 684.856,382.495 686.472,382.495L 706.693,382.495C 708.308,382.495 709.626,383.767 709.701,385.363L 712.071,385.363C 714.447,385.363 716.373,387.289 716.373,389.666L 716.373,406.158C 716.373,408.535 714.447,410.46 712.071,410.46L 644.81,410.46C 642.434,410.46 640.508,408.535 640.508,406.158L 640.508,389.666C 640.508,387.289 642.434,385.363 644.81,385.363 Z "/>
	<radialGradient id="SVGID_Fill4_" cx="662.369" cy="386.761" r="35.6518" gradientUnits="userSpaceOnUse" gradientTransform="rotate(-90.000000 662.369141 386.761230)">
		<stop offset="0" stop-color="#FFFFFF" stop-opacity="1"/>
		<stop offset="1" stop-color="#DADADA" stop-opacity="1"/>
	</radialGradient>
	<path fill="url(#SVGID_Fill4_)" stroke-linejoin="round" d="M 644.094,361.771L 678.871,361.771C 681.247,361.771 683.173,363.696 683.173,366.072L 683.173,374.964C 683.173,377.341 681.247,379.267 678.871,379.267L 664.115,379.267C 664.511,379.823 664.745,380.505 664.745,381.24L 664.745,393.068C 664.745,394.95 663.479,394.595 661.598,394.595C 659.717,394.595 657.933,394.95 657.933,393.068L 657.932,381.24C 657.932,380.505 658.166,379.823 658.562,379.267L 644.094,379.267C 641.718,379.267 639.791,377.341 639.791,374.964L 639.791,366.072C 639.791,363.696 641.718,361.771 644.094,361.771 Z "/>
	<path fill="#D0D0D0" fill-opacity="1" stroke-linejoin="round" d="M 646.862,391.496L 646.862,391.496C 646.997,391.496 647.107,391.604 647.107,391.74L 647.107,397.274C 647.107,397.41 646.997,397.519 646.862,397.519L 646.862,397.519C 646.727,397.519 646.617,397.41 646.617,397.274L 646.617,391.74C 646.617,391.604 646.727,391.496 646.862,391.496 Z "/>
	<path fill="#D0D0D0" fill-opacity="1" stroke-linejoin="round" d="M 648.446,391.496L 648.446,391.496C 648.581,391.496 648.69,391.604 648.69,391.74L 648.69,397.274C 648.69,397.41 648.581,397.519 648.446,397.519L 648.446,397.519C 648.311,397.519 648.201,397.41 648.201,397.274L 648.201,391.74C 648.201,391.604 648.311,391.496 648.446,391.496 Z "/>
	<path fill="#D0D0D0" fill-opacity="1" stroke-linejoin="round" d="M 650.03,391.496L 650.03,391.496C 650.165,391.496 650.274,391.604 650.274,391.74L 650.274,397.274C 650.274,397.41 650.165,397.519 650.03,397.519L 650.03,397.519C 649.895,397.519 649.785,397.41 649.785,397.274L 649.785,391.74C 649.785,391.604 649.895,391.496 650.03,391.496 Z "/>
	<path fill="#D0D0D0" fill-opacity="1" stroke-linejoin="round" d="M 651.613,391.496L 651.613,391.496C 651.749,391.496 651.858,391.604 651.858,391.74L 651.858,397.274C 651.858,397.41 651.749,397.519 651.613,397.519L 651.613,397.519C 651.479,397.519 651.369,397.41 651.369,397.274L 651.369,391.74C 651.369,391.604 651.479,391.496 651.613,391.496 Z "/>
	<path fill="#D0D0D0" fill-opacity="1" stroke-linejoin="round" d="M 653.197,391.496L 653.197,391.496C 653.332,391.496 653.442,391.604 653.442,391.74L 653.442,397.274C 653.442,397.41 653.332,397.519 653.197,397.519L 653.197,397.519C 653.062,397.519 652.953,397.41 652.953,397.274L 652.953,391.74C 652.953,391.604 653.062,391.496 653.197,391.496 Z "/>
	<path fill="#000000" fill-opacity="1" stroke-linejoin="round" d="M 644.636,364.747L 678.669,364.747C 679.221,364.747 679.669,365.195 679.669,365.747L 679.669,374.664C 679.669,375.216 679.221,375.664 678.669,375.664L 644.636,375.664C 644.084,375.664 643.636,375.216 643.636,374.664L 643.636,365.747C 643.636,365.195 644.084,364.747 644.636,364.747 Z "/>
	<g>
		<path fill="#00C800" fill-opacity="1" stroke-linejoin="round" d="M 649.458,372.17L 648.653,372.17L 649.829,367.195L 650.646,367.195L 649.458,372.17 Z "/>
		<path fill="#00C800" fill-opacity="1" stroke-linejoin="round" d="M 651.448,372.17L 650.643,372.17L 651.819,367.195L 652.635,367.195L 651.448,372.17 Z "/>
		<path fill="#00C800" fill-opacity="1" stroke-linejoin="round" d="M 655.95,370.749L 657.252,371.029C 657.143,371.39 656.909,371.67 656.55,371.871C 656.187,372.07 655.738,372.17 655.202,372.17C 654.494,372.17 653.936,372.013 653.529,371.697C 653.121,371.382 652.917,370.959 652.917,370.429C 652.917,369.92 653.107,369.501 653.487,369.175C 653.864,368.851 654.338,368.688 654.908,368.688C 655.389,368.688 655.761,368.783 656.023,368.972L 656.023,368.759L 657.089,368.759L 657.089,370.181L 656.023,370.181C 655.891,369.802 655.668,369.612 655.352,369.612C 655.139,369.612 654.975,369.694 654.859,369.858C 654.743,370.027 654.685,370.232 654.685,370.474C 654.685,370.734 654.748,370.941 654.873,371.092C 654.996,371.242 655.155,371.317 655.352,371.317C 655.677,371.317 655.876,371.128 655.95,370.749 Z "/>
		<path fill="#00C800" fill-opacity="1" stroke-linejoin="round" d="M 657.892,370.45L 659.136,370.374C 659.157,370.861 659.396,371.104 659.852,371.104C 660.05,371.104 660.198,371.052 660.294,370.947C 660.389,370.841 660.437,370.714 660.437,370.564C 660.437,370.185 660.175,369.985 659.652,369.967L 659.652,369.186C 659.813,369.186 659.965,369.137 660.108,369.04C 660.249,368.946 660.319,368.806 660.319,368.619C 660.319,368.468 660.273,368.347 660.181,368.254C 660.086,368.164 659.962,368.119 659.808,368.119C 659.478,368.119 659.3,368.309 659.275,368.688L 657.975,368.617C 658.002,368.136 658.189,367.777 658.535,367.54C 658.878,367.311 659.347,367.195 659.943,367.195C 660.576,367.195 661.051,367.32 661.367,367.571C 661.683,367.832 661.84,368.154 661.84,368.536C 661.84,368.765 661.773,368.968 661.64,369.146C 661.506,369.336 661.325,369.468 661.097,369.541C 661.385,369.602 661.61,369.731 661.771,369.929C 661.933,370.127 662.013,370.367 662.013,370.648C 662.013,371.098 661.822,371.452 661.439,371.71C 661.057,371.97 660.553,372.099 659.928,372.099C 659.299,372.099 658.806,371.963 658.448,371.69C 658.096,371.424 657.91,371.011 657.892,370.45 Z "/>
		<rect x="662.982" y="370.82" fill="#00C800" fill-opacity="1" stroke-linejoin="round" width="1.7312" height="1.2793"/>
		<path fill="#00C800" fill-opacity="1" stroke-linejoin="round" d="M 665.567,370.824L 666.846,370.749C 666.955,370.986 667.165,371.104 667.475,371.104C 667.659,371.104 667.814,371.055 667.942,370.957C 668.064,370.857 668.125,370.702 668.125,370.491C 668.125,370.285 668.064,370.134 667.942,370.037C 667.817,369.943 667.671,369.896 667.505,369.896C 667.251,369.896 667.038,369.991 666.866,370.181L 665.796,369.805L 665.945,367.267L 669.47,367.267L 669.47,368.557L 668.668,368.557L 668.555,368.262L 666.863,368.262L 666.821,369.186C 667.125,369.014 667.488,368.928 667.908,368.928C 668.422,368.928 668.847,369.064 669.184,369.339C 669.521,369.613 669.688,369.99 669.688,370.468C 669.688,370.935 669.511,371.323 669.155,371.634C 668.796,371.944 668.297,372.099 667.656,372.099C 667.093,372.099 666.627,371.985 666.26,371.757C 665.883,371.531 665.652,371.22 665.567,370.824 Z "/>
		<path fill="#00C800" fill-opacity="1" stroke-linejoin="round" d="M 671.403,369.683L 672.714,369.683L 672.714,368.333L 671.403,369.683 Z M 674.663,372.099L 672.128,372.099L 672.128,371.136L 672.714,371.136L 672.714,370.536L 670.671,370.536L 670.399,369.527L 672.665,367.195L 674.164,367.195L 674.164,369.683L 674.663,369.683L 674.663,370.536L 674.164,370.536L 674.164,371.136L 674.663,371.136L 674.663,372.099 Z "/>
	</g>
	<path fill="#F9C69F" fill-opacity="1" stroke-linejoin="round" d="M 663.932,296.912L 675.914,296.912C 676.467,296.912 676.914,297.36 676.914,297.912L 676.914,322.587C 676.914,323.14 676.467,323.587 675.914,323.587L 663.932,323.587C 663.38,323.587 662.932,323.14 662.932,322.587L 662.932,297.912C 662.932,297.36 663.38,296.912 663.932,296.912 Z "/>
	<path fill="#963218" fill-opacity="1" stroke-linejoin="round" d="M 653.574,307.454C 653.574,307.454 659.597,295.838 671.967,298.097C 684.336,300.355 687.778,307.884 687.778,307.884C 687.778,307.884 719.4,285.941 704.127,256.901C 688.854,227.86 674.01,230.549 668.417,230.119C 662.824,229.688 629.374,251.309 634.321,276.691C 639.269,302.076 653.574,307.562 653.574,307.454 Z "/>
	<path fill="#F9C69F" fill-opacity="1" stroke-linejoin="round" d="M 670.138,238.833C 683.266,238.833 693.909,252.726 693.909,269.863C 693.909,287.001 683.266,300.894 670.138,300.894C 657.01,300.894 646.367,287.001 646.367,269.863C 646.367,252.726 657.01,238.833 670.138,238.833 Z "/>
	<path fill="#BE4822" fill-opacity="1" stroke-linejoin="round" d="M 653.467,307.455C 653.467,307.454 622.489,274.326 668.632,254.32C 709.469,236.615 687.109,309.337 687.109,309.337C 687.109,309.337 720.798,286.05 705.525,257.01C 690.252,227.969 673.293,228.374 667.772,229.367C 652.522,232.109 628.704,252.762 633.652,278.145C 638.6,303.529 653.467,307.562 653.467,307.455 Z "/>
	<path fill="#FFFFFF" fill-opacity="1" stroke-linejoin="round" d="M 660.783,259.438C 663.868,259.438 666.369,261.938 666.369,265.024C 666.369,268.109 663.868,270.61 660.783,270.61C 657.698,270.61 655.197,268.109 655.197,265.024C 655.197,261.938 657.698,259.438 660.783,259.438 Z "/>
	<path fill="#FFFFFF" fill-opacity="1" stroke-linejoin="round" d="M 677.993,258.398C 681.079,258.398 683.58,260.899 683.58,263.984C 683.58,267.07 681.079,269.571 677.993,269.571C 674.908,269.571 672.407,267.07 672.407,263.984C 672.407,260.899 674.908,258.398 677.993,258.398 Z "/>
	<path fill="#000000" fill-opacity="1" stroke-linejoin="round" d="M 660.673,263.365C 661.778,263.365 662.673,264.26 662.673,265.365C 662.673,266.469 661.778,267.365 660.673,267.365C 659.568,267.365 658.673,266.469 658.673,265.365C 658.673,264.26 659.568,263.365 660.673,263.365 Z "/>
	<path fill="#000000" fill-opacity="1" stroke-linejoin="round" d="M 678.584,262.007C 679.688,262.007 680.584,262.902 680.584,264.007C 680.584,265.112 679.688,266.007 678.584,266.007C 677.479,266.007 676.584,265.112 676.584,264.007C 676.584,262.902 677.479,262.007 678.584,262.007 Z "/>
	<path fill="#FFFFFF" fill-opacity="1" stroke-linejoin="round" d="M 657.446,281.855C 657.407,281.871 665.835,283.255 670.031,283.254C 674.226,283.253 682.077,281.963 682.077,281.963C 682.077,281.963 677.344,294.763 669.6,294.117C 661.856,293.472 659.813,286.91 657.446,281.855 Z "/>
	<path fill="#FF735C" fill-opacity="1" stroke-linejoin="round" d="M 649.379,238.832L 670.353,239.908L 669.601,218.396C 669.601,218.396 656.586,225.28 648.842,225.709"/>
	<path fill="#F93334" fill-opacity="1" stroke-linejoin="round" d="M 691.166,239.046L 670.049,239.854L 669.618,218.557C 669.618,218.557 683.96,225.494 691.704,225.924"/>
	<path fill="#F9C69F" fill-opacity="1" stroke-linejoin="round" d="M 744.489,317.548L 745.833,322.334C 745.833,322.334 751.125,322.346 751.771,322.05C 752.417,321.754 755.294,319.656 753.707,318.474C 752.385,317.4 746.07,315.677 744.489,317.548 Z "/>
	<path fill="#000000" fill-opacity="1" stroke-linejoin="round" d="M 780.476,349.851C 780.328,349.941 783.156,351.814 783.156,353.822C 783.156,355.829 783.99,349.726 784.994,349.366C 785.998,349.008 781.193,350.71 780.476,349.851 Z "/>
	<path fill="#FF0000" fill-opacity="1" stroke-linejoin="round" d="M 783.407,352.808C 789.685,352.808 794.773,356.725 794.773,361.557C 794.773,366.388 789.684,370.305 783.407,370.305C 777.13,370.305 772.042,366.388 772.042,361.557C 772.042,356.725 777.13,352.808 783.407,352.808 Z "/>
	<path fill="#000000" fill-opacity="1" stroke-linejoin="round" d="M 784.384,355.103C 784.391,355.533 787.109,348.794 789.26,350.371C 791.412,351.947 784.098,345.637 784.384,355.103 Z "/>
	<path fill="#000000" fill-opacity="1" stroke-linejoin="round" d="M 776.855,350.658C 776.855,350.657 781.946,352.092 782.592,354.816C 783.237,357.541 782.305,347.358 776.855,350.658 Z "/>
	<path fill="#E6A565" fill-opacity="1" stroke-linejoin="round" d="M 740.348,362.991L 779.499,363.708L 779.499,417.2L 740.348,418.061L 740.348,362.991 Z "/>
	<path fill="#D69255" fill-opacity="1" stroke-linejoin="round" d="M 779.454,363.681L 788.436,363.681L 788.534,417.703L 779.212,417.416L 779.454,363.681 Z "/>
	<path fill="#E5A565" fill-opacity="1" stroke-linejoin="round" d="M 788.391,363.708L 788.534,417.847L 798.214,417.775L 797.784,363.78L 788.391,363.708 Z "/>
	<path fill="#00A854" fill-opacity="1" stroke-linejoin="round" d="M 607.923,355.953L 596.191,367.683C 596.016,367.859 595.726,367.859 595.55,367.683L 588.432,360.564C 588.257,360.39 588.257,360.101 588.432,359.923L 591.374,356.984C 591.55,356.808 591.838,356.808 592.013,356.984L 595.552,360.521C 595.728,360.697 596.016,360.697 596.192,360.521L 604.318,352.398C 604.494,352.222 604.783,352.22 604.962,352.396L 607.92,355.314C 608.098,355.49 608.098,355.776 607.923,355.953 Z M 610.131,348.167C 603.536,341.571 592.847,341.571 586.252,348.167C 579.658,354.761 579.658,365.451 586.252,372.044C 592.847,378.638 603.536,378.638 610.131,372.044C 616.723,365.451 616.725,354.761 610.131,348.167 Z "/>
	<path fill="#000000" fill-opacity="1" stroke-linejoin="round" d="M 560.521,357.32L 550.993,357.32L 550.993,360.496L 560.521,360.496L 560.521,363.671L 563.696,363.671L 566.872,363.671L 566.872,357.32L 563.696,357.32M 574.812,374.787L 570.048,374.787L 570.048,377.962L 577.987,377.962L 577.987,374.787L 577.987,371.611L 574.812,371.611M 547.817,357.32L 544.642,357.32L 544.642,360.496L 547.817,360.496M 543.054,357.32L 539.878,357.32L 539.878,360.496L 543.054,360.496M 560.521,341.441L 557.345,341.441L 557.345,347.792L 560.521,347.792M 560.521,350.968L 557.345,350.968L 557.345,354.144L 560.521,354.144M 573.224,357.32L 570.048,357.32L 570.048,360.496L 573.224,360.496M 574.812,365.259L 577.987,365.259L 577.987,357.32L 574.812,357.32M 566.872,374.787L 570.048,374.787L 570.048,371.611L 566.872,371.611M 558.933,377.962L 566.872,377.962L 566.872,374.787L 558.933,374.787M 574.812,370.023L 577.987,370.023L 577.987,366.847L 574.812,366.847M 568.46,365.259L 565.284,365.259L 558.933,365.259L 558.933,371.611L 565.284,371.611L 565.284,368.435L 571.636,368.435L 571.636,365.259L 571.636,362.083L 568.46,362.083M 541.466,376.375L 554.169,376.375L 554.169,363.671L 541.466,363.671M 539.878,362.083L 555.757,362.083L 555.757,377.962L 539.878,377.962M 543.054,374.787L 552.581,374.787L 552.581,365.259L 543.054,365.259M 576.399,341.441L 563.696,341.441L 563.696,354.144L 576.399,354.144M 577.987,355.732L 562.108,355.732L 562.108,339.853L 577.987,339.853M 574.812,343.029L 565.284,343.029L 565.284,352.556L 574.812,352.556M 554.169,341.441L 541.466,341.441L 541.466,354.144L 554.169,354.144M 555.757,355.732L 539.878,355.732L 539.878,339.853L 555.757,339.853M 552.581,352.556L 543.054,352.556L 543.054,343.029L 552.581,343.029L 552.581,352.556 Z "/>
	<path fill="#FFFFFF" fill-opacity="1" stroke-width="3" stroke-linejoin="round" d="M 585.398,493.108L 585.398,420.269C 585.398,417.291 587.637,414.877 590.398,414.877L 768.25,414.877C 771.011,414.877 773.25,417.291 773.25,420.269L 773.25,493.108"/>
	<path fill="#5C647B" fill-opacity="1" stroke-linejoin="round" d="M 680.071,443.113C 704.057,436.001 725.623,437.392 728.24,446.218C 730.857,455.044 713.534,467.964 689.548,475.076C 665.562,482.188 643.996,480.798 641.379,471.972C 638.762,463.146 656.085,450.225 680.071,443.113 Z "/>
	<g>
		<path fill="#FFFFFF" fill-opacity="1" stroke-linejoin="round" d="M 655.841,470.808L 656.505,472.688C 656.338,472.902 656.068,473.136 655.696,473.386C 655.302,473.648 654.906,473.849 654.509,473.99C 654.011,474.166 653.555,474.238 653.141,474.207C 652.719,474.175 652.367,474.056 652.085,473.849C 651.928,473.729 651.802,473.613 651.708,473.5C 651.613,473.388 651.526,473.255 651.446,473.101C 651.316,472.832 651.109,472.295 650.825,471.492L 650.458,470.453L 649.648,470.738L 648.938,468.73L 649.748,468.445L 649.402,467.468L 652.195,464.718L 653.094,467.261L 654.42,466.792L 655.13,468.8L 653.804,469.269L 654.221,470.447C 654.356,470.83 654.484,471.074 654.604,471.177C 654.719,471.282 654.89,471.294 655.116,471.215C 655.331,471.139 655.572,471.003 655.841,470.808 Z "/>
		<path fill="#FFFFFF" fill-opacity="1" stroke-linejoin="round" d="M 662.51,471.009L 657.434,472.804L 656.728,470.81L 657.559,470.516L 655.751,465.404L 654.92,465.697L 654.215,463.702L 658.392,462.225L 659.623,465.705C 660.323,464.855 661.103,464.278 661.961,463.975C 662.719,463.707 663.394,463.71 663.988,463.982C 664.585,464.259 665.077,464.946 665.464,466.042L 665.996,467.546L 666.741,467.283L 667.442,469.265L 663.351,470.712L 662.426,468.095C 662.144,467.299 661.922,466.816 661.758,466.646C 661.589,466.479 661.35,466.449 661.042,466.559C 660.72,466.673 660.429,466.902 660.168,467.247L 660.9,469.317L 661.799,469L 662.51,471.009 Z "/>
		<path fill="#FFFFFF" fill-opacity="1" stroke-linejoin="round" d="M 672.736,467.394L 668.187,469.002L 667.487,467.023L 668.14,466.792L 667.314,464.458L 666.662,464.689L 665.962,462.71L 669.961,461.296L 671.486,465.609L 672.036,465.415L 672.736,467.394 Z M 665.706,460.782C 665.583,460.437 665.663,460.095 665.944,459.759C 666.224,459.423 666.626,459.163 667.15,458.978C 667.687,458.787 668.158,458.744 668.563,458.847C 668.966,458.957 669.224,459.172 669.336,459.491C 669.459,459.838 669.388,460.172 669.123,460.492C 668.854,460.818 668.461,461.074 667.942,461.257C 667.414,461.444 666.941,461.505 666.525,461.441C 666.112,461.38 665.839,461.16 665.706,460.782 Z "/>
		<path fill="#FFFFFF" fill-opacity="1" stroke-linejoin="round" d="M 678.787,465.253L 673.777,467.025L 673.078,465.046L 673.896,464.757L 673.07,462.423L 672.252,462.712L 671.552,460.734L 675.65,459.285L 675.934,460.088C 676.518,459.179 677.27,458.562 678.19,458.236C 678.999,457.95 679.686,457.958 680.252,458.259C 680.815,458.564 681.271,459.21 681.62,460.197L 682.193,461.818L 682.944,461.553L 683.646,463.535L 679.615,464.96L 678.627,462.168C 678.412,461.56 678.218,461.175 678.044,461.017C 677.864,460.867 677.616,460.849 677.299,460.96C 677.008,461.063 676.734,461.285 676.477,461.623L 677.176,463.6L 678.088,463.277L 678.787,465.253 Z "/>
		<path fill="#FFFFFF" fill-opacity="1" stroke-linejoin="round" d="M 686.729,458.96C 686.866,459.348 687.078,459.635 687.366,459.822C 687.653,460.014 687.977,460.046 688.338,459.918C 688.722,459.783 688.96,459.549 689.053,459.218C 689.149,458.896 689.128,458.539 688.99,458.146C 688.839,457.721 688.617,457.41 688.324,457.215C 688.024,457.019 687.701,456.98 687.357,457.103C 686.987,457.233 686.755,457.475 686.66,457.827C 686.562,458.174 686.584,458.552 686.729,458.96 Z M 685.85,465.304L 686.168,463.337C 686.753,463.371 687.474,463.236 688.332,462.933C 688.897,462.732 689.313,462.5 689.577,462.236C 689.847,461.974 689.992,461.726 690.013,461.493C 690.029,461.262 689.971,460.961 689.84,460.592C 689.277,461.089 688.591,461.48 687.781,461.767C 686.835,462.102 685.945,462.12 685.11,461.822C 684.269,461.531 683.684,460.923 683.356,459.995C 683.01,459.018 683.078,458.122 683.558,457.307C 684.034,456.492 684.755,455.914 685.722,455.572C 686.514,455.292 687.271,455.226 687.994,455.371L 687.852,454.97L 691.914,453.533L 692.607,455.493L 691.816,455.772L 693.025,459.19C 693.295,459.953 693.433,460.564 693.439,461.025C 693.44,461.487 693.308,461.93 693.042,462.352C 692.785,462.802 692.403,463.195 691.894,463.531C 691.394,463.875 690.687,464.208 689.772,464.531C 689.362,464.677 688.993,464.792 688.664,464.878C 688.335,464.963 687.952,465.048 687.516,465.132C 686.769,465.264 686.214,465.322 685.85,465.304 Z "/>
		<path fill="#FFFFFF" fill-opacity="1" stroke-linejoin="round" d="M 699.939,460.936L 697.191,461.908L 696.52,460.011L 697.577,459.638L 697.669,458.887L 693.629,455.134L 693.143,455.306L 692.449,453.344L 696.733,451.829L 697.428,453.793L 696.733,454.039L 698.703,456.103L 698.852,453.289L 698.239,453.506L 697.545,451.542L 700.818,450.384L 701.512,452.347L 700.878,452.57L 699.939,460.936 Z "/>
		<path fill="#FFFFFF" fill-opacity="1" stroke-linejoin="round" d="M 703.807,451.285L 703.472,451.403L 701.518,448.857C 701.378,448.674 701.272,448.482 701.202,448.283C 701.088,447.96 701.101,447.639 701.243,447.32C 701.386,447.003 701.633,446.783 701.983,446.659C 702.365,446.523 702.705,446.539 703.002,446.706C 703.3,446.883 703.509,447.142 703.63,447.484C 703.685,447.638 703.717,447.835 703.726,448.076L 703.807,451.285 Z "/>
		<path fill="#FFFFFF" fill-opacity="1" stroke-linejoin="round" d="M 709.905,454.249L 707.862,454.972L 707.199,453.097L 709.111,452.421C 709.759,452.693 710.375,452.728 710.958,452.521C 711.545,452.313 711.797,452.092 711.713,451.856C 711.67,451.734 711.574,451.664 711.425,451.646C 711.27,451.623 710.885,451.646 710.272,451.712C 709.775,451.753 709.222,451.791 708.614,451.828C 708.089,451.862 707.654,451.828 707.307,451.725C 706.949,451.624 706.688,451.494 706.523,451.333C 706.35,451.177 706.208,450.941 706.097,450.628C 705.853,449.937 705.922,449.339 706.306,448.836C 706.688,448.339 707.259,447.956 708.02,447.687C 708.809,447.407 709.518,447.308 710.147,447.386L 710.052,447.119L 712.068,446.405L 712.684,448.146L 710.818,448.806C 710.196,448.523 709.566,448.495 708.927,448.721C 708.424,448.899 708.22,449.123 708.315,449.394C 708.361,449.522 708.464,449.58 708.626,449.566C 708.767,449.562 709.221,449.508 709.988,449.405C 710.859,449.291 711.553,449.24 712.07,449.252C 712.583,449.265 713.003,449.373 713.331,449.576C 713.654,449.78 713.888,450.087 714.034,450.499C 714.297,451.242 714.216,451.887 713.793,452.434C 713.375,452.976 712.766,453.388 711.969,453.669C 711.177,453.949 710.457,454.054 709.811,453.98L 709.905,454.249 Z "/>
	</g>
	<path fill="#A41E23" fill-opacity="1" stroke-linejoin="round" stroke="#6C0407" stroke-opacity="1" d="M 597.063,473.609L 597.063,473.609C 599.824,473.609 602.063,475.849 602.063,478.609L 602.063,486.978C 602.063,489.738 599.824,491.978 597.063,491.978L 597.063,491.978C 594.301,491.978 592.063,489.738 592.063,486.978L 592.063,478.609C 592.063,475.849 594.301,473.609 597.063,473.609 Z "/>
	<path fill="#AE2429" fill-opacity="1" stroke-linejoin="round" stroke="#800D11" stroke-opacity="1" d="M 596.688,428.675L 596.688,428.675C 599.449,428.675 601.687,430.914 601.687,433.675L 601.687,442.042C 601.687,444.804 599.449,447.042 596.688,447.042L 596.688,447.042C 593.926,447.042 591.688,444.804 591.688,442.042L 591.688,433.675C 591.688,430.914 593.926,428.675 596.688,428.675 Z "/>
	<path fill="#C44D51" fill-opacity="1" stroke-linejoin="round" stroke="#861519" stroke-opacity="1" d="M 549.064,438.285L 549.064,438.285C 550.583,438.285 551.814,439.517 551.814,441.035L 551.814,478.035C 551.814,479.554 550.583,480.785 549.064,480.785L 549.064,480.785C 547.546,480.785 546.314,479.554 546.314,478.035L 546.314,441.035C 546.314,439.517 547.546,438.285 549.064,438.285 Z "/>
	<path fill="#C44D51" fill-opacity="1" stroke-linejoin="round" stroke="#86171B" stroke-opacity="1" d="M 512.689,438.536L 512.689,438.536C 514.208,438.536 515.439,439.767 515.439,441.286L 515.439,478.286C 515.439,479.805 514.208,481.036 512.689,481.036L 512.689,481.036C 511.17,481.036 509.939,479.805 509.939,478.286L 509.939,441.286C 509.939,439.767 511.17,438.536 512.689,438.536 Z "/>
	<path fill="#D44F4C" fill-opacity="1" stroke-linejoin="round" stroke="#A41419" stroke-opacity="1" d="M 596.438,440.292L 476.938,440.292C 474.176,440.292 471.938,442.53 471.938,445.292L 471.938,474.042C 471.938,476.804 474.176,479.042 476.938,479.042L 596.542,479.001L 596.438,485.792L 469.688,485.792C 466.926,485.792 464.688,483.554 464.688,480.792L 464.688,438.542C 464.688,435.78 466.926,433.542 469.688,433.542L 596.438,433.542C 596.438,433.542 596.583,440.335 596.438,440.292 Z "/>
	<path fill="#E6A573" fill-opacity="1" stroke-linejoin="round" d="M 667.704,273.306C 667.704,273.306 669.061,277.019 669.965,277.106C 670.869,277.194 672.817,272.863 672.817,272.863C 672.817,272.863 671.217,274.631 670.07,274.719C 668.922,274.808 667.67,272.863 667.67,272.863"/>
	<rect x="13.8291" y="69.2461" fill="#FFFFFF" fill-opacity="1" stroke-linejoin="round" width="84.5" height="50.5"/>
	<path fill="#000000" fill-opacity="1" stroke-linejoin="round" d="M 95.8633,118.245L 17.3706,118.245L 17.3706,72.4575L 95.8633,72.4575M 95.8633,124.786L 92.5928,124.786L 92.5928,121.515L 95.8633,121.515M 99.1338,65.9165L 14.1001,65.9165C 12.3013,65.9165 10.8296,67.3882 10.8296,69.187L 10.8296,124.786C 10.8296,126.585 12.3013,128.056 14.1001,128.056L 50.0762,128.056L 50.0762,131.327C 50.0762,137.868 43.6887,137.868 43.6887,137.868L 31.6106,137.868C 30.9761,137.868 30.4526,138.391 30.4526,139.025L 30.4526,144.409L 82.7813,144.409L 82.7813,139.025C 82.7813,138.391 82.2578,137.868 81.6201,137.868L 69.6992,137.868C 69.6992,137.868 63.1582,137.868 63.1582,131.327L 63.1582,128.056L 99.1338,128.056C 100.933,128.056 102.404,126.585 102.404,124.786L 102.404,69.187C 102.404,67.3882 100.933,65.9165 99.1338,65.9165 Z "/>
	<path fill="#00A854" fill-opacity="1" stroke-linejoin="round" d="M 65.6187,90.4785L 54.2695,101.827C 54.0999,101.998 53.8198,101.998 53.6494,101.827L 46.7639,94.9399C 46.5947,94.7705 46.5947,94.4922 46.7639,94.3203L 49.6094,91.4761C 49.7798,91.3057 50.0586,91.3057 50.228,91.4761L 53.6519,94.8984C 53.8213,95.0684 54.0999,95.0684 54.2708,94.8984L 62.1321,87.04C 62.3013,86.8691 62.5813,86.8682 62.7549,87.0371L 65.6162,89.8613C 65.7881,90.0308 65.7881,90.3081 65.6187,90.4785 Z M 67.7549,82.9473C 61.3745,76.5669 51.0347,76.5669 44.6545,82.9473C 38.2759,89.3252 38.2759,99.667 44.6545,106.045C 51.0347,112.424 61.3745,112.424 67.7549,106.045C 74.1321,99.667 74.1333,89.3252 67.7549,82.9473 Z "/>
	<rect x="189.249" y="3.3291" fill="#FFFFFF" fill-opacity="1" stroke-linejoin="round" width="84.5" height="50.5"/>
	<path fill="#000000" fill-opacity="1" stroke-linejoin="round" d="M 271.283,52.3281L 192.791,52.3281L 192.791,6.54102L 271.283,6.54102M 271.283,58.8691L 268.013,58.8691L 268.013,55.5986L 271.283,55.5986M 274.554,0L 189.521,0C 187.722,0 186.25,1.47168 186.25,3.27051L 186.25,58.8691C 186.25,60.668 187.722,62.1396 189.521,62.1396L 225.496,62.1396L 225.496,65.4102C 225.496,71.9512 219.109,71.9512 219.109,71.9512L 207.031,71.9512C 206.396,71.9512 205.873,72.4741 205.873,73.1089L 205.873,78.4922L 258.201,78.4922L 258.201,73.1089C 258.201,72.4741 257.678,71.9512 257.04,71.9512L 245.119,71.9512C 245.119,71.9512 238.578,71.9512 238.578,65.4102L 238.578,62.1396L 274.554,62.1396C 276.353,62.1396 277.824,60.668 277.824,58.8691L 277.824,3.27051C 277.824,1.47168 276.353,0 274.554,0 Z "/>
	<path fill="#00A854" fill-opacity="1" stroke-linejoin="round" d="M 241.039,24.562L 229.69,35.9102C 229.52,36.0811 229.24,36.0811 229.07,35.9102L 222.184,29.0234C 222.015,28.854 222.015,28.5752 222.184,28.4033L 225.03,25.5596C 225.2,25.3887 225.479,25.3887 225.648,25.5596L 229.072,28.9819C 229.241,29.1514 229.52,29.1514 229.691,28.9819L 237.552,21.1235C 237.722,20.9526 238.001,20.9512 238.175,21.1206L 241.036,23.9448C 241.208,24.1143 241.208,24.3916 241.039,24.562 Z M 243.175,17.0303C 236.795,10.6504 226.455,10.6504 220.075,17.0303C 213.696,23.4087 213.696,33.75 220.075,40.1289C 226.455,46.5073 236.795,46.5073 243.175,40.1289C 249.552,33.75 249.554,23.4087 243.175,17.0303 Z "/>
	<rect x="354.249" y="17.5791" fill="#FFFFFF" fill-opacity="1" stroke-linejoin="round" width="84.5" height="50.5"/>
	<path fill="#000000" fill-opacity="1" stroke-linejoin="round" d="M 436.283,66.5781L 357.791,66.5781L 357.791,20.791L 436.283,20.791M 436.283,73.1191L 433.013,73.1191L 433.013,69.8486L 436.283,69.8486M 439.554,14.25L 354.521,14.25C 352.722,14.25 351.25,15.7217 351.25,17.5205L 351.25,73.1191C 351.25,74.918 352.722,76.3896 354.521,76.3896L 390.496,76.3896L 390.496,79.6602C 390.496,86.2012 384.109,86.2012 384.109,86.2012L 372.031,86.2012C 371.396,86.2012 370.873,86.7241 370.873,87.3589L 370.873,92.7422L 423.201,92.7422L 423.201,87.3589C 423.201,86.7241 422.678,86.2012 422.04,86.2012L 410.119,86.2012C 410.119,86.2012 403.578,86.2012 403.578,79.6602L 403.578,76.3896L 439.554,76.3896C 441.353,76.3896 442.824,74.918 442.824,73.1191L 442.824,17.5205C 442.824,15.7217 441.353,14.25 439.554,14.25 Z "/>
	<path fill="#00A854" fill-opacity="1" stroke-linejoin="round" d="M 406.039,38.812L 394.69,50.1602C 394.52,50.3311 394.24,50.3311 394.07,50.1602L 387.184,43.2734C 387.015,43.104 387.015,42.8252 387.184,42.6533L 390.03,39.8096C 390.2,39.6387 390.479,39.6387 390.648,39.8096L 394.072,43.2319C 394.241,43.4014 394.52,43.4014 394.691,43.2319L 402.552,35.3735C 402.722,35.2026 403.001,35.2012 403.175,35.3706L 406.036,38.1948C 406.208,38.3643 406.208,38.6416 406.039,38.812 Z M 408.175,31.2803C 401.795,24.9004 391.455,24.9004 385.075,31.2803C 378.696,37.6587 378.696,48 385.075,54.3789C 391.455,60.7573 401.795,60.7573 408.175,54.3789C 414.552,48 414.554,37.6587 408.175,31.2803 Z "/>
	<rect x="2.99927" y="239.329" fill="#FFFFFF" fill-opacity="1" stroke-linejoin="round" width="84.5" height="50.5"/>
	<path fill="#000000" fill-opacity="1" stroke-linejoin="round" d="M 85.0334,288.328L 6.54102,288.328L 6.54102,242.541L 85.0334,242.541M 85.0334,294.869L 81.7629,294.869L 81.7629,291.599L 85.0334,291.599M 88.304,236L 3.27051,236C 1.47168,236 0,237.472 0,239.271L 0,294.869C 0,296.668 1.47168,298.14 3.27051,298.14L 39.2463,298.14L 39.2463,301.41C 39.2463,307.951 32.8589,307.951 32.8589,307.951L 20.7808,307.951C 20.1465,307.951 19.623,308.474 19.623,309.109L 19.623,314.492L 71.9514,314.492L 71.9514,309.109C 71.9514,308.474 71.428,307.951 70.7903,307.951L 58.8694,307.951C 58.8694,307.951 52.3284,307.951 52.3284,301.41L 52.3284,298.14L 88.304,298.14C 90.1028,298.14 91.5745,296.668 91.5745,294.869L 91.5745,239.271C 91.5745,237.472 90.1028,236 88.304,236 Z "/>
	<path fill="#00A854" fill-opacity="1" stroke-linejoin="round" d="M 54.7891,260.562L 43.4397,271.91C 43.27,272.08 42.9902,272.08 42.8196,271.91L 35.9341,265.023C 35.7649,264.854 35.7649,264.575 35.9341,264.402L 38.7795,261.559C 38.9502,261.388 39.2288,261.388 39.3984,261.559L 42.8223,264.981C 42.9915,265.15 43.27,265.15 43.4409,264.981L 51.3022,257.123C 51.4717,256.952 51.7515,256.951 51.925,257.12L 54.7864,259.944C 54.9583,260.113 54.9583,260.391 54.7891,260.562 Z M 56.925,253.029C 50.5449,246.649 40.2051,246.649 33.8247,253.029C 27.4463,259.408 27.4463,269.75 33.8247,276.128C 40.2051,282.507 50.5449,282.507 56.925,276.128C 63.3022,269.75 63.3037,259.408 56.925,253.029 Z "/>
	<rect x="97.4993" y="356.079" fill="#FFFFFF" fill-opacity="1" stroke-linejoin="round" width="84.5" height="50.5"/>
	<path fill="#000000" fill-opacity="1" stroke-linejoin="round" d="M 179.533,405.078L 101.041,405.078L 101.041,359.291L 179.533,359.291M 179.533,411.619L 176.263,411.619L 176.263,408.349L 179.533,408.349M 182.804,352.75L 97.7705,352.75C 95.9717,352.75 94.5,354.222 94.5,356.021L 94.5,411.619C 94.5,413.418 95.9717,414.89 97.7705,414.89L 133.746,414.89L 133.746,418.16C 133.746,424.701 127.359,424.701 127.359,424.701L 115.281,424.701C 114.646,424.701 114.123,425.224 114.123,425.859L 114.123,431.242L 166.451,431.242L 166.451,425.859C 166.451,425.224 165.928,424.701 165.29,424.701L 153.369,424.701C 153.369,424.701 146.828,424.701 146.828,418.16L 146.828,414.89L 182.804,414.89C 184.603,414.89 186.074,413.418 186.074,411.619L 186.074,356.021C 186.074,354.222 184.603,352.75 182.804,352.75 Z "/>
	<path fill="#00A854" fill-opacity="1" stroke-linejoin="round" d="M 149.289,377.312L 137.94,388.66C 137.77,388.83 137.49,388.83 137.32,388.66L 130.434,381.773C 130.265,381.604 130.265,381.325 130.434,381.152L 133.28,378.309C 133.45,378.138 133.729,378.138 133.898,378.309L 137.322,381.731C 137.491,381.9 137.77,381.9 137.941,381.731L 145.802,373.873C 145.972,373.702 146.251,373.701 146.425,373.87L 149.286,376.694C 149.458,376.863 149.458,377.141 149.289,377.312 Z M 151.425,369.779C 145.045,363.399 134.705,363.399 128.325,369.779C 121.946,376.158 121.946,386.5 128.325,392.878C 134.705,399.257 145.045,399.257 151.425,392.878C 157.802,386.5 157.804,376.158 151.425,369.779 Z "/>
	<path fill="#000000" fill-opacity="1" stroke-linejoin="round" d="M 1063.64,109.692L 1062.3,111.692L 1061.47,111.138L 1062.8,109.138L 1063.64,109.692 Z "/>
	<path fill="#E2E2E2" fill-opacity="1" stroke-linejoin="round" d="M 351.473,612.676C 400.625,612.676 440.473,620.511 440.473,630.176C 440.473,639.841 400.626,647.676 351.473,647.676C 302.319,647.676 262.473,639.841 262.473,630.176C 262.473,620.511 302.32,612.676 351.473,612.676 Z "/>
	<path fill="#333333" fill-opacity="1" stroke-linejoin="round" d="M 359.863,594.224L 359.529,594.224L 359.529,623.183C 373.446,625.767 380.529,628.935 385.528,633.765L 351.362,633.685L 351.441,594.224L 334.696,594.224L 334.696,633.736L 300.528,633.767C 305.527,628.935 312.697,624.805 326.613,622.222L 326.613,594.21C 318.403,593.907 311.456,588.654 308.669,581.349L 378.557,581.349C 375.686,588.876 368.399,594.224 359.863,594.224 Z "/>
	<path fill="#FFAC58" fill-opacity="1" stroke-linejoin="round" d="M 266.778,477.406C 266.778,477.405 274.278,471.781 277.528,476.757C 280.778,481.731 278.528,478.271 276.278,489.302C 274.028,500.335 274.028,504.878 275.278,511.367C 276.528,517.856 281.778,522.832 283.028,524.562C 284.278,526.293 277.778,563.716 265.528,562.634C 253.278,561.553 234.028,531.052 239.278,508.771C 244.528,486.49 267.028,477.405 266.778,477.406 Z "/>
	<path fill="#439243" fill-opacity="1" stroke-linejoin="round" d="M 264.278,564.644C 273.528,551.644 281.778,548.144 281.778,521.644C 285.528,526.644 290.028,543.144 308.528,534.144C 310.784,536.815 313.209,539.078 315.767,540.976L 373.755,540.864C 376.834,538.963 379.174,536.851 380.278,534.644C 391.278,530.894 403.278,521.394 403.278,521.394C 403.278,521.394 400.028,528.894 402.778,533.644C 405.528,538.394 411.528,541.394 411.528,541.394L 379.987,543.611L 379.986,574.563C 379.986,576.925 379.65,579.199 379.03,581.332L 308.441,581.332C 307.82,579.199 307.486,576.925 307.486,574.563L 307.486,541.916L 264.278,564.644 Z "/>
	<path fill="#FFAC58" fill-opacity="1" stroke-linejoin="round" d="M 403.132,499.936C 403.239,500.13 408.215,508.437 406.632,512.769C 405.049,517.102 406.715,519.603 401.715,523.102C 396.715,526.602 404.549,541.769 411.549,541.352C 418.549,540.935 439.549,540.686 438.965,533.352C 438.799,531.769 436.465,531.435 436.465,531.435C 436.465,531.435 439.049,529.685 438.715,527.102C 438.382,524.519 435.549,523.935 435.549,523.935C 435.549,523.935 437.882,524.186 437.799,520.352C 437.715,516.519 432.715,518.019 432.715,518.019C 432.715,518.019 435.715,516.686 435.465,513.435C 435.215,510.185 414.299,515.269 414.299,515.269C 414.299,515.269 418.215,507.519 415.049,501.435C 411.882,495.352 402.216,495.185 403.132,499.936 Z "/>
	<path fill="#FFAC58" fill-opacity="1" stroke-linejoin="round" d="M 344.133,464.35C 369.4,464.35 389.884,484.834 389.884,510.101C 389.884,535.368 369.401,555.851 344.133,555.851C 318.866,555.851 298.383,535.368 298.383,510.101C 298.383,484.834 318.867,464.35 344.133,464.35 Z "/>
	<path fill="#202020" fill-opacity="1" stroke-linejoin="round" d="M 296.133,501.685L 318.972,483.896C 318.972,483.896 343.012,495.381 362.615,497.712C 382.218,500.044 390.632,499.439 390.632,499.439C 390.632,499.439 379.351,461.876 343.29,463.603C 307.229,465.329 300.572,496.243 296.133,501.685 Z "/>
	<path fill="#202020" fill-opacity="1" stroke-linejoin="round" d="M 318.36,505.847L 319.525,508.882C 319.525,508.88 324.421,505.127 328.549,505.416C 332.678,505.707 337.016,504.22 337.016,504.22L 336.319,499.845C 336.319,499.845 330.103,499.465 326.045,500.754C 321.988,502.044 318.342,506.032 318.36,505.847 Z "/>
	<path fill="#202020" fill-opacity="1" stroke-linejoin="round" d="M 351.882,503.186L 352.132,507.186C 352.132,507.185 359.882,505.186 361.465,505.269C 363.049,505.351 369.632,507.019 369.632,507.019L 369.632,501.852C 369.632,501.852 365.215,501.603 361.465,501.602C 357.715,501.602 351.882,503.185 351.882,503.186 Z "/>
	<path fill="#FFFFFF" fill-opacity="1" stroke-linejoin="round" d="M 329.453,537.394C 329.468,537.356 334.196,548.643 343.973,548.335C 353.751,548.029 359.173,539.46 359.173,539.46C 359.173,539.46 340.744,545.25 329.453,537.394 Z "/>
	<path fill="#D57533" fill-opacity="1" stroke-linejoin="round" d="M 341.882,531.103C 341.882,531.103 345.132,534.603 347.299,534.686C 349.466,534.769 354.132,530.685 354.132,530.685C 354.132,530.685 350.299,532.353 347.549,532.435C 344.799,532.519 341.799,530.685 341.799,530.685"/>
	<path fill="#FFFFFF" fill-opacity="1" stroke-linejoin="round" d="M 328.466,511.685C 332.7,511.685 336.133,515.117 336.133,519.351C 336.133,523.585 332.7,527.018 328.466,527.018C 324.232,527.018 320.799,523.585 320.799,519.351C 320.799,515.117 324.232,511.685 328.466,511.685 Z "/>
	<path fill="#FFFFFF" fill-opacity="1" stroke-linejoin="round" d="M 357.757,512.269C 361.991,512.269 365.424,515.701 365.424,519.936C 365.424,524.17 361.991,527.603 357.757,527.603C 353.523,527.603 350.09,524.17 350.09,519.936C 350.09,515.701 353.523,512.269 357.757,512.269 Z "/>
	<path fill="#000000" fill-opacity="1" stroke-linejoin="round" d="M 328.049,518.185C 328.877,518.185 329.549,518.857 329.549,519.685C 329.549,520.513 328.877,521.185 328.049,521.185C 327.221,521.185 326.549,520.513 326.549,519.685C 326.549,518.857 327.221,518.185 328.049,518.185 Z "/>
	<path fill="#000000" fill-opacity="1" stroke-linejoin="round" d="M 357.674,518.686C 358.502,518.686 359.174,519.357 359.174,520.186C 359.174,521.014 358.502,521.686 357.674,521.686C 356.845,521.686 356.174,521.014 356.174,520.186C 356.174,519.357 356.846,518.686 357.674,518.686 Z "/>
	<rect x="197.923" y="461.001" fill="#FFFFFF" fill-opacity="1" stroke-linejoin="round" width="65.54" height="117.348"/>
	<path fill="#000000" fill-opacity="1" stroke-linejoin="round" d="M 201.738,465.912L 260.071,465.912L 260.071,553.412L 201.738,553.412M 230.904,578.326C 225.194,578.326 220.573,573.707 220.573,567.996C 220.573,562.285 225.194,557.665 230.904,557.665C 236.615,557.665 241.235,562.285 241.235,567.996C 241.235,573.707 236.615,578.326 230.904,578.326 Z M 257.155,442.578L 204.654,442.578C 196.633,442.578 190.071,449.141 190.071,457.162L 190.071,567.996C 190.071,576.017 196.633,582.579 204.654,582.579L 257.155,582.579C 265.175,582.579 271.738,576.017 271.738,567.996L 271.738,457.162C 271.738,449.141 265.175,442.578 257.155,442.578 Z "/>
	<path fill="#00A854" fill-opacity="1" stroke-linejoin="round" d="M 236.798,507.163L 229.911,514.048C 229.809,514.152 229.639,514.152 229.535,514.048L 225.357,509.87C 225.254,509.767 225.254,509.598 225.357,509.494L 227.083,507.768C 227.187,507.664 227.356,507.664 227.459,507.768L 229.537,509.845C 229.64,509.947 229.809,509.947 229.912,509.845L 234.682,505.076C 234.785,504.972 234.955,504.972 235.06,505.074L 236.796,506.788C 236.901,506.891 236.901,507.059 236.798,507.163 Z M 238.094,502.593C 234.223,498.721 227.948,498.721 224.077,502.593C 220.207,506.463 220.207,512.738 224.077,516.608C 227.948,520.479 234.223,520.479 238.094,516.608C 241.964,512.738 241.965,506.463 238.094,502.593 Z "/>
	<path fill="#000000" fill-opacity="1" stroke-linejoin="round" d="M 196.03,398.367L 198.969,401.08L 197.612,402.55L 194.673,399.837L 196.03,398.367 Z M 201.908,403.793L 204.848,406.507L 203.491,407.977L 200.551,405.263L 201.908,403.793 Z M 207.787,409.22L 210.726,411.933L 209.369,413.402L 206.43,410.689L 207.787,409.22 Z M 213.665,414.646L 216.604,417.359L 215.248,418.829L 212.309,416.115L 213.665,414.646 Z M 219.543,420.072L 222.483,422.785L 221.126,424.255L 218.187,421.542L 219.543,420.072 Z M 225.422,425.498L 228.361,428.211L 227.004,429.681L 224.065,426.968L 225.422,425.498 Z M 190.151,392.941L 193.09,395.654L 191.734,397.124L 188.794,394.411L 190.151,392.941 Z "/>
	<path fill="#000000" fill-opacity="1" stroke-linejoin="round" d="M 215.168,431.604L 212.93,428.289L 214.588,427.17L 216.826,430.485L 215.168,431.604 Z M 210.692,424.973L 208.454,421.658L 210.112,420.539L 212.35,423.854L 210.692,424.973 Z M 206.216,418.343L 203.979,415.027L 205.636,413.908L 207.874,417.224L 206.216,418.343 Z M 201.74,411.712L 199.502,408.396L 201.16,407.278L 203.398,410.593L 201.74,411.712 Z M 197.265,405.081L 195.027,401.766L 196.684,400.647L 198.922,403.962L 197.265,405.081 Z M 192.789,398.45L 190.551,395.135L 192.208,394.017L 194.446,397.332L 192.789,398.45 Z M 188.313,391.82L 186.075,388.504L 187.732,387.386L 189.97,390.701L 188.313,391.82 Z M 183.837,385.189L 181.599,381.873L 183.256,380.755L 185.494,384.07L 183.837,385.189 Z M 179.361,378.558L 177.123,375.243L 178.781,374.125L 181.019,377.439L 179.361,378.558 Z M 174.885,371.927L 172.647,368.612L 174.305,367.494L 176.542,370.809L 174.885,371.927 Z M 170.409,365.297L 168.171,361.981L 169.829,360.863L 172.067,364.179L 170.409,365.297 Z M 165.933,358.666L 163.695,355.351L 165.353,354.232L 167.591,357.548L 165.933,358.666 Z M 161.457,352.035L 159.22,348.72L 160.877,347.602L 163.115,350.917L 161.457,352.035 Z M 156.982,345.404L 154.744,342.089L 156.401,340.971L 158.639,344.286L 156.982,345.404 Z M 152.506,338.773L 150.268,335.458L 151.925,334.34L 154.163,337.655L 152.506,338.773 Z M 148.03,332.144L 145.792,328.828L 147.449,327.709L 149.688,331.025L 148.03,332.144 Z M 143.554,325.513L 141.316,322.197L 142.974,321.078L 145.211,324.394L 143.554,325.513 Z M 139.078,318.882L 136.84,315.566L 138.498,314.448L 140.736,317.763L 139.078,318.882 Z M 134.602,312.251L 132.364,308.936L 134.022,307.817L 136.26,311.132L 134.602,312.251 Z M 130.126,305.621L 127.888,302.305L 129.546,301.187L 131.784,304.502L 130.126,305.621 Z M 125.65,298.99L 123.412,295.674L 125.07,294.556L 127.308,297.871L 125.65,298.99 Z M 121.174,292.359L 118.937,289.044L 120.594,287.925L 122.832,291.24L 121.174,292.359 Z M 116.698,285.728L 114.46,282.413L 116.118,281.294L 118.356,284.609L 116.698,285.728 Z M 112.223,279.097L 109.985,275.782L 111.642,274.664L 113.88,277.979L 112.223,279.097 Z M 107.747,272.467L 105.509,269.151L 107.166,268.033L 109.404,271.349L 107.747,272.467 Z M 103.271,265.836L 101.902,263.809L 103.56,262.69L 104.928,264.718L 103.271,265.836 Z M 219.644,438.234L 217.406,434.919L 219.064,433.801L 221.302,437.116L 219.644,438.234 Z "/>
	<path fill="#000000" fill-opacity="1" stroke-linejoin="round" d="M 242.955,424.005L 244.649,420.381L 246.46,421.228L 244.767,424.851L 242.955,424.005 Z M 246.343,416.757L 248.036,413.134L 249.848,413.98L 248.155,417.604L 246.343,416.757 Z M 249.73,409.511L 251.424,405.887L 253.236,406.733L 251.542,410.357L 249.73,409.511 Z M 253.118,402.263L 254.812,398.64L 256.624,399.486L 254.93,403.109L 253.118,402.263 Z M 256.506,395.016L 258.2,391.392L 260.012,392.238L 258.318,395.862L 256.506,395.016 Z M 259.894,387.769L 261.587,384.145L 263.399,384.991L 261.706,388.615L 259.894,387.769 Z M 263.281,380.521L 264.975,376.897L 266.787,377.744L 265.093,381.367L 263.281,380.521 Z M 266.669,373.274L 268.363,369.65L 270.175,370.497L 268.481,374.121L 266.669,373.274 Z M 270.057,366.027L 271.751,362.403L 273.563,363.25L 271.869,366.873L 270.057,366.027 Z M 273.445,358.779L 275.139,355.156L 276.95,356.002L 275.257,359.626L 273.445,358.779 Z M 276.833,351.532L 278.527,347.908L 280.338,348.755L 278.645,352.378L 276.833,351.532 Z M 280.22,344.285L 281.914,340.661L 283.726,341.507L 282.032,345.131L 280.22,344.285 Z M 283.608,337.037L 285.302,333.414L 287.114,334.261L 285.42,337.884L 283.608,337.037 Z M 286.996,329.791L 288.69,326.167L 290.501,327.013L 288.808,330.637L 286.996,329.791 Z M 290.384,322.543L 292.078,318.919L 293.89,319.766L 292.196,323.39L 290.384,322.543 Z M 293.771,315.296L 295.465,311.672L 297.277,312.519L 295.583,316.142L 293.771,315.296 Z M 297.159,308.048L 298.853,304.425L 300.665,305.271L 298.971,308.895L 297.159,308.048 Z M 300.547,300.801L 302.241,297.178L 304.053,298.024L 302.359,301.647L 300.547,300.801 Z M 303.935,293.554L 305.629,289.931L 307.441,290.777L 305.747,294.4L 303.935,293.554 Z M 307.323,286.307L 309.017,282.683L 310.828,283.529L 309.134,287.153L 307.323,286.307 Z M 310.71,279.06L 312.404,275.436L 314.216,276.282L 312.522,279.906L 310.71,279.06 Z M 314.098,271.812L 315.792,268.188L 317.604,269.035L 315.91,272.658L 314.098,271.812 Z M 317.486,264.564L 319.18,260.941L 320.992,261.787L 319.298,265.411L 317.486,264.564 Z M 320.874,257.318L 322.568,253.694L 324.379,254.541L 322.686,258.164L 320.874,257.318 Z M 324.262,250.07L 325.955,246.446L 327.767,247.293L 326.073,250.917L 324.262,250.07 Z M 327.649,242.823L 329.343,239.199L 331.155,240.046L 329.461,243.67L 327.649,242.823 Z M 331.037,235.575L 332.731,231.952L 334.543,232.799L 332.849,236.422L 331.037,235.575 Z M 334.425,228.328L 336.119,224.705L 337.931,225.552L 336.237,229.175L 334.425,228.328 Z M 337.813,221.081L 339.506,217.457L 341.318,218.304L 339.625,221.928L 337.813,221.081 Z M 341.2,213.833L 342.895,210.21L 344.706,211.057L 343.012,214.681L 341.2,213.833 Z M 344.588,206.586L 346.282,202.963L 348.094,203.81L 346.4,207.434L 344.588,206.586 Z M 347.976,199.339L 349.67,195.715L 351.482,196.563L 349.788,200.186L 347.976,199.339 Z M 351.364,192.092L 353.058,188.468L 354.869,189.315L 353.176,192.939L 351.364,192.092 Z M 354.751,184.845L 356.446,181.221L 358.257,182.068L 356.563,185.691L 354.751,184.845 Z M 358.139,177.597L 359.833,173.974L 361.645,174.821L 359.951,178.444L 358.139,177.597 Z M 361.527,170.35L 363.221,166.727L 365.033,167.573L 363.339,171.197L 361.527,170.35 Z M 364.915,163.103L 366.609,159.479L 368.42,160.326L 366.727,163.95L 364.915,163.103 Z M 368.303,155.855L 369.997,152.232L 371.809,153.079L 370.115,156.703L 368.303,155.855 Z M 371.69,148.608L 373.384,144.984L 375.196,145.832L 373.502,149.455L 371.69,148.608 Z M 375.078,141.361L 376.772,137.737L 378.584,138.584L 376.89,142.208L 375.078,141.361 Z M 378.466,134.114L 380.16,130.49L 381.972,131.337L 380.278,134.961L 378.466,134.114 Z M 381.854,126.866L 383.548,123.243L 385.36,124.09L 383.666,127.713L 381.854,126.866 Z M 385.241,119.619L 386.936,115.996L 388.747,116.843L 387.053,120.466L 385.241,119.619 Z M 388.629,112.372L 390.323,108.748L 392.135,109.595L 390.441,113.219L 388.629,112.372 Z M 392.017,105.125L 393.711,101.501L 395.523,102.348L 393.829,105.972L 392.017,105.125 Z M 395.405,97.8774L 397.099,94.2539L 398.911,95.1006L 397.217,98.7246L 395.405,97.8774 Z M 239.567,431.252L 241.261,427.628L 243.073,428.475L 241.379,432.099L 239.567,431.252 Z "/>
	<path fill="#000000" fill-opacity="1" stroke-linejoin="round" d="M 223.009,420.396L 221.752,416.598L 223.65,415.969L 224.908,419.767L 223.009,420.396 Z M 220.495,412.8L 219.238,409.003L 221.136,408.375L 222.393,412.171L 220.495,412.8 Z M 217.98,405.206L 216.723,401.409L 218.621,400.78L 219.879,404.577L 217.98,405.206 Z M 215.466,397.611L 214.208,393.814L 216.107,393.185L 217.364,396.982L 215.466,397.611 Z M 212.951,390.017L 211.694,386.22L 213.592,385.591L 214.85,389.388L 212.951,390.017 Z M 210.437,382.422L 209.18,378.625L 211.078,377.996L 212.335,381.793L 210.437,382.422 Z M 207.922,374.828L 206.665,371.031L 208.564,370.402L 209.821,374.199L 207.922,374.828 Z M 205.408,367.233L 204.151,363.436L 206.049,362.807L 207.306,366.604L 205.408,367.233 Z M 202.894,359.639L 201.636,355.841L 203.535,355.212L 204.792,359.01L 202.894,359.639 Z M 200.379,352.044L 199.122,348.247L 201.02,347.618L 202.277,351.415L 200.379,352.044 Z M 197.865,344.449L 196.607,340.652L 198.506,340.023L 199.763,343.82L 197.865,344.449 Z M 195.35,336.855L 194.093,333.058L 195.991,332.429L 197.249,336.226L 195.35,336.855 Z M 192.835,329.261L 191.578,325.463L 193.477,324.834L 194.734,328.632L 192.835,329.261 Z M 190.321,321.666L 189.064,317.869L 190.962,317.24L 192.22,321.037L 190.321,321.666 Z M 187.807,314.071L 186.549,310.274L 188.448,309.646L 189.705,313.442L 187.807,314.071 Z M 185.292,306.477L 184.035,302.679L 185.933,302.05L 187.191,305.848L 185.292,306.477 Z M 182.778,298.882L 181.521,295.085L 183.419,294.456L 184.676,298.253L 182.778,298.882 Z M 180.263,291.287L 179.006,287.49L 180.905,286.861L 182.162,290.658L 180.263,291.287 Z M 177.749,283.693L 176.491,279.896L 178.39,279.267L 179.647,283.064L 177.749,283.693 Z M 175.234,276.099L 173.977,272.301L 175.875,271.672L 177.133,275.47L 175.234,276.099 Z M 172.72,268.504L 171.462,264.707L 173.361,264.078L 174.618,267.875L 172.72,268.504 Z M 170.205,260.909L 168.948,257.112L 170.847,256.483L 172.104,260.28L 170.205,260.909 Z M 167.691,253.314L 166.434,249.518L 168.332,248.889L 169.589,252.686L 167.691,253.314 Z M 165.176,245.72L 163.919,241.923L 165.818,241.294L 167.075,245.091L 165.176,245.72 Z M 162.662,238.125L 161.405,234.328L 163.303,233.699L 164.561,237.497L 162.662,238.125 Z M 160.147,230.531L 158.89,226.734L 160.789,226.105L 162.046,229.902L 160.147,230.531 Z M 157.633,222.937L 156.375,219.139L 158.274,218.51L 159.531,222.308L 157.633,222.937 Z M 155.118,215.342L 153.861,211.545L 155.76,210.916L 157.017,214.713L 155.118,215.342 Z M 152.604,207.747L 151.347,203.95L 153.245,203.321L 154.502,207.118L 152.604,207.747 Z M 150.089,200.153L 148.832,196.355L 150.731,195.727L 151.988,199.524L 150.089,200.153 Z M 147.575,192.558L 146.318,188.761L 148.216,188.132L 149.474,191.929L 147.575,192.558 Z M 145.061,184.964L 143.803,181.167L 145.702,180.538L 146.959,184.335L 145.061,184.964 Z M 142.546,177.369L 141.289,173.572L 143.188,172.943L 144.445,176.74L 142.546,177.369 Z M 140.031,169.774L 138.774,165.978L 140.673,165.349L 141.93,169.146L 140.031,169.774 Z M 137.517,162.18L 136.26,158.383L 138.158,157.754L 139.416,161.551L 137.517,162.18 Z M 135.003,154.585L 133.745,150.788L 135.644,150.159L 136.901,153.957L 135.003,154.585 Z M 132.488,146.991L 131.231,143.193L 133.129,142.564L 134.387,146.362L 132.488,146.991 Z M 129.974,139.396L 128.716,135.599L 130.615,134.97L 131.872,138.768L 129.974,139.396 Z M 127.459,131.802L 126.202,128.004L 128.101,127.375L 129.358,131.173L 127.459,131.802 Z M 124.945,124.207L 123.688,120.41L 125.586,119.781L 126.843,123.578L 124.945,124.207 Z M 122.43,116.612L 121.173,112.815L 123.072,112.187L 124.329,115.983L 122.43,116.612 Z M 119.916,109.018L 118.937,106.061L 120.835,105.432L 121.814,108.389L 119.916,109.018 Z M 225.524,427.99L 224.267,424.192L 226.165,423.563L 227.422,427.361L 225.524,427.99 Z "/>
	<path fill="#000000" fill-opacity="1" stroke-linejoin="round" d="M 524.683,265.699L 518.295,257.157L 519.096,256.558L 525.484,265.1L 524.683,265.699 Z M 511.906,248.615L 505.518,240.073L 506.319,239.474L 512.707,248.016L 511.906,248.615 Z M 499.129,231.531L 492.741,222.989L 493.542,222.39L 499.93,230.932L 499.129,231.531 Z M 486.352,214.447L 479.964,205.905L 480.765,205.307L 487.153,213.848L 486.352,214.447 Z M 473.575,197.363L 467.187,188.821L 467.988,188.223L 474.376,196.765L 473.575,197.363 Z M 460.798,180.279L 454.41,171.737L 455.21,171.139L 461.599,179.681L 460.798,180.279 Z M 448.021,163.195L 441.633,154.654L 442.434,154.055L 448.822,162.597L 448.021,163.195 Z M 435.244,146.112L 428.856,137.57L 429.656,136.971L 436.045,145.513L 435.244,146.112 Z M 422.467,129.028L 418.793,124.116L 419.594,123.517L 423.268,128.429L 422.467,129.028 Z M 537.46,282.783L 531.072,274.241L 531.873,273.642L 538.261,282.184L 537.46,282.783 Z "/>
	<path fill="#000000" fill-opacity="1" stroke-linejoin="round" d="M 507.2,304.695L 498.688,298.267L 499.29,297.469L 507.803,303.896L 507.2,304.695 Z M 490.175,291.84L 481.662,285.413L 482.265,284.615L 490.777,291.042L 490.175,291.84 Z M 473.149,278.986L 464.636,272.559L 465.239,271.761L 473.751,278.188L 473.149,278.986 Z M 456.123,266.131L 447.61,259.704L 448.213,258.906L 456.726,265.333L 456.123,266.131 Z M 439.097,253.277L 430.584,246.85L 431.188,246.052L 439.7,252.479L 439.097,253.277 Z M 422.072,240.422L 413.559,233.995L 414.162,233.197L 422.674,239.624L 422.072,240.422 Z M 405.046,227.568L 396.533,221.141L 397.136,220.343L 405.649,226.77L 405.046,227.568 Z M 388.02,214.714L 379.507,208.287L 380.11,207.488L 388.623,213.916L 388.02,214.714 Z M 370.994,201.859L 362.482,195.432L 363.084,194.634L 371.597,201.061L 370.994,201.859 Z M 353.969,189.005L 345.456,182.578L 346.059,181.779L 354.572,188.207L 353.969,189.005 Z M 336.943,176.15L 328.43,169.723L 329.033,168.925L 337.546,175.353L 336.943,176.15 Z M 319.917,163.296L 311.405,156.869L 312.007,156.071L 320.52,162.498L 319.917,163.296 Z M 302.892,150.441L 294.379,144.015L 294.982,143.216L 303.494,149.644L 302.892,150.441 Z M 285.866,137.587L 277.353,131.16L 277.956,130.362L 286.469,136.789L 285.866,137.587 Z M 268.84,124.733L 260.327,118.306L 260.93,117.507L 269.443,123.935L 268.84,124.733 Z M 524.226,317.549L 515.713,311.122L 516.316,310.324L 524.829,316.751L 524.226,317.549 Z "/>
	<path fill="#000000" fill-opacity="1" stroke-linejoin="round" d="M 500.845,338.238L 491.106,333.887L 491.514,332.974L 501.253,337.325L 500.845,338.238 Z M 481.367,329.537L 471.628,325.186L 472.036,324.273L 481.776,328.624L 481.367,329.537 Z M 461.889,320.835L 452.15,316.484L 452.559,315.571L 462.297,319.922L 461.889,320.835 Z M 442.411,312.133L 432.672,307.782L 433.08,306.869L 442.82,311.22L 442.411,312.133 Z M 422.933,303.432L 413.194,299.081L 413.603,298.168L 423.341,302.519L 422.933,303.432 Z M 403.455,294.73L 393.716,290.379L 394.125,289.466L 403.864,293.817L 403.455,294.73 Z M 383.977,286.028L 374.238,281.677L 374.646,280.765L 384.385,285.115L 383.977,286.028 Z M 364.499,277.326L 354.76,272.976L 355.168,272.063L 364.907,276.414L 364.499,277.326 Z M 345.021,268.625L 335.282,264.274L 335.69,263.361L 345.429,267.712L 345.021,268.625 Z M 325.543,259.923L 315.804,255.572L 316.212,254.66L 325.951,259.011L 325.543,259.923 Z M 306.065,251.222L 296.326,246.871L 296.734,245.958L 306.474,250.309L 306.065,251.222 Z M 286.587,242.52L 276.848,238.169L 277.256,237.257L 286.995,241.607L 286.587,242.52 Z M 267.109,233.818L 257.37,229.468L 257.778,228.555L 267.518,232.906L 267.109,233.818 Z M 247.631,225.117L 237.892,220.766L 238.3,219.854L 248.039,224.204L 247.631,225.117 Z M 228.153,216.415L 218.414,212.064L 218.823,211.152L 228.562,215.502L 228.153,216.415 Z M 208.675,207.714L 198.936,203.363L 199.344,202.45L 209.083,206.801L 208.675,207.714 Z M 189.197,199.012L 179.458,194.661L 179.866,193.749L 189.605,198.1L 189.197,199.012 Z M 169.719,190.311L 159.98,185.96L 160.388,185.047L 170.127,189.397L 169.719,190.311 Z M 150.241,181.609L 140.502,177.258L 140.91,176.345L 150.649,180.696L 150.241,181.609 Z M 130.763,172.907L 121.024,168.557L 121.432,167.644L 131.171,171.994L 130.763,172.907 Z M 111.285,164.206L 101.546,159.854L 101.954,158.942L 111.693,163.293L 111.285,164.206 Z M 520.323,346.939L 510.584,342.589L 510.992,341.676L 520.731,346.027L 520.323,346.939 Z "/>
	<path fill="#000000" fill-opacity="1" stroke-linejoin="round" d="M 496.078,364.737L 485.562,362.951L 485.729,361.966L 496.246,363.751L 496.078,364.737 Z M 475.046,361.165L 464.53,359.379L 464.698,358.394L 475.213,360.179L 475.046,361.165 Z M 454.014,357.593L 443.498,355.807L 443.665,354.821L 454.181,356.607L 454.014,357.593 Z M 432.982,354.021L 422.466,352.234L 422.633,351.249L 433.149,353.035L 432.982,354.021 Z M 411.95,350.449L 401.434,348.663L 401.601,347.677L 412.117,349.463L 411.95,350.449 Z M 390.917,346.876L 380.402,345.091L 380.569,344.105L 391.085,345.891L 390.917,346.876 Z M 369.885,343.305L 359.369,341.519L 359.537,340.533L 370.053,342.319L 369.885,343.305 Z M 348.854,339.732L 338.337,337.946L 338.504,336.96L 349.021,338.747L 348.854,339.732 Z M 327.821,336.16L 317.305,334.375L 317.472,333.389L 327.989,335.175L 327.821,336.16 Z M 306.789,332.588L 296.273,330.802L 296.44,329.816L 306.956,331.603L 306.789,332.588 Z M 285.757,329.016L 275.241,327.23L 275.408,326.244L 285.924,328.03L 285.757,329.016 Z M 264.725,325.444L 254.208,323.658L 254.376,322.672L 264.892,324.458L 264.725,325.444 Z M 243.693,321.872L 233.176,320.085L 233.344,319.1L 243.86,320.886L 243.693,321.872 Z M 222.66,318.3L 212.145,316.514L 212.312,315.528L 222.828,317.314L 222.66,318.3 Z M 201.628,314.728L 191.112,312.941L 191.28,311.956L 201.795,313.742L 201.628,314.728 Z M 180.596,311.155L 170.08,309.369L 170.247,308.384L 180.764,310.169L 180.596,311.155 Z M 159.564,307.583L 149.048,305.797L 149.215,304.812L 159.731,306.598L 159.564,307.583 Z M 138.532,304.011L 128.016,302.226L 128.183,301.24L 138.699,303.025L 138.532,304.011 Z M 117.5,300.439L 106.984,298.653L 107.151,297.667L 117.667,299.453L 117.5,300.439 Z M 517.11,368.31L 506.594,366.523L 506.762,365.538L 517.278,367.324L 517.11,368.31 Z "/>
	<path fill="#000000" fill-opacity="1" stroke-linejoin="round" d="M 490.671,381.675L 480.053,382.688L 479.958,381.692L 490.576,380.679L 490.671,381.675 Z M 469.435,383.701L 458.816,384.715L 458.721,383.719L 469.339,382.705L 469.435,383.701 Z M 448.198,385.728L 437.579,386.742L 437.484,385.746L 448.103,384.732L 448.198,385.728 Z M 426.961,387.755L 416.342,388.769L 416.247,387.772L 426.866,386.759L 426.961,387.755 Z M 405.724,389.781L 395.106,390.795L 395.011,389.799L 405.629,388.785L 405.724,389.781 Z M 384.487,391.809L 373.869,392.822L 373.774,391.826L 384.392,390.813L 384.487,391.809 Z M 363.25,393.835L 352.632,394.849L 352.537,393.853L 363.155,392.839L 363.25,393.835 Z M 342.014,395.862L 331.395,396.875L 331.3,395.879L 341.918,394.866L 342.014,395.862 Z M 320.777,397.889L 310.158,398.902L 310.063,397.906L 320.682,396.893L 320.777,397.889 Z M 299.54,399.916L 288.921,400.929L 288.826,399.933L 299.445,398.919L 299.54,399.916 Z M 278.303,401.942L 267.685,402.956L 267.589,401.96L 278.208,400.946L 278.303,401.942 Z M 257.066,403.969L 246.448,404.982L 246.353,403.986L 256.971,402.973L 257.066,403.969 Z M 235.829,405.996L 225.211,407.009L 225.116,406.013L 235.734,405L 235.829,405.996 Z M 214.592,408.022L 203.974,409.036L 203.879,408.04L 214.497,407.026L 214.592,408.022 Z M 193.356,410.049L 190.575,410.314L 190.48,409.318L 193.261,409.053L 193.356,410.049 Z M 511.908,379.648L 501.29,380.662L 501.195,379.666L 511.813,378.652L 511.908,379.648 Z "/>
	<path fill="#000000" fill-opacity="1" stroke-linejoin="round" d="M 91.3887,324.063L 84.8284,315.653L 85.6167,315.039L 92.177,323.449L 91.3887,324.063 Z M 104.509,340.885L 97.9492,332.474L 98.7375,331.859L 105.298,340.271L 104.509,340.885 Z "/>
	<path fill="#000000" fill-opacity="1" stroke-linejoin="round" d="M 109.814,316.369L 107.848,305.885L 108.831,305.7L 110.797,316.184L 109.814,316.369 Z M 105.882,295.4L 103.917,284.917L 104.9,284.732L 106.865,295.216L 105.882,295.4 Z M 101.951,274.433L 99.9854,263.949L 100.968,263.764L 102.934,274.248L 101.951,274.433 Z M 98.0195,253.465L 96.0537,242.98L 97.0366,242.796L 99.0024,253.28L 98.0195,253.465 Z M 94.0879,232.497L 92.1223,222.013L 93.1055,221.829L 95.0708,232.313L 94.0879,232.497 Z M 90.1565,211.529L 88.1907,201.045L 89.1738,200.86L 91.1396,211.345L 90.1565,211.529 Z M 86.2249,190.561L 84.259,180.077L 85.2422,179.893L 87.208,190.376L 86.2249,190.561 Z M 82.2935,169.593L 81.7454,166.67L 82.7285,166.485L 83.2766,169.409L 82.2935,169.593 Z M 113.745,337.337L 111.78,326.853L 112.763,326.668L 114.729,337.152L 113.745,337.337 Z "/>
	<path fill="#000000" fill-opacity="1" stroke-linejoin="round" d="M 130.666,314.034L 134.778,304.191L 135.701,304.577L 131.589,314.419L 130.666,314.034 Z M 138.89,294.349L 143.002,284.507L 143.925,284.893L 139.813,294.734L 138.89,294.349 Z M 147.114,274.665L 151.226,264.822L 152.149,265.208L 148.037,275.05L 147.114,274.665 Z M 155.338,254.98L 159.45,245.138L 160.373,245.523L 156.261,255.366L 155.338,254.98 Z M 163.562,235.296L 167.674,225.454L 168.597,225.839L 164.485,235.682L 163.562,235.296 Z M 171.786,215.611L 175.898,205.77L 176.821,206.155L 172.708,215.997L 171.786,215.611 Z M 180.01,195.927L 184.122,186.085L 185.044,186.47L 180.933,196.313L 180.01,195.927 Z M 188.234,176.243L 192.346,166.4L 193.269,166.786L 189.156,176.628L 188.234,176.243 Z M 196.458,156.558L 200.57,146.716L 201.492,147.102L 197.38,156.943L 196.458,156.558 Z M 204.682,136.874L 208.794,127.031L 209.716,127.417L 205.604,137.259L 204.682,136.874 Z M 212.906,117.189L 217.018,107.347L 217.94,107.732L 213.828,117.575L 212.906,117.189 Z M 221.13,97.5049L 225.242,87.6626L 226.164,88.0479L 222.052,97.8901L 221.13,97.5049 Z M 122.442,333.718L 126.554,323.876L 127.477,324.261L 123.365,334.104L 122.442,333.718 Z "/>
	<path fill="#000000" fill-opacity="1" stroke-linejoin="round" d="M 154.076,318.927L 161.508,311.275L 162.225,311.972L 154.793,319.623L 154.076,318.927 Z M 168.94,303.624L 176.372,295.973L 177.089,296.669L 169.657,304.32L 168.94,303.624 Z M 183.804,288.322L 191.236,280.67L 191.953,281.367L 184.521,289.019L 183.804,288.322 Z M 198.668,273.019L 206.1,265.368L 206.818,266.064L 199.385,273.716L 198.668,273.019 Z M 213.532,257.716L 220.964,250.065L 221.682,250.762L 214.25,258.413L 213.532,257.716 Z M 228.396,242.414L 235.828,234.763L 236.546,235.459L 229.114,243.11L 228.396,242.414 Z M 243.26,227.111L 250.692,219.46L 251.41,220.156L 243.978,227.808L 243.26,227.111 Z M 258.125,211.809L 265.557,204.157L 266.274,204.854L 258.842,212.505L 258.125,211.809 Z M 272.989,196.506L 280.42,188.854L 281.138,189.551L 273.706,197.203L 272.989,196.506 Z M 287.853,181.204L 295.285,173.552L 296.002,174.249L 288.57,181.9L 287.853,181.204 Z M 302.717,165.901L 310.149,158.25L 310.866,158.946L 303.434,166.598L 302.717,165.901 Z M 317.581,150.598L 325.013,142.947L 325.73,143.644L 318.298,151.295L 317.581,150.598 Z M 332.445,135.296L 339.877,127.645L 340.595,128.341L 333.162,135.992L 332.445,135.296 Z M 347.309,119.993L 354.741,112.342L 355.458,113.039L 348.027,120.689L 347.309,119.993 Z M 362.173,104.69L 365.211,101.563L 365.929,102.259L 362.891,105.387L 362.173,104.69 Z M 139.211,334.229L 146.644,326.578L 147.361,327.275L 139.929,334.926L 139.211,334.229 Z "/>
	<path fill="#000000" fill-opacity="1" stroke-linejoin="round" d="M 59.1396,203.312L 58.5068,192.664L 59.5049,192.604L 60.1377,203.252L 59.1396,203.312 Z M 57.8743,182.016L 57.2417,171.368L 58.2397,171.309L 58.8723,181.957L 57.8743,182.016 Z M 56.6094,160.72L 56.4045,157.274L 57.4026,157.215L 57.6074,160.661L 56.6094,160.72 Z M 60.4045,224.607L 59.772,213.959L 60.77,213.9L 61.4026,224.548L 60.4045,224.607 Z "/>
	<path fill="#000000" fill-opacity="1" stroke-linejoin="round" d="M 90.1895,204.432L 97.3511,196.527L 98.092,197.198L 90.9302,205.103L 90.1895,204.432 Z M 104.513,188.622L 111.674,180.717L 112.415,181.388L 105.253,189.293L 104.513,188.622 Z M 118.835,172.812L 125.997,164.906L 126.738,165.578L 119.576,173.483L 118.835,172.812 Z M 133.159,157.001L 140.32,149.096L 141.061,149.768L 133.9,157.673L 133.159,157.001 Z M 147.482,141.191L 154.643,133.286L 155.384,133.958L 148.223,141.862L 147.482,141.191 Z M 161.805,125.381L 168.966,117.476L 169.707,118.147L 162.546,126.052L 161.805,125.381 Z M 176.128,109.571L 183.289,101.666L 184.03,102.337L 176.869,110.242L 176.128,109.571 Z M 190.451,93.7607L 197.613,85.8555L 198.354,86.5269L 191.192,94.4321L 190.451,93.7607 Z M 75.8665,220.242L 83.0278,212.337L 83.7688,213.008L 76.6074,220.913L 75.8665,220.242 Z "/>
	<path fill="#000000" fill-opacity="1" stroke-linejoin="round" d="M 113.114,216.677L 122.981,212.624L 123.361,213.549L 113.494,217.602L 113.114,216.677 Z M 132.848,208.572L 142.714,204.52L 143.095,205.444L 133.228,209.497L 132.848,208.572 Z M 152.581,200.467L 162.448,196.415L 162.828,197.34L 152.961,201.392L 152.581,200.467 Z M 172.315,192.362L 182.182,188.31L 182.562,189.234L 172.695,193.287L 172.315,192.362 Z M 192.049,184.257L 201.916,180.205L 202.296,181.13L 192.429,185.182L 192.049,184.257 Z M 211.783,176.152L 221.65,172.1L 222.03,173.025L 212.163,177.077L 211.783,176.152 Z M 231.517,168.047L 241.383,163.995L 241.764,164.92L 231.897,168.972L 231.517,168.047 Z M 251.25,159.942L 261.117,155.89L 261.497,156.815L 251.63,160.867L 251.25,159.942 Z M 270.984,151.837L 280.851,147.785L 281.231,148.71L 271.364,152.763L 270.984,151.837 Z M 290.718,143.732L 300.584,139.68L 300.965,140.605L 291.098,144.657L 290.718,143.732 Z M 310.451,135.627L 320.318,131.575L 320.698,132.5L 310.832,136.553L 310.451,135.627 Z M 330.185,127.522L 340.052,123.47L 340.432,124.395L 330.565,128.448L 330.185,127.522 Z M 349.919,119.417L 359.786,115.365L 360.166,116.29L 350.299,120.343L 349.919,119.417 Z M 369.653,111.313L 379.52,107.26L 379.9,108.186L 370.033,112.238L 369.653,111.313 Z M 389.386,103.208L 392.047,102.115L 392.427,103.04L 389.767,104.133L 389.386,103.208 Z M 93.3801,224.782L 103.247,220.729L 103.627,221.654L 93.7603,225.707L 93.3801,224.782 Z "/>
	<path fill="#000000" fill-opacity="1" stroke-linejoin="round" d="M 312.613,67.458L 323.086,69.4775L 322.897,70.459L 312.423,68.4399L 312.613,67.458 Z M 333.56,71.4961L 344.034,73.5156L 343.845,74.4971L 333.371,72.478L 333.56,71.4961 Z M 291.665,63.4199L 302.139,65.4395L 301.949,66.4209L 291.476,64.4019L 291.665,63.4199 Z "/>
	<path fill="#000000" fill-opacity="1" stroke-linejoin="round" d="M 135.468,81.6528L 144.395,75.8154L 144.943,76.6528L 136.015,82.4902L 135.468,81.6528 Z M 153.323,69.9785L 162.25,64.1411L 162.798,64.9785L 153.87,70.8154L 153.323,69.9785 Z M 117.612,93.3276L 126.54,87.4902L 127.087,88.3276L 118.16,94.165L 117.612,93.3276 Z "/>
</svg>
