<?xml version="1.0" encoding="utf-8"?>
<!DOCTYPE svg PUBLIC "-//W3C//DTD SVG 1.1//EN" "http://www.w3.org/Graphics/SVG/1.1/DTD/svg11.dtd">
<svg xmlns="http://www.w3.org/2000/svg" xmlns:xlink="http://www.w3.org/1999/xlink" version="1.1" baseProfile="full" width="978.198" height="751.852" viewBox="0 0 978.20 751.85" enable-background="new 0 0 978.20 751.85" xml:space="preserve">
	<path fill="#E4E4E4" fill-opacity="1" stroke-linejoin="round" d="M 484.472,423.266C 754.594,415.645 975.642,482.896 978.198,573.477C 980.754,664.057 763.849,743.666 493.727,751.288C 223.605,758.909 2.5564,691.658 0.000244141,601.077C -2.55542,510.497 214.35,430.888 484.472,423.266 Z "/>
	<linearGradient id="SVGID_Fill1_" gradientUnits="objectBoundingBox" x1="0.457228" y1="0.351674" x2="0.834756" y2="0.351674" gradientTransform="rotate(-90.000000 0.457228 0.351674)">
		<stop offset="0.0136698" stop-color="#FFFFFF" stop-opacity="1"/>
		<stop offset="1" stop-color="#74B2A6" stop-opacity="1"/>
	</linearGradient>
	<path fill="url(#SVGID_Fill1_)" stroke-width="19" stroke-linejoin="round" stroke="#44605A" stroke-opacity="0.501961" d="M 289.002,43.1099L 322.401,43.1099L 322.401,29.4663C 322.401,18.4395 331.373,9.5 342.44,9.5L 368.826,9.5C 379.893,9.5 388.865,18.4395 388.865,29.4663L 388.865,43.1099L 570.557,43.1099L 570.557,30.7974C 570.557,19.77 579.529,10.8306 590.597,10.8306L 616.982,10.8306C 628.05,10.8306 637.022,19.77 637.022,30.7974L 637.022,43.1099L 671.757,43.1099C 682.824,43.1099 691.796,52.0493 691.796,63.0762L 691.796,582.867C 691.796,593.894 682.824,602.833 671.757,602.833L 289.002,602.833C 277.935,602.833 268.963,593.894 268.963,582.867L 268.963,63.0762C 268.963,52.0493 277.935,43.1099 289.002,43.1099 Z "/>
	<path fill="#FFFFFF" fill-opacity="1" stroke-linejoin="round" d="M 276.776,306.826L 683.214,306.826L 683.165,580.646L 276.726,580.646L 276.776,306.826 Z "/>
	<path fill="#ADCAC4" fill-opacity="1" stroke-linejoin="round" d="M 648.015,419.016L 594.954,419.016L 594.954,365.954L 648.015,365.954L 648.015,419.016 Z M 648.016,489.76L 594.954,489.76L 594.954,436.699L 648.016,436.699L 648.016,489.76 Z M 648.016,560.509L 594.954,560.509L 594.954,507.448L 648.016,507.448L 648.016,560.509 Z M 577.267,419.011L 524.205,419.011L 524.205,365.95L 577.267,365.95L 577.267,419.011 Z M 577.267,489.76L 524.205,489.76L 524.205,436.699L 577.267,436.699L 577.267,489.76 Z M 577.267,560.509L 524.205,560.509L 524.205,507.448L 577.267,507.448L 577.267,560.509 Z M 506.518,419.011L 453.456,419.011L 453.456,365.95L 506.518,365.95L 506.518,419.011 Z M 506.518,489.76L 453.456,489.76L 453.456,436.699L 506.518,436.699L 506.518,489.76 Z M 506.518,560.509L 453.456,560.509L 453.456,507.448L 506.518,507.448L 506.518,560.509 Z M 435.769,419.011L 382.707,419.011L 382.707,365.95L 435.769,365.95L 435.769,419.011 Z M 435.769,489.76L 382.707,489.76L 382.707,436.699L 435.769,436.699L 435.769,489.76 Z M 435.769,560.509L 382.707,560.509L 382.707,507.448L 435.769,507.448L 435.769,560.509 Z M 365.02,419.011L 311.958,419.011L 311.958,365.95L 365.02,365.95L 365.02,419.011 Z M 365.02,489.76L 311.958,489.76L 311.958,436.699L 365.02,436.699L 365.02,489.76 Z M 365.02,560.509L 311.958,560.509L 311.958,507.448L 365.02,507.448L 365.02,560.509 Z M 276.584,295.201L 276.584,578.196C 276.584,587.925 284.543,595.884 294.271,595.884L 665.703,595.884C 675.431,595.884 683.39,587.925 683.39,578.196L 683.39,295.201L 276.584,295.201 Z "/>
	<path fill="#FF0000" fill-opacity="1" stroke-width="2" stroke-linejoin="round" stroke="#000000" stroke-opacity="1" d="M 659.371,514.609L 638.295,535.684L 659.349,556.738C 660.418,557.807 660.418,559.551 659.349,560.615L 647.865,572.093C 646.807,573.168 645.063,573.168 643.988,572.093L 622.934,551.04L 601.865,572.115C 600.801,573.179 599.056,573.179 597.987,572.115L 586.503,560.631C 585.445,559.562 585.445,557.818 586.503,556.754L 607.579,535.684L 586.492,514.598C 585.423,513.528 585.423,511.779 586.492,510.72L 597.976,499.236C 599.035,498.167 600.779,498.167 601.854,499.236L 622.934,520.323L 644.01,499.248C 645.074,498.189 646.818,498.189 647.887,499.248L 659.371,510.731C 660.429,511.8 660.429,513.55 659.371,514.609 Z "/>
	<rect x="322.671" y="281.275" fill="#FFC800" fill-opacity="1" stroke-linejoin="round" width="24.8857" height="3.77051"/>
	<rect x="322.179" y="277.504" fill="#FFDB56" fill-opacity="1" stroke-linejoin="round" width="24.8857" height="3.77051"/>
	<rect x="322.07" y="273.733" fill="#FFD744" fill-opacity="1" stroke-linejoin="round" width="24.8857" height="3.771"/>
	<rect x="321.47" y="269.962" fill="#FFD023" fill-opacity="1" stroke-linejoin="round" width="24.8857" height="3.771"/>
	<rect x="320.979" y="266.247" fill="#E6B811" fill-opacity="1" stroke-linejoin="round" width="24.8857" height="3.771"/>
	<rect x="321.033" y="262.92" fill="#FFDD61" fill-opacity="1" stroke-linejoin="round" width="24.8857" height="3.771"/>
	<rect x="321.17" y="259.232" fill="#E6B811" fill-opacity="1" stroke-linejoin="round" width="24.8857" height="3.771"/>
	<rect x="321.47" y="255.545" fill="#FFC800" fill-opacity="1" stroke-linejoin="round" width="24.8857" height="3.771"/>
	<rect x="320.979" y="251.774" fill="#FFDB56" fill-opacity="1" stroke-linejoin="round" width="24.8857" height="3.771"/>
	<rect x="320.87" y="248.003" fill="#FFD744" fill-opacity="1" stroke-linejoin="round" width="24.8857" height="3.77051"/>
	<rect x="321.251" y="244.232" fill="#FFD023" fill-opacity="1" stroke-linejoin="round" width="24.8857" height="3.771"/>
	<rect x="321.251" y="240.517" fill="#E6B811" fill-opacity="1" stroke-linejoin="round" width="24.8857" height="3.771"/>
	<rect x="321.797" y="237.19" fill="#FFDD61" fill-opacity="1" stroke-linejoin="round" width="24.8857" height="3.77051"/>
	<rect x="320.133" y="233.502" fill="#E6B811" fill-opacity="1" stroke-linejoin="round" width="24.8857" height="3.77051"/>
	<rect x="290.69" y="281.497" fill="#FFC800" fill-opacity="1" stroke-linejoin="round" width="24.8857" height="3.771"/>
	<rect x="290.199" y="277.726" fill="#FFDB56" fill-opacity="1" stroke-linejoin="round" width="24.8857" height="3.77051"/>
	<rect x="290.09" y="273.955" fill="#FFD744" fill-opacity="1" stroke-linejoin="round" width="24.8857" height="3.771"/>
	<rect x="290.963" y="270.184" fill="#FFD023" fill-opacity="1" stroke-linejoin="round" width="24.8857" height="3.771"/>
	<rect x="288.999" y="266.469" fill="#E6B811" fill-opacity="1" stroke-linejoin="round" width="24.8857" height="3.77051"/>
	<rect x="292.982" y="263.142" fill="#FFDD61" fill-opacity="1" stroke-linejoin="round" width="24.8857" height="3.77051"/>
	<rect x="289.1" y="259.455" fill="#E4C555" fill-opacity="1" stroke-linejoin="round" width="24.8857" height="3.77051"/>
	<rect x="352.655" y="280.981" fill="#FFC800" fill-opacity="1" stroke-linejoin="round" width="20.8682" height="3.77051"/>
	<rect x="353.066" y="277.209" fill="#FFDB56" fill-opacity="1" stroke-linejoin="round" width="20.8682" height="3.771"/>
	<rect x="353.158" y="273.439" fill="#FFD744" fill-opacity="1" stroke-linejoin="round" width="20.8682" height="3.771"/>
	<rect x="353.661" y="269.668" fill="#FFD023" fill-opacity="1" stroke-linejoin="round" width="20.8682" height="3.77051"/>
	<rect x="354.073" y="265.953" fill="#E6B811" fill-opacity="1" stroke-linejoin="round" width="20.8682" height="3.771"/>
	<rect x="354.027" y="262.625" fill="#FFDD61" fill-opacity="1" stroke-linejoin="round" width="20.8682" height="3.771"/>
	<rect x="353.913" y="258.938" fill="#E6B811" fill-opacity="1" stroke-linejoin="round" width="20.8682" height="3.771"/>
	<rect x="353.661" y="255.25" fill="#FFC800" fill-opacity="1" stroke-linejoin="round" width="20.8682" height="3.771"/>
	<rect x="354.073" y="251.48" fill="#FFDB56" fill-opacity="1" stroke-linejoin="round" width="20.8682" height="3.77051"/>
	<rect x="354.165" y="247.709" fill="#FFD744" fill-opacity="1" stroke-linejoin="round" width="20.8682" height="3.77051"/>
	<rect x="353.844" y="243.938" fill="#FFD023" fill-opacity="1" stroke-linejoin="round" width="20.8682" height="3.771"/>
	<rect x="353.844" y="240.223" fill="#E6B811" fill-opacity="1" stroke-linejoin="round" width="20.8682" height="3.77051"/>
	<rect x="353.387" y="236.896" fill="#FFDD61" fill-opacity="1" stroke-linejoin="round" width="20.8682" height="3.77051"/>
	<rect x="354.782" y="233.208" fill="#E6B811" fill-opacity="1" stroke-linejoin="round" width="20.8682" height="3.77051"/>
	<rect x="379.472" y="281.203" fill="#FFC800" fill-opacity="1" stroke-linejoin="round" width="20.8682" height="3.77051"/>
	<rect x="379.884" y="277.432" fill="#FFDB56" fill-opacity="1" stroke-linejoin="round" width="20.8682" height="3.771"/>
	<rect x="379.976" y="273.661" fill="#FFD744" fill-opacity="1" stroke-linejoin="round" width="20.8682" height="3.771"/>
	<rect x="379.243" y="269.89" fill="#FFD023" fill-opacity="1" stroke-linejoin="round" width="20.8682" height="3.771"/>
	<rect x="380.891" y="266.175" fill="#E6B811" fill-opacity="1" stroke-linejoin="round" width="20.8682" height="3.771"/>
	<rect x="377.55" y="262.848" fill="#FFDD61" fill-opacity="1" stroke-linejoin="round" width="20.8682" height="3.771"/>
	<rect x="380.805" y="259.16" fill="#E4C555" fill-opacity="1" stroke-linejoin="round" width="20.8682" height="3.771"/>
	<linearGradient id="SVGID_Fill2_" gradientUnits="objectBoundingBox" x1="0" y1="0.5" x2="1" y2="0.5">
		<stop offset="0" stop-color="#E6B811" stop-opacity="1"/>
		<stop offset="0.504587" stop-color="#FEECAE" stop-opacity="1"/>
		<stop offset="1" stop-color="#DEB31B" stop-opacity="1"/>
	</linearGradient>
	<path fill="url(#SVGID_Fill2_)" stroke-linejoin="round" d="M 376.149,264.625C 383.411,264.625 389.299,270.047 389.299,276.737C 389.299,283.426 383.411,288.849 376.149,288.849C 368.886,288.849 362.998,283.426 362.998,276.737C 362.998,270.047 368.886,264.625 376.149,264.625 Z "/>
	<path fill="none" stroke-width="2" stroke-linejoin="round" stroke="#FFEFB4" stroke-opacity="1" d="M 376.159,266.502C 382.35,266.502 387.368,271.125 387.368,276.827C 387.368,282.528 382.35,287.151 376.159,287.151C 369.969,287.151 364.95,282.528 364.95,276.827C 364.95,271.125 369.969,266.502 376.159,266.502 Z "/>
	<path fill="#FEDD14" fill-opacity="1" stroke-linejoin="round" d="M 487.878,180.86C 502.047,180.86 513.533,188.45 513.533,197.812C 513.533,207.173 502.047,214.763 487.878,214.763C 473.71,214.763 462.224,207.173 462.224,197.812C 462.224,188.45 473.71,180.86 487.878,180.86 Z "/>
	<path fill="#FEDD14" fill-opacity="1" stroke-linejoin="round" d="M 414.547,223.542L 459.651,257.748L 593.751,211.736L 538.961,187.217L 414.547,223.542 Z "/>
	<path fill="#8A5E3B" fill-opacity="1" stroke-linejoin="round" d="M 536.539,133.94C 536.539,133.94 519.89,148.167 535.934,179.346C 476.603,203.563 415.456,212.947 415.456,212.947L 430.288,150.589L 536.539,133.94 Z "/>
	<path fill="#744C28" fill-opacity="1" stroke-linejoin="round" d="M 566.204,129.097L 530.182,134.848C 530.182,134.848 522.615,169.962 535.631,181.163C 545.318,178.741 567.113,129.097 566.204,129.097 Z "/>
	<path fill="#AC7742" fill-opacity="1" stroke-linejoin="round" d="M 412.315,234.799L 412.921,270.519L 458.024,310.476L 457.116,261.437L 412.315,234.799 Z "/>
	<path fill="#BEC0C1" fill-opacity="1" stroke-linejoin="round" d="M 407.018,222.993L 539.604,185.76L 603.476,212.398L 458.781,259.923L 407.018,222.993 Z M 459.992,252.658L 459.992,252.961L 589.854,211.49L 538.393,188.787L 417.008,222.69L 459.992,252.658 Z "/>
	<path fill="#AC7742" fill-opacity="1" stroke-linejoin="round" d="M 462.867,264.162L 464.986,312.292L 598.783,260.832L 596.967,218.755L 462.867,264.162 Z "/>
	<path fill="#D0D0D0" fill-opacity="1" stroke-linejoin="round" d="M 459.084,259.621L 602.87,212.398L 602.265,262.647L 459.689,319.254L 459.084,259.621 Z M 466.349,266.885L 466.954,308.961L 594.395,259.923L 594.698,223.295L 466.349,266.885 Z "/>
	<path fill="#DEDEDE" fill-opacity="1" stroke-linejoin="round" d="M 407.32,222.993L 459.386,259.923L 459.84,319.254L 408.985,270.064L 407.32,222.993 Z M 453.484,266.28L 414.737,237.069L 416.099,267.491L 454.392,303.665L 453.484,266.28 Z "/>
	<path fill="#BEC0C1" fill-opacity="1" stroke-linejoin="round" d="M 427.148,146.71L 577.594,121.283L 540.361,183.944L 407.472,221.177L 427.148,146.71 Z M 433.202,153.37L 417.461,210.885L 537.031,178.495L 565.486,130.97L 433.202,153.37 Z "/>
	<path fill="#DEDEDE" fill-opacity="1" stroke-linejoin="round" d="M 407.585,220.95C 407.586,220.95 381.439,185.76 387.796,155.489C 390.967,140.392 400.804,134.905 406.564,134.905C 415.948,134.905 426.997,146.71 426.997,146.71L 407.585,220.95 Z "/>
	<path fill="#885A38" fill-opacity="1" stroke-linejoin="round" d="M 405.234,204.84C 405.234,204.84 388.282,172.45 392.521,157.617C 396.759,142.785 401.602,141.574 407.353,141.876C 413.105,142.179 419.764,150.352 419.764,150.352L 405.234,204.84 Z "/>
	<path fill="#744C28" fill-opacity="1" stroke-linejoin="round" d="M 538.999,111.615L 410.12,132.957L 425.937,144.799L 572.751,120.583C 572.751,120.583 574.567,117.821 563.064,113.886C 551.561,109.951 544.448,111.01 538.999,111.615 Z "/>
	<path fill="#C8CACB" fill-opacity="1" stroke-linejoin="round" d="M 399.677,137.119C 399.629,137.346 408.625,132.263 412.845,132.88C 417.367,133.542 421.916,135.169 425.029,137.951C 428.586,141.129 429.816,142.321 429.816,142.321L 570.348,119.732C 570.348,119.732 563.026,113.451 555.61,112.694C 548.194,111.937 537.145,111.937 537.145,111.937C 537.145,111.937 552.56,109.624 558.637,110.726C 572.618,113.261 578.313,121.926 578.313,121.926L 426.959,146.749C 426.959,146.749 418.672,139.238 413.829,137.724C 408.985,136.21 404.218,135.605 399.677,137.119 Z "/>
	<path fill="#FEDD14" fill-opacity="1" stroke-linejoin="round" d="M 477.283,188.428C 493.291,188.428 506.268,196.289 506.268,205.985C 506.268,215.681 493.291,223.542 477.283,223.542C 461.276,223.542 448.3,215.681 448.3,205.985C 448.3,196.289 461.276,188.428 477.283,188.428 Z "/>
	<path fill="#FEDD14" fill-opacity="1" stroke-linejoin="round" d="M 459.348,202.05C 477.069,202.05 491.435,211.13 491.435,222.331C 491.435,233.532 477.069,242.613 459.348,242.613C 441.627,242.613 427.261,233.532 427.261,222.331C 427.261,211.13 441.627,202.05 459.348,202.05 Z "/>
	<path fill="#FEDD14" fill-opacity="1" stroke-linejoin="round" d="M 511.641,177.53C 523.887,177.53 533.814,185.052 533.814,194.331C 533.814,203.609 523.887,211.131 511.641,211.131C 499.395,211.131 489.468,203.609 489.468,194.331C 489.468,185.052 499.395,177.53 511.641,177.53 Z "/>
	<path fill="#FEDD14" fill-opacity="1" stroke-linejoin="round" d="M 535.706,185.704C 546.865,185.704 555.912,192.954 555.912,201.898C 555.912,210.842 546.866,218.093 535.706,218.093C 524.547,218.093 515.501,210.842 515.501,201.898C 515.501,192.954 524.547,185.704 535.706,185.704 Z "/>
	<path fill="#FEDD14" fill-opacity="1" stroke-linejoin="round" d="M 547.588,191.455C 565.309,191.455 579.675,200.536 579.675,211.736C 579.675,222.938 559.103,211.131 541.382,211.131C 523.661,211.131 515.501,222.938 515.501,211.736C 515.501,200.536 529.866,191.455 547.588,191.455 Z "/>
	<path fill="#FFC355" fill-opacity="1" stroke-linejoin="round" stroke="#EA9E16" stroke-opacity="1" d="M 486.592,192.666C 488.431,192.666 489.922,193.682 489.922,194.936C 489.922,196.19 488.431,197.207 486.592,197.207C 484.753,197.207 483.262,196.19 483.262,194.936C 483.262,193.682 484.753,192.666 486.592,192.666 Z "/>
	<path fill="#FFC355" fill-opacity="1" stroke-linejoin="round" stroke="#EA9E16" stroke-opacity="1" d="M 477.102,192.081C 478.604,192.49 479.634,193.507 479.403,194.352C 479.173,195.197 477.769,195.55 476.268,195.141C 474.767,194.732 473.737,193.715 473.967,192.871C 474.198,192.025 475.601,191.672 477.102,192.081 Z "/>
	<path fill="#FFC355" fill-opacity="1" stroke-linejoin="round" stroke="#EA9E16" stroke-opacity="1" d="M 469.925,197.984C 471.426,198.394 472.456,199.41 472.226,200.255C 471.996,201.1 470.592,201.454 469.091,201.044C 467.59,200.635 466.56,199.619 466.79,198.774C 467.02,197.928 468.424,197.575 469.925,197.984 Z "/>
	<path fill="#FFC355" fill-opacity="1" stroke-linejoin="round" stroke="#EA9E16" stroke-opacity="1" d="M 466.133,197.341C 467.596,196.814 469.023,197.055 469.32,197.879C 469.617,198.703 468.671,199.798 467.207,200.325C 465.743,200.853 464.316,200.612 464.019,199.788C 463.722,198.963 464.668,197.868 466.133,197.341 Z "/>
	<path fill="#FFC355" fill-opacity="1" stroke-linejoin="round" stroke="#EA9E16" stroke-opacity="1" d="M 455.028,199.554C 456.245,199.772 457.12,200.563 456.984,201.321C 456.848,202.079 455.752,202.516 454.535,202.297C 453.319,202.079 452.444,201.288 452.58,200.53C 452.716,199.772 453.812,199.335 455.028,199.554 Z "/>
	<path fill="#FFC355" fill-opacity="1" stroke-linejoin="round" stroke="#EA9E16" stroke-opacity="1" d="M 459.052,198.986C 460.124,198.372 461.304,198.414 461.687,199.082C 462.07,199.75 461.512,200.79 460.44,201.404C 459.368,202.019 458.189,201.977 457.806,201.309C 457.423,200.641 457.981,199.602 459.052,198.986 Z "/>
	<path fill="#FFC355" fill-opacity="1" stroke-linejoin="round" stroke="#EA9E16" stroke-opacity="1" d="M 462.093,193.495C 463,192.657 464.159,192.436 464.682,193.001C 465.204,193.567 464.891,194.705 463.983,195.543C 463.075,196.381 461.916,196.603 461.394,196.037C 460.872,195.471 461.185,194.333 462.093,193.495 Z "/>
	<path fill="#FFC355" fill-opacity="1" stroke-linejoin="round" stroke="#EA9E16" stroke-opacity="1" d="M 466.443,231.128C 469.51,231.128 471.995,232.831 471.995,234.931C 471.995,237.032 469.51,238.734 466.443,238.734C 463.376,238.734 460.89,237.032 460.89,234.931C 460.89,232.831 463.376,231.128 466.443,231.128 Z "/>
	<path fill="#FFC355" fill-opacity="1" stroke-linejoin="round" stroke="#EA9E16" stroke-opacity="1" d="M 473.434,228.461C 476.501,228.461 478.987,230.164 478.987,232.264C 478.987,234.364 476.5,236.067 473.434,236.067C 470.367,236.067 467.881,234.364 467.881,232.264C 467.881,230.164 470.367,228.461 473.434,228.461 Z "/>
	<path fill="#FFC355" fill-opacity="1" stroke-linejoin="round" stroke="#EA9E16" stroke-opacity="1" d="M 467.101,212.398C 469.34,212.398 471.154,213.351 471.154,214.527C 471.154,215.702 469.339,216.655 467.101,216.655C 464.862,216.655 463.047,215.702 463.047,214.527C 463.047,213.351 464.862,212.398 467.101,212.398 Z "/>
	<path fill="#FFC355" fill-opacity="1" stroke-linejoin="round" stroke="#EA9E16" stroke-opacity="1" d="M 534.552,193.98C 536.07,193.98 537.3,194.73 537.3,195.655C 537.3,196.58 536.07,197.33 534.552,197.33C 533.034,197.33 531.804,196.58 531.804,195.655C 531.804,194.73 533.034,193.98 534.552,193.98 Z "/>
	<path fill="#FFC355" fill-opacity="1" stroke-linejoin="round" stroke="#EA9E16" stroke-opacity="1" d="M 532.769,195.711C 534.287,195.711 535.517,196.461 535.517,197.386C 535.517,198.311 534.287,199.061 532.769,199.061C 531.251,199.061 530.021,198.311 530.021,197.386C 530.021,196.461 531.251,195.711 532.769,195.711 Z "/>
	<path fill="#FFC355" fill-opacity="1" stroke-linejoin="round" stroke="#EA9E16" stroke-opacity="1" d="M 511.875,193.471C 513.135,194.317 512.648,194.433 512.133,195.201C 511.617,195.968 511.267,197.097 510.007,196.25C 508.747,195.404 508.144,194.095 508.66,193.328C 509.176,192.56 510.615,192.625 511.875,193.471 Z "/>
	<path fill="#FFC355" fill-opacity="1" stroke-linejoin="round" stroke="#FFB631" stroke-opacity="1" d="M 496.846,188.56C 497.828,188.56 498.625,189.127 498.625,189.828C 498.625,190.528 497.828,191.095 496.846,191.095C 495.864,191.095 495.068,190.528 495.068,189.828C 495.068,189.127 495.864,188.56 496.846,188.56 Z "/>
	<path fill="#FFC355" fill-opacity="1" stroke-linejoin="round" stroke="#FFB631" stroke-opacity="1" d="M 500.696,190.963C 501.678,190.963 502.475,191.53 502.475,192.23C 502.475,192.93 501.678,193.498 500.696,193.498C 499.714,193.498 499.93,192.93 499.93,192.23C 499.93,191.53 499.714,190.963 500.696,190.963 Z "/>
	<path fill="#FFC355" fill-opacity="1" stroke-linejoin="round" stroke="#FFB631" stroke-opacity="1" d="M 498.483,184.947C 499.465,184.947 500.261,185.514 500.261,186.214C 500.261,186.915 499.607,186.555 498.625,186.555C 497.643,186.555 496.704,186.915 496.704,186.214C 496.704,185.514 497.5,184.947 498.483,184.947 Z "/>
	<path fill="#FFC355" fill-opacity="1" stroke-linejoin="round" stroke="#EA9E16" stroke-opacity="1" d="M 491.617,210.194C 492.886,210.194 493.914,210.963 493.914,211.911C 493.914,212.859 492.886,213.628 491.617,213.628C 490.349,213.628 489.321,212.859 489.321,211.911C 489.321,210.963 490.349,210.194 491.617,210.194 Z "/>
	<path fill="#FFC355" fill-opacity="1" stroke-linejoin="round" stroke="#EA9E16" stroke-opacity="1" d="M 495.572,210.205C 496.725,210.653 497.363,211.779 496.997,212.722C 496.631,213.664 495.4,214.065 494.247,213.618C 493.094,213.17 492.456,212.043 492.822,211.101C 493.188,210.158 494.419,209.757 495.572,210.205 Z "/>
	<path fill="#FFC355" fill-opacity="1" stroke-linejoin="round" stroke="#EA9E16" stroke-opacity="1" d="M 439.116,221.63C 440.48,223.147 437.837,222.949 436.275,224.354C 434.714,225.758 434.825,228.233 433.462,226.716C 432.098,225.2 432.258,222.832 433.819,221.427C 435.381,220.023 437.752,220.114 439.116,221.63 Z "/>
	<path fill="#FFC355" fill-opacity="1" stroke-linejoin="round" stroke="#EA9E16" stroke-opacity="1" d="M 435.11,230.816C 436.512,230.816 437.648,231.564 437.648,232.486C 437.648,233.408 436.512,234.156 435.11,234.156C 433.709,234.156 432.573,233.408 432.573,232.486C 432.573,231.564 433.709,230.816 435.11,230.816 Z "/>
	<path fill="#FFC355" fill-opacity="1" stroke-linejoin="round" stroke="#EA9E16" stroke-opacity="1" d="M 436.684,232.065C 437.102,230.918 438.143,230.245 439.01,230.561C 439.876,230.876 440.239,232.062 439.821,233.208C 439.403,234.355 438.362,235.029 437.496,234.713C 436.63,234.397 436.266,233.211 436.684,232.065 Z "/>
	<path fill="#FFC355" fill-opacity="1" stroke-linejoin="round" stroke="#FFB631" stroke-opacity="1" d="M 476.962,211.51C 477.944,211.51 478.74,212.078 478.74,212.778C 478.74,213.478 478.086,213.119 477.104,213.119C 476.122,213.119 475.184,213.478 475.184,212.778C 475.184,212.078 475.98,211.51 476.962,211.51 Z "/>
	<path fill="#FFC355" fill-opacity="1" stroke-linejoin="round" stroke="#FFB631" stroke-opacity="1" d="M 479.665,211.254C 480.842,211.254 481.796,212.059 481.796,213.051C 481.796,214.044 481.012,213.534 479.835,213.534C 478.658,213.534 477.534,214.044 477.534,213.051C 477.534,212.059 478.488,211.254 479.665,211.254 Z "/>
	<path fill="#FFC355" fill-opacity="1" stroke-linejoin="round" stroke="#EA9E16" stroke-opacity="1" d="M 517.851,218.339C 520.043,218.339 521.82,219.648 521.82,221.262C 521.82,222.876 520.043,224.185 517.851,224.185C 515.66,224.185 513.883,222.876 513.883,221.262C 513.883,219.648 515.659,218.339 517.851,218.339 Z "/>
	<path fill="#FFC355" fill-opacity="1" stroke-linejoin="round" stroke="#EA9E16" stroke-opacity="1" d="M 527.554,215.132C 529.257,215.132 530.636,216.121 530.636,217.341C 530.636,218.561 529.256,219.55 527.554,219.55C 525.853,219.55 524.473,218.561 524.473,217.341C 524.473,216.121 525.853,215.132 527.554,215.132 Z "/>
	<path fill="#FFC355" fill-opacity="1" stroke-linejoin="round" stroke="#EA9E16" stroke-opacity="1" d="M 532.831,213.543C 535.022,213.543 536.799,214.852 536.799,216.466C 536.799,218.081 535.022,219.389 532.831,219.389C 530.639,219.389 528.862,218.081 528.862,216.466C 528.862,214.852 530.639,213.543 532.831,213.543 Z "/>
	<path fill="#FFC355" fill-opacity="1" stroke-linejoin="round" stroke="#FFB631" stroke-opacity="1" d="M 521.55,192.344C 523.318,192.344 524.752,193.31 524.752,194.501C 524.752,195.692 523.574,195.081 521.805,195.081C 520.037,195.081 518.348,195.692 518.348,194.501C 518.348,193.31 519.781,192.344 521.55,192.344 Z "/>
	<path fill="#FFC355" fill-opacity="1" stroke-linejoin="round" stroke="#EA9E16" stroke-opacity="1" d="M 562.514,199.149C 563.654,199.46 564.391,200.397 564.161,201.242C 563.93,202.087 562.82,202.52 561.68,202.209C 560.54,201.899 559.803,200.962 560.033,200.117C 560.264,199.272 561.374,198.838 562.514,199.149 Z "/>
	<path fill="#FFC355" fill-opacity="1" stroke-linejoin="round" stroke="#EA9E16" stroke-opacity="1" d="M 554.258,202.79C 555.397,203.101 556.135,204.037 555.904,204.882C 555.674,205.728 554.563,206.161 553.424,205.85C 552.283,205.54 551.547,204.603 551.777,203.757C 552.007,202.912 553.117,202.479 554.258,202.79 Z "/>
	<path fill="#FFC355" fill-opacity="1" stroke-linejoin="round" stroke="#EA9E16" stroke-opacity="1" d="M 556.41,204.94C 557.767,205.31 558.676,206.312 558.439,207.178C 558.203,208.045 556.912,208.447 555.555,208.078C 554.198,207.708 553.29,206.706 553.526,205.839C 553.762,204.973 555.053,204.57 556.41,204.94 Z "/>
	<path fill="#FFC355" fill-opacity="1" stroke-linejoin="round" stroke="#EA9E16" stroke-opacity="1" d="M 556.595,207.349C 557.952,207.718 558.784,209.001 558.453,210.213C 558.123,211.425 556.755,212.108 555.398,211.739C 554.042,211.369 553.209,210.086 553.54,208.874C 553.87,207.662 555.238,206.979 556.595,207.349 Z "/>
	<path fill="#FFC355" fill-opacity="1" stroke-linejoin="round" stroke="#EA9E16" stroke-opacity="1" d="M 577.809,210.578C 578.829,210.856 579.449,211.839 579.195,212.773C 578.94,213.708 577.906,214.24 576.886,213.961C 575.866,213.684 575.246,212.701 575.5,211.767C 575.755,210.832 576.788,210.3 577.809,210.578 Z "/>
	<path fill="#FFC355" fill-opacity="1" stroke-linejoin="round" stroke="#FFB631" stroke-opacity="1" d="M 522.453,183.15C 523.436,183.15 524.232,183.718 524.232,184.418C 524.232,185.118 523.577,184.759 522.595,184.759C 521.613,184.759 520.675,185.118 520.675,184.418C 520.675,183.718 521.471,183.15 522.453,183.15 Z "/>
	<path fill="#D0D0D0" fill-opacity="1" stroke-linejoin="round" stroke="#9A9A9A" stroke-opacity="1" d="M 477.208,126.088L 505.36,122.002L 512.928,125.634L 506.42,126.24C 506.42,126.24 513.685,131.688 518.982,135.321C 524.279,138.954 525.49,140.921 523.674,143.646C 521.858,146.37 511.868,144.402 511.868,144.402L 492.495,129.418L 483.262,130.478L 477.208,126.088 Z M 504.906,133.202L 514.29,140.467L 518.831,139.408L 509.901,132.445L 504.906,133.202 Z "/>
	<path fill="#D0D0D0" fill-opacity="1" stroke-linejoin="round" stroke="#9A9A9A" stroke-opacity="1" d="M 520.836,253.304L 520.836,267.607L 548.647,257.164L 548.533,243.542L 520.836,253.304 Z "/>
	<path fill="#D0D0D0" fill-opacity="1" stroke-linejoin="round" stroke="#9A9A9A" stroke-opacity="1" d="M 534.458,248.499C 534.533,248.574 537.106,248.499 539.528,249.255C 541.949,250.012 546.118,251.898 545.551,258.482C 544.586,265.463 534.609,261.439 534.609,261.439L 534.458,248.499 Z M 539.194,252.919C 537.961,252.919 537.485,254.782 537.485,256.558C 537.485,258.334 538.415,260.071 539.648,260.071C 540.881,260.071 541.975,258.385 541.975,256.609C 541.975,254.833 540.427,252.919 539.194,252.919 Z "/>
</svg>
