<?xml version="1.0" encoding="utf-8"?>
<!DOCTYPE svg PUBLIC "-//W3C//DTD SVG 1.1//EN" "http://www.w3.org/Graphics/SVG/1.1/DTD/svg11.dtd">
<svg xmlns="http://www.w3.org/2000/svg" xmlns:xlink="http://www.w3.org/1999/xlink" version="1.1" baseProfile="full" width="1256.94" height="532.992" viewBox="0 0 1256.94 532.99" enable-background="new 0 0 1256.94 532.99" xml:space="preserve">
	<path fill="#F4F4F4" fill-opacity="1" stroke-width="0.2" stroke-linejoin="round" d="M 628.541,250.616C 975.635,250.811 1256.98,308.793 1256.94,380.123C 1256.9,451.453 975.49,509.119 628.396,508.925C 281.302,508.73 -0.0400391,450.748 0,379.418C 0.0400391,308.088 281.447,250.422 628.541,250.616 Z "/>
	<rect x="587.457" y="319.521" fill="#5C637D" fill-opacity="1" stroke-width="0.2" stroke-linejoin="round" width="326.048" height="18.3574"/>
	<rect x="571.251" y="274.563" fill="#454056" fill-opacity="1" stroke-width="0.2" stroke-linejoin="round" width="360.396" height="46.1787"/>
	<rect x="558.159" y="210.743" fill="#5C647B" fill-opacity="1" stroke-width="0.2" stroke-linejoin="round" width="385.314" height="64.6089"/>
	<path fill="#454056" fill-opacity="1" stroke-width="0.2" stroke-linejoin="round" d="M 551.366,196.95L 952.248,196.95C 956.077,196.95 959.182,200.054 959.182,203.884L 959.182,203.884C 959.182,207.712 956.077,210.817 952.248,210.817L 551.366,210.817C 547.537,210.817 544.433,207.712 544.433,203.884L 544.433,203.884C 544.433,200.054 547.537,196.95 551.366,196.95 Z "/>
	<path fill="#F9C69F" fill-opacity="1" stroke-width="0.2" stroke-linejoin="round" d="M 808.418,129.734L 810.085,163.401L 817.918,177.233L 816.418,128.566"/>
	<path fill="#F9C69F" fill-opacity="1" stroke-width="0.2" stroke-linejoin="round" d="M 736.065,129.071L 717.404,132.083L 719.609,136.008L 743.433,137.245"/>
	<linearGradient id="SVGID_Fill1_" gradientUnits="objectBoundingBox" x1="0.579249" y1="0.90855" x2="1.5291" y2="0.90855" gradientTransform="rotate(-90.000000 0.579249 0.908550)">
		<stop offset="0" stop-color="#B6B6B6" stop-opacity="1"/>
		<stop offset="0.645264" stop-color="#DADADA" stop-opacity="1"/>
		<stop offset="1" stop-color="#FFFFFF" stop-opacity="1"/>
	</linearGradient>
	<path fill="url(#SVGID_Fill1_)" stroke-width="0.2" stroke-linejoin="round" d="M 627.164,191.757L 835.144,191.757C 837.353,191.757 839.143,193.548 839.143,195.757L 839.143,196.706C 839.143,198.915 837.353,200.706 835.144,200.706L 627.164,200.706C 624.955,200.706 623.164,198.915 623.164,196.706L 623.164,195.757C 623.164,193.548 624.955,191.757 627.164,191.757 Z "/>
	<path fill="#D4D4D4" fill-opacity="1" stroke-width="0.2" stroke-linejoin="round" d="M 734.864,128.461L 747.126,137.497L 764.12,118.351L 768.208,144.165L 802.196,142.444L 805.854,116.845L 806.918,137.4L 819.418,136.233L 812.752,96.5659L 803.272,94.2568C 803.272,94.2568 791.656,101.787 784.342,101.571C 777.028,101.356 768.208,94.2573 765.196,95.5479C 762.185,96.8384 734.864,128.246 734.864,128.461 Z "/>
	<path fill="#FFFFFF" fill-opacity="1" stroke-width="0.2" stroke-linejoin="round" d="M 784.843,83.896C 793.754,83.896 800.977,90.5894 800.977,98.8467C 800.977,107.104 793.754,113.798 784.843,113.798C 775.933,113.798 768.709,107.104 768.709,98.8467C 768.709,90.5894 775.932,83.896 784.843,83.896 Z "/>
	<path fill="#FF735C" fill-opacity="1" stroke-width="0.2" stroke-linejoin="round" d="M 755.301,178.583C 755.301,178.583 768.421,129.941 768.208,129.107C 766.057,120.716 766.917,94.687 766.917,94.687L 771.219,96.6235L 772.725,115.984C 772.725,115.984 776.167,114.479 784.126,114.478C 792.086,114.478 797.679,115.339 797.679,115.339L 799.4,95.978L 803.487,96.1929C 803.487,96.1929 803.702,126.526 801.766,134.054C 799.83,141.583 818.545,175.787 818.545,175.787L 755.301,178.583 Z "/>
	<path fill="#E8E8E8" fill-opacity="1" stroke-width="0.2" stroke-linejoin="round" d="M 670.512,187.097L 685.854,187.097L 685.854,178.682L 650.552,178.682C 643.75,178.682 638.237,173.169 638.237,166.368L 638.237,114.75C 638.237,107.949 643.75,102.435 650.552,102.435L 739.421,102.435C 746.222,102.435 751.736,107.949 751.736,114.75L 751.736,166.368C 751.736,173.169 746.222,178.682 739.421,178.682L 703.504,178.682L 703.504,187.097L 719.872,187.097C 722.848,187.097 725.26,189.509 725.26,192.485C 725.26,195.461 722.848,197.873 719.872,197.873L 670.512,197.873C 667.536,197.873 665.124,195.461 665.124,192.485C 665.124,189.509 667.536,187.097 670.512,187.097 Z "/>
	<path fill="#FFFFFF" fill-opacity="1" stroke-width="0.2" stroke-linejoin="round" d="M 648.165,110.747L 741.705,110.747C 742.257,110.747 742.705,111.194 742.705,111.747L 742.705,170.601C 742.705,171.153 742.257,171.601 741.705,171.601L 648.165,171.601C 647.613,171.601 647.165,171.153 647.165,170.601L 647.165,111.747C 647.165,111.194 647.613,110.747 648.165,110.747 Z "/>
	<linearGradient id="SVGID_Fill2_" gradientUnits="objectBoundingBox" x1="0.424887" y1="0.9043" x2="1.21158" y2="0.9043" gradientTransform="rotate(-90.000000 0.424887 0.904300)">
		<stop offset="0" stop-color="#242424" stop-opacity="1"/>
		<stop offset="0.645264" stop-color="#616161" stop-opacity="1"/>
		<stop offset="1" stop-color="#9E9E9E" stop-opacity="1"/>
	</linearGradient>
	<path fill="url(#SVGID_Fill2_)" stroke-width="0.2" stroke-linejoin="round" d="M 759.838,166.967L 798.491,166.967C 798.566,165.371 799.884,164.099 801.5,164.099L 821.721,164.099C 823.336,164.099 824.654,165.371 824.729,166.967L 827.099,166.967C 829.475,166.967 831.401,168.893 831.401,171.27L 831.401,187.762C 831.401,190.138 829.475,192.064 827.099,192.064L 759.838,192.064C 757.462,192.064 755.536,190.138 755.536,187.762L 755.536,171.27C 755.536,168.893 757.462,166.967 759.838,166.967 Z "/>
	<radialGradient id="SVGID_Fill3_" cx="777.397" cy="168.366" r="35.6509" gradientUnits="userSpaceOnUse" gradientTransform="rotate(-90.000000 777.397217 168.365723)">
		<stop offset="0" stop-color="#FFFFFF" stop-opacity="1"/>
		<stop offset="1" stop-color="#DADADA" stop-opacity="1"/>
	</radialGradient>
	<path fill="url(#SVGID_Fill3_)" stroke-width="0.2" stroke-linejoin="round" d="M 759.122,143.374L 793.899,143.374C 796.275,143.374 798.201,145.3 798.201,147.677L 798.201,156.568C 798.201,158.944 796.275,160.871 793.899,160.871L 779.143,160.871C 779.539,161.427 779.772,162.108 779.772,162.844L 779.773,174.673C 779.773,176.554 778.508,176.2 776.626,176.2C 774.745,176.2 772.961,176.554 772.961,174.673L 772.96,162.844C 772.96,162.108 773.194,161.427 773.59,160.871L 759.122,160.871C 756.745,160.871 754.819,158.944 754.819,156.568L 754.819,147.677C 754.819,145.3 756.745,143.374 759.122,143.374 Z "/>
	<path fill="#D0D0D0" fill-opacity="1" stroke-width="0.2" stroke-linejoin="round" d="M 761.89,173.099L 761.89,173.099C 762.025,173.099 762.135,173.208 762.135,173.344L 762.135,178.878C 762.135,179.013 762.025,179.123 761.89,179.123L 761.89,179.123C 761.755,179.123 761.646,179.013 761.646,178.878L 761.646,173.344C 761.646,173.208 761.755,173.099 761.89,173.099 Z "/>
	<path fill="#D0D0D0" fill-opacity="1" stroke-width="0.2" stroke-linejoin="round" d="M 763.474,173.099L 763.474,173.099C 763.609,173.099 763.719,173.208 763.719,173.343L 763.719,178.878C 763.719,179.013 763.609,179.123 763.474,179.123L 763.474,179.123C 763.339,179.123 763.229,179.013 763.229,178.878L 763.229,173.343C 763.229,173.208 763.339,173.099 763.474,173.099 Z "/>
	<path fill="#D0D0D0" fill-opacity="1" stroke-width="0.2" stroke-linejoin="round" d="M 765.058,173.099L 765.058,173.099C 765.193,173.099 765.302,173.208 765.302,173.343L 765.302,178.878C 765.302,179.013 765.193,179.123 765.058,179.123L 765.058,179.123C 764.923,179.123 764.813,179.013 764.813,178.878L 764.813,173.343C 764.813,173.208 764.923,173.099 765.058,173.099 Z "/>
	<path fill="#D0D0D0" fill-opacity="1" stroke-width="0.2" stroke-linejoin="round" d="M 766.642,173.099L 766.642,173.099C 766.777,173.099 766.886,173.208 766.886,173.343L 766.886,178.878C 766.886,179.013 766.777,179.123 766.642,179.123L 766.642,179.123C 766.506,179.123 766.397,179.013 766.397,178.878L 766.397,173.343C 766.397,173.208 766.506,173.099 766.642,173.099 Z "/>
	<path fill="#D0D0D0" fill-opacity="1" stroke-width="0.2" stroke-linejoin="round" d="M 768.225,173.099L 768.225,173.099C 768.36,173.099 768.47,173.208 768.47,173.343L 768.47,178.878C 768.47,179.013 768.36,179.123 768.225,179.123L 768.225,179.123C 768.09,179.123 767.981,179.013 767.981,178.878L 767.981,173.343C 767.981,173.208 768.09,173.099 768.225,173.099 Z "/>
	<path fill="#000000" fill-opacity="1" stroke-width="0.2" stroke-linejoin="round" d="M 759.664,146.351L 793.697,146.351C 794.249,146.351 794.697,146.798 794.697,147.351L 794.697,156.268C 794.697,156.82 794.249,157.268 793.697,157.268L 759.664,157.268C 759.112,157.268 758.664,156.82 758.664,156.268L 758.664,147.351C 758.664,146.798 759.112,146.351 759.664,146.351 Z "/>
	<g>
		<rect x="764.037" y="151.287" fill="#00C800" fill-opacity="1" stroke-width="0.2" stroke-linejoin="round" width="2.48706" height="1.49219"/>
		<rect x="767.235" y="151.287" fill="#00C800" fill-opacity="1" stroke-width="0.2" stroke-linejoin="round" width="2.48706" height="1.49219"/>
		<rect x="770.433" y="151.287" fill="#00C800" fill-opacity="1" stroke-width="0.2" stroke-linejoin="round" width="2.48706" height="1.49219"/>
		<rect x="773.63" y="151.287" fill="#00C800" fill-opacity="1" stroke-width="0.2" stroke-linejoin="round" width="2.4873" height="1.49219"/>
	</g>
	<path fill="#F9C69F" fill-opacity="1" stroke-width="0.2" stroke-linejoin="round" d="M 778.96,78.5166L 790.942,78.5166C 791.495,78.5166 791.942,78.9639 791.942,79.5166L 791.942,104.191C 791.942,104.744 791.495,105.191 790.942,105.191L 778.96,105.191C 778.408,105.191 777.96,104.744 777.96,104.191L 777.96,79.5166C 777.96,78.9639 778.408,78.5166 778.96,78.5166 Z "/>
	<path fill="#963218" fill-opacity="1" stroke-width="0.2" stroke-linejoin="round" d="M 768.602,89.0581C 768.603,89.0576 774.625,77.4424 786.995,79.7007C 799.364,81.9585 802.806,89.4878 802.806,89.4878C 802.806,89.4878 834.428,67.5459 819.155,38.5049C 803.882,9.46387 789.039,12.1533 783.446,11.7231C 777.853,11.2925 744.401,32.9126 749.349,58.2959C 754.297,83.6802 768.603,89.165 768.602,89.0581 Z "/>
	<path fill="#F9C69F" fill-opacity="1" stroke-width="0.2" stroke-linejoin="round" d="M 785.166,20.4365C 798.294,20.4365 808.937,34.3296 808.937,51.4678C 808.937,68.605 798.294,82.4985 785.166,82.4985C 772.038,82.4985 761.396,68.605 761.396,51.4678C 761.396,34.3296 772.038,20.4365 785.166,20.4365 Z "/>
	<path fill="none" stroke-width="2" stroke-linejoin="round" stroke="#000000" stroke-opacity="1" d="M 773.174,41.7505L 782.245,37.3682L 785.538,38.7373"/>
	<path fill="#BE4822" fill-opacity="1" stroke-width="0.2" stroke-linejoin="round" d="M 768.495,89.0581C 768.495,89.0581 737.518,55.9302 783.66,35.9248C 824.497,18.2192 802.137,90.9409 802.137,90.9409C 802.137,90.9409 835.827,67.6538 820.553,38.6138C 805.28,9.57275 788.321,9.97754 782.8,10.9712C 767.55,13.7139 743.732,34.3657 748.68,59.7485C 753.628,85.1323 768.495,89.1655 768.495,89.0581 Z "/>
	<path fill="#FFFFFF" fill-opacity="1" stroke-width="0.2" stroke-linejoin="round" d="M 774.974,68.4385C 774.935,68.439 782.197,68.6382 786.392,68.6377C 790.587,68.6377 798.224,68.96 798.224,68.96C 798.224,68.96 793.583,70.853 785.838,70.8096C 778.094,70.7661 777.34,68.7788 774.974,68.4385 Z "/>
	<path fill="#FF735C" fill-opacity="1" stroke-width="0.2" stroke-linejoin="round" d="M 764.407,20.436L 785.381,21.5112L 784.628,-0.000488281C 784.628,-0.000488281 771.614,6.88379 763.869,7.31348"/>
	<path fill="#F93334" fill-opacity="1" stroke-width="0.2" stroke-linejoin="round" d="M 806.194,20.6499L 785.077,21.458L 784.647,0.161133C 784.647,0.161133 798.988,7.09814 806.732,7.52783"/>
	<path fill="#FFFFFF" fill-opacity="1" stroke-width="0.2" stroke-linejoin="round" d="M 700.426,274.713L 700.426,201.874C 700.426,198.896 702.665,196.481 705.426,196.481L 883.278,196.481C 886.04,196.481 888.278,198.896 888.278,201.874L 888.278,274.713"/>
	<path fill="#5C647B" fill-opacity="1" stroke-width="0.2" stroke-linejoin="round" d="M 795.099,224.717C 819.085,217.605 840.651,218.995 843.268,227.821C 845.885,236.648 828.562,249.568 804.576,256.68C 780.59,263.791 759.024,262.402 756.407,253.575C 753.79,244.749 771.113,231.828 795.099,224.717 Z "/>
	<g>
		<path fill="#FFFFFF" fill-opacity="1" stroke-width="0.2" stroke-linejoin="round" d="M 770.868,252.412L 771.533,254.293C 771.366,254.507 771.096,254.74 770.724,254.99C 770.33,255.252 769.935,255.453 769.537,255.594C 769.039,255.77 768.583,255.843 768.169,255.812C 767.747,255.779 767.395,255.66 767.113,255.453C 766.956,255.334 766.83,255.217 766.736,255.104C 766.641,254.992 766.554,254.859 766.474,254.705C 766.344,254.436 766.138,253.899 765.854,253.096L 765.486,252.057L 764.676,252.343L 763.966,250.335L 764.776,250.049L 764.43,249.072L 767.223,246.322L 768.122,248.865L 769.448,248.396L 770.158,250.404L 768.832,250.873L 769.249,252.051C 769.384,252.435 769.512,252.678 769.632,252.781C 769.747,252.887 769.918,252.898 770.144,252.819C 770.359,252.743 770.6,252.607 770.868,252.412 Z "/>
		<path fill="#FFFFFF" fill-opacity="1" stroke-width="0.2" stroke-linejoin="round" d="M 777.538,252.613L 772.462,254.408L 771.756,252.414L 772.587,252.12L 770.779,247.008L 769.948,247.302L 769.243,245.307L 773.42,243.829L 774.651,247.31C 775.351,246.459 776.13,245.883 776.989,245.579C 777.747,245.311 778.422,245.314 779.016,245.587C 779.613,245.863 780.105,246.551 780.492,247.646L 781.024,249.15L 781.769,248.887L 782.47,250.869L 778.379,252.316L 777.454,249.699C 777.172,248.903 776.95,248.421 776.786,248.251C 776.617,248.084 776.378,248.054 776.07,248.163C 775.748,248.277 775.457,248.506 775.196,248.852L 775.928,250.922L 776.827,250.604L 777.538,252.613 Z "/>
		<path fill="#FFFFFF" fill-opacity="1" stroke-width="0.2" stroke-linejoin="round" d="M 787.764,248.998L 783.215,250.606L 782.515,248.628L 783.167,248.396L 782.342,246.063L 781.689,246.293L 780.99,244.314L 784.989,242.9L 786.514,247.214L 787.064,247.02L 787.764,248.998 Z M 780.734,242.387C 780.611,242.041 780.691,241.699 780.972,241.363C 781.252,241.027 781.654,240.768 782.178,240.582C 782.715,240.392 783.186,240.349 783.591,240.451C 783.994,240.562 784.252,240.776 784.365,241.096C 784.487,241.442 784.416,241.776 784.151,242.096C 783.883,242.423 783.489,242.678 782.97,242.861C 782.442,243.049 781.969,243.109 781.553,243.045C 781.14,242.984 780.867,242.765 780.734,242.387 Z "/>
		<path fill="#FFFFFF" fill-opacity="1" stroke-width="0.2" stroke-linejoin="round" d="M 793.815,246.857L 788.805,248.629L 788.106,246.65L 788.923,246.361L 788.098,244.027L 787.28,244.316L 786.581,242.338L 790.678,240.889L 790.962,241.692C 791.546,240.783 792.298,240.166 793.218,239.84C 794.027,239.555 794.714,239.563 795.281,239.863C 795.843,240.168 796.299,240.814 796.648,241.802L 797.221,243.422L 797.972,243.157L 798.673,245.14L 794.643,246.564L 793.656,243.772C 793.44,243.164 793.246,242.779 793.072,242.621C 792.892,242.472 792.644,242.453 792.327,242.564C 792.036,242.668 791.762,242.889 791.505,243.228L 792.204,245.204L 793.116,244.881L 793.815,246.857 Z "/>
		<path fill="#FFFFFF" fill-opacity="1" stroke-width="0.2" stroke-linejoin="round" d="M 801.757,240.564C 801.894,240.952 802.106,241.239 802.394,241.426C 802.681,241.618 803.005,241.65 803.366,241.522C 803.75,241.387 803.988,241.153 804.082,240.822C 804.177,240.5 804.156,240.143 804.018,239.751C 803.867,239.325 803.646,239.015 803.352,238.819C 803.052,238.623 802.729,238.585 802.385,238.707C 802.015,238.838 801.783,239.079 801.688,239.432C 801.59,239.778 801.613,240.156 801.757,240.564 Z M 800.878,246.908L 801.197,244.941C 801.781,244.975 802.502,244.84 803.359,244.537C 803.926,244.337 804.341,244.104 804.605,243.84C 804.875,243.578 805.02,243.33 805.041,243.098C 805.057,242.866 804.999,242.565 804.868,242.196C 804.305,242.693 803.619,243.085 802.809,243.371C 801.863,243.706 800.973,243.725 800.138,243.426C 799.297,243.136 798.712,242.527 798.384,241.6C 798.038,240.622 798.106,239.727 798.586,238.911C 799.062,238.097 799.783,237.519 800.75,237.177C 801.542,236.896 802.299,236.83 803.022,236.976L 802.88,236.574L 806.942,235.138L 807.635,237.098L 806.844,237.377L 808.053,240.795C 808.323,241.557 808.461,242.169 808.467,242.63C 808.469,243.092 808.336,243.534 808.07,243.956C 807.813,244.406 807.431,244.799 806.922,245.136C 806.422,245.479 805.715,245.813 804.8,246.136C 804.39,246.281 804.021,246.396 803.692,246.482C 803.363,246.567 802.98,246.652 802.544,246.736C 801.797,246.868 801.242,246.926 800.878,246.908 Z "/>
		<path fill="#FFFFFF" fill-opacity="1" stroke-width="0.2" stroke-linejoin="round" d="M 814.968,242.54L 812.219,243.512L 811.548,241.615L 812.604,241.242L 812.697,240.491L 808.657,236.738L 808.171,236.91L 807.478,234.948L 811.761,233.434L 812.456,235.397L 811.761,235.643L 813.731,237.707L 813.88,234.894L 813.267,235.11L 812.573,233.146L 815.846,231.988L 816.54,233.951L 815.906,234.175L 814.968,242.54 Z "/>
		<path fill="#FFFFFF" fill-opacity="1" stroke-width="0.2" stroke-linejoin="round" d="M 818.835,232.889L 818.5,233.008L 816.546,230.461C 816.406,230.278 816.301,230.087 816.23,229.888C 816.116,229.564 816.129,229.243 816.271,228.925C 816.414,228.607 816.661,228.387 817.011,228.264C 817.393,228.128 817.733,228.144 818.03,228.311C 818.328,228.487 818.537,228.746 818.658,229.088C 818.713,229.242 818.745,229.439 818.754,229.68L 818.835,232.889 Z "/>
		<path fill="#FFFFFF" fill-opacity="1" stroke-width="0.2" stroke-linejoin="round" d="M 824.933,235.854L 822.89,236.576L 822.227,234.701L 824.139,234.025C 824.787,234.298 825.403,234.332 825.986,234.125C 826.573,233.918 826.825,233.696 826.741,233.461C 826.698,233.339 826.602,233.269 826.453,233.25C 826.297,233.228 825.913,233.25 825.3,233.316C 824.803,233.357 824.25,233.396 823.642,233.432C 823.117,233.467 822.682,233.433 822.335,233.329C 821.977,233.229 821.716,233.098 821.552,232.938C 821.378,232.781 821.236,232.546 821.125,232.232C 820.881,231.541 820.95,230.943 821.334,230.44C 821.715,229.943 822.287,229.561 823.048,229.291C 823.837,229.012 824.546,228.912 825.175,228.99L 825.08,228.723L 827.096,228.01L 827.712,229.75L 825.846,230.41C 825.224,230.128 824.594,230.1 823.955,230.325C 823.452,230.504 823.248,230.728 823.344,230.998C 823.389,231.127 823.492,231.184 823.654,231.171C 823.795,231.166 824.249,231.112 825.016,231.01C 825.887,230.896 826.581,230.845 827.098,230.856C 827.611,230.869 828.031,230.978 828.359,231.18C 828.682,231.385 828.916,231.691 829.062,232.104C 829.325,232.847 829.244,233.491 828.821,234.038C 828.402,234.58 827.794,234.992 826.997,235.273C 826.205,235.554 825.485,235.658 824.838,235.585L 824.933,235.854 Z "/>
	</g>
	<path fill="#A41E23" fill-opacity="1" stroke-linejoin="round" stroke="#6C0407" stroke-opacity="1" d="M 712.09,255.214L 712.09,255.214C 714.852,255.214 717.09,257.453 717.09,260.213L 717.09,268.581C 717.09,271.343 714.852,273.581 712.09,273.581L 712.09,273.581C 709.329,273.581 707.09,271.343 707.09,268.581L 707.09,260.213C 707.09,257.453 709.329,255.214 712.09,255.214 Z "/>
	<path fill="#AE2429" fill-opacity="1" stroke-linejoin="round" stroke="#800D11" stroke-opacity="1" d="M 711.715,210.279L 711.715,210.279C 714.477,210.279 716.715,212.518 716.715,215.279L 716.715,223.646C 716.715,226.408 714.477,228.646 711.715,228.646L 711.715,228.646C 708.954,228.646 706.715,226.408 706.715,223.646L 706.715,215.279C 706.715,212.518 708.954,210.279 711.715,210.279 Z "/>
	<path fill="#C44D51" fill-opacity="1" stroke-linejoin="round" stroke="#861519" stroke-opacity="1" d="M 664.093,219.887L 664.093,219.887C 665.612,219.887 666.843,221.118 666.843,222.637L 666.843,259.637C 666.843,261.156 665.612,262.387 664.093,262.387L 664.093,262.387C 662.574,262.387 661.343,261.156 661.343,259.637L 661.343,222.637C 661.343,221.118 662.574,219.887 664.093,219.887 Z "/>
	<path fill="#C44D51" fill-opacity="1" stroke-linejoin="round" stroke="#86171B" stroke-opacity="1" d="M 627.718,220.138L 627.718,220.138C 629.237,220.138 630.468,221.368 630.468,222.888L 630.468,259.888C 630.468,261.406 629.237,262.638 627.718,262.638L 627.718,262.638C 626.199,262.638 624.968,261.406 624.968,259.888L 624.968,222.888C 624.968,221.368 626.199,220.138 627.718,220.138 Z "/>
	<path fill="#D44F4C" fill-opacity="1" stroke-linejoin="round" stroke="#A41419" stroke-opacity="1" d="M 711.466,221.896L 591.966,221.896C 589.204,221.896 586.966,224.135 586.966,226.896L 586.966,255.646C 586.966,258.408 589.204,260.646 591.966,260.646L 711.57,260.605L 711.466,267.396L 584.716,267.396C 581.954,267.396 579.716,265.158 579.716,262.396L 579.716,220.146C 579.716,217.384 581.954,215.146 584.716,215.146L 711.466,215.146C 711.466,215.146 711.611,221.939 711.466,221.896 Z "/>
	<path fill="none" stroke-width="2" stroke-linejoin="round" stroke="#000000" stroke-opacity="1" d="M 803.841,43.2573L 795.817,37.1655L 792.318,37.856"/>
	<path fill="#E6A573" fill-opacity="1" stroke-width="0.2" stroke-linejoin="round" d="M 783.957,57.6753C 783.957,57.6753 785.313,61.3892 786.217,61.4761C 787.122,61.564 789.069,57.2329 789.069,57.2329C 789.069,57.2329 787.469,59.0015 786.322,59.0889C 785.174,59.1772 783.922,57.2329 783.922,57.2329"/>
	<path fill="#FFFFFF" fill-opacity="1" stroke-width="0.2" stroke-linejoin="round" d="M 777.464,44.8911C 780.55,44.8911 783.051,47.3916 783.051,50.4771C 783.051,53.562 780.55,56.0635 777.464,56.0635C 774.379,56.0635 771.878,53.562 771.878,50.4771C 771.878,47.3916 774.379,44.8911 777.464,44.8911 Z "/>
	<path fill="#FFFFFF" fill-opacity="1" stroke-width="0.2" stroke-linejoin="round" d="M 794.675,43.8521C 797.76,43.8521 800.261,46.3521 800.261,49.438C 800.261,52.5229 797.76,55.0239 794.675,55.0239C 791.59,55.0239 789.089,52.5229 789.089,49.438C 789.089,46.3521 791.589,43.8521 794.675,43.8521 Z "/>
	<path fill="#000000" fill-opacity="1" stroke-width="0.2" stroke-linejoin="round" d="M 776.354,49.8169C 777.459,49.8169 778.354,50.7124 778.354,51.8169C 778.354,52.9214 777.459,53.8169 776.354,53.8169C 775.25,53.8169 774.354,52.9214 774.354,51.8169C 774.354,50.7124 775.25,49.8169 776.354,49.8169 Z "/>
	<path fill="#000000" fill-opacity="1" stroke-width="0.2" stroke-linejoin="round" d="M 794.432,49.96C 795.537,49.96 796.432,50.856 796.432,51.96C 796.432,53.0649 795.536,53.96 794.432,53.96C 793.327,53.96 792.432,53.0649 792.432,51.96C 792.432,50.856 793.327,49.96 794.432,49.96 Z "/>
	<rect x="294.343" y="390.634" fill="#FFFFFF" fill-opacity="1" stroke-width="0.2" stroke-linejoin="round" width="226.313" height="126.398"/>
	<path fill="#000000" fill-opacity="1" stroke-width="0.2" stroke-linejoin="round" d="M 511.19,397.991L 511.19,510.492L 342.44,510.492L 342.44,397.991M 294.391,454.241C 294.391,443.228 303.301,434.318 314.314,434.318C 325.328,434.318 334.238,443.228 334.238,454.241C 334.238,465.256 325.328,474.165 314.314,474.165C 303.301,474.165 294.391,465.256 294.391,454.241 Z M 556.19,504.867L 556.19,403.616C 556.19,388.147 543.533,375.491 528.065,375.491L 314.314,375.491C 298.846,375.491 286.189,388.147 286.189,403.616L 286.189,504.867C 286.189,520.336 298.846,532.992 314.314,532.992L 528.065,532.992C 543.533,532.992 556.19,520.336 556.19,504.867 Z "/>
	<path fill="#00A854" fill-opacity="1" stroke-width="0.2" stroke-linejoin="round" d="M 700.952,135.336L 684.577,151.709C 684.332,151.956 683.928,151.956 683.682,151.709L 673.748,141.773C 673.503,141.529 673.503,141.126 673.748,140.878L 677.853,136.775C 678.099,136.529 678.501,136.529 678.746,136.775L 683.686,141.713C 683.93,141.958 684.332,141.958 684.579,141.713L 695.921,130.375C 696.166,130.128 696.57,130.126 696.82,130.371L 700.948,134.446C 701.196,134.69 701.196,135.089 700.952,135.336 Z M 704.034,124.468C 694.829,115.263 679.909,115.263 670.704,124.468C 661.5,133.672 661.5,148.593 670.704,157.796C 679.909,167 694.829,167 704.034,157.796C 713.236,148.593 713.238,133.672 704.034,124.468 Z "/>
	<path fill="#000000" fill-opacity="1" stroke-width="0.2" stroke-linejoin="round" d="M 724.484,123.31C 724.484,123.545 724.447,123.927 724.4,124.159L 723.629,128.247C 723.583,128.478 723.353,128.881 723.116,128.881L 722.443,128.881C 722.208,128.881 721.976,128.478 721.93,128.247L 721.141,124.265C 721.094,124.035 721.056,123.545 721.056,123.31L 721.056,119.881C 721.056,119.645 721.248,119.452 721.484,119.452L 724.056,119.452C 724.291,119.452 724.484,119.645 724.484,119.881M 724.484,132.739C 724.484,132.974 724.291,133.167 724.056,133.167L 721.484,133.167C 721.248,133.167 721.056,132.974 721.056,132.739L 721.056,130.167C 721.056,129.931 721.248,129.739 721.484,129.739L 724.056,129.739C 724.291,129.739 724.484,129.931 724.484,130.167M 722.77,115.809C 716.971,115.809 712.269,120.51 712.269,126.31C 712.269,132.11 716.971,136.81 722.77,136.81C 728.569,136.81 733.271,132.11 733.271,126.31C 733.271,120.51 728.569,115.809 722.77,115.809 Z "/>
	<path fill="#439243" fill-opacity="1" stroke-width="0.2" stroke-linejoin="round" d="M 351.769,291.737C 351.769,291.736 318.647,321.86 317.522,331.607C 316.398,341.355 336.896,394.725 336.896,394.725L 365.893,380.102C 365.893,380.102 339.645,341.232 342.895,333.356C 346.145,325.482 356.519,326.732 356.519,326.732L 354.021,375.597L 488.129,375.597L 493.877,335.106C 493.877,335.106 500.501,344.606 499.376,346.855C 498.252,349.104 493.252,358.229 493.252,358.229C 493.252,358.229 503.376,354.855 505.876,356.979C 508.375,359.104 513,369.478 513,369.478C 513,369.478 522.874,352.855 523.249,344.355C 523.624,335.856 500.251,299.486 485.503,297.485C 470.755,295.486 352.144,291.861 351.769,291.737 Z "/>
	<path fill="#FEAC58" fill-opacity="1" stroke-width="0.2" stroke-linejoin="round" d="M 338.396,393.475C 338.396,393.473 342.977,411.184 347.977,409.183C 352.978,407.182 351.644,404.848 351.644,404.848C 351.644,404.848 353.352,409.141 357.019,407.473C 360.685,405.807 359.018,402.849 359.018,402.849C 359.018,402.849 361.642,405.933 363.643,403.599C 365.643,401.266 364.31,399.182 364.31,399.182C 364.31,399.182 370.956,415.811 374.308,414.181C 380.391,411.223 362.643,379.518 362.643,379.518C 362.643,379.518 350.084,377.518 343.145,383.351C 340.271,385.768 337.73,394.473 338.396,393.475 Z "/>
	<path fill="#FEAC58" fill-opacity="1" stroke-width="0.2" stroke-linejoin="round" d="M 494.94,356.354C 494.941,356.353 510.345,344.979 513.313,367.978C 513.668,370.729 500.69,393.473 500.69,393.473C 500.69,393.473 499.503,395.535 497.472,393.785C 496.039,392.551 499.971,386.475 499.971,386.475C 499.971,386.475 500.507,384.308 499.94,384.6C 498.847,385.162 491.035,397.66 489.848,399.035C 488.66,400.41 482.911,401.473 486.035,396.41C 486.77,395.222 493.222,385.412 493.597,384.412C 493.932,383.52 493.972,382.662 492.785,383.225C 491.82,383.682 481.942,399.098 481.942,399.098C 481.942,399.098 480.224,401.035 478.068,399.223C 476.787,397.598 478.286,394.1 479.036,393.098C 479.786,392.099 488.067,380.662 488.348,379.225C 488.629,377.787 488.223,377.725 487.035,378.662C 485.848,379.6 480.661,386.475 480.661,386.475C 480.661,386.475 476.474,392.91 473.943,391.724C 472.421,391.009 472.912,387.411 472.912,387.411L 482.536,372.288C 482.536,372.288 485.91,367.727 484.286,368.414C 483.634,368.689 473.318,372.351 472.412,367.852C 472.041,366.009 474.98,362.894 478.536,362.477C 490.785,361.039 495.316,356.353 494.94,356.354 Z "/>
	<path fill="#FFAC58" fill-opacity="1" stroke-width="0.2" stroke-linejoin="round" d="M 424.516,180.862C 468.655,180.862 504.438,216.646 504.438,260.785C 504.438,304.925 468.656,340.708 424.516,340.708C 380.375,340.708 344.593,304.925 344.593,260.785C 344.593,216.646 380.377,180.862 424.516,180.862 Z "/>
	<path fill="#202020" fill-opacity="1" stroke-width="0.2" stroke-linejoin="round" d="M 340.669,246.066L 380.567,214.991C 380.568,214.989 422.564,235.055 456.809,239.126C 491.053,243.199 505.752,242.143 505.752,242.143C 505.752,242.143 486.045,176.523 423.049,179.539C 360.053,182.556 348.424,236.561 340.669,246.066 Z "/>
	<path fill="#202020" fill-opacity="1" stroke-width="0.2" stroke-linejoin="round" d="M 386.98,246.671L 386.555,252.332C 386.555,252.331 397.09,250.058 403.395,253.596C 409.698,257.135 417.66,258.025 417.66,258.025L 419.824,250.597C 419.824,250.597 410.29,245.355 402.92,244.363C 395.549,243.371 386.813,246.949 386.98,246.671 Z "/>
	<path fill="#202020" fill-opacity="1" stroke-width="0.2" stroke-linejoin="round" d="M 437.999,249.195L 438.662,256.164C 438.663,256.163 452.08,252.232 454.85,252.287C 457.62,252.34 469.208,254.878 469.208,254.878L 468.915,245.857C 468.915,245.857 461.188,245.673 454.642,245.885C 448.094,246.098 437.999,249.193 437.999,249.195 Z "/>
	<path fill="#FFFFFF" fill-opacity="1" stroke-width="0.2" stroke-linejoin="round" d="M 398.319,315.778C 398.337,315.77 408.981,317.65 425.86,317.054C 442.74,316.457 450.276,314.535 450.276,314.535C 450.276,314.535 419.593,316.646 398.319,315.778 Z "/>
	<path fill="#D57533" fill-opacity="1" stroke-width="0.2" stroke-linejoin="round" d="M 415.257,298.123C 415.257,298.123 420.934,304.238 424.719,304.383C 428.505,304.527 436.657,297.395 436.657,297.395C 436.657,297.395 429.96,300.307 425.156,300.451C 420.353,300.597 415.112,297.395 415.112,297.395"/>
	<path fill="#FFFFFF" fill-opacity="1" stroke-width="0.2" stroke-linejoin="round" d="M 397.153,263.535C 404.55,263.535 410.546,269.531 410.546,276.928C 410.546,284.325 404.549,290.321 397.153,290.321C 389.756,290.321 383.76,284.325 383.76,276.928C 383.76,269.531 389.756,263.535 397.153,263.535 Z "/>
	<path fill="#FFFFFF" fill-opacity="1" stroke-width="0.2" stroke-linejoin="round" d="M 448.322,264.557C 455.719,264.557 461.715,270.552 461.715,277.949C 461.715,285.346 455.718,291.342 448.322,291.342C 440.925,291.342 434.929,285.346 434.929,277.949C 434.929,270.552 440.925,264.557 448.322,264.557 Z "/>
	<path fill="#000000" fill-opacity="1" stroke-width="0.2" stroke-linejoin="round" d="M 402.758,272.059C 404.204,272.059 405.378,273.232 405.378,274.679C 405.378,276.125 404.205,277.299 402.758,277.299C 401.311,277.299 400.137,276.125 400.137,274.679C 400.137,273.232 401.311,272.059 402.758,272.059 Z "/>
	<path fill="#000000" fill-opacity="1" stroke-width="0.2" stroke-linejoin="round" d="M 453.011,271.264C 454.457,271.264 455.631,272.438 455.631,273.884C 455.631,275.33 454.458,276.504 453.011,276.504C 451.563,276.504 450.39,275.33 450.39,273.884C 450.39,272.438 451.564,271.264 453.011,271.264 Z "/>
	<path fill="#00A854" fill-opacity="1" stroke-width="0.2" stroke-linejoin="round" d="M 434.335,451.981L 417.959,468.354C 417.715,468.602 417.311,468.602 417.065,468.354L 407.13,458.418C 406.886,458.174 406.886,457.771 407.13,457.523L 411.236,453.42C 411.482,453.174 411.884,453.174 412.128,453.42L 417.069,458.358C 417.313,458.604 417.715,458.604 417.961,458.358L 429.304,447.02C 429.548,446.773 429.952,446.771 430.202,447.016L 434.331,451.091C 434.579,451.335 434.579,451.734 434.335,451.981 Z M 437.417,441.113C 428.211,431.908 413.292,431.908 404.087,441.113C 394.883,450.317 394.883,465.238 404.087,474.441C 413.292,483.645 428.211,483.645 437.417,474.441C 446.618,465.238 446.62,450.317 437.417,441.113 Z "/>
	<path fill="#000000" fill-opacity="1" stroke-width="0.2" stroke-linejoin="round" d="M 457.867,439.955C 457.867,440.19 457.829,440.572 457.783,440.804L 457.012,444.893C 456.966,445.123 456.736,445.526 456.499,445.526L 455.826,445.526C 455.59,445.526 455.359,445.123 455.313,444.893L 454.524,440.91C 454.477,440.68 454.438,440.19 454.438,439.955L 454.438,436.526C 454.438,436.29 454.631,436.098 454.867,436.098L 457.438,436.098C 457.674,436.098 457.867,436.29 457.867,436.526M 457.867,449.384C 457.867,449.619 457.674,449.813 457.438,449.813L 454.867,449.813C 454.631,449.813 454.438,449.619 454.438,449.384L 454.438,446.813C 454.438,446.576 454.631,446.384 454.867,446.384L 457.438,446.384C 457.674,446.384 457.867,446.576 457.867,446.813M 456.153,432.454C 450.354,432.454 445.652,437.155 445.652,442.955C 445.652,448.755 450.354,453.455 456.153,453.455C 461.951,453.455 466.653,448.755 466.653,442.955C 466.653,437.155 461.951,432.454 456.153,432.454 Z "/>
</svg>
