<?xml version="1.0" encoding="utf-8"?>
<!DOCTYPE svg PUBLIC "-//W3C//DTD SVG 1.1//EN" "http://www.w3.org/Graphics/SVG/1.1/DTD/svg11.dtd">
<svg xmlns="http://www.w3.org/2000/svg" xmlns:xlink="http://www.w3.org/1999/xlink" version="1.1" baseProfile="full" width="612.098" height="605.441" viewBox="0 0 612.10 605.44" enable-background="new 0 0 612.10 605.44" xml:space="preserve">
	<path fill="#439243" fill-opacity="1" stroke-linejoin="round" d="M 5.34937,350.449C -27.8674,440.221 100.078,494.276 160.361,530.446C 220.645,566.616 354.742,609.919 395.341,605.089C 435.939,600.26 600.793,503.034 611.865,453.162C 622.938,403.29 471.616,273.993 400.262,253.284C 328.907,232.576 178.815,236.376 128.375,258.108C 77.9348,279.839 27.4939,313.541 5.34937,350.449 Z "/>
	<path fill="#88B53E" fill-opacity="1" stroke-linejoin="round" d="M 117.51,377.496C 93.1025,432.535 187.117,469.85 231.412,494.104C 275.708,518.358 374.242,549.144 404.074,547.277C 433.906,545.412 555.039,489.439 563.176,458.655C 571.312,427.87 460.121,342.979 407.69,328.053C 355.259,313.127 244.972,311.261 207.909,323.388C 170.846,335.516 133.782,355.106 117.51,377.496 Z "/>
	<path fill="#CBB230" fill-opacity="1" stroke-linejoin="round" d="M 192.964,381.288C 192.563,382.968 172.332,410.573 190.272,431.871C 208.213,453.169 347.251,525.938 386.72,516.176C 426.189,506.415 534.728,463.818 526.655,439.858C 518.582,415.897 406.454,338.691 353.53,336.029C 300.606,333.366 209.11,350.227 192.964,381.288 Z "/>
	<path fill="#C79189" fill-opacity="1" stroke-linejoin="round" d="M 221.831,302.451L 222.95,389.156L 362.237,488.727L 362.237,345.524"/>
	<path fill="#E1A99C" fill-opacity="1" stroke-linejoin="round" d="M 441.67,270.566L 358.881,348.321L 361.678,487.607L 481.946,436.144L 493.693,310.841L 441.67,270.566 Z "/>
	<path fill="#82C0D9" fill-opacity="1" stroke-linejoin="round" d="M 269.379,331.12L 269.659,369.158L 307.977,393.771L 309.655,353.215L 269.379,331.12 Z "/>
	<path fill="#703225" fill-opacity="1" stroke-linejoin="round" d="M 261.548,330.28L 261.968,370.137L 311.194,402.022L 314.55,356.152L 306.159,353.355L 305.04,389.715L 271.897,368.039L 270.918,332.098L 261.548,330.28 Z "/>
	<path fill="#D29C91" fill-opacity="1" stroke-linejoin="round" d="M 388.633,180.258L 425.972,168.931L 424.294,236.477L 385.697,234.379"/>
	<path fill="#D29C91" fill-opacity="1" stroke-linejoin="round" d="M 344.582,159.282L 388.633,179.839L 386.955,219.695L 345.421,197.041L 344.582,159.282 Z "/>
	<path fill="#A14129" fill-opacity="1" stroke-linejoin="round" d="M 299.866,180.785L 196.659,259.238L 335.947,353.215L 443.349,257.14L 299.866,180.785 Z "/>
	<path fill="#611E16" fill-opacity="1" stroke-linejoin="round" d="M 297.349,165.261L 297.349,182.462L 441.88,258.399L 442.09,238.681L 297.349,165.261 Z "/>
	<path fill="#973C2C" fill-opacity="1" stroke-linejoin="round" d="M 296.929,164.842L 441.041,238.542L 461.808,234.486L 313.711,160.646L 296.929,164.842 Z "/>
	<path fill="#703225" fill-opacity="1" stroke-linejoin="round" d="M 448.802,250.568L 447.683,279.516L 517.45,330.271L 519.128,302.861L 448.802,250.568 Z "/>
	<path fill="#703225" fill-opacity="1" stroke-linejoin="round" d="M 335.247,353.355L 336.506,381.044L 448.523,279.097L 448.523,250.568"/>
	<path fill="#71251D" fill-opacity="1" stroke-linejoin="round" d="M 440.831,238.261L 461.389,234.486L 454.676,255.042L 442.09,258.399L 440.831,238.261 Z "/>
	<path fill="#C88050" fill-opacity="1" stroke-linejoin="round" d="M 419.295,369.578L 467.961,352.795L 460.41,446.353L 419.715,461.037C 419.715,461.037 418.456,366.64 419.295,369.578 Z "/>
	<path fill="#411A11" fill-opacity="1" stroke-linejoin="round" d="M 195.96,258.958L 196.799,286.229L 336.506,381.044L 335.666,352.516L 195.96,258.958 Z "/>
	<path fill="#753725" fill-opacity="1" stroke-linejoin="round" d="M 480.687,353.985L 464.186,355.313L 460.41,447.192L 473.835,453.904L 480.687,353.985 Z "/>
	<path fill="#955534" fill-opacity="1" stroke-linejoin="round" d="M 410.065,466.491L 423.49,474.882L 425.169,372.094L 410.065,366.64L 410.065,466.491 Z "/>
	<path fill="#764128" fill-opacity="1" stroke-linejoin="round" d="M 409.925,366.71L 425.098,372.025L 480.827,353.915L 465.724,349.509L 409.925,366.71 Z "/>
	<path fill="#9A6038" fill-opacity="1" stroke-linejoin="round" stroke="#955534" stroke-opacity="1" d="M 426.812,376.464L 460.375,368.494L 457.438,403.315L 428.49,412.544"/>
	<path fill="#E5E6DD" fill-opacity="1" stroke-linejoin="round" stroke="#955534" stroke-opacity="1" d="M 455.34,412.125C 457.194,412.125 458.697,413.628 458.697,415.482C 458.697,417.335 457.194,418.838 455.34,418.838C 453.487,418.838 451.984,417.335 451.984,415.482C 451.984,413.628 453.487,412.125 455.34,412.125 Z "/>
	<path fill="#611E16" fill-opacity="1" stroke-linejoin="round" d="M 338.742,149.947L 339.162,167.882L 384.262,191.062L 383.948,172.078L 338.742,149.947 Z "/>
	<path fill="#71251D" fill-opacity="1" stroke-linejoin="round" d="M 383.843,172.078L 437.649,159.771L 435.726,177.532L 384.158,191.062L 383.843,172.078 Z "/>
	<path fill="#000000" fill-opacity="1" stroke-linejoin="round" d="M 355.682,152.207L 385.196,166.69L 420.448,158.492L 391.481,146.058L 355.682,152.207 Z "/>
	<path fill="#973C2C" fill-opacity="1" stroke-linejoin="round" d="M 338.428,150.052L 393.388,140.613L 437.719,159.841L 383.739,172.288L 338.428,150.052 Z M 358.671,152.517L 385.102,165.488L 416.673,158.146L 390.731,147.01L 358.671,152.517 Z "/>
	<radialGradient id="SVGID_Fill1_" cx="297.749" cy="284.02" r="79.1533" gradientUnits="userSpaceOnUse">
		<stop offset="0" stop-color="#FAA520" stop-opacity="1"/>
		<stop offset="1" stop-color="#F26E2D" stop-opacity="1"/>
	</radialGradient>
	<path fill="url(#SVGID_Fill1_)" stroke-linejoin="round" d="M 243.628,323.177L 316.348,363.173C 316.348,363.173 332.57,357.3 328.934,339.4C 325.299,321.5 319.145,321.219 326.977,315.346C 334.808,309.472 365.015,286.818 334.249,256.61C 303.483,226.403 344.597,276.468 330.333,286.257C 316.068,296.047 310.754,296.047 310.754,296.047C 310.754,296.047 327.536,277.587 297.609,238.151C 288.099,230.04 289.777,204.867 285.582,206.265C 281.387,207.664 284.463,238.71 281.107,256.051C 277.751,273.392 264.885,284.02 264.885,284.02C 264.885,284.02 265.724,259.127 248.103,252.695C 230.482,246.261 244.746,251.856 240.552,263.323C 236.356,274.791 232.44,289.894 236.076,298.005C 239.712,306.116 243.628,301.641 243.628,323.177 Z "/>
	<radialGradient id="SVGID_Fill2_" cx="283.624" cy="304.35" r="52.7041" gradientUnits="userSpaceOnUse">
		<stop offset="0" stop-color="#DF5B27" stop-opacity="1"/>
		<stop offset="1" stop-color="#DB5B2C" stop-opacity="1"/>
	</radialGradient>
	<path fill="url(#SVGID_Fill2_)" stroke-linejoin="round" d="M 252.158,327.373C 252.158,327.373 245.306,310.312 248.662,299.404C 252.019,288.496 253.417,287.097 253.977,282.062C 254.536,277.028 252.298,310.591 264.046,315.346C 275.793,320.101 264.954,299.264 276.701,293.39C 288.448,287.517 297.522,284.29 297.05,273.392C 296.105,251.646 299.636,274.126 300.196,280.28C 300.756,286.432 293.413,289.615 288.099,300.802C 282.785,311.99 283.904,315.066 283.904,315.066C 283.904,315.066 299.566,289.334 304.042,292.131C 308.517,294.928 307.957,292.131 304.321,294.369C 300.685,296.607 289.777,318.422 293.693,328.492C 297.609,338.56 301.945,318.068 306.279,320.101C 315.299,324.332 321.907,303.145 321.907,303.145C 321.907,303.145 321.942,308.914 321.383,311.151C 320.823,313.388 314.809,325.686 308.517,329.331C 295.056,337.127 305.125,357.055 305.125,357.055L 252.158,327.373 Z "/>
	<path fill="#FFC965" fill-opacity="1" stroke-linejoin="round" d="M 289.497,241.228C 289.519,241.078 303.447,254.583 308.517,266.959C 309.866,270.253 301.56,241.931 289.497,241.228 Z "/>
	<path fill="#DD5926" fill-opacity="1" stroke-linejoin="round" d="M 285.022,265.001C 285.023,265 283.414,276.399 271.318,282.902C 262.898,287.427 262.647,297.446 262.647,297.446C 262.647,297.446 263.381,289.719 275.233,282.342C 288.826,273.881 285.303,264.721 285.022,265.001 Z "/>
	<path fill="#DD5926" fill-opacity="1" stroke-linejoin="round" d="M 248.662,259.127C 248.662,259.127 257.053,263.324 258.451,267.798C 259.85,272.273 259.291,283.741 259.291,283.741C 259.291,283.741 259.85,274.791 254.536,268.357C 249.222,261.924 248.662,258.848 248.662,259.127 Z "/>
	<path fill="#9A9A9A" fill-opacity="1" stroke-linejoin="round" d="M 217.341,112.365C 252.154,112.365 280.375,128.752 280.375,148.968C 280.375,169.184 252.154,185.573 217.341,185.573C 182.528,185.573 154.306,169.184 154.306,148.968C 154.306,128.752 182.527,112.365 217.341,112.365 Z "/>
	<path fill="#9A9A9A" fill-opacity="1" stroke-linejoin="round" d="M 256.602,104.849C 291.415,104.849 319.636,121.237 319.636,141.453C 319.636,161.668 291.414,178.057 256.602,178.057C 221.789,178.057 193.567,161.668 193.567,141.453C 193.567,121.237 221.788,104.849 256.602,104.849 Z "/>
	<path fill="#C8C8C8" fill-opacity="1" stroke-linejoin="round" d="M 264.644,156.98C 292.1,156.98 314.357,167.967 314.357,181.522C 314.357,195.076 292.1,206.063 264.644,206.063C 237.188,206.063 214.931,195.076 214.931,181.522C 214.931,167.967 237.188,156.98 264.644,156.98 Z "/>
	<path fill="#C8C8C8" fill-opacity="1" stroke-linejoin="round" d="M 231.429,155.509C 258.885,155.509 281.142,166.497 281.142,180.05C 281.142,193.605 258.885,204.592 231.429,204.592C 203.973,204.592 181.716,193.605 181.716,180.05C 181.716,166.497 203.973,155.509 231.429,155.509 Z "/>
	<path fill="#C8C8C8" fill-opacity="1" stroke-linejoin="round" d="M 246.532,133.133C 273.989,133.133 296.245,144.122 296.245,157.675C 296.245,171.229 273.988,182.217 246.532,182.217C 219.077,182.217 196.819,171.229 196.819,157.675C 196.819,144.122 219.076,133.133 246.532,133.133 Z "/>
	<path fill="#C8C8C8" fill-opacity="1" stroke-linejoin="round" d="M 179.546,40.2759C 207.002,40.2759 229.259,51.2632 229.259,64.8169C 229.259,78.3706 207.002,89.3589 179.546,89.3589C 152.091,89.3589 129.833,78.3706 129.833,64.8169C 129.833,51.2632 152.09,40.2759 179.546,40.2759 Z "/>
	<path fill="#C8C8C8" fill-opacity="1" stroke-linejoin="round" d="M 215.627,26.0112C 243.083,26.0112 265.34,36.9985 265.34,50.5532C 265.34,64.1069 243.082,75.0942 215.627,75.0942C 188.171,75.0942 165.914,64.1069 165.914,50.5532C 165.914,36.9985 188.171,26.0112 215.627,26.0112 Z "/>
	<path fill="#C8C8C8" fill-opacity="1" stroke-linejoin="round" d="M 275.201,3.35596C 302.657,3.35596 324.915,14.3433 324.915,27.8979C 324.915,41.4517 302.657,52.439 275.201,52.439C 247.746,52.439 225.488,41.4517 225.488,27.8979C 225.488,14.3433 247.745,3.35596 275.201,3.35596 Z "/>
	<path fill="#C8C8C8" fill-opacity="1" stroke-linejoin="round" d="M 188.776,-0.000488281C 216.232,-0.000488281 238.489,10.9868 238.489,24.5415C 238.489,38.0952 216.232,49.0825 188.776,49.0825C 161.321,49.0825 139.063,38.0952 139.063,24.5415C 139.063,10.9868 161.32,-0.000488281 188.776,-0.000488281 Z "/>
	<radialGradient id="SVGID_Fill3_" cx="445.855" cy="342.451" r="30.9414" gradientUnits="userSpaceOnUse">
		<stop offset="0" stop-color="#FAA520" stop-opacity="1"/>
		<stop offset="1" stop-color="#F26E2D" stop-opacity="1"/>
	</radialGradient>
	<path fill="url(#SVGID_Fill3_)" stroke-linejoin="round" d="M 423.304,361.645C 424.044,366.459 432.953,373.392 442.603,368.148C 452.253,362.903 472.181,355.142 469.454,345.493C 466.727,335.843 454.465,337.28 461.623,331.648C 463.72,325.355 469.803,320.531 469.803,320.531C 469.803,320.531 453.092,328.711 455.61,336.682C 458.127,344.654 453.511,357.45 451.414,354.722C 449.316,351.996 454.351,340.877 449.317,335.843C 444.282,330.808 443.652,329.76 445.541,324.305C 447.429,318.852 445.121,311.509 445.121,311.509C 445.121,311.509 443.233,323.676 436.311,324.935C 429.388,326.194 429.719,335.199 435.052,339.2C 443.443,345.493 440.506,363.743 436.94,357.869C 433.374,351.996 431.276,347.17 428.759,345.283C 426.242,343.395 422.885,344.654 422.466,339.2C 422.048,333.745 419.529,344.024 422.466,347.17C 425.403,350.317 432.744,354.093 429.808,357.45C 426.872,360.805 422.677,353.463 423.304,361.645 Z "/>
	<radialGradient id="SVGID_Fill4_" cx="446.099" cy="353.673" r="18.1804" gradientUnits="userSpaceOnUse">
		<stop offset="0" stop-color="#DF5B27" stop-opacity="1"/>
		<stop offset="1" stop-color="#DB5B2C" stop-opacity="1"/>
	</radialGradient>
	<path fill="url(#SVGID_Fill4_)" stroke-linejoin="round" d="M 430.716,351.856C 430.717,351.855 434.002,364.443 435.401,368.358C 436.8,372.273 461.177,365.333 463.93,355.352C 465.608,349.269 462.251,345.284 462.251,345.284C 462.251,345.284 458.965,359.757 451.973,358.08C 444.98,356.401 450.993,350.738 447.358,345.703C 443.722,340.668 439.107,338.43 439.107,338.43C 439.108,338.43 445.33,346.193 445.889,349.269C 446.45,352.345 448.197,367.519 443.162,358.08C 441.392,354.759 439.932,364.748 436.45,361.016C 432.534,356.821 430.996,351.855 430.716,351.856 Z "/>
	<path fill="#FFC965" fill-opacity="1" stroke-linejoin="round" d="M 439.181,326.473C 439.178,326.39 427.745,332.05 438.653,338.22C 439.163,338.509 433.828,332.679 439.181,326.473 Z "/>
	<path fill="#C8C8C8" fill-opacity="0.560784" stroke-linejoin="round" d="M 496.163,284.775C 496.163,296.113 477.544,305.305 454.576,305.305C 448.366,305.305 442.473,304.633 437.181,303.428C 433.86,303.85 430.378,304.074 426.791,304.074C 403.823,304.074 385.204,294.882 385.204,283.544C 385.204,277.6 390.322,272.246 398.501,268.497C 398.066,267.305 397.839,266.08 397.839,264.827C 397.839,253.489 416.458,244.296 439.425,244.296C 462.393,244.296 481.012,253.489 481.012,264.827C 481.012,266.13 480.766,267.405 480.295,268.641C 489.958,272.4 496.163,278.23 496.163,284.775 Z "/>
</svg>
