<?xml version="1.0" encoding="utf-8"?>
<!DOCTYPE svg PUBLIC "-//W3C//DTD SVG 1.1//EN" "http://www.w3.org/Graphics/SVG/1.1/DTD/svg11.dtd">
<svg xmlns="http://www.w3.org/2000/svg" xmlns:xlink="http://www.w3.org/1999/xlink" version="1.1" baseProfile="full" width="772.998" height="417.406" viewBox="0 0 773.00 417.41" enable-background="new 0 0 773.00 417.41" xml:space="preserve">
	<path fill="#FFFFFF" fill-opacity="1" stroke-linejoin="round" d="M 596.327,365.492L 686.664,390.456L 698.112,349.028L 607.776,324.064L 596.327,365.492 Z "/>
	<rect x="88.0916" y="284.733" fill="#FFC800" fill-opacity="1" stroke-linejoin="round" width="85.1375" height="15.3839"/>
	<rect x="89.7715" y="269.349" fill="#FFDB56" fill-opacity="1" stroke-linejoin="round" width="85.1372" height="15.3838"/>
	<rect x="90.1453" y="253.965" fill="#FFD744" fill-opacity="1" stroke-linejoin="round" width="85.137" height="15.3839"/>
	<rect x="92.1992" y="238.582" fill="#FFD023" fill-opacity="1" stroke-linejoin="round" width="85.1372" height="15.3838"/>
	<rect x="93.8794" y="223.424" fill="#E6B811" fill-opacity="1" stroke-linejoin="round" width="85.137" height="15.3839"/>
	<rect x="93.6929" y="209.85" fill="#FFDD61" fill-opacity="1" stroke-linejoin="round" width="85.137" height="15.3838"/>
	<rect x="93.2261" y="194.806" fill="#E6B811" fill-opacity="1" stroke-linejoin="round" width="85.137" height="15.3838"/>
	<rect x="92.199" y="179.761" fill="#FFC800" fill-opacity="1" stroke-linejoin="round" width="85.1375" height="15.3839"/>
	<rect x="93.8794" y="164.377" fill="#FFDB56" fill-opacity="1" stroke-linejoin="round" width="85.137" height="15.3839"/>
	<rect x="94.2527" y="148.993" fill="#FFD744" fill-opacity="1" stroke-linejoin="round" width="85.137" height="15.3839"/>
	<rect x="92.946" y="133.609" fill="#FFD023" fill-opacity="1" stroke-linejoin="round" width="85.137" height="15.3839"/>
	<rect x="92.946" y="118.452" fill="#E6B811" fill-opacity="1" stroke-linejoin="round" width="85.137" height="15.3839"/>
	<rect x="91.0791" y="104.878" fill="#FFDD61" fill-opacity="1" stroke-linejoin="round" width="85.1372" height="15.3839"/>
	<rect x="88.3025" y="89.833" fill="#E6B811" fill-opacity="1" stroke-linejoin="round" width="85.137" height="15.3839"/>
	<rect x="7.8418" y="284.697" fill="#FFC800" fill-opacity="1" stroke-linejoin="round" width="85.1375" height="15.3839"/>
	<rect x="9.52246" y="269.313" fill="#FFDB56" fill-opacity="1" stroke-linejoin="round" width="85.1372" height="15.3839"/>
	<rect x="9.896" y="253.929" fill="#FFD744" fill-opacity="1" stroke-linejoin="round" width="85.137" height="15.3838"/>
	<rect x="6.90869" y="238.545" fill="#FFD023" fill-opacity="1" stroke-linejoin="round" width="85.137" height="15.3839"/>
	<rect x="13.6296" y="223.388" fill="#E6B811" fill-opacity="1" stroke-linejoin="round" width="85.137" height="15.3839"/>
	<rect x="0" y="209.814" fill="#FFDD61" fill-opacity="1" stroke-linejoin="round" width="85.1372" height="15.3839"/>
	<rect x="13.2817" y="194.769" fill="#E4C555" fill-opacity="1" stroke-linejoin="round" width="85.137" height="15.3839"/>
	<linearGradient id="SVGID_Fill1_" gradientUnits="objectBoundingBox" x1="0" y1="0.5" x2="1" y2="0.5">
		<stop offset="0" stop-color="#E6B811" stop-opacity="1"/>
		<stop offset="0.574512" stop-color="#FFF4CA" stop-opacity="1"/>
		<stop offset="1" stop-color="#DEC56A" stop-opacity="1"/>
	</linearGradient>
	<path fill="url(#SVGID_Fill1_)" stroke-linejoin="round" d="M 95.4666,220.826C 125.097,220.826 149.117,242.95 149.117,270.24C 149.117,297.532 125.097,319.655 95.4666,319.655C 65.8364,319.655 41.8164,297.532 41.8164,270.24C 41.8164,242.95 65.8364,220.826 95.4666,220.826 Z "/>
	<ellipse fill="none" stroke-width="2" stroke-linejoin="round" stroke="#FFCE1C" stroke-opacity="1" cx="95.5085" cy="270.609" rx="45.7305" ry="42.1202"/>
	<path fill="#006432" fill-opacity="1" stroke-linejoin="round" d="M 286.064,219.431C 272.69,219.431 261.819,230.325 261.819,243.687C 261.819,257.061 272.69,267.955 286.064,267.955C 299.438,267.955 310.31,257.061 310.31,243.687C 310.31,230.325 299.438,219.431 286.064,219.431 Z M 286.064,277.954C 267.157,277.954 251.809,262.583 251.809,243.687C 251.809,224.803 267.157,209.432 286.064,209.432C 304.96,209.432 320.32,224.803 320.32,243.687C 320.32,262.583 304.96,277.954 286.064,277.954 Z M 228.666,94.4514L 228.666,117.411L 458.26,117.411L 458.26,255.167L 481.219,255.167L 481.219,94.4514M 353.863,301.085C 353.863,281.467 369.762,265.579 389.382,265.579L 389.382,221.807C 369.762,221.807 353.863,205.907 353.863,186.289L 218.265,186.289C 218.265,205.907 202.366,221.807 182.748,221.807L 182.748,265.579C 202.366,265.579 218.265,281.467 218.265,301.085M 412.341,324.045L 159.788,324.045L 159.788,163.329L 412.341,163.329M 446.78,128.89L 446.78,289.606L 423.82,289.606L 423.82,151.85L 194.227,151.85L 194.227,128.89L 446.78,128.89 Z "/>
	<linearGradient id="SVGID_Fill2_" gradientUnits="objectBoundingBox" x1="0.784174" y1="0.629877" x2="1.13214" y2="0.629877" gradientTransform="rotate(124.148125 0.784174 0.629877)">
		<stop offset="0" stop-color="#257CBC" stop-opacity="1"/>
		<stop offset="1" stop-color="#308ACA" stop-opacity="1"/>
	</linearGradient>
	<path fill="url(#SVGID_Fill2_)" stroke-linejoin="round" stroke="#000000" stroke-opacity="1" d="M 457.19,98.6057L 754.889,180.874C 761.711,182.76 765.75,189.884 763.865,196.706L 753.582,233.919L 431.074,144.794L 441.358,107.582C 443.243,100.759 450.368,96.7205 457.19,98.6057 Z "/>
	<path fill="#FF7D00" fill-opacity="1" stroke-linejoin="round" stroke="#000000" stroke-opacity="1" d="M 694.495,351.104L 607.666,327.109L 597.382,364.322L 684.211,388.317M 705.591,407.577C 703.706,414.399 696.582,418.438 689.759,416.553L 392.06,334.284C 385.238,332.399 381.199,325.275 383.084,318.452L 420.791,182.007L 743.298,271.131L 705.591,407.577 Z "/>
	<path fill="#000000" fill-opacity="1" stroke-linejoin="round" d="M 754.43,233.503L 430.341,143.941L 419.999,181.364L 744.088,270.926L 754.43,233.503 Z "/>
	<path fill="#FFFFFF" fill-opacity="1" stroke-linejoin="round" d="M 629.027,349.346L 721.89,362.011L 727.698,319.425L 634.835,306.76L 629.027,349.346 Z "/>
	<linearGradient id="SVGID_Fill3_" gradientUnits="objectBoundingBox" x1="0.784239" y1="0.559977" x2="1.29479" y2="0.559977" gradientTransform="rotate(115.904167 0.784239 0.559977)">
		<stop offset="0" stop-color="#257CBC" stop-opacity="1"/>
		<stop offset="1" stop-color="#308ACA" stop-opacity="1"/>
	</linearGradient>
	<path fill="url(#SVGID_Fill3_)" stroke-linejoin="round" stroke="#000000" stroke-opacity="1" d="M 455.462,103.452L 761.486,145.188C 768.499,146.145 773.454,152.665 772.498,159.679L 767.281,197.932L 435.754,152.717L 440.971,114.464C 441.928,107.45 448.449,102.495 455.462,103.452 Z "/>
	<radialGradient id="SVGID_Fill4_" cx="585.866" cy="290.086" r="170.6" gradientUnits="userSpaceOnUse" gradientTransform="rotate(184.371323 585.866211 290.086426)">
		<stop offset="0" stop-color="#66A9DA" stop-opacity="1"/>
		<stop offset="1" stop-color="#0D9BFF" stop-opacity="1"/>
	</radialGradient>
	<path fill="url(#SVGID_Fill4_)" stroke-linejoin="round" stroke="#000000" stroke-opacity="1" d="M 724.388,321.964L 635.131,309.79L 629.914,348.043L 719.171,360.217M 742.934,376.446C 741.978,383.459 735.457,388.414 728.444,387.458L 422.42,345.721C 415.407,344.764 410.451,338.245 411.408,331.231L 430.537,190.97L 762.063,236.185L 742.934,376.446 Z "/>
	<path fill="#000000" fill-opacity="1" stroke-linejoin="round" d="M 768.067,197.406L 434.915,151.969L 429.668,190.439L 762.821,235.875L 768.067,197.406 Z "/>
	<path fill="#FF0000" fill-opacity="1" stroke-linejoin="round" d="M 505.373,85.9906L 393.323,198.039L 505.255,309.973C 510.941,315.657 510.941,324.93 505.255,330.586L 444.202,391.612C 438.574,397.326 429.303,397.326 423.588,391.612L 311.655,279.679L 199.635,391.727C 193.978,397.385 184.707,397.385 179.021,391.727L 117.967,330.673C 112.34,324.987 112.34,315.716 117.967,310.06L 230.017,198.039L 117.909,85.9319C 112.223,80.2461 112.223,70.946 117.909,65.3171L 178.963,4.26306C 184.59,-1.42273 193.862,-1.42273 199.577,4.26306L 311.655,116.372L 423.704,4.32178C 429.36,-1.3053 438.633,-1.3053 444.318,4.32178L 505.373,65.3759C 511,71.0616 511,80.3635 505.373,85.9906 Z "/>
</svg>
