<?xml version="1.0" encoding="utf-8"?>
<!DOCTYPE svg PUBLIC "-//W3C//DTD SVG 1.1//EN" "http://www.w3.org/Graphics/SVG/1.1/DTD/svg11.dtd">
<svg xmlns="http://www.w3.org/2000/svg" xmlns:xlink="http://www.w3.org/1999/xlink" version="1.1" baseProfile="full" width="578.953" height="508.508" viewBox="0 0 578.95 508.51" enable-background="new 0 0 578.95 508.51" xml:space="preserve">
	<path fill="#704000" fill-opacity="1" stroke-linejoin="round" stroke="#000000" stroke-opacity="1" d="M 22.7907,388.412C 22.7907,388.412 23.4574,408.745 24.9574,417.245C 26.4574,425.746 29.1865,443.1 30.6865,446.933C 32.1865,450.767 41.2907,451.412 41.2907,451.412C 41.2907,451.412 38.124,430.245 37.9574,415.579C 37.7907,400.912 36.2907,381.746 36.2907,381.746L 23.124,379.746L 22.7907,388.412 Z "/>
	<path fill="#94734A" fill-opacity="1" stroke-linejoin="round" stroke="#000000" stroke-opacity="1" d="M 81.1803,265.244C 81.1803,265.244 84.347,303.077 84.347,305.911C 84.347,308.744 95.847,310.911 95.847,310.911L 100.847,262.744L 81.1803,265.244 Z "/>
	<path fill="#A3A3A3" fill-opacity="1" stroke-linejoin="round" stroke="#000000" stroke-opacity="1" d="M 407.252,313.25C 407.252,313.25 396.502,451.75 398.752,453.25C 401.002,454.75 414.502,455.25 417.002,453C 419.502,450.75 423.752,302 423.752,302L 407.252,313.25 Z "/>
	<path fill="#595049" fill-opacity="1" stroke-linejoin="round" stroke="#000000" stroke-opacity="1" d="M 395.311,452.615C 395.311,452.615 372.067,461.632 370.561,463.865C 365.644,471.156 379.061,469.865 382.811,469.865C 386.561,469.865 393.144,469.073 395.644,469.073C 398.144,469.073 401.811,468.615 404.061,469.615C 406.311,470.615 410.061,470.115 413.561,469.615C 417.061,469.115 418.061,463.656 417.811,461.906C 417.561,460.156 417.978,451.323 417.978,451.323C 417.978,451.323 409.894,451.24 403.394,451.24C 396.894,451.24 396.061,451.865 395.311,452.615 Z "/>
	<path fill="#94734A" fill-opacity="1" stroke-linejoin="round" stroke="#000000" stroke-opacity="1" d="M 69.0858,73.7913L 69.2524,84.1248L 84.7524,84.4583L 85.1691,73.7917L 69.0858,73.7913 Z "/>
	<path fill="#EFEBDF" fill-opacity="1" stroke-linejoin="round" stroke="#000000" stroke-opacity="1" d="M 66.1691,80.3748C 65.5151,78.3499 63.8358,89.3748 65.8358,92.3748C 67.8358,95.375 89.2524,97.4583 89.2524,97.4583L 88.8358,80.7083C 88.8358,80.7083 80.8357,86.375 66.1691,80.3748 Z "/>
	<path fill="#000000" fill-opacity="1" stroke-linejoin="round" stroke="#000000" stroke-opacity="1" d="M 81.9303,307.578C 80.847,310.578 80.097,314.744 82.097,317.078C 84.097,319.411 102.597,325.244 104.264,323.744C 105.93,322.244 103.037,319.427 102.097,315.744C 100.097,307.911 92.347,310.744 87.847,307.244C 83.3508,303.747 81.7636,307.578 81.9303,307.578 Z "/>
	<path fill="#94734A" fill-opacity="1" stroke-linejoin="round" stroke="#000000" stroke-opacity="1" d="M 66.8774,266.666C 66.8774,266.667 70.0441,304.5 70.0441,307.333C 70.0441,310.167 81.5441,312.333 81.5441,312.333L 86.5441,264.167L 66.8774,266.666 Z "/>
	<path fill="#EFEBDF" fill-opacity="1" stroke-linejoin="round" stroke="#000000" stroke-opacity="1" d="M 52.1691,99.708C 52.4736,100.04 50.5025,269.041 57.5025,273.375C 64.5024,277.708 92.1691,275.708 98.5024,274.375C 104.836,273.042 116.836,101.375 107.169,94.0417C 97.5024,86.7083 91.5024,85.0413 89.5024,85.375C 87.5024,85.7083 91.8358,95.3748 80.8358,94.7083C 69.8358,94.0417 66.5024,91.3748 63.5024,88.0417C 60.5024,84.7083 57.8358,90.0413 55.5024,91.0417C 53.1691,92.0417 53.1691,92.0417 52.1691,99.708 Z "/>
	<path fill="#EFEBDF" fill-opacity="1" stroke-linejoin="round" stroke="#000000" stroke-opacity="1" d="M 47.8358,95.708C 47.9024,96.0674 23.8358,154.708 24.1691,160.375C 24.5024,166.042 38.5025,168.708 39.8358,167.375C 41.1691,166.042 62.5025,118.708 64.1691,114.708C 65.8358,110.708 63.5024,100.041 59.5024,97.375C 55.5024,94.7083 53.1691,94.0417 47.8358,95.708 Z "/>
	<path fill="#94734A" fill-opacity="1" stroke-linejoin="round" stroke="#000000" stroke-opacity="1" d="M 134.461,154.583C 135.127,155.083 135.961,165.916 141.961,165.416C 147.961,164.917 153.961,158.25 150.961,154.917C 147.961,151.583 139.961,144.75 139.961,144.75L 134.461,154.583 Z "/>
	<path fill="#EFEBDF" fill-opacity="1" stroke-linejoin="round" stroke="#000000" stroke-opacity="1" d="M 100.591,89.7869C 99.7808,88.25 100.836,113.041 105.836,121.375C 110.836,129.708 132.252,160.292 132.252,160.292L 149.002,145.792C 149.002,145.792 110.924,89.7871 100.591,89.7869 Z "/>
	<path fill="#94734A" fill-opacity="1" stroke-linejoin="round" stroke="#000000" stroke-opacity="1" d="M 53.7525,55.958C 53.7524,57.625 56.8358,64.2913 59.1691,61.958C 61.5024,59.625 62.8358,75.8748 67.0858,75.4583C 71.3358,75.0417 73.7524,79.8748 77.7524,79.875C 81.7524,79.875 90.4191,74.5413 90.7524,72.2083C 91.0857,69.8752 90.6691,60.2083 90.6691,60.2083C 90.6691,60.2083 94.4191,56.458 94.3358,55.5417C 94.2524,54.625 92.5024,47.708 91.9191,46.0417C 91.3358,44.375 91.5858,38.5413 85.7524,36.4583C 79.9191,34.375 75.0858,33.7913 72.3358,35.2917C 69.5857,36.792 62.4191,42.208 60.6691,45.5417C 58.9191,48.875 59.8877,56.2002 58.0858,55.125C 53.1274,52.1667 53.6691,55.7917 53.7525,55.958 Z "/>
	<path fill="#604436" fill-opacity="1" stroke-linejoin="round" stroke="#000000" stroke-opacity="1" d="M 61.2525,49.9583C 61.2525,49.9583 69.9192,35.458 73.2525,36.4583C 76.5858,37.4583 83.6692,42.6248 86.5025,43.0417C 89.3358,43.4583 100.003,39.0415 97.2525,32.875C 94.5025,26.7083 91.2525,23.2915 85.5025,22.7917C 79.7525,22.2917 83.3359,21.1248 80.3358,21.2917C 77.3358,21.4583 72.7525,26.2083 68.3358,26.2917C 63.9192,26.375 57.8359,29.1248 56.6692,32.0417C 55.5025,34.9583 52.4192,45.9583 53.8359,48.2917C 55.2525,50.625 61.3358,49.875 61.2525,49.9583 Z "/>
	<path fill="#000000" fill-opacity="1" stroke-linejoin="round" stroke="#000000" stroke-opacity="1" d="M 67.6274,309C 66.5441,312 65.7941,316.166 67.7941,318.5C 69.7941,320.833 88.2941,326.666 89.9608,325.167C 91.6274,323.667 88.7343,320.849 87.7941,317.167C 85.7941,309.333 78.0441,312.167 73.5441,308.667C 69.0479,305.17 67.4607,309 67.6274,309 Z "/>
	<path fill="#F4DDB5" fill-opacity="1" stroke-linejoin="round" stroke="#000000" stroke-opacity="1" d="M 152.169,144.417C 145.169,148.042 144.794,154.541 143.294,155.042C 141.794,155.542 142.086,163.25 144.419,164.417C 146.752,165.583 163.627,153.25 163.627,153.25L 152.169,144.417 Z "/>
	<path fill="#F4DDB5" fill-opacity="1" stroke-linejoin="round" stroke="#000000" stroke-opacity="1" d="M 275.294,142.666C 276.419,143.792 277.419,151.541 284.044,153.291C 290.669,155.042 292.419,146.416 292.169,144.542C 291.919,142.667 288.669,134.417 288.669,134.417L 275.294,142.666 Z "/>
	<path fill="#303030" fill-opacity="1" stroke-linejoin="round" stroke="#000000" stroke-opacity="1" d="M 200.211,57.8333C 200.211,57.8333 187.146,57.5854 182.544,61.8333C 178.211,65.8335 148.544,143.167 148.544,143.167C 148.544,143.167 155.544,155.167 162.211,156.167C 168.878,157.167 182.544,109.167 184.878,112.5C 187.211,115.833 177.878,169.833 177.878,169.833C 177.878,169.833 215.544,163.833 223.878,166.5C 232.211,169.167 255.544,167.167 255.544,167.167L 251.877,103.833C 251.877,103.833 269.544,148.5 271.544,149.167C 273.544,149.833 293.878,139.167 296.877,141.167C 299.877,143.167 262.544,67.1665 254.544,61.1667C 246.544,55.1667 232.211,52.1667 232.211,52.1667C 232.211,52.1667 226.211,59.1665 219.544,59.1667C 212.878,59.1667 206.544,51.1667 206.544,51.1667C 206.544,51.1667 197.544,57.1665 200.211,57.8333 Z "/>
	<path fill="#F4DDB5" fill-opacity="1" stroke-linejoin="round" stroke="#000000" stroke-opacity="1" d="M 212.378,45.9998L 211.044,57.1665L 218.544,64.3333L 229.378,57.6667L 227.044,43.1667L 212.378,45.9998 Z "/>
	<path fill="#EFEBDF" fill-opacity="1" stroke-linejoin="round" stroke="#000000" stroke-opacity="1" d="M 203.211,60.1665C 203.211,60.1667 212.544,126.5 217.211,131.833C 221.878,137.167 229.878,79.8333 233.211,69.5C 236.544,59.1667 231.878,52.8333 231.878,52.8333L 220.544,60.8333L 204.878,51.8333L 203.211,60.1665 Z "/>
	<path fill="#448CA2" fill-opacity="1" stroke-linejoin="round" stroke="#000000" stroke-opacity="1" d="M 216.544,60.791L 216.211,76.0012C 216.211,76.0015 211.211,85.71 211.211,89.27C 211.211,92.8298 210.877,111.6 214.211,121.956C 217.544,132.312 218.544,137.167 218.544,137.167L 224.877,117.425C 224.877,117.425 225.211,90.8879 223.877,84.7393C 222.544,78.5906 221.544,76.9722 221.211,74.0598C 220.877,71.1472 221.877,60.1438 221.877,60.1438C 221.877,60.1438 218.877,57.8787 216.544,60.791 Z "/>
	<path fill="#3A3A3A" fill-opacity="1" stroke-linejoin="round" stroke="#000000" stroke-opacity="1" d="M 195.205,59.0481C 195.205,59.0481 188.878,58.6331 188.878,59.9309C 188.878,61.2283 194.878,70.3105 194.878,70.3105L 189.664,70.7151C 189.664,70.7151 199.493,87.1638 200.493,97.5439C 201.493,107.924 218.794,133.75 218.794,133.75C 218.794,133.75 206.759,84.7146 209.878,71.2839C 213.794,54.4167 205.789,51.0483 205.789,51.0483C 205.789,51.0483 198.289,58.7148 195.205,59.0481 Z "/>
	<path fill="#3A3A3A" fill-opacity="1" stroke-linejoin="round" stroke="#000000" stroke-opacity="1" d="M 241.455,58.6316C 241.455,58.6316 244.431,60.0879 244.33,61.3816C 244.229,62.675 239.497,69.8816 239.497,69.8816L 249.33,70.5483C 249.33,70.5483 239.295,88.5889 237.49,98.8596C 235.685,109.13 218.627,134.917 218.627,134.917C 218.627,134.917 233.077,82.5725 230.457,69.0283C 227.837,55.4841 232.289,52.0483 232.289,52.0483C 232.289,52.0483 238.039,58.4648 241.455,58.6316 Z "/>
	<path fill="#F4DDB5" fill-opacity="1" stroke-linejoin="round" stroke="#000000" stroke-opacity="1" d="M 197.544,28.6665C 198.102,31.4758 201.711,33.833 202.211,32.4998C 202.711,31.1667 205.044,41.3333 208.877,43.5C 212.711,45.6667 210.044,49.666 216.711,50.3328C 223.378,50.9995 223.878,50.6663 227.377,48.8333C 228.13,48.4392 227.878,43.4993 230.711,42.8328C 233.544,42.1663 233.544,38.3328 234.211,35.4995C 236.285,26.6833 239.044,33.9995 239.544,26.9995C 239.901,22.0095 236.544,23.9993 236.044,20.9995C 235.544,17.9995 234.544,17.6665 232.544,16C 230.544,14.3333 225.877,11.3333 224.044,10.8333C 222.211,10.3333 212.877,9.1665 211.711,9.83325C 210.544,10.5 204.377,15.1665 203.877,16.5C 203.377,17.8333 202.377,25 202.377,25C 202.377,25 197.044,24.3335 197.544,28.6665 Z "/>
	<path fill="#2B2515" fill-opacity="1" stroke-linejoin="round" stroke="#000000" stroke-opacity="1" d="M 196.878,22.6665C 196.858,22.9983 197.711,26.333 200.711,25.6665C 203.711,25 217.205,8.07837 216.044,11.6667C 214.211,17.3333 236.878,25.4998 240.544,19.5C 244.211,13.5 224.378,0.999756 218.378,0.5C 212.378,0 198.878,6.3335 196.878,22.6665 Z "/>
	<path fill="#E2E2E2" fill-opacity="1" stroke-linejoin="round" stroke="#000000" stroke-opacity="1" d="M 369.794,37.2498C 369.794,37.25 372.294,42.7498 373.669,44.8748C 375.044,47 374.669,52.375 374.669,52.375L 378.169,51.5L 378.419,46L 379.669,42.875L 382.169,36.5L 381.419,35.375L 378.419,39.875L 377.919,45.125L 371.669,36.375L 372.294,39.625L 369.794,37.2498 Z "/>
	<path fill="#E2E2E2" fill-opacity="1" stroke-linejoin="round" stroke="#000000" stroke-opacity="1" d="M 350.461,63.8748C 350.461,63.875 360.794,55.5413 363.461,57.8748C 366.127,60.2083 371.461,59.5413 371.461,62.2083C 371.461,64.875 373.794,65.208 375.794,66.5417C 377.794,67.875 378.127,72.2083 378.127,72.2083C 378.127,72.2083 379.127,75.5413 381.461,76.5417C 383.794,77.5417 381.461,80.8748 381.127,82.2083C 380.794,83.5417 378.461,88.5417 378.461,88.5417C 378.461,88.5417 381.127,91.8748 385.127,90.875C 389.127,89.875 392.127,83.208 393.461,81.875C 394.794,80.5417 394.127,74.208 392.794,72.875C 391.461,71.5417 388.794,67.8748 390.461,63.875C 392.127,59.875 392.461,58.208 392.461,56.875C 392.461,55.5417 392.127,48.875 392.127,48.875C 392.127,48.875 386.461,45.8748 384.794,45.5417C 383.127,45.2083 376.794,47.5417 376.794,47.5417L 370.461,46.2083L 357.794,47.5417L 353.794,52.5417L 348.794,54.5417C 348.794,54.5417 345.127,63.5413 347.127,64.2083C 349.127,64.875 351.461,62.5417 350.461,63.8748 Z "/>
	<path fill="#C2A176" fill-opacity="1" stroke-linejoin="round" stroke="#000000" stroke-opacity="1" d="M 358.794,89.8748C 358.794,89.875 362.544,99.6248 359.169,102.5C 355.794,105.375 351.169,106.5 350.919,107C 350.669,107.5 354.044,117.375 355.294,118.625C 356.544,119.875 385.419,112.375 385.419,112.375C 385.419,112.375 377.419,106.75 379.044,96.25C 380.669,85.75 378.169,79.75 378.169,79.75L 358.794,89.8748 Z "/>
	<path fill="#C2A176" fill-opacity="1" stroke-linejoin="round" stroke="#000000" stroke-opacity="1" d="M 354.044,59.4998C 354.044,59.5 348.419,72.1248 349.044,76.4998C 349.669,80.875 349.544,89.4998 351.044,90.875C 352.544,92.25 360.794,95.2498 362.294,95.25C 363.794,95.25 365.669,96.3748 370.169,93.875C 374.669,91.375 381.044,85.9998 381.419,84.75C 381.794,83.5 385.419,72.6248 384.669,70.875C 383.919,69.125 376.294,57.8748 368.294,56.375C 360.294,54.875 353.919,59.625 354.044,59.4998 Z "/>
	<path fill="#C2A176" fill-opacity="1" stroke-linejoin="round" stroke="#000000" stroke-opacity="1" d="M 298.502,153.75C 298.502,153.75 293.252,150 288.502,151.5C 283.752,153 283.502,154 285.002,157C 286.502,160 296.252,164.75 299.752,163.75C 303.252,162.75 299.502,153.5 298.502,153.75 Z "/>
	<path fill="#4694B8" fill-opacity="1" stroke-linejoin="round" stroke="#000000" stroke-opacity="1" d="M 345.919,106.375C 345.919,106.375 300.669,144.875 299.169,146.5C 297.669,148.125 298.169,162.5 299.919,164.5C 301.669,166.5 315.169,165.875 324.544,156.375C 333.919,146.875 340.669,135.25 340.669,135.25L 349.169,111.625L 345.919,106.375 Z "/>
	<path fill="#AECB9D" fill-opacity="1" stroke-linejoin="round" stroke="#000000" stroke-opacity="1" d="M 342.586,236.5L 344.586,332L 359.086,336.75L 359.336,233.5L 342.586,236.5 Z "/>
	<path fill="#4694B8" fill-opacity="1" stroke-linejoin="round" stroke="#000000" stroke-opacity="1" d="M 347.419,106C 346.919,106.625 331.794,127.875 331.919,131.25C 332.044,134.625 336.794,137 337.044,145.25C 337.294,153.5 339.919,159.625 337.919,166.375C 335.919,173.125 329.169,206.75 328.794,209.5C 328.419,212.25 322.419,227.875 325.294,235.25C 328.169,242.625 345.169,241.625 352.294,240.5C 359.419,239.375 359.794,158.625 357.794,150.625C 355.794,142.625 349.544,134.5 353.919,125.375C 358.294,116.25 362.419,113.375 362.419,113.375L 352.794,105.5L 347.544,105.375"/>
	<path fill="#AECB9D" fill-opacity="1" stroke-linejoin="round" stroke="#000000" stroke-opacity="1" d="M 357.336,235C 357.336,235 363.086,343.25 365.336,344.5C 367.586,345.75 382.086,342.75 383.836,343C 385.586,343.25 376.086,230.5 376.086,230.5L 357.336,235 Z "/>
	<path fill="#398FB0" fill-opacity="1" stroke-linejoin="round" stroke="#000000" stroke-opacity="1" d="M 363.919,111.875C 364.371,111.097 379.321,101.657 381.044,106.75C 384.186,116.038 408.274,127.556 403.919,127.875C 374.919,130 396.294,241.5 385.294,238.875C 367.924,234.73 349.544,242.875 352.294,239C 355.044,235.125 365.544,160 352.669,139.875C 339.794,119.75 362.544,114.75 363.919,111.875 Z "/>
	<path fill="#4694B8" fill-opacity="1" stroke-linejoin="round" stroke="#000000" stroke-opacity="1" d="M 394.419,126.125C 391.711,127.222 383.169,131.875 383.044,138.75C 382.919,145.625 385.419,149.25 386.919,160.125C 388.419,171 389.294,182 389.419,184C 389.544,186 403.794,200.75 403.794,200.75C 403.794,200.75 408.669,137.75 408.294,130C 407.919,122.25 399.294,124.5 394.419,126.125 Z "/>
	<path fill="#000000" fill-opacity="1" stroke-linejoin="round" stroke="#000000" stroke-opacity="1" d="M 354.086,340.75C 357.096,340.75 360.086,336.25 360.336,333.5C 360.586,330.75 359.586,328.5 359.586,328.5C 359.586,328.5 344.873,326.985 336.086,330.5C 328.586,333.5 327.475,329.417 326.836,339C 326.586,342.75 349.836,340.75 354.086,340.75 Z "/>
	<path fill="#000000" fill-opacity="1" stroke-linejoin="round" stroke="#000000" stroke-opacity="1" d="M 350.62,348.448C 350.62,348.448 362.586,343.75 364.586,341C 366.586,338.25 383.048,336.584 383.586,338.25C 386.086,346 382.037,346.948 379.286,348.948C 376.536,350.948 370.537,353.614 364.786,356.115C 359.036,358.615 354.453,359.364 349.953,355.615C 345.453,351.865 350.62,348.698 350.62,348.448 Z "/>
	<path fill="#A3A3A3" fill-opacity="1" stroke-linejoin="round" stroke="#000000" stroke-opacity="1" d="M 378.002,316.75C 378.002,316.75 380.252,448.75 382.252,450.5C 384.252,452.25 381.752,457.75 384.502,458C 387.252,458.25 402.752,458 402.752,458C 402.752,458 401.502,449.25 403.502,449C 405.502,448.75 407.787,411.364 408.286,381.115C 408.786,350.865 409.252,313.5 409.252,313.5L 378.002,316.75 Z "/>
	<path fill="#724818" fill-opacity="1" stroke-linejoin="round" stroke="#000000" stroke-opacity="1" d="M 388.002,174.75C 387.308,174.68 387.752,183.25 383.752,185.5C 379.752,187.75 373.252,191 375.502,193.25C 377.752,195.5 386.502,196 386.002,199.5C 385.502,203 383.252,206.5 383.502,208.5C 383.752,210.5 393.002,207.75 393.752,210.5C 394.502,213.25 393.502,216.75 393.502,216.75L 409.752,217.5L 412.752,191.25C 412.752,191.25 412.502,172 407.252,170C 402.002,168 390.502,168 388.002,174.75 Z "/>
	<path fill="#A3A3A3" fill-opacity="1" stroke-linejoin="round" stroke="#000000" stroke-opacity="1" d="M 411.502,213.75C 415.002,216.25 421.502,255.5 421.002,264.25C 420.502,273 432.002,300.75 432.002,305.25C 432.002,309.75 427.953,325.031 413.953,328.781C 399.953,332.531 376.752,323.75 373.502,319C 370.252,314.25 373.252,317.5 377.752,306C 382.252,294.5 375.502,223.25 384.252,218.25C 393.002,213.25 412.002,212.75 411.502,213.75 Z "/>
	<path fill="#000000" fill-opacity="1" stroke-linejoin="round" stroke="#000000" stroke-opacity="1" d="M 390.002,172.5C 390.002,172.5 388.752,162.25 392.502,160.75C 396.252,159.25 399.002,155 399.252,154C 399.502,153 406.502,151.25 408.002,154C 409.502,156.75 417.002,158.25 418.252,159.25C 419.502,160.25 427.252,167 426.752,169.5C 426.252,172 424.002,182 423.752,183.5C 423.502,185 413.502,193.75 413.502,195.25C 413.502,196.75 410.752,208.5 410.752,208.5C 410.752,208.5 407.002,186.5 407.002,184.75C 407.002,183 405.752,176.75 404.252,176C 402.752,175.25 396.502,171 395.502,171.75C 394.502,172.5 390.252,172.25 390.002,172.5 Z "/>
	<path fill="#595049" fill-opacity="1" stroke-linejoin="round" stroke="#000000" stroke-opacity="1" d="M 380.502,458.25C 380.502,458.25 357.258,467.267 355.752,469.5C 350.836,476.792 364.252,475.5 368.002,475.5C 371.752,475.5 378.336,474.708 380.836,474.708C 383.336,474.708 387.002,474.25 389.252,475.25C 391.502,476.25 395.252,475.75 398.752,475.25C 402.252,474.75 403.252,469.291 403.002,467.542C 402.752,465.792 403.169,456.958 403.169,456.958C 403.169,456.958 395.086,456.875 388.586,456.875C 382.086,456.875 381.252,457.5 380.502,458.25 Z "/>
	<radialGradient id="SVGID_Fill1_" cx="217.65" cy="231.245" r="138.264" gradientUnits="userSpaceOnUse" gradientTransform="rotate(44.933037 217.650238 231.245361)">
		<stop offset="0.88787" stop-color="#99F6FF" stop-opacity="0.921569"/>
		<stop offset="0.924567" stop-color="#8AEAFF" stop-opacity="0.454902"/>
		<stop offset="1" stop-color="#41EEFF" stop-opacity="0.0313725"/>
	</radialGradient>
	<ellipse fill="url(#SVGID_Fill1_)" stroke-width="0.2" stroke-linejoin="round" cx="219.09" cy="233.121" rx="138.975" ry="138.651"/>
	<ellipse fill="#56B5C4" fill-opacity="1" stroke-linejoin="round" stroke="#006A6E" stroke-opacity="1" cx="219.829" cy="228.775" rx="112.205" ry="111.943"/>
	<path fill="#724818" fill-opacity="1" stroke-linejoin="round" stroke="#000000" stroke-opacity="1" d="M 351.502,260.875C 351.502,260.875 331.669,261.875 331.002,264.375C 330.336,266.875 330.169,271.541 336.002,272.708C 341.836,273.875 353.669,272.208 353.669,272.208L 351.502,260.875 Z "/>
	<path fill="#99C21D" fill-opacity="1" stroke-linejoin="round" stroke="#8DD7FA" stroke-opacity="1" d="M 186.612,125.986C 186.613,125.986 151.042,139.587 153.919,142.725C 156.796,145.863 165.95,138.802 166.735,142.986C 167.52,147.171 164.642,184.834 160.981,180.911C 157.319,176.988 148.949,177.249 153.919,185.619C 158.889,193.988 163.858,214.912 169.35,220.666C 174.843,226.42 186.351,226.682 186.874,229.297C 187.397,231.913 189.228,235.313 191.321,236.359C 193.413,237.405 197.859,249.96 200.736,248.129C 203.613,246.298 195.505,239.76 197.859,236.098C 200.213,232.436 195.505,231.128 193.413,231.913C 191.321,232.698 194.459,220.928 196.29,220.928C 198.121,220.928 188.443,219.62 185.566,222.497C 182.689,225.374 174.581,200.527 185.043,201.835C 195.505,203.142 188.182,206.804 192.628,205.758C 197.075,204.712 197.074,196.343 199.429,202.358C 201.782,208.373 203.875,211.251 202.567,213.866C 201.259,216.481 208.844,218.574 210.414,213.866C 211.983,209.158 203.352,203.927 210.152,199.742C 216.952,195.558 226.106,187.188 227.937,189.019C 229.768,190.85 229.245,177.772 231.861,180.126C 234.476,182.48 235.784,185.619 238.661,183.526C 241.538,181.434 246.507,178.819 241.799,177.511C 237.092,176.203 231.337,171.495 236.307,170.972C 241.276,170.449 245.461,174.896 247.292,171.234C 249.123,167.572 243.63,166.787 242.323,161.295C 241.015,155.802 239.707,153.448 241.538,152.925C 243.369,152.402 243.107,150.048 241.799,146.648C 240.492,143.248 243.63,143.248 244.676,142.725C 245.723,142.202 233.43,134.094 231.076,133.832C 228.722,133.571 227.937,133.309 230.814,137.755C 233.691,142.202 229.506,145.079 227.676,145.079C 225.845,145.079 232.122,143.248 234.999,146.648C 237.876,150.048 240.491,153.71 238.138,155.802C 235.784,157.895 233.168,162.341 232.907,158.941C 232.645,155.541 233.168,149.264 231.337,149.263C 229.507,149.263 223.229,154.233 223.229,154.233C 223.229,154.233 223.229,157.11 222.968,158.418C 222.706,159.725 222.706,160.772 220.614,162.341C 218.522,163.91 218.522,169.141 218.522,169.141L 217.999,173.326C 217.999,173.326 216.429,166.003 215.645,161.033C 214.86,156.064 206.49,155.279 205.183,155.279C 203.875,155.279 209.106,144.556 211.198,145.34C 213.291,146.125 220.091,147.171 220.091,147.171C 220.091,147.171 221.137,142.202 225.322,140.632C 229.507,139.063 229.245,136.186 228.199,135.663C 227.153,135.14 226.891,132.525 228.199,132.263C 229.507,132.001 239.445,127.032 241.276,129.647C 243.107,132.263 247.815,141.94 250.431,143.509C 253.046,145.079 251.476,150.833 255.662,153.71C 259.846,156.587 260.108,159.202 261.154,159.202C 262.2,159.202 261.677,146.91 264.816,147.956C 267.954,149.002 271.354,145.864 269.001,143.248C 266.647,140.632 263.769,130.432 256.708,129.124C 249.646,127.816 236.83,122.586 227.153,122.324C 217.475,122.062 217.475,128.863 217.214,129.909C 216.952,130.955 212.244,135.402 211.46,132.263C 210.675,129.124 201.259,132.263 201.259,132.263L 196.028,134.094L 191.059,127.555L 186.612,125.986 Z "/>
	<path fill="#99C21D" fill-opacity="1" stroke-linejoin="round" stroke="#8DD7FA" stroke-opacity="1" d="M 203.874,222.759C 203.874,222.759 212.767,226.159 214.859,229.298C 216.952,232.436 219.829,231.913 219.306,229.821C 218.783,227.728 214.598,222.497 214.598,222.497L 204.398,218.835L 203.874,222.759 Z "/>
	<path fill="#99C21D" fill-opacity="1" stroke-linejoin="round" stroke="#8DD7FA" stroke-opacity="1" d="M 220.614,233.222C 220.614,233.222 222.183,236.622 223.753,236.361C 225.322,236.099 226.107,234.007 227.153,234.268C 228.199,234.53 227.676,230.868 227.676,230.868L 221.661,230.868L 220.614,233.222 Z "/>
	<path fill="#99C21D" fill-opacity="1" stroke-linejoin="round" stroke="#8DD7FA" stroke-opacity="1" d="M 214.337,235.313L 216.952,237.144L 217.214,234.79L 215.383,232.959L 214.337,235.313 Z "/>
	<path fill="#99C21D" fill-opacity="1" stroke-linejoin="round" stroke="#8DD7FA" stroke-opacity="1" d="M 204.659,247.606C 204.659,247.606 210.151,251.007 208.059,254.93C 205.967,258.853 197.859,265.653 197.598,269.576C 197.336,273.5 198.12,282.392 201.521,286.054C 204.921,289.716 213.029,294.685 210.675,302.531C 208.321,310.378 203.875,316.655 202.567,319.271C 201.259,321.886 202.044,326.071 202.044,326.071L 199.167,331.563L 202.829,337.317L 210.413,327.117L 214.337,327.117L 217.475,318.486L 223.752,319.271L 241.015,308.024C 241.015,308.024 247.815,310.64 249.907,304.362C 252,298.085 253.569,290.762 257.492,289.454C 261.415,288.146 264.031,283.438 264.031,283.438L 250.169,272.976L 251.738,269.315L 243.63,272.453C 243.63,272.453 245.984,264.607 244.153,263.299C 242.322,261.991 240.753,257.545 240.492,256.499C 240.23,255.453 230.03,245.514 230.03,245.514L 224.276,249.698L 218.521,242.637C 218.521,242.637 212.506,238.714 212.244,243.683C 211.983,248.652 211.46,247.344 211.46,247.344L 204.659,247.606 Z "/>
	<path fill="#99C21D" fill-opacity="1" stroke-linejoin="round" stroke="#8DD7FA" stroke-opacity="1" d="M 295.417,183.789C 296.463,183.788 300.125,182.481 300.125,182.481L 303.002,184.834L 306.402,183.004L 300.648,170.711L 304.833,164.172L 296.202,157.11L 293.063,164.957L 295.679,170.449C 295.679,170.449 297.248,174.635 295.155,175.68C 293.063,176.727 294.894,183.788 295.417,183.789 Z "/>
	<path fill="#99C21D" fill-opacity="1" stroke-linejoin="round" stroke="#8DD7FA" stroke-opacity="1" d="M 300.386,153.711C 300.42,153.102 300.386,155.019 304.832,161.034C 309.279,167.05 306.402,172.804 306.925,174.896C 307.448,176.988 310.064,185.358 310.064,185.358L 313.725,195.82L 307.186,205.236L 312.941,207.59C 312.941,207.59 317.125,211.513 311.894,210.99C 306.663,210.467 306.14,206.805 305.094,206.805C 304.048,206.805 301.432,212.559 301.432,212.559L 307.971,225.375L 317.125,223.805L 321.833,218.836C 321.833,218.836 324.972,214.913 325.756,216.744C 326.541,218.574 328.895,224.067 328.895,224.067C 328.895,224.067 330.987,214.39 327.587,204.712C 324.187,195.035 317.125,175.158 313.987,170.188C 310.848,165.219 304.571,155.018 300.386,153.711 Z "/>
	<path fill="#99C21D" fill-opacity="1" stroke-linejoin="round" stroke="#8DD7FA" stroke-opacity="1" d="M 323.925,229.56C 320.002,227.206 315.032,227.991 312.94,229.56C 310.848,231.129 307.971,230.344 307.971,234.529C 307.971,238.714 307.186,242.114 308.494,243.16C 309.802,244.206 313.725,243.945 313.725,244.991C 313.725,246.037 311.109,249.699 307.186,251.007C 303.263,252.314 300.124,257.807 301.171,258.33C 302.217,258.853 310.325,256.761 311.371,257.022C 312.417,257.284 307.448,261.469 304.048,265.13C 300.648,268.792 301.432,274.808 302.217,276.115C 303.002,277.423 306.925,278.993 305.879,283.177C 304.833,287.362 302.478,293.116 301.171,294.424C 299.863,295.731 295.417,304.624 293.324,306.193C 291.232,307.763 284.955,313.778 284.955,313.778C 284.955,313.778 302.478,305.409 311.633,288.146C 320.787,270.884 329.941,242.114 329.68,229.56C 329.418,217.005 325.756,230.344 324.972,224.329C 324.187,218.313 324.449,229.298 323.925,229.56 Z "/>
	<path fill="#FFFFFF" fill-opacity="1" stroke-linejoin="round" stroke="#B4B4B4" stroke-opacity="1" d="M 263.89,280.9C 264.933,280.85 259.591,269.342 266.505,268.084C 272.26,267.038 278.013,274.1 275.921,276.192C 273.829,278.285 280.106,269.915 282.721,274.1C 285.337,278.285 280.629,281.162 280.629,281.162C 280.629,281.162 288.475,281.685 287.168,285.346C 285.86,289.008 264.674,292.67 261.797,289.531C 258.92,286.393 256.305,281.685 263.89,280.9 Z "/>
	<path fill="#FFFFFF" fill-opacity="1" stroke-linejoin="round" stroke="#B4B4B4" stroke-opacity="1" d="M 122.864,231.339C 124.626,233.254 135.418,232.124 142.219,228.462C 149.019,224.8 163.404,237.093 168.635,219.831C 173.866,202.569 157.912,215.646 162.097,219.569C 166.282,223.492 161.05,208.061 152.942,211.461C 144.835,214.861 147.188,209.892 147.188,209.892C 147.188,209.892 144.311,198.122 135.942,204.138C 127.572,210.153 127.31,218.785 130.449,220.615C 133.588,222.446 109.526,219.83 122.864,231.339 Z "/>
	<path fill="#FFFFFF" fill-opacity="1" stroke-linejoin="round" stroke="#B4B4B4" stroke-opacity="1" d="M 284.869,214.158C 285.038,214.289 279.078,211.678 278.949,215.261C 278.821,218.844 278.306,219.533 283.582,219.533C 288.858,219.533 302.627,217.466 303.399,216.088C 304.171,214.71 305.201,208.509 302.627,209.335C 300.053,210.162 300.439,211.264 300.439,211.264C 300.439,211.264 300.568,206.993 298.638,208.233C 296.708,209.473 296.708,210.3 296.708,210.3C 296.708,210.3 299.024,202.721 292.332,201.205C 285.641,199.689 288.343,207.406 289.63,208.922C 290.917,210.438 288.472,206.855 285.641,209.473C 282.81,212.091 284.483,212.505 284.869,214.158 Z "/>
	<path fill="#FFFFFF" fill-opacity="1" stroke-linejoin="round" stroke="#B4B4B4" stroke-opacity="1" d="M 261.76,176.099C 262.815,176.602 261.498,160.929 270.391,161.975C 279.284,163.021 278.499,168.776 278.499,168.776C 278.499,168.776 286.607,165.376 288.699,169.56C 290.792,173.745 289.223,175.314 289.223,175.314C 289.223,175.314 294.192,172.438 296.023,175.576C 294.715,190.484 271.96,184.991 271.96,184.991C 271.524,185.863 266.991,186.299 261.498,189.438C 256.006,192.576 257.313,192.838 247.898,188.653C 238.482,184.469 250.775,171.129 261.76,176.099 Z "/>
	<path fill="#FFFFFF" fill-opacity="1" stroke-linejoin="round" stroke="#B4B4B4" stroke-opacity="1" d="M 181.768,151.938C 182.112,152.055 170.003,149.709 169.734,152.891C 169.466,156.072 168.418,156.682 179.142,156.705C 189.865,156.729 217.855,154.954 219.427,153.734C 220.999,152.513 223.103,147.011 217.871,147.733C 212.638,148.456 213.421,149.437 213.421,149.437C 213.421,149.437 213.69,145.644 209.765,146.737C 205.84,147.829 205.838,148.564 205.838,148.564C 205.838,148.564 210.56,141.843 196.963,140.467C 183.365,139.091 188.843,145.957 191.455,147.308C 194.068,148.66 189.105,145.468 183.346,147.78C 177.587,150.093 180.987,150.468 181.768,151.938 Z "/>
	<path fill="#F4DDB5" fill-opacity="1" stroke-linejoin="round" stroke="#000000" stroke-opacity="1" d="M 111.457,266.579C 111.457,266.579 104.124,258.912 101.457,258.912C 98.7907,258.912 91.7907,267.245 95.124,268.579C 98.4573,269.912 109.124,273.912 109.124,273.912L 111.457,266.579 Z "/>
	<path fill="#F4DDB5" fill-opacity="1" stroke-linejoin="round" stroke="#000000" stroke-opacity="1" d="M 315.457,261.579C 315.457,261.579 325.124,259.245 328.791,261.245C 332.457,263.246 331.791,267.579 331.791,267.579C 331.791,267.579 328.791,273.245 323.791,272.912C 318.791,272.579 306.124,269.912 306.124,269.912L 315.457,261.579 Z "/>
	<path fill="#F4DDB5" fill-opacity="1" stroke-linejoin="round" stroke="#000000" stroke-opacity="1" d="M 212.294,418.838C 212.294,418.838 216.627,455.838 216.294,463.838C 215.961,471.838 215.294,491.338 218.794,492.505C 222.294,493.671 228.461,491.671 228.961,486.505C 229.461,481.338 224.961,463.504 225.627,449.671C 226.294,435.838 228.627,425.004 229.961,420.505C 231.294,416.005 212.127,419.005 212.294,418.838 Z "/>
	<path fill="#F4DDB5" fill-opacity="1" stroke-linejoin="round" stroke="#000000" stroke-opacity="1" d="M 185.794,415.838C 185.794,415.838 186.627,441.171 186.294,451.671C 185.934,463.004 188.852,468.204 189.424,479.37C 189.757,485.87 185.794,489.004 187.961,491.505C 190.127,494.005 197.004,498.712 198.174,495.87C 199.924,491.62 202.073,478.4 200.461,466.005C 198.924,454.191 199.627,438.838 199.627,438.838C 199.627,438.838 202.127,420.338 201.794,419.005C 201.461,417.671 185.961,415.671 185.794,415.838 Z "/>
	<path fill="#328AB2" fill-opacity="1" stroke-linejoin="round" stroke="#000000" stroke-opacity="1" d="M 240.46,335.25C 240.46,335.25 237.127,345.983 239.627,355.806C 242.127,365.63 255.46,416.931 250.794,420.206C 246.127,423.48 230.294,417.477 225.294,420.57C 220.294,423.662 215.294,424.026 205.794,423.662C 196.294,423.299 192.96,416.567 189.127,416.385C 185.294,416.204 170.294,428.574 165.127,414.566C 159.96,400.559 177.794,335.978 177.794,335.978C 177.794,335.978 200.794,341.799 209.127,341.253C 217.46,340.707 240.46,334.886 240.46,335.25 Z "/>
	<path fill="#AFCDE5" fill-opacity="1" stroke-linejoin="round" stroke="#000000" stroke-opacity="1" d="M 187.627,239.171L 209.627,241.504L 235.794,240.505C 235.794,240.505 257.794,253.838 272.794,254.838C 287.794,255.838 320.127,252.838 320.127,257.838C 320.127,262.838 311.127,276.505 311.127,276.505C 311.127,276.505 273.019,275.649 260.627,274.005C 241.794,271.505 234.627,255.005 234.627,255.005C 234.627,255.005 238.127,269.504 233.627,276.005C 229.127,282.505 227.627,288.004 229.627,295.005C 231.627,302.005 243.627,338.505 243.627,338.505C 243.627,338.505 222.627,346.504 208.127,346.505C 193.627,346.505 172.627,341.005 172.627,341.005C 172.627,341.005 189.461,319.004 187.461,303.505C 185.461,288.005 178.627,273.004 179.627,267.505C 180.627,262.005 176.627,276.004 168.627,277.005C 160.627,278.005 149.627,288.504 129.627,284.005C 109.627,279.505 101.627,278.004 106.127,270.005C 110.627,262.005 118.627,264.004 123.127,264.005C 127.627,264.005 148.794,266.171 157.294,259.171C 165.794,252.171 188.627,238.171 187.627,239.171 Z "/>
	<path fill="#000000" fill-opacity="1" stroke-linejoin="round" stroke="#000000" stroke-opacity="1" d="M 196.961,185.005C 200.294,183.005 208.61,179.059 211.794,179.005C 221.627,178.838 230.794,187.338 230.794,190.671C 230.794,194.005 228.461,222.171 229.961,225.171C 231.461,228.171 231.294,239.504 239.461,241.338C 247.627,243.171 216.294,242.171 208.961,241.671C 201.627,241.171 181.461,240.838 182.961,236.005C 184.461,231.171 189.961,233.838 190.794,226.505C 191.627,219.171 191.794,205.505 191.794,200.505C 191.794,197.896 193.627,187.005 196.961,185.005 Z "/>
	<path fill="#000000" fill-opacity="1" stroke-linejoin="round" stroke="#000000" stroke-opacity="1" d="M 217.794,505.254L 226.294,505.504C 226.294,505.505 238.794,494.504 238.044,490.005C 237.294,485.505 229.294,485.755 229.294,485.755C 229.294,485.755 227.044,491.504 222.294,491.505C 217.544,491.505 216.294,485.004 214.294,485.505C 212.294,486.005 212.294,501.255 217.794,505.254 Z "/>
	<path fill="#000000" fill-opacity="1" stroke-linejoin="round" stroke="#000000" stroke-opacity="1" d="M 201.044,489.754C 202.014,489.702 200.794,507.254 198.544,508.004C 196.294,508.755 187.794,506.005 187.794,506.005C 187.794,506.005 186.294,501.504 183.794,499.005C 181.294,496.505 176.794,487.754 178.794,485.505C 180.794,483.255 188.294,484.755 188.294,484.755C 188.294,484.755 186.294,493.004 191.544,494.505C 196.794,496.005 198.044,492.255 201.044,489.754 Z "/>
	<path fill="#704000" fill-opacity="1" stroke-linejoin="round" stroke="#000000" stroke-opacity="1" d="M 38.624,379.912C 38.624,379.912 37.2907,445.079 43.2907,449.912C 49.2907,454.746 51.3555,456.742 54.4574,455.412C 55.624,454.912 50.4574,434.912 53.2907,415.079C 56.124,395.246 58.7907,379.079 55.4574,374.246C 52.124,369.412 38.7907,379.579 38.624,379.912 Z "/>
	<path fill="#B3CEA1" fill-opacity="1" stroke-linejoin="round" stroke="#000000" stroke-opacity="1" d="M 12.6865,324.746C 13.2059,324.916 15.5018,380.246 17.4373,382.579C 19.3728,384.913 43.6544,384.746 47.3494,384.246C 51.0444,383.746 64.7688,376.746 65.1207,375.912C 65.4726,375.079 64.2409,322.412 64.2409,322.412C 64.2409,322.412 63.1852,317.079 60.3699,314.912C 57.5547,312.746 16.7335,317.246 16.7335,317.246C 16.7335,317.246 11.6308,321.746 12.6865,324.746 Z "/>
	<path fill="#B3CEA1" fill-opacity="1" stroke-linejoin="round" stroke="#000000" stroke-opacity="1" d="M 26.2907,209.079C 26.2907,209.079 45.124,197.246 49.6095,227.11C 49.7776,228.229 51.3307,228.54 52.144,229.231C 56.7699,233.163 60.2594,236.506 60.624,237.912C 61.7907,242.412 61.124,252.745 59.2907,256.746C 57.4574,260.746 53.4574,269.579 54.7907,276.746C 56.124,283.912 66.624,303.912 65.4573,309.246C 64.2907,314.579 44.7907,331.245 28.124,327.079C 11.4574,322.912 -2.7093,313.245 1.12402,305.912C 4.95736,298.579 18.2907,280.079 19.124,271.912C 19.9574,263.746 12.3468,240.489 12.624,232.079C 13.124,216.912 26.2907,208.912 26.2907,209.079 Z "/>
	<path fill="none" stroke-linejoin="round" stroke="#000000" stroke-opacity="1" d="M 24.4574,209.912C 24.4574,209.912 46.2907,224.746 49.7907,227.412C 51.912,229.029 24.4574,216.245 19.124,217.579C 13.7907,218.912 24.4574,210.579 24.4574,209.912 Z "/>
	<path fill="#704000" fill-opacity="1" stroke-linejoin="round" stroke="#000000" stroke-opacity="1" d="M 84.2907,257.745C 84.2907,257.746 100.124,256.412 100.124,258.079C 100.124,259.746 98.9574,268.412 95.7907,268.412C 92.624,268.412 86.2907,269.245 82.624,267.746C 78.9573,266.246 84.4573,257.912 84.2907,257.745 Z "/>
	<path fill="#B3CEA1" fill-opacity="1" stroke-linejoin="round" stroke="#000000" stroke-opacity="1" d="M 34.4574,231.079C 35.8019,231.133 43.124,238.912 44.9574,244.745C 46.7907,250.579 48.124,252.745 46.124,254.579C 44.124,256.412 85.2907,255.412 86.9573,256.246C 88.624,257.079 84.624,261.912 84.4573,264.246C 84.2907,266.579 86.9574,269.079 84.4573,269.912C 81.9573,270.746 65.2907,273.912 59.2907,273.579C 53.2907,273.246 39.124,273.079 35.9574,269.246C 32.7907,265.412 27.9574,255.412 28.2907,246.579C 28.624,237.746 28.124,232.412 34.4574,231.079 Z "/>
	<path fill="#704000" fill-opacity="1" stroke-linejoin="round" stroke="#000000" stroke-opacity="1" d="M 37.4574,217.746C 38.124,217.579 36.4574,201.079 48.2907,202.079C 53.4789,202.518 50.7907,188.412 53.2907,188.746C 55.7907,189.079 57.624,183.245 53.7907,182.912C 49.9574,182.579 51.624,180.579 51.7907,175.412C 51.9574,170.246 54.2907,163.579 50.7907,164.412C 47.2907,165.246 31.2907,164.245 28.624,169.412C 25.9574,174.579 23.9426,194.607 23.124,198.579C 18.624,220.412 37.624,217.412 37.4574,217.746 Z "/>
	<path fill="#000000" fill-opacity="1" stroke-linejoin="round" stroke="#000000" stroke-opacity="1" d="M 26.7907,150.745L 27.624,155.412C 27.624,155.412 28.624,154.079 33.9574,154.912C 39.2907,155.746 45.7907,154.079 45.7907,154.079C 45.7907,154.079 44.4574,150.079 47.624,150.079C 50.7907,150.079 49.9574,153.912 49.9574,153.912L 53.7907,156.579C 53.7907,156.579 57.2907,155.912 57.2907,158.746C 57.2907,161.579 57.9574,168.412 56.2907,167.912C 54.624,167.412 50.624,166.412 49.7907,166.912C 48.9574,167.412 46.9574,170.579 46.9574,170.579L 39.7907,169.079C 39.7907,169.079 35.4574,167.912 35.124,171.579C 34.7907,175.246 34.624,181.246 34.624,181.246C 34.624,181.246 31.4574,176.579 30.9574,179.412C 30.4574,182.246 28.624,184.245 29.2907,186.079C 29.9574,187.912 33.9574,188.245 32.7907,190.746C 31.624,193.246 29.4574,196.079 29.4574,196.079L 26.624,198.912L 26.7907,202.912C 26.7907,202.912 23.2907,206.245 20.624,204.912C 17.9574,203.579 12.7907,203.245 14.9574,201.246C 17.124,199.246 16.2907,197.079 16.2907,197.079L 10.2907,197.579C 10.2907,197.579 11.9574,195.745 12.9574,195.246C 13.9574,194.746 8.45737,192.912 8.45736,189.579C 8.45736,186.246 12.9574,182.912 15.2907,181.746C 17.624,180.579 17.7907,177.745 16.7907,175.746C 15.7907,173.746 9.95737,173.579 10.624,169.912C 11.2907,166.246 12.2907,162.412 14.124,163.579C 15.9574,164.746 19.4574,162.912 21.124,162.579C 22.7907,162.246 24.2907,157.912 24.2907,155.912C 24.2907,153.912 26.624,150.246 26.7907,150.745 Z "/>
	<path fill="#000000" fill-opacity="1" stroke-linejoin="round" stroke="#000000" stroke-opacity="1" d="M 28.7283,448.083L 28.395,463.583L 39.0616,463.75L 38.7283,457.417C 38.7283,457.417 43.395,456.917 44.5616,457.417C 45.7283,457.917 44.7283,462.75 52.3949,463.75C 60.0616,464.75 66.8533,461.521 66.8533,461.521C 66.8533,461.521 54.6657,453.667 44.8533,448.521C 39.1749,445.543 34.895,449.417 31.7283,446.083C 28.5616,442.75 28.7283,447.583 28.7283,448.083 Z "/>
	<path fill="#000000" fill-opacity="1" stroke-linejoin="round" stroke="#000000" stroke-opacity="1" d="M 40.6241,452.621L 40.2908,468.121L 50.9574,468.287L 50.6241,461.954C 50.6241,461.954 55.2908,461.454 56.4574,461.954C 57.6241,462.454 56.6241,467.287 64.2908,468.287C 71.9574,469.287 78.7491,466.058 78.7491,466.058C 78.7491,466.058 66.5616,458.204 56.7491,453.058C 51.0708,450.08 46.7908,453.954 43.6241,450.621C 40.4574,447.287 40.6241,452.121 40.6241,452.621 Z "/>
	<path fill="#A3A3A3" fill-opacity="1" stroke-linejoin="round" stroke="#000000" stroke-opacity="1" d="M 396.502,225.5C 397.77,224.663 406.502,233.25 406.002,239.25C 405.502,245.25 401.502,262.75 398.252,267C 395.002,271.25 349.252,275.5 349.252,275.5L 348.252,256.5L 376.502,251L 385.502,256.75L 377.252,248.25C 377.252,248.25 384.252,222.5 396.502,225.5 Z "/>
	<linearGradient id="SVGID_Fill2_" gradientUnits="objectBoundingBox" x1="-0.00230357" y1="0.414576" x2="1.0023" y2="0.414576">
		<stop offset="0" stop-color="#626262" stop-opacity="1"/>
		<stop offset="1" stop-color="#121212" stop-opacity="1"/>
	</linearGradient>
	<path fill="url(#SVGID_Fill2_)" stroke-linejoin="round" stroke="#000000" stroke-opacity="1" d="M 497.546,86.4854L 503.853,87.0291C 503.853,87.0291 520.274,70.282 542.784,77.1331C 565.295,83.9841 563.011,94.8586 563.011,94.8586L 578.453,100.948L 563.337,105.951L 484.062,92.4663L 497.546,86.4854 Z "/>
	<linearGradient id="SVGID_Fill3_" gradientUnits="objectBoundingBox" x1="0.0185654" y1="0.484883" x2="1.00234" y2="0.484883">
		<stop offset="0" stop-color="#D6D6D6" stop-opacity="1"/>
		<stop offset="1" stop-color="#CCCCCC" stop-opacity="1"/>
	</linearGradient>
	<path fill="url(#SVGID_Fill3_)" stroke-linejoin="round" stroke="#000000" stroke-opacity="1" d="M 480.582,125.417L 484.062,92.6838L 499.721,95.4026C 499.721,95.4026 502.875,78.873 527.125,83.658C 551.375,88.4426 548.548,103.232 548.548,103.232L 562.903,105.733L 560.619,121.937L 559.096,134.225C 558.988,134.66 554.855,167.175 554.855,167.175L 553.224,175.549L 547.787,212.305L 494.175,211.652L 470.16,209.822L 476.014,163.586L 480.582,125.417 Z "/>
	<linearGradient id="SVGID_Fill4_" gradientUnits="objectBoundingBox" x1="-0.00704149" y1="0.5" x2="1.00704" y2="0.5">
		<stop offset="0" stop-color="#D6D6D6" stop-opacity="1"/>
		<stop offset="1" stop-color="#000000" stop-opacity="1"/>
	</linearGradient>
	<path fill="url(#SVGID_Fill4_)" stroke-linejoin="round" stroke="#000000" stroke-opacity="1" d="M 578.453,100.948L 564.697,211.707L 547.569,212.087L 563.011,105.733L 578.453,100.948 Z "/>
	<g>
		<path fill="#000000" fill-opacity="1" stroke-width="0.2" stroke-linejoin="round" d="M 496.923,110.945L 496.572,110.883L 496.641,110.499L 505.463,112.068C 506.879,112.32 508.042,112.755 508.949,113.372C 509.857,113.988 510.525,114.685 510.953,115.461C 511.381,116.237 511.646,117.024 511.747,117.82C 511.849,118.617 511.834,119.38 511.704,120.111C 511.539,121.038 511.191,121.894 510.659,122.679C 510.127,123.465 509.412,124.095 508.512,124.57C 507.613,125.045 506.554,125.287 505.336,125.296L 505.323,125.368C 506.689,126.376 507.814,128.095 508.698,130.525L 510.293,134.849C 511.024,136.784 511.664,138.04 512.214,138.616C 512.763,139.192 513.339,139.564 513.94,139.733L 513.891,140.011L 509.235,139.182C 509.084,138.892 508.942,138.612 508.81,138.344C 508.678,138.075 508.538,137.79 508.389,137.488C 508.308,137.294 508.19,137.001 508.034,136.61C 507.878,136.219 507.782,135.995 507.746,135.939L 505.625,130.346C 505.182,129.203 504.689,128.252 504.145,127.491C 503.601,126.731 503.07,126.161 502.552,125.782C 502.034,125.403 501.554,125.138 501.11,124.989C 500.666,124.839 500.136,124.709 499.52,124.6L 497.854,133.967C 497.531,135.784 498.291,136.887 500.134,137.276L 500.085,137.554L 492.08,136.13L 492.13,135.852C 492.646,135.921 493.115,135.906 493.538,135.807C 493.961,135.708 494.34,135.477 494.675,135.112C 495.009,134.746 495.238,134.217 495.362,133.524L 498.809,114.15C 498.99,113.13 498.869,112.367 498.444,111.861C 498.02,111.355 497.513,111.05 496.923,110.945 Z M 499.647,123.888L 501.138,124.153C 502.703,124.431 504.024,124.44 505.102,124.178C 506.179,123.917 507.016,123.419 507.611,122.685C 508.206,121.951 508.609,120.995 508.819,119.816C 508.993,118.837 508.963,117.84 508.728,116.827C 508.493,115.813 507.95,114.9 507.098,114.087C 506.246,113.273 505.004,112.721 503.372,112.431C 502.709,112.313 502.154,112.268 501.709,112.296L 499.647,123.888 Z "/>
		<path fill="#000000" fill-opacity="1" stroke-width="0.2" stroke-linejoin="round" d="M 528.463,116.16L 528.411,116.455C 527.647,116.319 526.96,116.418 526.35,116.751C 525.74,117.085 525.346,117.748 525.169,118.742L 521.718,138.138C 521.544,139.121 521.7,139.885 522.188,140.431C 522.677,140.977 523.269,141.312 523.966,141.436L 523.903,141.792L 515.932,140.374L 515.995,140.018C 516.737,140.15 517.416,140.047 518.033,139.709C 518.65,139.371 519.048,138.7 519.226,137.695L 522.677,118.299C 522.867,117.234 522.727,116.458 522.257,115.969C 521.787,115.479 521.182,115.169 520.44,115.037L 520.492,114.742L 528.463,116.16 Z "/>
		<path fill="#000000" fill-opacity="1" stroke-width="0.2" stroke-linejoin="round" d="M 531.1,116.951L 531.156,116.639L 539.41,118.108C 540.79,118.354 541.973,118.761 542.96,119.331C 543.947,119.9 544.732,120.577 545.316,121.362C 545.899,122.147 546.29,122.985 546.49,123.875C 546.689,124.766 546.707,125.669 546.544,126.585C 546.386,127.475 546.07,128.305 545.596,129.076C 545.122,129.847 544.48,130.492 543.668,131.011C 542.856,131.531 541.85,131.88 540.649,132.061C 539.448,132.241 538.11,132.2 536.634,131.938C 536.167,131.854 535.277,131.621 533.964,131.239L 532.387,140.099C 532.063,141.924 532.822,143.031 534.666,143.42L 534.616,143.698L 526.595,142.271L 526.645,141.993C 527.45,142.113 528.149,142.001 528.742,141.657C 529.335,141.313 529.719,140.65 529.893,139.667L 533.34,120.293C 533.446,119.7 533.441,119.19 533.325,118.764C 533.21,118.338 533.043,118.019 532.825,117.806C 532.606,117.593 532.35,117.418 532.057,117.282C 531.764,117.146 531.562,117.056 531.451,117.013L 531.1,116.951 Z M 536.229,118.506L 534.094,130.504C 534.952,130.822 535.815,131.057 536.683,131.212C 538.329,131.505 539.802,131.329 541.1,130.686C 542.399,130.043 543.252,128.576 543.66,126.284C 543.995,124.396 543.767,122.755 542.975,121.359C 542.183,119.963 540.759,119.083 538.705,118.717C 537.911,118.576 537.086,118.506 536.229,118.506 Z "/>
	</g>
	<g>
		<path fill="#000000" fill-opacity="1" stroke-width="0.2" stroke-linejoin="round" d="M 521.781,168.094L 521.153,168.006C 520.531,166 519.673,164.586 518.58,163.761C 517.487,162.937 516.252,162.313 514.878,161.889L 513.624,170.784C 513.744,170.862 513.973,171.027 514.31,171.278C 514.647,171.53 515.147,171.908 515.81,172.414C 516.472,172.92 516.969,173.296 517.3,173.542C 517.631,173.788 517.802,173.919 517.814,173.934C 519.078,175.046 520.02,176.081 520.639,177.04C 521.259,177.999 521.636,178.91 521.77,179.773C 521.904,180.636 521.891,181.633 521.731,182.763C 521.513,184.317 520.908,185.621 519.918,186.675C 518.928,187.728 517.658,188.481 516.108,188.933C 514.558,189.385 512.858,189.525 511.007,189.353L 510.823,190.656L 508.175,190.283L 508.36,188.973C 508.245,188.957 507.286,188.709 505.483,188.23C 503.68,187.751 502.578,187.483 502.178,187.427C 501.779,187.371 501.397,187.453 501.033,187.673L 500.405,187.585L 501.462,180.083L 502.09,180.171C 502.35,181.417 502.669,182.436 503.045,183.228C 503.421,184.019 503.879,184.665 504.42,185.166C 504.962,185.666 505.554,186.041 506.196,186.291C 506.838,186.541 507.653,186.771 508.641,186.98L 510.065,176.879C 508.398,175.8 507.037,174.833 505.983,173.979C 504.929,173.125 504.131,172.326 503.589,171.582C 503.047,170.837 502.696,170.072 502.538,169.285C 502.379,168.499 502.37,167.606 502.511,166.609C 502.824,164.384 503.807,162.577 505.458,161.188C 507.11,159.798 509.465,159.209 512.525,159.42L 512.709,158.117L 515.357,158.49L 515.171,159.807C 515.45,159.888 515.724,159.967 515.992,160.042C 516.261,160.117 516.742,160.284 517.437,160.541C 518.667,160.968 519.591,161.224 520.212,161.312C 521.016,161.425 521.662,161.303 522.148,160.945L 522.776,161.033L 521.781,168.094 Z M 511.155,169.142L 512.241,161.433C 510.862,161.337 509.806,161.576 509.071,162.15C 508.336,162.724 507.902,163.485 507.768,164.431C 507.679,165.066 507.774,165.655 508.054,166.198C 508.333,166.741 508.709,167.22 509.18,167.633C 509.652,168.047 510.31,168.55 511.155,169.142 Z M 512.531,178.541L 511.289,187.354C 513.048,187.545 514.297,187.281 515.036,186.56C 515.775,185.839 516.203,185.067 516.319,184.244C 516.431,183.449 516.245,182.608 515.76,181.721C 515.276,180.835 514.199,179.775 512.531,178.541 Z "/>
	</g>
	<path fill="#000000" fill-opacity="1" stroke-width="0.2" stroke-linejoin="round" d="M 574.031,208.68L 568.811,214.915L 566.056,214.625L 561.851,215.35C 561.851,215.35 554.746,214.915 553.877,214.915C 553.007,214.915 545.902,212.015 545.902,212.015L 566.926,193.456L 552.572,208.825L 563.736,199.111L 555.326,208.39L 566.491,198.385L 557.501,208.535L 566.346,200.416L 572.146,198.095L 566.491,201.575L 559.676,208.825L 567.071,203.315L 562.866,209.115L 567.216,206.65L 570.986,203.605L 567.796,207.375L 564.896,208.97L 572.146,205.49L 568.376,210.275L 573.016,206.36L 570.986,210.42L 574.031,208.68 Z "/>
	<path fill="#000000" fill-opacity="1" stroke-width="0.2" stroke-linejoin="round" d="M 469.417,188.091L 471.302,205.635L 467.097,199.835L 466.082,185.336L 465.212,186.206L 465.502,202.155L 462.892,194.325L 462.892,184.466L 462.022,184.611L 462.022,195.92L 464.342,202.88L 458.977,196.646L 464.342,206.795L 461.877,207.665L 455.208,199.98L 459.847,207.81L 455.498,204.04L 459.412,208.68L 458.687,209.985L 455.063,206.07L 454.483,206.94L 457.818,210.42L 459.663,214.697L 471.263,209.912L 470.867,188.091L 469.417,188.091 Z "/>
	<path fill="none" stroke-linejoin="round" stroke="#000000" stroke-opacity="1" d="M 475.144,157.859L 478.842,159.599L 478.842,163.296L 479.168,164.513L 480.473,167.34L 482.974,169.169L 484.497,170.691L 483.409,172.649"/>
	<path fill="none" stroke-linejoin="round" stroke="#000000" stroke-opacity="1" d="M 475.724,165.363L 477.899,163.985L 478.787,163.677L 479.168,164.529L 481.742,162.898L 482.575,164.348C 482.575,164.348 484.098,163.696 484.17,163.442C 484.243,163.188 484.678,162.463 485.33,162.318C 485.983,162.173 487.143,161.774 487.288,161.774C 487.433,161.774 489.209,161.956 489.209,161.956L 491.058,160.578"/>
	<path fill="#000000" fill-opacity="1" stroke-linejoin="round" stroke="#000000" stroke-opacity="1" d="M 552.952,174.334L 551.43,171.072L 547.297,168.462L 553.677,170.057L 552.952,174.334 Z "/>
	<path fill="none" stroke-linejoin="round" stroke="#000000" stroke-opacity="1" d="M 565.639,113.762L 564.044,116.807L 563.609,118.257L 560.709,121.411L 556.577,125.688C 556.577,125.688 557.338,127.465 557.628,127.755C 557.918,128.044 558.897,133.953 558.897,133.953"/>
	<path fill="none" stroke-linejoin="round" stroke="#000000" stroke-opacity="1" d="M 483.79,93.3542L 492.199,94.7319L 492.852,95.8193L 495.607,95.6743L 496.984,95.0945L 498.144,95.3118C 498.144,95.3118 498.724,96.0369 498.797,96.4719C 498.869,96.907 499.667,98.0667 499.739,98.5017C 499.812,98.9368 499.957,99.2268 499.812,99.7341C 499.667,100.242 499.014,101.112 499.014,101.112"/>
	<path fill="none" stroke-linejoin="round" stroke="#000000" stroke-opacity="1" d="M 503.799,95.8918L 502.494,97.1968C 502.494,97.1968 502.494,97.0518 502.059,97.1968C 501.624,97.3418 501.117,97.6316 500.464,97.7769C 499.812,97.9219 497.564,98.2844 497.564,98.2844L 495.389,99.0093L 494.374,99.4443"/>
</svg>
