<?xml version="1.0" encoding="utf-8"?>
<!DOCTYPE svg PUBLIC "-//W3C//DTD SVG 1.1//EN" "http://www.w3.org/Graphics/SVG/1.1/DTD/svg11.dtd">
<svg xmlns="http://www.w3.org/2000/svg" xmlns:xlink="http://www.w3.org/1999/xlink" version="1.1" baseProfile="full" width="468.792" height="557.417" viewBox="0 0 468.79 557.42" enable-background="new 0 0 468.79 557.42" xml:space="preserve">
	<linearGradient id="SVGID_Fill1_" gradientUnits="objectBoundingBox" x1="0.240455" y1="0.150054" x2="1.11183" y2="0.150054" gradientTransform="rotate(58.033718 0.240455 0.150054)">
		<stop offset="0.498471" stop-color="#F5F5F6" stop-opacity="1"/>
		<stop offset="0.749235" stop-color="#E3E8F0" stop-opacity="1"/>
	</linearGradient>
	<path fill="url(#SVGID_Fill1_)" stroke-linejoin="round" d="M 417.905,156.542L 460.375,218.968L 421.029,245.736L 378.56,183.311L 417.905,156.542 Z "/>
	<path fill="#B4BECF" fill-opacity="1" stroke-linejoin="round" d="M 421.929,171.432L 423.182,173.275C 424.736,175.558 424.144,178.668 421.861,180.221L 399.795,195.233C 397.512,196.787 394.402,196.195 392.849,193.912L 391.595,192.069C 390.042,189.786 390.633,186.676 392.917,185.123L 414.982,170.11C 417.265,168.557 420.375,169.149 421.929,171.432 Z "/>
	<path fill="#B4BECF" fill-opacity="1" stroke-linejoin="round" d="M 434.863,190.445L 436.117,192.288C 437.67,194.571 437.078,197.681 434.795,199.234L 412.73,214.246C 410.447,215.799 407.337,215.208 405.784,212.924L 404.53,211.082C 402.976,208.798 403.568,205.688 405.851,204.135L 427.916,189.123C 430.199,187.57 433.309,188.162 434.863,190.445 Z "/>
	<path fill="#B4BECF" fill-opacity="1" stroke-linejoin="round" d="M 447.574,209.127L 448.828,210.971C 450.381,213.254 449.79,216.364 447.506,217.917L 425.441,232.929C 423.158,234.482 420.048,233.891 418.495,231.607L 417.241,229.764C 415.688,227.481 416.279,224.371 418.562,222.818L 440.627,207.806C 442.91,206.252 446.02,206.844 447.574,209.127 Z "/>
	<linearGradient id="SVGID_Fill2_" gradientUnits="objectBoundingBox" x1="0.531069" y1="0.47443" x2="0.614026" y2="0.47443" gradientTransform="rotate(136.621735 0.531069 0.474430)">
		<stop offset="0.498471" stop-color="#F5F5F6" stop-opacity="1"/>
		<stop offset="0.749235" stop-color="#E3E8F0" stop-opacity="1"/>
	</linearGradient>
	<path fill="url(#SVGID_Fill2_)" stroke-linejoin="round" d="M 368.412,167.92L 431.967,261.338L 424.713,266.273L 361.158,172.855L 368.412,167.92 Z "/>
	<linearGradient id="SVGID_Fill3_" gradientUnits="objectBoundingBox" x1="0.560416" y1="0.503484" x2="0.643053" y2="0.503484" gradientTransform="rotate(136.488525 0.560416 0.503484)">
		<stop offset="0.498471" stop-color="#F5F5F6" stop-opacity="1"/>
		<stop offset="0.749235" stop-color="#E3E8F0" stop-opacity="1"/>
	</linearGradient>
	<path fill="url(#SVGID_Fill3_)" stroke-linejoin="round" d="M 359.215,168.819L 428.901,271.249L 421.647,276.184L 351.961,173.753L 359.215,168.819 Z "/>
	<linearGradient id="SVGID_Fill4_" gradientUnits="objectBoundingBox" x1="0.378387" y1="0.295076" x2="0.854963" y2="0.295076" gradientTransform="rotate(52.051716 0.378387 0.295076)">
		<stop offset="0.498471" stop-color="#F7FBFD" stop-opacity="1"/>
		<stop offset="0.527013" stop-color="#C2CEDA" stop-opacity="1"/>
	</linearGradient>
	<path fill="url(#SVGID_Fill4_)" stroke-linejoin="round" d="M 396.678,149.761L 405.651,162.95L 377.735,181.941L 368.763,168.753L 396.678,149.761 Z "/>
	<path fill="#F7FBFD" fill-opacity="1" stroke-linejoin="round" d="M 403.948,154.461C 406.426,158.104 407.32,161.814 405.944,162.75C 404.568,163.687 401.444,161.493 398.966,157.851C 396.489,154.209 395.595,150.498 396.971,149.562C 398.347,148.626 401.471,150.82 403.948,154.461 Z "/>
	<linearGradient id="SVGID_Fill5_" gradientUnits="objectBoundingBox" x1="0.378387" y1="0.295091" x2="0.85495" y2="0.295091" gradientTransform="rotate(52.049683 0.378387 0.295091)">
		<stop offset="0.498471" stop-color="#F7FBFD" stop-opacity="1"/>
		<stop offset="0.527013" stop-color="#C2CEDA" stop-opacity="1"/>
	</linearGradient>
	<path fill="url(#SVGID_Fill5_)" stroke-linejoin="round" d="M 449.827,227.805L 458.799,240.993L 430.884,259.985L 421.911,246.796L 449.827,227.805 Z "/>
	<path fill="#F7FBFD" fill-opacity="1" stroke-linejoin="round" d="M 457.097,232.504C 459.575,236.147 460.468,239.857 459.092,240.793C 457.716,241.729 454.593,239.536 452.115,235.894C 449.637,232.252 448.744,228.541 450.12,227.605C 451.496,226.669 454.619,228.863 457.097,232.504 Z "/>
	<path fill="#8A93A4" fill-opacity="1" stroke-linejoin="round" d="M 418.326,151.647L 466.08,221.839L 461.797,220.897L 417.332,155.541L 418.326,151.647 Z "/>
	<linearGradient id="SVGID_Fill6_" gradientUnits="objectBoundingBox" x1="0.252974" y1="-0.123753" x2="1.62719" y2="-0.123753" gradientTransform="rotate(63.932159 0.252974 -0.123753)">
		<stop offset="0.498471" stop-color="#F7FBFD" stop-opacity="1"/>
		<stop offset="0.527013" stop-color="#C2CEDA" stop-opacity="1"/>
	</linearGradient>
	<path fill="url(#SVGID_Fill6_)" stroke-linejoin="round" d="M 418.178,151.587L 468.792,170.529L 465.798,221.977L 418.178,151.587 Z "/>
	<path fill="#E3E8F0" fill-opacity="1" stroke-width="3" stroke-linejoin="round" stroke="#B4BECF" stroke-opacity="1" d="M 459.971,175.995C 462.738,180.062 461.684,185.601 457.617,188.368C 453.551,191.135 448.011,190.081 445.244,186.014C 442.477,181.947 443.531,176.408 447.598,173.641C 451.665,170.874 457.204,171.928 459.971,175.995 Z "/>
	<linearGradient id="SVGID_Fill7_" gradientUnits="objectBoundingBox" x1="0.268654" y1="0.87255" x2="1.14574" y2="0.87255" gradientTransform="rotate(-64.620667 0.268654 0.872550)">
		<stop offset="0.498471" stop-color="#F5F5F6" stop-opacity="1"/>
		<stop offset="0.749235" stop-color="#E3E8F0" stop-opacity="1"/>
	</linearGradient>
	<path fill="url(#SVGID_Fill7_)" stroke-linejoin="round" d="M 10.314,231.112L 44.4155,168.282L 84.0166,189.775L 49.915,252.605L 10.314,231.112 Z "/>
	<path fill="#B4BECF" fill-opacity="1" stroke-linejoin="round" d="M 21.2249,221.033L 21.978,219.645C 23.2952,217.218 26.3306,216.318 28.7573,217.636L 50.4993,229.436C 52.9263,230.753 53.8262,233.789 52.5088,236.215L 51.7554,237.604C 50.4385,240.03 47.4028,240.93 44.9758,239.613L 23.2339,227.812C 20.8071,226.495 19.9075,223.459 21.2249,221.033 Z "/>
	<path fill="#B4BECF" fill-opacity="1" stroke-linejoin="round" d="M 31.6113,201.896L 32.3645,200.508C 33.6816,198.082 36.717,197.182 39.144,198.499L 60.885,210.299C 63.312,211.616 64.2119,214.652 62.8945,217.079L 62.1411,218.466C 60.8242,220.893 57.7886,221.793 55.3616,220.476L 33.6206,208.675C 31.1936,207.358 30.2939,204.323 31.6113,201.896 Z "/>
	<path fill="#B4BECF" fill-opacity="1" stroke-linejoin="round" d="M 41.8174,183.091L 42.5706,181.704C 43.8877,179.276 46.9231,178.377 49.3501,179.694L 71.0911,191.494C 73.5181,192.812 74.418,195.847 73.1006,198.274L 72.3472,199.662C 71.0303,202.088 67.9946,202.988 65.5676,201.67L 43.8267,189.871C 41.3997,188.553 40.5,185.518 41.8174,183.091 Z "/>
	<linearGradient id="SVGID_Fill8_" gradientUnits="objectBoundingBox" x1="0.447349" y1="0.492246" x2="0.543004" y2="0.492246" gradientTransform="rotate(42.356056 0.447349 0.492246)">
		<stop offset="0.498471" stop-color="#F5F5F6" stop-opacity="1"/>
		<stop offset="0.749235" stop-color="#E3E8F0" stop-opacity="1"/>
	</linearGradient>
	<path fill="url(#SVGID_Fill8_)" stroke-linejoin="round" d="M 41.3677,267.824L 92.3999,173.799L 99.7012,177.762L 48.6689,271.787L 41.3677,267.824 Z "/>
	<linearGradient id="SVGID_Fill9_" gradientUnits="objectBoundingBox" x1="0.473086" y1="0.461944" x2="0.568582" y2="0.461944" gradientTransform="rotate(42.571396 0.473086 0.461944)">
		<stop offset="0.498471" stop-color="#F5F5F6" stop-opacity="1"/>
		<stop offset="0.749235" stop-color="#E3E8F0" stop-opacity="1"/>
	</linearGradient>
	<path fill="url(#SVGID_Fill9_)" stroke-linejoin="round" d="M 46.1145,275.174L 102.07,172.079L 109.371,176.042L 53.4155,279.136L 46.1145,275.174 Z "/>
	<linearGradient id="SVGID_Fill10_" gradientUnits="objectBoundingBox" x1="0.397951" y1="0.732681" x2="0.906099" y2="0.732681" gradientTransform="rotate(-56.109982 0.397951 0.732681)">
		<stop offset="0.498471" stop-color="#F7FBFD" stop-opacity="1"/>
		<stop offset="0.527013" stop-color="#C2CEDA" stop-opacity="1"/>
	</linearGradient>
	<path fill="url(#SVGID_Fill10_)" stroke-linejoin="round" d="M 13.8196,251.917L 21.0239,238.643L 49.1206,253.893L 41.9163,267.167L 13.8196,251.917 Z "/>
	<path fill="#F7FBFD" fill-opacity="1" stroke-linejoin="round" d="M 14.6191,243.76C 16.6086,240.094 19.3438,237.732 20.7288,238.483C 22.1133,239.235 21.6233,242.816 19.6338,246.481C 17.644,250.147 14.9087,252.509 13.5239,251.757C 12.1392,251.006 12.6294,247.425 14.6191,243.76 Z "/>
	<linearGradient id="SVGID_Fill11_" gradientUnits="objectBoundingBox" x1="0.397956" y1="0.732681" x2="0.906102" y2="0.732681" gradientTransform="rotate(-56.109798 0.397956 0.732681)">
		<stop offset="0.498471" stop-color="#F7FBFD" stop-opacity="1"/>
		<stop offset="0.527013" stop-color="#C2CEDA" stop-opacity="1"/>
	</linearGradient>
	<path fill="url(#SVGID_Fill11_)" stroke-linejoin="round" d="M 56.4292,173.323L 63.6338,160.048L 91.7305,175.298L 84.5259,188.572L 56.4292,173.323 Z "/>
	<path fill="#F7FBFD" fill-opacity="1" stroke-linejoin="round" d="M 57.229,165.165C 59.2188,161.5 61.9536,159.137 63.3389,159.889C 64.7231,160.64 64.2334,164.221 62.2437,167.887C 60.2542,171.552 57.5188,173.915 56.134,173.163C 54.7493,172.411 55.2395,168.831 57.229,165.165 Z "/>
	<path fill="#8A93A4" fill-opacity="1" stroke-linejoin="round" d="M 6.01099,232.882L 44.3555,162.235L 45.4211,166.248L 9.71875,232.029L 6.01099,232.882 Z "/>
	<linearGradient id="SVGID_Fill12_" gradientUnits="objectBoundingBox" x1="-0.153873" y1="0.900956" x2="1.16663" y2="0.900956" gradientTransform="rotate(-71.082123 -0.153873 0.900956)">
		<stop offset="0.498471" stop-color="#F7FBFD" stop-opacity="1"/>
		<stop offset="0.527013" stop-color="#C2CEDA" stop-opacity="1"/>
	</linearGradient>
	<path fill="url(#SVGID_Fill12_)" stroke-linejoin="round" d="M 6.02539,233.033L 0,182.219L 44.594,162.412L 6.02539,233.033 Z "/>
	<path fill="#E3E8F0" fill-opacity="1" stroke-width="3" stroke-linejoin="round" stroke="#B4BECF" stroke-opacity="1" d="M 8.42773,187.27C 10.6494,183.177 15.7686,181.66 19.8616,183.881C 23.9546,186.103 25.4719,191.222 23.2505,195.315C 21.0288,199.409 15.9097,200.926 11.8167,198.704C 7.72314,196.482 6.2063,191.364 8.42773,187.27 Z "/>
	<linearGradient id="SVGID_Fill13_" gradientUnits="objectBoundingBox" x1="0.0345451" y1="0.578701" x2="0.978674" y2="0.578701" gradientTransform="rotate(-4.687042 0.034545 0.578701)">
		<stop offset="0.498471" stop-color="#F5F5F6" stop-opacity="1"/>
		<stop offset="0.749235" stop-color="#E3E8F0" stop-opacity="1"/>
	</linearGradient>
	<path fill="url(#SVGID_Fill13_)" stroke-linejoin="round" d="M 156.358,57.0083L 266.899,43.9932L 275.103,113.666L 164.562,126.68L 156.358,57.0083 Z "/>
	<path fill="#B4BECF" fill-opacity="1" stroke-linejoin="round" d="M 176.211,62.1636L 184.183,61.2251C 186.925,60.9023 189.411,62.8638 189.734,65.606L 194.889,109.389C 195.211,112.131 193.25,114.617 190.507,114.94L 182.535,115.878C 179.792,116.201 177.308,114.24 176.985,111.497L 171.83,67.7144C 171.507,64.9717 173.468,62.4868 176.211,62.1636 Z "/>
	<path fill="#B4BECF" fill-opacity="1" stroke-linejoin="round" d="M 209.877,58.2031L 217.852,57.2642C 220.594,56.9414 223.079,58.9028 223.402,61.6455L 228.557,105.427C 228.879,108.169 226.918,110.654 224.175,110.977L 216.201,111.916C 213.459,112.239 210.974,110.277 210.651,107.535L 205.496,63.7534C 205.173,61.0112 207.135,58.5259 209.877,58.2031 Z "/>
	<path fill="#B4BECF" fill-opacity="1" stroke-linejoin="round" d="M 242.961,54.3076L 250.935,53.3687C 253.677,53.0459 256.162,55.0073 256.485,57.7495L 261.64,101.531C 261.963,104.273 260.001,106.758 257.259,107.082L 249.285,108.02C 246.542,108.343 244.058,106.382 243.735,103.639L 238.58,59.8579C 238.257,57.1157 240.218,54.6304 242.961,54.3076 Z "/>
	<linearGradient id="SVGID_Fill14_" gradientUnits="objectBoundingBox" x1="0.489277" y1="0.358028" x2="0.778358" y2="0.358028" gradientTransform="rotate(58.691204 0.489277 0.358028)">
		<stop offset="0.498471" stop-color="#F5F5F6" stop-opacity="1"/>
		<stop offset="0.749235" stop-color="#E3E8F0" stop-opacity="1"/>
	</linearGradient>
	<path fill="url(#SVGID_Fill14_)" stroke-linejoin="round" d="M 137.528,129.467L 302.95,109.99L 304.463,122.835L 139.04,142.312L 137.528,129.467 Z "/>
	<linearGradient id="SVGID_Fill15_" gradientUnits="objectBoundingBox" x1="0.519984" y1="0.32974" x2="0.81596" y2="0.32974" gradientTransform="rotate(57.806274 0.519984 0.329740)">
		<stop offset="0.498471" stop-color="#F5F5F6" stop-opacity="1"/>
		<stop offset="0.749235" stop-color="#E3E8F0" stop-opacity="1"/>
	</linearGradient>
	<path fill="url(#SVGID_Fill15_)" stroke-linejoin="round" d="M 132.439,142.104L 313.82,120.748L 315.332,133.593L 133.951,154.949L 132.439,142.104 Z "/>
	<linearGradient id="SVGID_Fill16_" gradientUnits="objectBoundingBox" x1="0.0997356" y1="0.52635" x2="0.901981" y2="0.52635" gradientTransform="rotate(-11.891643 0.099736 0.526350)">
		<stop offset="0.498471" stop-color="#F7FBFD" stop-opacity="1"/>
		<stop offset="0.527013" stop-color="#C2CEDA" stop-opacity="1"/>
	</linearGradient>
	<path fill="url(#SVGID_Fill16_)" stroke-linejoin="round" d="M 133.036,80.1431L 156.39,77.3931L 162.21,126.825L 138.856,129.575L 133.036,80.1431 Z "/>
	<path fill="#F7FBFD" fill-opacity="1" stroke-linejoin="round" d="M 144.133,73.8384C 150.582,73.0791 156.042,74.438 156.329,76.8745C 156.616,79.311 151.62,81.9019 145.171,82.6606C 138.723,83.4204 133.262,82.0605 132.975,79.6245C 132.688,77.188 137.683,74.5977 144.133,73.8384 Z "/>
	<linearGradient id="SVGID_Fill17_" gradientUnits="objectBoundingBox" x1="0.0997506" y1="0.52635" x2="0.901982" y2="0.52635" gradientTransform="rotate(-11.891447 0.099751 0.526350)">
		<stop offset="0.498471" stop-color="#F7FBFD" stop-opacity="1"/>
		<stop offset="0.527013" stop-color="#C2CEDA" stop-opacity="1"/>
	</linearGradient>
	<path fill="url(#SVGID_Fill17_)" stroke-linejoin="round" d="M 271.27,63.8022L 294.624,61.0527L 300.444,110.485L 277.09,113.234L 271.27,63.8022 Z "/>
	<path fill="#F7FBFD" fill-opacity="1" stroke-linejoin="round" d="M 282.366,57.4976C 288.816,56.7383 294.276,58.0972 294.563,60.5337C 294.85,62.9702 289.854,65.561 283.405,66.3198C 276.956,67.0796 271.496,65.7197 271.209,63.2837C 270.922,60.8472 275.917,58.2568 282.366,57.4976 Z "/>
	<path fill="#8A93A4" fill-opacity="1" stroke-linejoin="round" d="M 150.245,53.124L 274.539,38.4897L 270.39,43.4478L 154.658,57.0752L 150.245,53.124 Z "/>
	<linearGradient id="SVGID_Fill18_" gradientUnits="objectBoundingBox" x1="-0.0214457" y1="0.574428" x2="1.01537" y2="0.574428" gradientTransform="rotate(-2.885191 -0.021446 0.574428)">
		<stop offset="0.498471" stop-color="#F7FBFD" stop-opacity="1"/>
		<stop offset="0.527013" stop-color="#C2CEDA" stop-opacity="1"/>
	</linearGradient>
	<path fill="url(#SVGID_Fill18_)" stroke-linejoin="round" d="M 150.065,53.2769L 209.3,-0.000488281L 274.527,38.9512L 150.065,53.2769 Z "/>
	<path fill="#E3E8F0" fill-opacity="1" stroke-width="3" stroke-linejoin="round" stroke="#B4BECF" stroke-opacity="1" d="M 210.439,15.2554C 217.641,14.4077 224.166,19.5581 225.014,26.7593C 225.862,33.9604 220.711,40.4858 213.51,41.334C 206.309,42.1816 199.783,37.0313 198.935,29.8301C 198.087,22.6284 203.238,16.1035 210.439,15.2554 Z "/>
	<radialGradient id="SVGID_Fill19_" cx="234.54" cy="326.836" r="220.539" gradientUnits="userSpaceOnUse" gradientTransform="rotate(44.933022 234.540283 326.836426)">
		<stop offset="0.88787" stop-color="#ADF8FF" stop-opacity="0.388235"/>
		<stop offset="0.924567" stop-color="#E2FAFF" stop-opacity="0.376471"/>
		<stop offset="1" stop-color="#88DAFF" stop-opacity="0.0509804"/>
	</radialGradient>
	<ellipse fill="url(#SVGID_Fill19_)" stroke-linejoin="round" cx="236.837" cy="329.828" rx="221.672" ry="221.155"/>
	<ellipse fill="#56B5C4" fill-opacity="1" stroke-linejoin="round" stroke="#006A6E" stroke-opacity="1" cx="238.014" cy="322.897" rx="178.972" ry="178.555"/>
	<path fill="#99C21D" fill-opacity="1" stroke-linejoin="round" stroke="#8DD7FA" stroke-opacity="1" d="M 185.032,158.944C 185.032,158.943 128.294,180.638 132.884,185.644C 137.473,190.649 152.074,179.386 153.326,186.06C 154.578,192.735 149.988,252.81 144.148,246.552C 138.308,240.294 124.957,240.712 132.884,254.061C 140.812,267.411 148.737,300.787 157.498,309.964C 166.259,319.142 184.615,319.56 185.449,323.731C 186.284,327.903 189.204,333.327 192.542,334.995C 195.879,336.664 202.971,356.689 207.56,353.769C 212.149,350.848 199.216,340.419 202.971,334.578C 206.726,328.737 199.216,326.652 195.879,327.903C 192.542,329.155 197.547,310.382 200.468,310.381C 203.388,310.381 187.952,308.296 183.364,312.884C 178.774,317.473 165.841,277.841 182.529,279.927C 199.216,282.013 187.535,287.854 194.627,286.185C 201.72,284.516 201.719,271.167 205.474,280.761C 209.229,290.356 212.566,294.946 210.48,299.117C 208.395,303.289 220.492,306.627 222.996,299.117C 225.499,291.608 211.732,283.265 222.579,276.589C 233.426,269.915 248.027,256.565 250.948,259.485C 253.868,262.405 253.033,241.546 257.205,245.3C 261.377,249.055 263.462,254.062 268.052,250.724C 272.641,247.386 280.567,243.215 273.058,241.128C 265.549,239.042 256.37,231.534 264.297,230.699C 272.224,229.865 278.898,236.957 281.819,231.116C 284.74,225.276 275.978,224.024 273.893,215.263C 271.807,206.502 269.72,202.748 272.641,201.913C 275.562,201.079 275.144,197.325 273.058,191.901C 270.972,186.478 275.978,186.478 277.647,185.643C 279.316,184.809 259.708,171.876 255.954,171.458C 252.199,171.042 250.947,170.625 255.536,177.716C 260.125,184.809 253.45,189.398 250.53,189.398C 247.61,189.398 257.622,186.478 262.211,191.901C 266.8,197.324 270.972,203.165 267.218,206.502C 263.463,209.84 259.291,216.932 258.874,211.508C 258.457,206.085 259.291,196.073 256.371,196.073C 253.45,196.073 243.438,203.999 243.438,203.999C 243.438,203.999 243.438,208.588 243.021,210.674C 242.604,212.76 242.604,214.429 239.266,216.932C 235.929,219.435 235.929,227.779 235.929,227.779L 235.094,234.454C 235.094,234.454 232.591,222.773 231.34,214.846C 230.088,206.919 216.738,205.668 214.652,205.668C 212.566,205.668 220.91,188.564 224.248,189.815C 227.585,191.066 238.432,192.735 238.432,192.735C 238.432,192.735 240.1,184.809 246.776,182.306C 253.45,179.802 253.033,175.214 251.365,174.379C 249.696,173.544 249.278,169.374 251.365,168.956C 253.45,168.539 269.303,160.612 272.224,164.784C 275.144,168.956 282.653,184.392 286.825,186.895C 290.997,189.398 288.494,198.576 295.169,203.165C 301.844,207.754 302.261,211.926 303.93,211.926C 305.599,211.926 304.764,192.318 309.771,193.987C 314.777,195.656 320.2,190.65 316.446,186.478C 312.691,182.306 308.102,166.036 296.838,163.95C 285.574,161.864 265.131,153.52 249.696,153.103C 234.26,152.686 234.26,163.533 233.843,165.201C 233.426,166.87 225.916,173.962 224.665,168.956C 223.413,163.95 208.395,168.956 208.395,168.956L 200.051,171.876L 192.124,161.446L 185.032,158.944 Z "/>
	<path fill="#99C21D" fill-opacity="1" stroke-linejoin="round" stroke="#8DD7FA" stroke-opacity="1" d="M 283.02,228.771C 284.618,230.232 285.001,238.262 287.817,233.152C 290.633,228.041 302.261,234.455 301.01,230.282C 299.758,226.11 281.768,230.022 283.02,228.771 Z "/>
	<path fill="#99C21D" fill-opacity="1" stroke-linejoin="round" stroke="#8DD7FA" stroke-opacity="1" d="M 212.566,313.302C 212.567,313.301 226.75,318.726 230.088,323.731C 233.426,328.737 238.014,327.903 237.181,324.565C 236.346,321.228 229.671,312.884 229.671,312.884L 213.401,307.044L 212.566,313.302 Z "/>
	<path fill="#99C21D" fill-opacity="1" stroke-linejoin="round" stroke="#8DD7FA" stroke-opacity="1" d="M 239.266,329.989C 239.266,329.989 241.769,335.413 244.272,334.996C 246.776,334.578 248.027,331.241 249.696,331.658C 251.365,332.075 250.53,326.234 250.53,326.234L 240.935,326.234L 239.266,329.989 Z "/>
	<path fill="#99C21D" fill-opacity="1" stroke-linejoin="round" stroke="#8DD7FA" stroke-opacity="1" d="M 229.253,333.327L 233.425,336.247L 233.843,332.492L 230.922,329.572L 229.253,333.327 Z "/>
	<path fill="#99C21D" fill-opacity="1" stroke-linejoin="round" stroke="#8DD7FA" stroke-opacity="1" d="M 213.818,352.935C 213.818,352.934 222.578,358.358 219.241,364.616C 215.904,370.873 202.971,381.72 202.554,387.978C 202.137,394.235 203.388,408.42 208.812,414.26C 214.235,420.101 227.167,428.028 223.413,440.543C 219.658,453.058 212.566,463.071 210.48,467.243C 208.395,471.415 209.646,478.089 209.646,478.089L 205.057,486.85L 210.898,496.028L 222.996,479.758L 229.254,479.758L 234.26,465.991L 244.272,467.243L 271.807,449.304C 271.807,449.304 282.653,453.476 285.991,443.463C 289.328,433.451 291.831,421.77 298.089,419.684C 304.347,417.598 308.519,410.088 308.519,410.088L 286.408,393.401L 288.911,387.561L 275.979,392.567C 275.979,392.567 279.733,380.051 276.813,377.965C 273.893,375.879 271.389,368.788 270.972,367.119C 270.555,365.45 254.285,349.597 254.285,349.597L 245.107,356.271L 235.929,345.007C 235.929,345.007 226.333,338.75 225.916,346.676C 225.499,354.603 224.665,352.517 224.665,352.517L 213.818,352.935 Z "/>
	<path fill="#99C21D" fill-opacity="1" stroke-linejoin="round" stroke="#8DD7FA" stroke-opacity="1" d="M 320.2,222.356C 320.2,222.355 323.954,231.117 327.709,231.534C 331.464,231.951 333.967,228.614 333.55,226.944C 333.133,225.276 323.121,219.852 323.121,219.852L 320.2,222.356 Z "/>
	<path fill="#99C21D" fill-opacity="1" stroke-linejoin="round" stroke="#8DD7FA" stroke-opacity="1" d="M 329.378,198.994C 329.378,198.993 331.463,208.172 335.635,209.84C 339.808,211.508 344.814,206.502 344.814,206.502L 330.63,196.073L 329.378,198.994 Z "/>
	<path fill="#99C21D" fill-opacity="1" stroke-linejoin="round" stroke="#8DD7FA" stroke-opacity="1" d="M 358.581,251.141C 360.25,251.141 366.09,249.056 366.09,249.056L 370.68,252.81L 376.103,249.889L 366.925,230.282L 373.6,219.852L 359.833,208.588L 354.827,221.104L 358.999,229.865C 358.999,229.865 361.501,236.54 358.164,238.208C 354.827,239.877 357.747,251.141 358.581,251.141 Z "/>
	<path fill="#99C21D" fill-opacity="1" stroke-linejoin="round" d="M 352.323,221.522C 352.323,221.522 356.494,227.78 355.243,229.866C 353.992,231.951 351.072,234.871 351.072,234.871"/>
	<path fill="#99C21D" fill-opacity="1" stroke-linejoin="round" stroke="#8DD7FA" stroke-opacity="1" d="M 366.507,203.166C 366.562,202.195 366.507,205.252 373.599,214.847C 380.692,224.442 376.103,233.62 376.937,236.957C 377.771,240.294 381.943,253.645 381.943,253.645L 387.784,270.332L 377.354,285.351L 386.532,289.105C 386.532,289.105 393.207,295.364 384.864,294.529C 376.52,293.694 375.685,287.854 374.017,287.854C 372.348,287.854 368.176,297.032 368.176,297.032L 378.606,317.474L 393.208,314.971L 400.717,307.044C 400.717,307.044 405.723,300.787 406.975,303.707C 408.226,306.627 411.981,315.388 411.981,315.388C 411.981,315.388 415.318,299.953 409.895,284.516C 404.471,269.081 393.207,237.375 388.201,229.448C 383.195,221.521 373.183,205.25 366.507,203.166 Z "/>
	<path fill="#99C21D" fill-opacity="1" stroke-linejoin="round" stroke="#8DD7FA" stroke-opacity="1" d="M 404.054,324.149C 397.796,320.394 389.869,321.646 386.532,324.149C 383.195,326.652 378.605,325.401 378.606,332.075C 378.606,338.75 377.354,344.174 379.44,345.842C 381.526,347.511 387.784,347.094 387.784,348.763C 387.784,350.431 383.612,356.272 377.354,358.358C 371.097,360.444 366.09,369.205 367.759,370.039C 369.428,370.874 382.36,367.537 384.029,367.953C 385.698,368.371 377.771,375.046 372.348,380.886C 366.925,386.727 368.176,396.322 369.428,398.408C 370.679,400.494 376.937,402.997 375.269,409.671C 373.6,416.347 369.845,425.525 367.759,427.611C 365.673,429.697 358.581,443.881 355.244,446.384C 351.906,448.887 341.894,458.482 341.894,458.482C 341.894,458.482 369.845,445.133 384.447,417.598C 399.048,390.064 413.649,344.174 413.232,324.149C 412.815,304.124 406.974,325.401 405.723,315.805C 404.471,306.21 404.889,323.732 404.054,324.149 Z "/>
	<path fill="#FFFFFF" fill-opacity="1" stroke-linejoin="round" stroke="#B4B4B4" stroke-opacity="1" d="M 72.0093,203.793C 72.1245,203.739 58.6116,205.549 57.218,211.174C 55.8247,216.799 55.5562,227.747 64.054,230.037C 72.551,232.328 89.9233,231.94 106.456,229.342C 123.235,226.707 138.501,222.992 147.993,219.773C 155.06,217.376 168.437,209.432 156.391,199.486C 144.345,189.541 121.175,195.029 119.781,200.655C 118.388,206.279 126.262,193.103 114.141,188.832C 102.02,184.56 97.9348,198.8 97.9348,198.8C 97.9348,198.8 103.551,182.372 90.9819,179.536C 78.4124,176.701 78.6616,187.931 75.1763,189.387C 71.6907,190.844 67.2603,196.491 72.0093,203.793 Z "/>
	<path fill="#FFFFFF" fill-opacity="1" stroke-linejoin="round" stroke="#B4B4B4" stroke-opacity="1" d="M 66.9692,369.206C 68.634,369.125 60.1125,350.769 71.1416,348.763C 80.3198,347.094 89.4973,358.359 86.1602,361.696C 82.8228,365.034 92.835,351.684 97.0071,358.359C 101.179,365.034 93.6694,369.623 93.6694,369.623C 93.6694,369.623 106.185,370.458 104.099,376.297C 102.013,382.138 68.2209,387.979 63.6323,382.973C 59.0432,377.966 54.8716,370.457 66.9692,369.206 Z "/>
	<path fill="#FFFFFF" fill-opacity="1" stroke-linejoin="round" stroke="#B4B4B4" stroke-opacity="1" d="M 173.352,392.985C 176.162,396.04 193.376,394.237 204.223,388.396C 215.071,382.555 238.015,402.164 246.359,374.629C 254.703,347.095 229.254,367.955 235.93,374.211C 242.605,380.469 234.261,355.856 221.328,361.279C 208.396,366.702 212.15,358.776 212.15,358.776C 212.15,358.776 207.561,340.003 194.211,349.598C 180.861,359.193 180.444,372.96 185.45,375.88C 190.457,378.801 152.076,374.628 173.352,392.985 Z "/>
	<path fill="#FFFFFF" fill-opacity="1" stroke-linejoin="round" stroke="#B4B4B4" stroke-opacity="1" d="M 236.651,266.377C 237.201,266.772 217.877,258.868 217.46,269.714C 217.044,280.561 215.375,282.647 232.48,282.647C 249.584,282.647 294.223,276.389 296.726,272.217C 299.229,268.045 302.566,249.272 294.223,251.775C 285.879,254.278 287.131,257.616 287.131,257.616C 287.131,257.616 287.548,244.683 281.29,248.438C 275.033,252.191 275.032,254.695 275.032,254.695C 275.032,254.695 282.542,231.75 260.848,227.161C 239.155,222.572 247.915,245.935 252.087,250.523C 256.259,255.113 248.332,244.266 239.155,252.192C 229.977,260.119 235.4,261.37 236.651,266.377 Z "/>
	<path fill="#FFFFFF" fill-opacity="1" stroke-linejoin="round" stroke="#B4B4B4" stroke-opacity="1" d="M 374.018,332.494C 375.701,333.296 373.6,308.297 387.785,309.966C 401.969,311.634 400.718,320.812 400.718,320.812C 400.718,320.812 413.65,315.389 416.988,322.064C 420.325,328.739 417.822,331.242 417.822,331.242C 417.822,331.242 425.748,326.653 428.669,331.659C 426.583,355.438 390.288,346.677 390.288,346.677C 389.593,348.068 382.362,348.763 373.601,353.77C 364.84,358.776 366.925,359.193 351.907,352.518C 336.888,345.843 356.497,324.566 374.018,332.494 Z "/>
	<linearGradient id="SVGID_Fill20_" gradientUnits="objectBoundingBox" x1="0.00418129" y1="0.510377" x2="0.996045" y2="0.510377" gradientTransform="rotate(-0.488723 0.004181 0.510377)">
		<stop offset="0.498471" stop-color="#F5F5F6" stop-opacity="1"/>
		<stop offset="0.749235" stop-color="#E3E8F0" stop-opacity="1"/>
	</linearGradient>
	<path fill="url(#SVGID_Fill20_)" stroke-linejoin="round" d="M 177.215,461.097L 289.949,459.59L 290.898,530.645L 178.165,532.151L 177.215,461.097 Z "/>
	<path fill="#B4BECF" fill-opacity="1" stroke-linejoin="round" d="M 196.609,468.377L 204.869,468.267C 207.63,468.23 209.899,470.439 209.936,473.2L 210.534,517.981C 210.571,520.742 208.362,523.01 205.601,523.047L 197.341,523.158C 194.58,523.195 192.312,520.986 192.275,518.225L 191.677,473.444C 191.64,470.683 193.848,468.415 196.609,468.377 Z "/>
	<path fill="#B4BECF" fill-opacity="1" stroke-linejoin="round" d="M 230.945,467.921L 239.205,467.811C 241.966,467.774 244.235,469.982 244.272,472.744L 244.87,517.522C 244.907,520.284 242.698,522.552 239.937,522.588L 231.677,522.699C 228.916,522.736 226.647,520.527 226.611,517.766L 226.012,472.988C 225.976,470.226 228.184,467.958 230.945,467.921 Z "/>
	<path fill="#B4BECF" fill-opacity="1" stroke-linejoin="round" d="M 264.685,467.47L 272.945,467.36C 275.706,467.323 277.974,469.531 278.011,472.292L 278.61,517.071C 278.646,519.833 276.438,522.101 273.677,522.137L 265.417,522.248C 262.655,522.285 260.387,520.076 260.35,517.315L 259.752,472.537C 259.715,469.775 261.923,467.507 264.685,467.47 Z "/>
	<linearGradient id="SVGID_Fill21_" gradientUnits="objectBoundingBox" x1="0.492173" y1="0.186669" x2="1.1126" y2="0.186669" gradientTransform="rotate(81.628395 0.492173 0.186669)">
		<stop offset="0.498471" stop-color="#F5F5F6" stop-opacity="1"/>
		<stop offset="0.749235" stop-color="#E3E8F0" stop-opacity="1"/>
	</linearGradient>
	<path fill="url(#SVGID_Fill21_)" stroke-linejoin="round" d="M 150.638,532.12L 319.341,529.866L 319.516,542.966L 150.813,545.22L 150.638,532.12 Z "/>
	<linearGradient id="SVGID_Fill22_" gradientUnits="objectBoundingBox" x1="0.523191" y1="0.147883" x2="1.186" y2="0.147883" gradientTransform="rotate(80.984184 0.523191 0.147883)">
		<stop offset="0.498471" stop-color="#F5F5F6" stop-opacity="1"/>
		<stop offset="0.749235" stop-color="#E3E8F0" stop-opacity="1"/>
	</linearGradient>
	<path fill="url(#SVGID_Fill22_)" stroke-linejoin="round" d="M 144.183,544.317L 329.162,541.846L 329.336,554.945L 144.358,557.417L 144.183,544.317 Z "/>
	<linearGradient id="SVGID_Fill23_" gradientUnits="objectBoundingBox" x1="0.0137471" y1="0.503133" x2="0.986273" y2="0.503133" gradientTransform="rotate(-1.584861 0.013747 0.503133)">
		<stop offset="0.498471" stop-color="#F7FBFD" stop-opacity="1"/>
		<stop offset="0.527013" stop-color="#C2CEDA" stop-opacity="1"/>
	</linearGradient>
	<path fill="url(#SVGID_Fill23_)" stroke-linejoin="round" d="M 151.29,481.956L 175.107,481.637L 175.781,532.05L 151.964,532.368L 151.29,481.956 Z "/>
	<path fill="#F7FBFD" fill-opacity="1" stroke-linejoin="round" d="M 163.132,476.769C 169.709,476.681 175.067,478.624 175.1,481.109C 175.133,483.593 169.829,485.679 163.252,485.767C 156.675,485.854 151.317,483.912 151.283,481.427C 151.25,478.942 156.554,476.857 163.132,476.769 Z "/>
	<linearGradient id="SVGID_Fill24_" gradientUnits="objectBoundingBox" x1="0.013747" y1="0.503143" x2="0.986263" y2="0.503143" gradientTransform="rotate(-1.584815 0.013747 0.503143)">
		<stop offset="0.498471" stop-color="#F7FBFD" stop-opacity="1"/>
		<stop offset="0.527013" stop-color="#C2CEDA" stop-opacity="1"/>
	</linearGradient>
	<path fill="url(#SVGID_Fill24_)" stroke-linejoin="round" d="M 292.273,480.007L 316.089,479.688L 316.763,530.101L 292.946,530.419L 292.273,480.007 Z "/>
	<path fill="#F7FBFD" fill-opacity="1" stroke-linejoin="round" d="M 304.114,474.82C 310.691,474.732 316.049,476.675 316.082,479.16C 316.115,481.644 310.811,483.729 304.234,483.817C 297.657,483.905 292.298,481.962 292.265,479.478C 292.232,476.993 297.536,474.908 304.114,474.82 Z "/>
	<path fill="#8A93A4" fill-opacity="1" stroke-linejoin="round" d="M 171.464,456.542L 298.223,454.848L 293.523,459.408L 175.496,460.986L 171.464,456.542 Z "/>
	<linearGradient id="SVGID_Fill25_" gradientUnits="objectBoundingBox" x1="-0.00243187" y1="0.512753" x2="0.99817" y2="0.512753" gradientTransform="rotate(-0.286350 -0.002432 0.512753)">
		<stop offset="0.498471" stop-color="#F7FBFD" stop-opacity="1"/>
		<stop offset="0.527013" stop-color="#C2CEDA" stop-opacity="1"/>
	</linearGradient>
	<path fill="url(#SVGID_Fill25_)" stroke-linejoin="round" d="M 171.268,456.677L 236.539,409.221L 298.163,455.312L 171.268,456.677 Z "/>
	<path fill="#E3E8F0" fill-opacity="1" stroke-width="3" stroke-linejoin="round" stroke="#B4BECF" stroke-opacity="1" d="M 236.084,424.71C 243.429,424.612 249.462,430.486 249.56,437.831C 249.658,445.175 243.784,451.208 236.44,451.306C 229.096,451.404 223.063,445.53 222.964,438.186C 222.866,430.841 228.74,424.809 236.084,424.71 Z "/>
	<path fill="#FFFFFF" fill-opacity="1" stroke-linejoin="round" stroke="#B4B4B4" stroke-opacity="1" d="M 335.569,483.403C 335.02,483.798 354.343,475.894 354.76,486.741C 355.177,497.587 356.846,499.673 339.741,499.673C 322.636,499.673 277.998,493.416 275.494,489.243C 272.991,485.071 269.654,466.298 277.998,468.801C 286.341,471.304 285.09,474.642 285.09,474.642C 285.09,474.642 284.673,461.709 290.93,465.463C 297.187,469.217 297.188,471.721 297.188,471.721C 297.188,471.721 289.679,448.777 311.372,444.187C 333.066,439.598 324.306,462.961 320.133,467.549C 315.961,472.139 323.888,461.292 333.066,469.218C 342.244,477.145 336.82,478.396 335.569,483.403 Z "/>
</svg>
