<?xml version="1.0" encoding="utf-8"?>
<!DOCTYPE svg PUBLIC "-//W3C//DTD SVG 1.1//EN" "http://www.w3.org/Graphics/SVG/1.1/DTD/svg11.dtd">
<svg xmlns="http://www.w3.org/2000/svg" xmlns:xlink="http://www.w3.org/1999/xlink" version="1.1" baseProfile="full" width="1282.16" height="608.449" viewBox="0 0 1282.16 608.45" enable-background="new 0 0 1282.16 608.45" xml:space="preserve">
	<path fill="#ECECEC" fill-opacity="1" stroke-linejoin="round" d="M 637.984,387.39C 992.044,377.4 1280.45,418.454 1282.16,479.086C 1283.87,539.718 998.239,596.969 644.179,606.959C 290.12,616.949 1.71094,575.895 0,515.263C -1.71045,454.631 283.925,397.38 637.984,387.39 Z "/>
	<path fill="#D8CBC3" fill-opacity="1" stroke-linejoin="round" d="M 489.732,0L 795.208,0C 800.73,0 805.208,4.47729 805.208,10L 805.208,247.66C 805.208,253.183 800.73,257.66 795.208,257.66L 489.732,257.66C 484.209,257.66 479.732,253.183 479.732,247.66L 479.732,10C 479.732,4.47729 484.209,0 489.732,0 Z "/>
	<rect x="492.752" y="9.4209" fill="#966A4D" fill-opacity="1" stroke-linejoin="round" width="298.948" height="236.541"/>
	<rect x="495.799" y="11.6372" fill="#40663A" fill-opacity="1" stroke-linejoin="round" width="293.13" height="224.746"/>
	<path fill="#FFFFFF" fill-opacity="1" stroke-linejoin="round" d="M 746.275,231.192L 781.045,231.361L 781.021,236.348L 746.25,236.178L 746.275,231.192 Z "/>
	<rect x="693.759" y="231.346" fill="#422E22" fill-opacity="1" stroke-linejoin="round" width="47.1001" height="4.98706"/>
	<rect x="693.759" y="223.99" fill="#966A4D" fill-opacity="1" stroke-linejoin="round" width="47.1003" height="7.23145"/>
	<path fill="#603B23" fill-opacity="1" stroke-linejoin="round" d="M 680.8,72.6592L 634.559,134.02L 632.718,137.566L 624.628,145.14L 620.599,138.892L 645.933,111.245L 679.067,70.2009L 680.8,72.6592 Z "/>
	<path fill="#854E25" fill-opacity="1" stroke-linejoin="round" d="M 525.932,168.107C 525.932,168.107 562.088,216.731 576.634,212.159C 591.18,207.588 622.765,171.847 622.765,167.691C 622.765,163.535 624.843,152.73 630.661,151.067C 636.479,149.405 647.7,145.249 646.038,140.677C 644.375,136.106 629.83,134.028 631.908,129.457C 633.986,124.885 638.903,118.513 635.856,118.236C 632.808,117.959 611.059,142.063 612.999,150.098C 614.938,158.132 577.673,176.557 575.595,179.743C 573.517,182.929 531.681,126.132 517.551,127.794C 503.421,129.457 526.417,168.384 525.932,168.107 Z "/>
	<path fill="#854E25" fill-opacity="1" stroke-linejoin="round" d="M 447.822,158.121C 447.822,158.121 437.017,184.719 436.74,201.342C 436.463,217.966 432.03,262.573 432.584,268.945C 433.139,275.317 422.887,326.296 417.9,334.885C 412.913,343.474 404.878,337.656 404.047,331.56C 403.216,325.465 405.155,306.348 414.021,300.253C 422.887,294.157 417.623,270.053 417.9,243.455C 418.177,216.858 414.961,165.37 426.875,146.807C 438.788,128.244 472.758,127.367 472.758,127.367"/>
	<path fill="#854E25" fill-opacity="1" stroke-linejoin="round" d="M 414.16,497.242C 415.081,496.526 426.073,489.208 430.229,480.48C 434.385,471.753 431.545,428.74 431.545,428.74L 452.74,428.324C 452.74,428.324 451.04,482.076 455.165,488.654C 455.725,489.548 456.79,498.515 449.485,497.797C 442.179,497.078 419.918,517.692 414.09,518.923C 396.705,522.594 395.043,508.463 414.16,497.242 Z "/>
	<path fill="#854E25" fill-opacity="1" stroke-linejoin="round" d="M 534.587,497.852C 533.667,497.135 522.674,489.817 518.518,481.089C 514.362,472.362 517.202,429.348 517.202,429.348L 496.007,428.933C 496.007,428.933 497.708,482.685 493.583,489.263C 493.022,490.156 491.957,499.124 499.262,498.406C 506.567,497.687 528.829,518.301 534.657,519.531C 552.042,523.202 553.704,509.072 534.587,497.852 Z "/>
	<path fill="#DD5B03" fill-opacity="1" stroke-linejoin="round" d="M 458.351,127.922C 458.351,127.921 429.536,171.42 441.173,196.355C 452.81,221.291 448.654,221.291 445.329,237.637C 442.004,253.984 416.515,284.183 416.792,312.166C 417.069,340.149 407.649,423.267 424.55,431.025C 441.45,438.783 513.486,439.337 524.845,429.917C 536.205,420.497 536.481,409.969 537.867,389.743C 539.252,369.518 537.217,288.45 529.736,271.549C 522.256,254.649 517.727,252.82 516.438,234.977C 515.137,216.981 527.339,191.645 525.677,175.021C 524.014,158.398 518.196,127.367 518.196,127.367L 505.174,125.428C 505.174,125.428 499.079,164.493 485.226,162.554C 471.373,160.615 474.143,127.09 474.143,127.09L 458.351,127.922 Z "/>
	<path fill="#98490F" fill-opacity="1" stroke-linejoin="round" d="M 449.208,218.797L 444.775,240.685L 516.161,237.471L 518.473,217.135L 449.208,218.797 Z "/>
	<path fill="#854E25" fill-opacity="1" stroke-linejoin="round" d="M 478.174,101.151L 477.065,126.641C 477.065,126.64 470.97,125.532 465.983,129.411C 460.996,133.29 484.269,180.39 484.269,180.39L 515.854,128.857L 500.893,126.086L 502.001,94.5017L 478.174,101.151 Z "/>
	<path fill="#854E25" fill-opacity="1" stroke-linejoin="round" d="M 501.524,43.575C 516.648,51.7068 522.116,84.0776 505.192,94.2952C 484.523,106.774 472.727,131.615 462.388,117.187C 450.75,100.945 446.186,80.8403 456.132,62.343C 466.078,43.8459 486.4,35.4431 501.524,43.575 Z "/>
	<path fill="#DD5B03" fill-opacity="1" fill-rule="evenodd" stroke-linejoin="round" d="M 495.784,55.4226C 510.908,63.5544 516.953,68.5383 516.121,76.4346C 515.028,78.4675 515.082,83.0842 511.965,88.071C 509.527,82.1345 499.059,71.1472 488.083,65.2454C 478.406,60.0422 465.832,58.2668 459.393,58.5642C 458.73,55.9937 463.707,52.5144 464.588,50.8757C 467.718,45.0549 480.66,47.2908 495.784,55.4226 Z "/>
	<path fill="#F4AB75" fill-opacity="1" stroke-linejoin="round" d="M 470.674,126.464C 472.166,126.464 473.375,127.673 473.375,129.165C 473.375,130.657 472.166,131.866 470.674,131.866C 469.182,131.866 467.972,130.657 467.972,129.165C 467.972,127.673 469.182,126.464 470.674,126.464 Z "/>
	<path fill="#F4AB75" fill-opacity="1" stroke-linejoin="round" d="M 470.639,131.97C 472.131,131.97 473.34,133.18 473.34,134.672C 473.34,136.164 472.131,137.373 470.639,137.373C 469.147,137.373 467.938,136.164 467.938,134.672C 467.938,133.18 469.147,131.97 470.639,131.97 Z "/>
	<path fill="#F4AB75" fill-opacity="1" stroke-linejoin="round" d="M 470.431,137.527C 471.923,137.527 473.133,138.736 473.133,140.228C 473.133,141.72 471.923,142.93 470.431,142.93C 468.939,142.93 467.729,141.72 467.729,140.228C 467.729,138.736 468.939,137.527 470.431,137.527 Z "/>
	<path fill="#F4AB75" fill-opacity="1" stroke-linejoin="round" d="M 470.171,143.553C 471.664,143.553 472.873,144.762 472.873,146.254C 472.873,147.746 471.664,148.956 470.171,148.956C 468.679,148.956 467.47,147.746 467.47,146.254C 467.47,144.762 468.679,143.553 470.171,143.553 Z "/>
	<path fill="#F4AB75" fill-opacity="1" stroke-linejoin="round" d="M 470.838,149.492C 472.33,149.492 473.54,150.702 473.54,152.194C 473.54,153.686 472.33,154.895 470.838,154.895C 469.346,154.895 468.136,153.686 468.136,152.194C 468.136,150.702 469.346,149.492 470.838,149.492 Z "/>
	<path fill="#F4AB75" fill-opacity="1" stroke-linejoin="round" d="M 471.254,156.09C 472.746,156.09 473.955,157.299 473.955,158.791C 473.955,160.283 472.746,161.493 471.254,161.493C 469.761,161.493 468.552,160.283 468.552,158.791C 468.552,157.299 469.761,156.09 471.254,156.09 Z "/>
	<path fill="#F4AB75" fill-opacity="1" stroke-linejoin="round" d="M 472.102,161.839C 473.594,161.839 474.803,163.048 474.803,164.54C 474.803,166.032 473.594,167.242 472.102,167.242C 470.61,167.242 469.4,166.032 469.4,164.54C 469.4,163.048 470.61,161.839 472.102,161.839 Z "/>
	<path fill="#F4AB75" fill-opacity="1" stroke-linejoin="round" d="M 474.595,168.419C 476.088,168.419 477.297,169.628 477.297,171.12C 477.297,172.612 476.088,173.822 474.595,173.822C 473.104,173.822 471.894,172.612 471.894,171.12C 471.894,169.628 473.104,168.419 474.595,168.419 Z "/>
	<path fill="#F4AB75" fill-opacity="1" stroke-linejoin="round" d="M 480.241,173.492C 481.732,173.492 482.942,174.702 482.942,176.194C 482.942,177.686 481.732,178.896 480.241,178.896C 478.749,178.896 477.539,177.686 477.539,176.194C 477.539,174.702 478.749,173.492 480.241,173.492 Z "/>
	<path fill="#F4AB75" fill-opacity="1" stroke-linejoin="round" d="M 487.729,175.18C 489.221,175.18 490.431,176.39 490.431,177.882C 490.431,179.373 489.221,180.583 487.729,180.583C 486.237,180.583 485.028,179.373 485.028,177.882C 485.028,176.39 486.237,175.18 487.729,175.18 Z "/>
	<path fill="#F4AB75" fill-opacity="1" stroke-linejoin="round" d="M 505.578,127.285C 504.092,127.146 502.776,128.238 502.637,129.724C 502.499,131.209 503.591,132.526 505.076,132.665C 506.561,132.803 507.878,131.711 508.017,130.226C 508.155,128.74 507.063,127.424 505.578,127.285 Z "/>
	<path fill="#F4AB75" fill-opacity="1" stroke-linejoin="round" d="M 505.365,132.935C 503.879,132.796 502.563,133.888 502.424,135.374C 502.285,136.859 503.377,138.176 504.863,138.314C 506.348,138.453 507.665,137.361 507.803,135.875C 507.942,134.39 506.85,133.073 505.365,132.935 Z "/>
	<path fill="#F4AB75" fill-opacity="1" stroke-linejoin="round" d="M 505.267,139.202C 503.781,139.063 502.465,140.155 502.326,141.641C 502.187,143.126 503.279,144.443 504.765,144.582C 506.25,144.72 507.567,143.628 507.706,142.143C 507.844,140.657 506.752,139.341 505.267,139.202 Z "/>
	<path fill="#F4AB75" fill-opacity="1" stroke-linejoin="round" d="M 504.991,144.95C 503.506,144.812 502.189,145.904 502.051,147.389C 501.912,148.875 503.004,150.191 504.489,150.33C 505.975,150.469 507.292,149.376 507.43,147.891C 507.569,146.406 506.477,145.089 504.991,144.95 Z "/>
	<path fill="#F4AB75" fill-opacity="1" stroke-linejoin="round" d="M 504.604,150.879C 503.118,150.741 501.802,151.833 501.663,153.318C 501.524,154.804 502.616,156.12 504.102,156.259C 505.587,156.397 506.904,155.305 507.042,153.82C 507.181,152.335 506.089,151.018 504.604,150.879 Z "/>
	<path fill="#F4AB75" fill-opacity="1" stroke-linejoin="round" d="M 504.042,156.897C 502.557,156.758 501.24,157.85 501.102,159.335C 500.963,160.821 502.055,162.138 503.541,162.276C 505.026,162.415 506.343,161.323 506.481,159.837C 506.62,158.352 505.528,157.035 504.042,156.897 Z "/>
	<path fill="#F4AB75" fill-opacity="1" stroke-linejoin="round" d="M 503.439,163.171C 501.954,163.032 500.637,164.124 500.499,165.61C 500.36,167.095 501.452,168.412 502.938,168.551C 504.423,168.689 505.74,167.597 505.878,166.112C 506.017,164.626 504.925,163.309 503.439,163.171 Z "/>
	<path fill="#F4AB75" fill-opacity="1" stroke-linejoin="round" d="M 500.85,169.603C 499.364,169.464 498.048,170.556 497.909,172.042C 497.77,173.527 498.862,174.844 500.348,174.983C 501.833,175.121 503.15,174.029 503.289,172.544C 503.427,171.058 502.335,169.741 500.85,169.603 Z "/>
	<path fill="#F4AB75" fill-opacity="1" stroke-linejoin="round" d="M 495.325,172.929C 493.839,172.791 492.522,173.883 492.384,175.368C 492.245,176.854 493.337,178.17 494.823,178.309C 496.308,178.447 497.625,177.355 497.763,175.87C 497.902,174.385 496.81,173.068 495.325,172.929 Z "/>
	<path fill="#F0DE9F" fill-opacity="1" stroke-linejoin="round" d="M 475.01,125.881C 476.117,125.881 477.014,126.778 477.014,127.885C 477.014,128.992 476.117,129.889 475.01,129.889C 473.903,129.889 473.006,128.992 473.006,127.885C 473.006,126.778 473.903,125.881 475.01,125.881 Z "/>
	<path fill="#F0DE9F" fill-opacity="1" stroke-linejoin="round" d="M 474.984,129.966C 476.091,129.966 476.988,130.864 476.988,131.97C 476.988,133.077 476.091,133.975 474.984,133.975C 473.877,133.975 472.98,133.077 472.98,131.97C 472.98,130.864 473.877,129.966 474.984,129.966 Z "/>
	<path fill="#F0DE9F" fill-opacity="1" stroke-linejoin="round" d="M 474.83,134.089C 475.937,134.089 476.834,134.986 476.834,136.093C 476.834,137.199 475.937,138.097 474.83,138.097C 473.723,138.097 472.826,137.199 472.826,136.093C 472.826,134.986 473.723,134.089 474.83,134.089 Z "/>
	<path fill="#F0DE9F" fill-opacity="1" stroke-linejoin="round" d="M 474.637,138.559C 475.744,138.559 476.641,139.457 476.641,140.563C 476.641,141.67 475.744,142.568 474.637,142.568C 473.53,142.568 472.633,141.67 472.633,140.563C 472.633,139.457 473.53,138.559 474.637,138.559 Z "/>
	<path fill="#F0DE9F" fill-opacity="1" stroke-linejoin="round" d="M 475.132,142.966C 476.239,142.966 477.136,143.863 477.136,144.97C 477.136,146.077 476.239,146.974 475.132,146.974C 474.025,146.974 473.128,146.077 473.128,144.97C 473.128,143.863 474.025,142.966 475.132,142.966 Z "/>
	<path fill="#F0DE9F" fill-opacity="1" stroke-linejoin="round" d="M 475.44,147.86C 476.547,147.86 477.444,148.758 477.444,149.865C 477.444,150.971 476.547,151.869 475.44,151.869C 474.333,151.869 473.436,150.971 473.436,149.865C 473.436,148.758 474.333,147.86 475.44,147.86 Z "/>
	<path fill="#F0DE9F" fill-opacity="1" stroke-linejoin="round" d="M 476.07,152.125C 477.177,152.125 478.074,153.023 478.074,154.13C 478.074,155.237 477.177,156.134 476.07,156.134C 474.963,156.134 474.065,155.237 474.065,154.13C 474.065,153.023 474.963,152.125 476.07,152.125 Z "/>
	<path fill="#F0DE9F" fill-opacity="1" stroke-linejoin="round" d="M 477.92,157.007C 479.026,157.007 479.924,157.905 479.924,159.011C 479.924,160.118 479.026,161.016 477.92,161.016C 476.813,161.016 475.916,160.118 475.916,159.011C 475.916,157.905 476.813,157.007 477.92,157.007 Z "/>
	<path fill="#F0DE9F" fill-opacity="1" stroke-linejoin="round" d="M 482.107,160.771C 483.214,160.771 484.112,161.669 484.112,162.776C 484.112,163.883 483.214,164.78 482.107,164.78C 481.001,164.78 480.103,163.883 480.103,162.776C 480.103,161.669 481.001,160.771 482.107,160.771 Z "/>
	<path fill="#F0DE9F" fill-opacity="1" stroke-linejoin="round" d="M 487.664,162.023C 488.77,162.023 489.668,162.921 489.668,164.028C 489.668,165.134 488.77,166.032 487.664,166.032C 486.557,166.032 485.659,165.134 485.659,164.028C 485.659,162.921 486.557,162.023 487.664,162.023 Z "/>
	<path fill="#F0DE9F" fill-opacity="1" stroke-linejoin="round" d="M 500.905,126.49C 499.803,126.387 498.826,127.198 498.723,128.3C 498.621,129.402 499.431,130.378 500.533,130.481C 501.635,130.584 502.612,129.774 502.715,128.672C 502.817,127.57 502.007,126.593 500.905,126.49 Z "/>
	<path fill="#F0DE9F" fill-opacity="1" stroke-linejoin="round" d="M 500.747,130.682C 499.645,130.579 498.668,131.389 498.565,132.491C 498.462,133.593 499.272,134.57 500.374,134.673C 501.476,134.776 502.453,133.966 502.556,132.864C 502.659,131.761 501.849,130.785 500.747,130.682 Z "/>
	<path fill="#F0DE9F" fill-opacity="1" stroke-linejoin="round" d="M 500.674,135.331C 499.572,135.229 498.595,136.039 498.493,137.141C 498.39,138.243 499.2,139.219 500.302,139.323C 501.404,139.425 502.381,138.615 502.484,137.513C 502.586,136.411 501.776,135.434 500.674,135.331 Z "/>
	<path fill="#F0DE9F" fill-opacity="1" stroke-linejoin="round" d="M 500.47,139.596C 499.368,139.493 498.391,140.303 498.288,141.406C 498.185,142.508 498.996,143.484 500.097,143.587C 501.2,143.69 502.177,142.88 502.279,141.778C 502.382,140.676 501.572,139.699 500.47,139.596 Z "/>
	<path fill="#F0DE9F" fill-opacity="1" stroke-linejoin="round" d="M 500.182,143.995C 499.08,143.892 498.103,144.702 498,145.804C 497.897,146.906 498.708,147.883 499.81,147.986C 500.912,148.089 501.889,147.279 501.992,146.177C 502.094,145.074 501.284,144.098 500.182,143.995 Z "/>
	<path fill="#F0DE9F" fill-opacity="1" stroke-linejoin="round" d="M 499.766,148.459C 498.664,148.356 497.687,149.166 497.584,150.268C 497.481,151.37 498.292,152.347 499.393,152.45C 500.496,152.553 501.472,151.743 501.575,150.641C 501.678,149.539 500.868,148.562 499.766,148.459 Z "/>
	<path fill="#F0DE9F" fill-opacity="1" stroke-linejoin="round" d="M 499.318,153.114C 498.216,153.011 497.239,153.821 497.136,154.923C 497.034,156.025 497.844,157.002 498.946,157.105C 500.048,157.208 501.025,156.397 501.128,155.295C 501.23,154.193 500.42,153.217 499.318,153.114 Z "/>
	<path fill="#F0DE9F" fill-opacity="1" stroke-linejoin="round" d="M 497.397,157.886C 496.295,157.783 495.318,158.593 495.215,159.695C 495.112,160.797 495.923,161.774 497.024,161.877C 498.127,161.979 499.104,161.169 499.207,160.067C 499.309,158.965 498.499,157.989 497.397,157.886 Z "/>
	<path fill="#F0DE9F" fill-opacity="1" stroke-linejoin="round" d="M 493.298,160.353C 492.196,160.25 491.219,161.061 491.117,162.163C 491.014,163.265 491.824,164.242 492.926,164.344C 494.028,164.447 495.005,163.637 495.107,162.535C 495.21,161.433 494.4,160.456 493.298,160.353 Z "/>
	<path fill="#FFFFFF" fill-opacity="1" stroke-linejoin="round" d="M 616.641,230.927L 630.811,230.996L 630.786,235.983L 616.617,235.914L 616.641,230.927 Z "/>
	<path fill="#F4DDB5" fill-opacity="1" stroke-linejoin="round" d="M 646.869,327.897C 648.346,326.167 677.135,310.049 681.015,312.765C 684.896,315.481 682.179,318.197 682.179,318.197L 734.951,317.421L 739.995,331.001L 670.151,330.614C 670.151,330.614 675.195,322.077 667.435,323.629C 659.674,325.181 658.122,330.225 658.122,330.225C 658.122,330.225 637.557,331.778 646.869,327.897 Z "/>
	<rect x="613.898" y="488.302" fill="#000000" fill-opacity="1" stroke-linejoin="round" width="85.1064" height="5.16968"/>
	<rect x="688.919" y="393.362" fill="#000000" fill-opacity="1" stroke-linejoin="round" width="10.8647" height="97.8933"/>
	<path fill="#2F3233" fill-opacity="1" stroke-linejoin="round" d="M 796.444,258.069L 800.502,258.069C 806.025,258.069 810.502,262.546 810.502,268.069L 810.502,386.205C 810.502,391.728 806.025,396.205 800.502,396.205L 796.444,396.205C 790.922,396.205 786.444,391.728 786.444,386.205L 786.444,268.069C 786.444,262.546 790.922,258.069 796.444,258.069 Z "/>
	<path fill="#6EB252" fill-opacity="1" stroke-width="3" stroke-linejoin="round" stroke="#598E40" stroke-opacity="1" d="M 723.309,261.158C 723.697,277.067 735.338,270.082 733.398,289.483C 732.42,299.259 736.503,312.376 736.503,312.376L 722.922,311.6L 722.146,329.449C 722.146,329.449 764.828,336.046 766.38,320.913C 767.933,305.78 754.352,301.9 762.888,281.723C 771.425,261.545 767.933,262.322 767.933,262.322L 762.112,293.751L 764.44,329.449C 764.44,329.449 730.682,337.21 739.219,346.91C 747.755,356.611 790.05,373.296 788.498,364.372C 786.946,355.447 774.529,331.002 777.245,308.108C 779.961,285.215 785.005,281.335 784.617,263.486C 784.229,245.636 776.857,225.459 757.456,230.504C 738.055,235.548 726.025,254.949 723.309,261.158 Z "/>
	<path fill="#A3A09B" fill-opacity="1" stroke-linejoin="round" d="M 752.94,401.894L 752.94,401.894C 769.012,401.894 782.042,414.923 782.042,430.995L 782.042,444.706C 782.042,460.778 769.012,473.808 752.94,473.808L 752.94,473.808C 736.867,473.808 723.838,460.778 723.838,444.706L 723.838,430.995C 723.838,414.923 736.867,401.894 752.94,401.894 Z "/>
	<path fill="#F4DDB5" fill-opacity="1" stroke-width="3" stroke-linejoin="round" d="M 753.575,211.103L 753.963,234.384L 781.513,252.233L 774.529,185.881L 753.575,211.103 Z "/>
	<path fill="#F4DDB5" fill-opacity="1" stroke-width="3" stroke-linejoin="round" d="M 743.487,145.527C 724.254,147.979 717.101,181.225 720.981,188.209C 724.862,195.194 712.445,200.626 712.445,200.626L 722.146,204.894C 722.146,204.894 719.042,214.207 726.414,219.251C 733.786,224.295 730.294,226.624 738.831,225.459C 747.367,224.295 782.289,203.342 783.841,181.613C 785.394,159.884 768.709,142.423 743.487,145.527 Z "/>
	<path fill="#A3A09B" fill-opacity="1" stroke-linejoin="round" d="M 707.801,409.658L 804.806,409.658C 807.806,409.658 810.239,412.091 810.239,415.091L 810.239,415.091C 810.239,418.091 807.806,420.523 804.806,420.523L 707.801,420.523C 704.801,420.523 702.369,418.091 702.369,415.091L 702.369,415.091C 702.369,412.091 704.801,409.658 707.801,409.658 Z "/>
	<path fill="#000000" fill-opacity="1" stroke-linejoin="round" d="M 695.257,385.346L 802.868,385.346C 807.225,385.346 810.757,388.878 810.757,393.235L 810.757,393.235C 810.757,397.593 807.225,401.125 802.868,401.125L 695.257,401.125C 690.899,401.125 687.367,397.593 687.367,393.235L 687.367,393.235C 687.367,388.878 690.899,385.346 695.257,385.346 Z "/>
	<path fill="#E8CDA6" fill-opacity="1" stroke-linejoin="round" d="M 663.942,453.229C 663.942,453.229 670.15,466.422 651.137,466.81C 632.125,467.198 655.794,475.346 661.226,474.57C 666.658,473.794 689.164,480.003 689.94,471.854C 690.716,463.706 681.791,457.885 683.344,448.961C 684.896,440.036 664.33,452.841 663.942,453.229 Z "/>
	<path fill="#A88A6F" fill-opacity="1" stroke-linejoin="round" d="M 626.692,470.69C 626.691,470.69 608.067,477.286 614.275,480.778C 620.484,484.27 682.567,481.167 684.12,476.51C 685.672,471.854 647.645,479.226 654.63,468.362C 661.614,457.497 640.661,469.914 626.692,470.69 Z "/>
	<path fill="#634D3E" fill-opacity="1" stroke-linejoin="round" d="M 656.57,454.393C 656.57,454.393 664.718,461.377 675.583,458.661C 686.448,455.945 690.716,449.737 690.716,449.737L 685.672,380.668C 685.672,380.668 707.789,384.549 720.981,383.773C 734.174,382.997 778.409,387.653 780.737,381.056C 783.065,374.46 781.901,357.775 781.901,357.775L 721.37,349.627L 654.242,347.299L 656.57,454.393 Z "/>
	<path fill="#4C382A" fill-opacity="1" stroke-linejoin="round" d="M 676.359,366.312C 676.553,366.187 727.966,376.4 736.502,374.848C 745.039,373.296 778.089,371.84 781.513,375.624C 796.258,391.921 685.672,380.281 685.672,380.281L 691.104,451.289L 674.807,459.049C 674.807,459.049 681.016,377.952 676.359,366.312 Z "/>
	<path fill="#4B4E4F" fill-opacity="1" stroke-linejoin="round" d="M 754,423.908C 764.518,423.908 773.045,432.435 773.045,442.954C 773.045,453.472 764.518,461.999 754,461.999C 743.481,461.999 734.955,453.472 734.955,442.954C 734.955,432.435 743.481,423.908 754,423.908 Z "/>
	<path fill="#4B4E4F" fill-opacity="1" stroke-linejoin="round" d="M 681.925,414.826L 680.226,419.713L 734.956,438.744L 736.655,433.858L 681.925,414.826 Z "/>
	<path fill="#4B4E4F" fill-opacity="1" stroke-linejoin="round" d="M 738.855,454.788L 743.107,457.735L 710.1,505.36L 705.848,502.413L 738.855,454.788 Z "/>
	<path fill="#4B4E4F" fill-opacity="1" stroke-linejoin="round" d="M 799.794,500.612L 795.581,503.615L 761.947,456.431L 766.159,453.428L 799.794,500.612 Z "/>
	<path fill="#4B4E4F" fill-opacity="1" stroke-linejoin="round" d="M 821.354,414.826L 823.054,419.712L 768.323,438.744L 766.624,433.857L 821.354,414.826 Z "/>
	<rect x="751.122" y="368.841" fill="#4B4E4F" fill-opacity="1" stroke-linejoin="round" width="5.17358" height="57.9448"/>
	<path fill="#B4BFC1" fill-opacity="1" stroke-linejoin="round" d="M 754,417.15C 768.25,417.15 779.803,428.703 779.803,442.953C 779.803,457.204 768.25,468.757 754,468.757C 739.749,468.757 728.196,457.204 728.196,442.953C 728.196,428.703 739.749,417.15 754,417.15 Z M 754,420.476C 741.585,420.476 731.522,430.539 731.522,442.953C 731.522,455.367 741.585,465.431 754,465.431C 766.414,465.431 776.478,455.367 776.478,442.953C 776.478,430.539 766.414,420.476 754,420.476 Z "/>
	<path fill="#B4BFC1" fill-opacity="1" stroke-linejoin="round" d="M 754,380.223C 788.645,380.223 816.73,408.309 816.73,442.954C 816.73,477.598 788.645,505.684 754,505.684C 719.354,505.684 691.269,477.598 691.269,442.954C 691.269,408.309 719.354,380.223 754,380.223 Z M 754,388.308C 723.82,388.308 699.354,412.774 699.354,442.953C 699.354,473.133 723.82,497.599 754,497.599C 784.18,497.599 808.645,473.133 808.645,442.953C 808.645,412.774 784.18,388.308 754,388.308 Z "/>
	<path fill="#4B4E4F" fill-opacity="1" stroke-linejoin="round" d="M 754,359.658C 800.002,359.658 837.295,396.951 837.295,442.954C 837.295,488.956 800.002,526.249 754,526.249C 707.997,526.249 670.704,488.956 670.704,442.954C 670.704,396.951 707.997,359.658 754,359.658 Z M 754,370.393C 713.926,370.393 681.439,402.88 681.439,442.953C 681.439,483.027 713.926,515.513 754,515.513C 794.074,515.513 826.56,483.027 826.56,442.953C 826.56,402.88 794.074,370.393 754,370.393 Z "/>
	<path fill="#4B4E4F" fill-opacity="1" stroke-linejoin="round" d="M 627.995,470.715C 642.888,470.715 654.962,482.788 654.962,497.682C 654.962,512.576 642.889,524.65 627.995,524.65C 613.101,524.65 601.027,512.576 601.027,497.682C 601.027,482.788 613.101,470.715 627.995,470.715 Z M 627.995,478.475C 617.387,478.475 608.788,487.074 608.788,497.682C 608.788,508.29 617.387,516.889 627.995,516.889C 638.603,516.889 647.202,508.29 647.202,497.682C 647.202,487.074 638.603,478.475 627.995,478.475 Z "/>
	<path fill="#B4BFC1" fill-opacity="1" stroke-linejoin="round" d="M 627.995,476.923C 639.459,476.923 648.754,486.217 648.754,497.682C 648.754,509.147 639.46,518.441 627.995,518.441C 616.529,518.441 607.235,509.147 607.235,497.682C 607.235,486.217 616.53,476.923 627.995,476.923 Z M 644.863,497.628C 644.863,495.829 644.582,494.096 644.06,492.471L 631.79,498.707L 641.007,508.364C 643.416,505.447 644.863,501.706 644.863,497.628 Z M 627.996,514.496C 631.846,514.496 635.395,513.206 638.234,511.034L 628.145,500.464L 628.047,500.464L 618.671,511.687C 621.342,513.462 624.548,514.496 627.996,514.496 Z M 611.127,497.627C 611.127,502.11 612.875,506.184 615.727,509.205L 624.372,498.859L 612.072,492.045C 611.46,493.792 611.127,495.671 611.127,497.627 Z M 626.07,480.867C 620.893,481.456 616.426,484.388 613.758,488.577L 626.07,495.398L 626.07,480.867 Z M 629.921,480.867L 629.921,495.338L 642.47,488.96C 639.834,484.567 635.255,481.473 629.921,480.867 Z "/>
	<path fill="#4B4E4F" fill-opacity="1" stroke-linejoin="round" d="M 627.995,493.22C 630.459,493.22 632.457,495.218 632.457,497.682C 632.457,500.146 630.459,502.144 627.995,502.144C 625.53,502.144 623.533,500.146 623.533,497.682C 623.533,495.218 625.53,493.22 627.995,493.22 Z "/>
	<path fill="#A3A09B" fill-opacity="1" stroke-linejoin="round" d="M 664.342,355.077C 712.802,355.077 801.702,354.042 807.652,353.266C 813.602,352.49 825.501,348.868 826.277,328.174C 827.053,307.479 829.123,265.573 829.123,265.573C 829.123,265.573 864.044,267.125 864.044,261.693C 864.044,256.26 845.678,255.226 832.485,255.484C 819.293,255.743 821.103,260.399 820.327,266.09C 820.327,266.09 821.88,338.262 810.498,341.884C 799.116,345.505 662.532,345.247 662.532,345.247C 662.532,345.247 659.687,349.127 664.342,355.077 Z "/>
	<path fill="#2F3233" fill-opacity="1" stroke-linejoin="round" d="M 838.696,250.826L 862.495,250.826C 867.638,250.826 871.807,254.995 871.807,260.138L 871.807,260.138C 871.807,265.281 867.638,269.451 862.495,269.451L 838.696,269.451C 833.553,269.451 829.383,265.281 829.383,260.138L 829.383,260.138C 829.383,254.995 833.553,250.826 838.696,250.826 Z "/>
	<path fill="#2F3233" fill-opacity="1" stroke-linejoin="round" d="M 653.853,328.286L 760.948,328.286C 765.663,328.286 769.484,332.108 769.484,336.822L 769.484,336.822C 769.484,341.537 765.663,345.359 760.948,345.359L 653.853,345.359C 649.139,345.359 645.317,341.537 645.317,336.822L 645.317,336.822C 645.317,332.108 649.139,328.286 653.853,328.286 Z "/>
	<path fill="#CE9A3E" fill-opacity="1" stroke-width="3" stroke-linejoin="round" d="M 713.609,178.121C 713.186,164.931 733.01,141.259 748.144,143.587C 763.277,145.915 777.633,147.855 777.633,147.855L 774.917,138.542L 785.006,155.615L 798.586,162.6L 789.274,161.823C 789.274,161.823 797.81,167.644 795.094,178.509C 792.378,189.373 790.05,192.865 791.99,211.49C 793.93,230.116 806.735,262.322 806.735,262.322C 806.735,262.322 787.721,278.619 773.364,263.486C 759.008,248.353 760.56,243.309 746.591,244.861C 732.623,246.413 739.995,237.1 739.995,237.1C 739.995,237.1 771.425,209.551 774.529,196.746C 777.633,183.941 758.62,206.447 753.576,204.506C 748.531,202.566 767.932,178.509 759.396,178.121C 750.86,177.733 741.838,183.191 729.518,183.553C 716.326,183.941 714.774,182.389 713.609,178.121 Z "/>
	<path fill="#A0806A" fill-opacity="1" stroke-linejoin="round" d="M 295.347,499.288L 295.708,508.68C 295.708,508.68 317.743,524.936 332.012,522.948C 346.28,520.962 350.073,517.53 350.254,513.376C 350.435,509.222 335.804,497.843 327.677,498.565C 319.549,499.288 308.17,501.275 308.17,501.275L 295.347,499.288 Z "/>
	<path fill="#7C553A" fill-opacity="1" stroke-linejoin="round" d="M 315.147,503.826C 305.273,502.863 294.436,499.732 294.436,499.732C 294.436,499.732 296.604,338.141 296.363,335.974C 296.145,334.016 290.624,333.827 289.557,333.808C 288.473,333.827 282.974,334.02 282.757,335.974C 282.516,338.141 284.683,499.732 284.683,499.732C 284.683,499.732 273.846,502.863 263.973,503.826C 252.921,504.323 246.875,499.973 246.875,499.973L 246.152,320.32C 246.152,320.32 241.577,317.671 240.132,309.724C 238.687,301.777 238.205,288.532 238.205,288.532C 255.343,293.376 273.732,304.998 289.868,305.066C 306.004,305.134 320.031,297.48 340.915,288.532C 340.915,288.532 340.433,301.777 338.988,309.724C 337.543,317.672 332.968,320.32 332.968,320.32L 332.245,499.973C 332.245,499.973 326.199,504.323 315.147,503.826 Z "/>
	<path fill="#A0806A" fill-opacity="1" stroke-linejoin="round" d="M 283.877,499.017L 283.516,508.409C 283.516,508.409 261.481,524.665 247.212,522.678C 232.944,520.691 229.151,517.26 228.97,513.105C 228.79,508.951 243.419,497.573 251.547,498.295C 259.675,499.017 271.053,501.004 271.053,501.004L 283.877,499.017 Z "/>
	<path fill="#D8A887" fill-opacity="1" stroke-linejoin="round" d="M 227.345,285.635L 239.265,302.131L 243.72,274.557L 227.345,285.635 Z "/>
	<path fill="#D8A887" fill-opacity="1" stroke-linejoin="round" d="M 338.784,302.432L 339.928,273.714L 350.705,285.936"/>
	<linearGradient id="SVGID_Fill1_" gradientUnits="objectBoundingBox" x1="0.507133" y1="0.575376" x2="0.93866" y2="0.575376" gradientTransform="rotate(-90.000000 0.507133 0.575376)">
		<stop offset="0" stop-color="#D8A887" stop-opacity="1"/>
		<stop offset="1" stop-color="#B2876B" stop-opacity="1"/>
	</linearGradient>
	<path fill="url(#SVGID_Fill1_)" stroke-linejoin="round" d="M 274.185,123.803L 274.922,134.339C 274.922,134.339 260.578,139.457 260.217,140.059C 259.855,140.661 261.319,161.61 290.319,158.361C 334.389,153.424 311.572,137.018 311.572,137.018L 307.298,136.687L 307.899,121.034L 274.185,123.803 Z "/>
	<path fill="#A0682B" fill-opacity="1" stroke-linejoin="round" d="M 319.79,144.724C 319.79,151.092 306.187,161.552 288.863,161.552C 271.54,161.552 257.056,151.092 257.056,144.724C 257.056,142.353 258.745,140.416 262.083,138.584C 261.825,139.245 262.143,139.893 262.685,141.474C 268.224,148.156 273.277,151.883 287.253,151.883C 301.229,151.883 312.559,146.721 312.559,140.353C 312.559,139.138 312.147,137.968 311.383,136.868C 316.689,138.042 319.79,141.688 319.79,144.724 Z "/>
	<path fill="#B58F4D" fill-opacity="1" stroke-width="3" stroke-linejoin="round" stroke="#A07C47" stroke-opacity="1" d="M 289.025,305.329C 274.403,305.156 235.553,298.047 233.579,288.178C 231.592,278.244 232.856,250.791 235.746,244.289C 238.636,237.787 246.583,224.963 245.138,217.016C 243.693,209.068 243.693,211.959 239.9,218.099C 236.107,224.24 231.954,226.227 233.398,231.646C 234.843,237.064 237.67,240.662 237.67,240.662C 237.67,240.662 233.817,246.802 233.456,259.265C 233.094,271.727 233.218,288.72 228.341,288.54C 223.465,288.359 197.817,239.773 200.165,223.879C 202.513,207.985 225.632,173.849 232.856,164.276C 240.081,154.703 257.601,141.699 259.407,140.073C 261.166,138.49 256.845,157.638 289.135,159.159C 316.449,156.555 317.048,138.563 318.827,140.164C 320.633,141.79 338.153,154.794 345.377,164.366C 352.602,173.939 375.721,208.075 378.069,223.969C 380.417,239.864 354.769,288.449 349.893,288.63C 345.016,288.811 345.453,271.727 345.091,259.265C 343.985,247.171 341.689,242.618 341.689,242.618C 341.689,242.618 343.39,237.155 344.835,231.736C 346.28,226.318 342.126,224.331 338.333,218.19C 334.54,212.049 334.541,209.159 333.095,217.106C 331.65,225.053 339.597,237.877 342.487,244.379C 345.377,250.881 346.642,278.335 344.655,288.269C 342.668,298.203 303.647,305.501 289.025,305.329 Z "/>
	<path fill="#D8A887" fill-opacity="1" stroke-linejoin="round" d="M 290.951,55.5017C 306.811,55.5017 320.561,67.1277 321.053,90.0596C 321.595,115.285 312.888,101.522 313.708,107.037C 316.357,124.858 301.76,138.374 289.535,138.374C 277.801,138.374 267.35,127.025 267.952,109.325C 268.17,102.915 259.343,117.212 260.818,91.052C 262.308,64.6353 275.09,55.5017 290.951,55.5017 Z "/>
	<path fill="#9B8875" fill-opacity="1" stroke-linejoin="round" d="M 307.568,122.57C 311.632,122.299 310.368,103.244 311.271,94.0325C 312.174,84.821 316.739,91.1431 316.78,81.3894C 316.87,59.8962 290.139,61.0701 290.139,61.0701L 290.141,60.9409C 286.923,60.8962 263.787,61.2708 263.871,81.269C 263.912,91.0227 268.476,84.7009 269.379,93.9124C 270.282,103.124 269.018,122.178 273.082,122.449C 277.146,122.72 282.113,114.954 290.873,114.954C 290.869,114.954 290.875,115.01 290.891,115.116C 298.965,115.73 303.68,122.829 307.568,122.57 Z M 316.057,61.7927C 324.095,70.8235 326.713,75.1582 326.533,88.072C 326.352,100.986 322.379,93.9421 319.76,94.4841C 317.141,95.0259 313.709,100.264 314.07,110.107C 314.432,119.951 316.509,130.517 309.104,134.49C 301.698,138.464 293.751,141.625 289.326,141.263C 289.107,141.246 288.911,141.165 288.736,141.029C 284.17,140.388 277.673,137.657 271.547,134.37C 264.142,130.397 266.219,119.831 266.58,109.987C 266.941,100.143 263.51,94.9055 260.89,94.3635C 258.271,93.822 254.298,100.866 254.117,87.9519C 253.937,75.0378 256.556,70.7029 264.593,61.6721C 272.631,52.6416 290.331,52.0996 290.331,52.0996L 290.333,52.2205C 290.889,52.2397 308.15,52.908 316.057,61.7927 Z "/>
	<path fill="#1B3356" fill-opacity="1" stroke-linejoin="round" d="M 938.084,110.447L 997.509,110.447L 994.487,123.54L 937.077,118.756L 938.084,110.447 Z "/>
	<path fill="#9E7157" fill-opacity="1" stroke-linejoin="round" d="M 1059.45,174.089C 1059.45,174.089 1080.42,197.767 1080.22,203.171C 1079.85,213.369 1020.93,255.294 1020.93,255.294C 1020.93,255.293 1024.7,280.222 1020.93,283.621C 1017.15,287.02 1004.31,289.664 1004.31,289.664L 1004.69,241.697L 1051.52,203.171L 1038.68,189.197"/>
	<path fill="#9E7157" fill-opacity="1" stroke-linejoin="round" d="M 874.959,174.844C 874.959,174.844 853.985,198.523 854.185,203.927C 854.563,214.125 913.484,256.049 913.484,256.049C 913.483,256.049 909.707,280.977 913.484,284.376C 917.261,287.776 930.103,290.419 930.103,290.419L 929.725,242.452L 882.89,203.927L 895.732,189.952"/>
	<path fill="#B78869" fill-opacity="1" stroke-linejoin="round" d="M 982.778,96.4089L 982.904,111.894C 982.905,111.894 991.843,114.412 992.095,116.427C 992.347,118.441 966.286,145.132 966.286,145.132L 943.498,115.545C 943.498,115.545 946.394,112.146 948.66,112.146C 950.926,112.146 948.912,92.2542 948.912,92.2542"/>
	<path fill="#FFFFFF" fill-opacity="1" stroke-linejoin="round" d="M 941.609,115.986C 941.61,115.986 958.75,120.18 967.638,119.98C 976.526,119.781 993.984,116.985 993.984,116.985L 966.686,139.152L 941.609,115.986 Z "/>
	<path fill="#0C1D2B" fill-opacity="1" stroke-linejoin="round" d="M 919.894,493.18C 919.894,493.18 898.366,502.622 899.876,507.91C 901.387,513.198 903.275,521.507 918.383,518.863C 933.491,516.219 955.775,498.09 955.775,498.09L 954.264,491.291L 919.894,493.18 Z "/>
	<path fill="#0C1D2B" fill-opacity="1" stroke-linejoin="round" d="M 1014.13,493.243C 1014.13,493.243 1035.66,502.686 1034.15,507.974C 1032.63,513.261 1030.75,521.571 1015.64,518.927C 1000.53,516.283 978.246,498.154 978.246,498.154L 979.757,491.355L 1014.13,493.243 Z "/>
	<path fill="#22446D" fill-opacity="1" stroke-linejoin="round" d="M 997.438,109.947L 1005.75,119.011L 1067.69,167.357L 1039.74,196.817L 1019.35,180.198L 1009.52,205.126C 1009.52,205.126 1006.5,246.673 1008.77,264.047C 1011.04,281.422 1011.04,337.321 1010.28,357.717C 1009.52,378.112 1011.79,492.932 1011.79,492.932C 1011.79,492.932 1003.48,501.242 992.906,498.976C 982.331,496.709 979.309,497.465 979.309,497.465C 979.309,497.465 977.849,305.998 968.072,302.376L 967.813,302.431C 957.993,305.453 956.396,497.521 956.396,497.521C 956.396,497.521 953.374,496.766 942.798,499.032C 932.223,501.298 923.913,492.989 923.913,492.989C 923.913,492.989 926.18,378.169 925.424,357.773C 924.669,337.377 924.669,281.478 926.935,264.104C 929.201,246.73 926.18,205.183 926.18,205.183L 916.359,180.255L 895.964,196.874L 868.014,167.413L 929.957,119.068L 938.266,110.003L 968.828,134.867L 997.438,109.947 Z "/>
	<path fill="#FFBA40" fill-opacity="1" stroke-linejoin="round" d="M 983.975,160.518L 983.912,174.21L 993.732,182.897L 1003.55,174.21L 1003.17,159.857L 983.975,160.518 Z "/>
	<path fill="#9E7157" fill-opacity="1" stroke-linejoin="round" d="M 968.407,108.981C 980.933,108.493 993.639,97.5627 992.789,83.0569C 991.68,64.1235 1001.1,89.0295 1000.27,65.7268C 999.959,56.9944 992.789,63.8323 992.789,63.8323C 992.789,63.8323 990.899,57.0464 991.277,52.6785C 991.655,48.3103 966.538,43.5452 966.538,43.5452L 940.099,48.7075L 940.477,65.7822C 940.477,65.7822 935.214,58.3875 934.056,63.0027C 931.836,71.8435 935.142,79.4773 937.655,77.6692C 942.919,73.8826 942.353,76.0952 942.919,81.4558C 943.486,86.8167 940.841,104.76 968.407,108.981 Z "/>
	<rect x="937.707" y="54.6721" fill="#000000" fill-opacity="1" stroke-linejoin="round" width="3.77686" height="14.5415"/>
	<rect x="990.301" y="54.3892" fill="#000000" fill-opacity="1" stroke-linejoin="round" width="3.77686" height="14.5413"/>
	<path fill="#22446D" fill-opacity="1" stroke-linejoin="round" d="M 958.102,20.6794L 972.266,20.4905C 972.266,20.4905 1005.31,42.7747 1004.94,45.041C 1004.56,47.3071 996.817,55.9941 996.817,55.9941L 996.817,61.8484L 935.63,61.282L 936.385,55.6165C 936.385,55.6165 927.131,45.041 927.887,42.7747C 928.642,40.5085 958.103,20.4905 958.102,20.6794 Z "/>
	<rect x="935.251" y="55.6167" fill="#2A5991" fill-opacity="1" stroke-linejoin="round" width="62.1313" height="4.15454"/>
	<rect x="931.852" y="61.282" fill="#183049" fill-opacity="1" stroke-linejoin="round" width="67.6079" height="2.64404"/>
	<path fill="#FFBA40" fill-opacity="1" stroke-linejoin="round" d="M 960.093,32.4182L 960.053,40.9314L 966.159,46.3328L 972.265,40.9314L 972.031,32.0071L 960.093,32.4182 Z "/>
	<path fill="#0F1D35" fill-opacity="1" stroke-linejoin="round" d="M 928.705,253.275L 1009.78,253.275C 1013.54,253.275 1016.58,256.319 1016.58,260.073L 1016.58,260.073C 1016.58,263.828 1013.54,266.872 1009.78,266.872L 928.705,266.872C 924.95,266.872 921.906,263.828 921.906,260.073L 921.906,260.073C 921.906,256.319 924.95,253.275 928.705,253.275 Z "/>
	<path fill="#FFBA40" fill-opacity="1" stroke-linejoin="round" d="M 963.58,253.023L 975.288,253.023C 979.043,253.023 982.087,256.067 982.087,259.822L 982.087,259.822C 982.087,263.576 979.043,266.62 975.288,266.62L 963.58,266.62C 959.825,266.62 956.781,263.576 956.781,259.822L 956.781,259.822C 956.781,256.067 959.825,253.023 963.58,253.023 Z "/>
	<path fill="#1B3356" fill-opacity="1" stroke-linejoin="round" d="M 957.411,159.857L 957.411,178.239C 957.411,182.411 954.029,185.793 949.857,185.793L 939.785,185.793C 935.613,185.793 932.231,182.411 932.231,178.239L 932.231,159.857"/>
	<path fill="#0F1D35" fill-opacity="1" stroke-linejoin="round" d="M 968.489,134.174L 960.432,145.253L 966.979,154.57L 955.144,216.009L 969.748,234.642L 983.345,215.505L 971.511,154.066L 978.31,144.498L 968.489,134.174 Z "/>
	<path fill="#0F1D35" fill-opacity="1" stroke-linejoin="round" d="M 1040.01,144.858L 1050.04,152.88C 1052.08,154.509 1052.41,157.48 1050.78,159.516L 1050.78,159.516C 1049.15,161.552 1046.18,161.882 1044.14,160.253L 1034.11,152.23C 1032.08,150.601 1031.75,147.63 1033.38,145.594L 1033.38,145.594C 1035.01,143.559 1037.98,143.229 1040.01,144.858 Z "/>
	<path fill="#0F1D35" fill-opacity="1" stroke-linejoin="round" d="M 873.068,163.04L 900.366,191.343C 901.516,192.536 901.482,194.435 900.289,195.585L 896.18,199.549C 894.988,200.698 893.088,200.664 891.938,199.471L 864.64,171.169C 863.49,169.976 863.524,168.077 864.717,166.927L 868.826,162.964C 870.019,161.813 871.918,161.847 873.068,163.04 Z "/>
	<path fill="#0F1D35" fill-opacity="1" stroke-linejoin="round" d="M 1037.15,192.51L 1065.27,165.028C 1066.46,163.869 1068.36,163.892 1069.51,165.077L 1073.5,169.16C 1074.66,170.345 1074.64,172.244 1073.45,173.402L 1045.33,200.885C 1044.14,202.043 1042.24,202.021 1041.09,200.836L 1037.1,196.752C 1035.94,195.567 1035.96,193.668 1037.15,192.51 Z "/>
	<path fill="#FFBA40" fill-opacity="1" stroke-linejoin="round" d="M 884.543,153.079L 891.283,158.581C 891.711,158.93 891.7,159.499 891.26,159.853L 890.319,160.608C 889.878,160.962 889.174,160.965 888.747,160.616L 882.007,155.115C 881.579,154.766 881.589,154.196 882.029,153.843L 882.971,153.087C 883.411,152.734 884.115,152.73 884.543,153.079 Z "/>
	<path fill="#FFBA40" fill-opacity="1" stroke-linejoin="round" d="M 888.396,149.987L 895.136,155.489C 895.564,155.838 895.553,156.407 895.113,156.761L 894.172,157.516C 893.731,157.87 893.027,157.873 892.6,157.524L 885.86,152.023C 885.432,151.674 885.442,151.104 885.882,150.751L 886.824,149.995C 887.264,149.642 887.968,149.638 888.396,149.987 Z "/>
	<path fill="#FFBA40" fill-opacity="1" stroke-linejoin="round" d="M 892.249,146.895L 898.989,152.396C 899.417,152.745 899.407,153.314 898.966,153.668L 898.025,154.424C 897.584,154.777 896.881,154.781 896.453,154.431L 889.713,148.93C 889.285,148.581 889.295,148.011 889.736,147.658L 890.677,146.902C 891.117,146.549 891.821,146.545 892.249,146.895 Z "/>
	<path fill="#0C1D2B" fill-opacity="1" stroke-linejoin="round" d="M 912.733,120.164L 912.733,120.164C 916.041,117.796 920.641,118.558 923.009,121.865L 928.505,129.543C 930.873,132.85 930.112,137.451 926.804,139.819L 926.804,139.819C 923.497,142.187 918.896,141.425 916.529,138.117L 911.032,130.44C 908.664,127.132 909.426,122.532 912.733,120.164 Z "/>
	<path fill="#0C1D2B" fill-opacity="1" stroke-linejoin="round" d="M 938.498,240.846L 944.157,240.846C 946.367,240.846 948.158,242.637 948.158,244.847L 948.158,273.106C 948.158,275.315 946.367,277.106 944.157,277.106L 938.498,277.106C 936.289,277.106 934.498,275.315 934.498,273.106L 934.498,244.847C 934.498,242.637 936.289,240.846 938.498,240.846 Z "/>
	<path fill="#0C1D2B" fill-opacity="1" stroke-linejoin="round" d="M 944.412,229.012L 944.412,229.012C 945.021,229.012 945.514,229.505 945.514,230.114L 945.514,252.461C 945.514,253.069 945.021,253.562 944.412,253.562L 944.412,253.562C 943.804,253.562 943.311,253.069 943.311,252.461L 943.311,230.114C 943.311,229.505 943.804,229.012 944.412,229.012 Z "/>
	<path fill="none" stroke-width="6" stroke-linejoin="round" stroke="#0C1D2B" stroke-opacity="1" d="M 921.907,133.203C 921.907,133.203 920.648,156.62 928.454,163.67C 936.26,170.72 943.814,175.253 942.303,182.052C 940.793,188.85 926.692,230.397 936.009,246.512"/>
</svg>
