<?xml version="1.0" encoding="utf-8"?>
<!DOCTYPE svg PUBLIC "-//W3C//DTD SVG 1.1//EN" "http://www.w3.org/Graphics/SVG/1.1/DTD/svg11.dtd">
<svg xmlns="http://www.w3.org/2000/svg" xmlns:xlink="http://www.w3.org/1999/xlink" version="1.1" baseProfile="full" width="438.47" height="582.122" viewBox="0 0 438.47 582.12" enable-background="new 0 0 438.47 582.12" xml:space="preserve">
	<ellipse fill="#FFEFB4" fill-opacity="1" stroke-linejoin="round" cx="223.961" cy="291.762" rx="167" ry="167"/>
	<path fill="#6EA89A" fill-opacity="1" stroke-linejoin="round" d="M 435.736,125.113L 407.929,152.902C 402.18,145.613 395.979,138.512 389.216,131.764C 382.49,125.022 375.387,118.82 368.06,113.05L 395.867,85.2612C 399.53,81.6191 405.524,81.6191 409.169,85.2612L 435.736,111.829C 439.381,115.476 439.381,121.467 435.736,125.113 Z M 217.338,54.6011C 207.794,54.6011 189.005,55.2573 179.761,56.3672L 179.761,9.97852C 179.761,4.80908 183.989,0.00195313 189.155,0.00195313L 245.521,0.00195313C 250.688,0.00195313 254.915,4.80908 254.915,9.97852L 254.915,56.3672C 245.671,55.2573 226.883,54.6011 217.338,54.6011 Z M 254.915,298.082C 254.915,311.948 247.325,323.934 236.127,330.452L 236.127,347.177C 236.127,352.36 231.899,356.983 226.732,356.983L 207.944,356.983C 202.777,356.983 198.55,352.36 198.55,347.177L 198.55,330.452C 187.352,323.934 179.761,311.948 179.761,298.082C 179.761,284.215 187.352,272.229 198.55,265.706L 198.55,197.281C 198.55,192.093 202.777,187.887 207.944,187.887L 226.732,187.887C 231.899,187.887 236.127,192.093 236.127,197.281L 236.127,265.706C 247.325,272.229 254.915,284.215 254.915,298.082 Z M 217.338,448.39C 134.462,448.39 67.03,380.956 67.03,298.082C 67.03,215.203 134.462,147.773 217.338,147.773C 300.215,147.773 367.646,215.203 367.646,298.082C 367.646,380.956 300.215,448.39 217.338,448.39 Z M 217.338,91.4077C 103.386,91.4077 10.6646,184.13 10.6646,298.082C 10.6646,412.033 103.386,504.755 217.338,504.755C 331.291,504.755 424.012,412.033 424.012,298.082C 424.012,184.13 331.291,91.4077 217.338,91.4077 Z "/>
	<g>
		<path fill="#000000" fill-opacity="1" stroke-linejoin="round" d="M 10.1404,571.532C 9.54541,572.362 8.59521,573.975 7.29004,576.369C 6.57031,577.714 5.72412,579.01 4.75146,580.254C 3.77905,581.499 3.06787,582.122 2.61768,582.122C 1.97754,582.122 1.38159,581.841 0.828857,581.278C 0.276367,580.716 0,580.182 0,579.677C 0,578.787 0.980225,576.737 2.94019,573.527C 4.90015,570.317 6.89038,567.327 8.91016,564.557C 9.31519,564.072 10.8152,561.81 13.4102,557.77C 13.6453,557.395 13.7927,557.167 13.8525,557.087C 14.5078,556.146 15.7527,554.222 17.5876,551.312C 19.9375,547.602 21.6802,545.089 22.8152,543.774C 23.9502,542.459 24.8904,541.802 25.6353,541.802C 26.2104,541.802 26.8015,542.146 27.4089,542.837C 28.0164,543.527 28.3203,544.114 28.3203,544.6C 28.3203,544.959 27.7664,546.043 26.6589,547.851C 25.5515,549.658 24.459,551.254 23.3816,552.64C 22.3042,554.024 21.2378,555.452 20.1826,556.922L 10.1404,571.532 Z "/>
		<path fill="#000000" fill-opacity="1" stroke-linejoin="round" d="M 37.5005,571.532C 36.9053,572.362 35.9551,573.975 34.6501,576.369C 33.9304,577.714 33.084,579.01 32.1113,580.254C 31.1392,581.499 30.4277,582.122 29.9775,582.122C 29.3376,582.122 28.7417,581.841 28.189,581.278C 27.6365,580.716 27.3601,580.182 27.3601,579.677C 27.3601,578.787 28.3403,576.737 30.3003,573.527C 32.2603,570.317 34.2505,567.327 36.2703,564.557C 36.6753,564.072 38.1753,561.81 40.7703,557.77C 41.0054,557.395 41.1528,557.167 41.2126,557.087C 41.8679,556.146 43.1128,554.222 44.9478,551.312C 47.2976,547.602 49.04,545.089 50.1753,543.774C 51.3103,542.459 52.2505,541.802 52.9951,541.802C 53.5703,541.802 54.1616,542.146 54.769,542.837C 55.3765,543.527 55.6804,544.114 55.6804,544.6C 55.6804,544.959 55.1265,546.043 54.019,547.851C 52.9116,549.658 51.8191,551.254 50.7417,552.64C 49.6641,554.024 48.5977,555.452 47.5427,556.922L 37.5005,571.532 Z "/>
		<path fill="#000000" fill-opacity="1" stroke-linejoin="round" d="M 64.988,579.722C 62.418,579.722 60.4644,579.025 59.1267,577.633C 57.7891,576.24 57.1206,574.305 57.1206,571.824C 57.1206,567.924 58.7292,563.706 61.9468,559.168C 65.1641,554.631 68.3181,552.362 71.408,552.362C 72.8979,552.362 74.1694,553.095 75.2217,554.56C 76.2742,556.024 76.8005,557.547 76.8005,559.127C 76.8005,560.617 76.5254,561.622 75.9756,562.142C 75.4255,562.662 74.8955,562.922 74.3855,562.922C 72.8855,562.922 72.0132,561.904 71.7681,559.869C 71.583,558.385 71.2029,557.642 70.6279,557.642C 69.4229,557.642 67.8306,559.355 65.8506,562.783C 63.8706,566.211 62.8806,569.214 62.8806,571.794C 62.8806,573.879 63.998,574.922 66.2332,574.922C 68.698,574.922 71.1855,574.06 73.6953,572.334C 74.8755,571.499 75.8105,571.082 76.5005,571.082C 77.3406,571.082 77.7605,571.499 77.7605,572.334C 77.7605,573.504 76.3867,575.028 73.6394,576.905C 70.8916,578.783 68.0078,579.722 64.988,579.722 Z "/>
		<path fill="#000000" fill-opacity="1" stroke-linejoin="round" d="M 120.413,575.521L 120.48,576.437C 120.575,577.667 119.185,578.282 116.31,578.282C 115.75,578.282 115.208,577.907 114.683,577.157C 114.583,577.017 114.508,576.947 114.458,576.947C 114.168,576.947 112.956,577.299 110.82,578.004C 110.375,578.159 110.045,578.252 109.831,578.282C 108.065,578.922 106.738,579.242 105.848,579.242C 104.913,579.242 104.158,578.968 103.583,578.421C 103.008,577.873 102.72,577.319 102.72,576.76C 102.72,575.989 103.164,575.362 104.052,574.877C 104.939,574.392 106.56,573.939 108.916,573.52C 111.396,572.984 113.01,572.549 113.76,572.214C 113.85,571.414 113.923,570.607 113.978,569.792C 114.153,567.152 115.081,561.767 116.76,553.637C 116.63,553.667 115.271,554.372 112.68,555.752C 110.331,557.012 108.15,557.642 106.14,557.642C 104.82,557.642 104.161,557.095 104.161,555.999C 104.161,555.314 104.382,554.788 104.824,554.421C 105.267,554.053 106.091,553.627 107.295,553.142C 108.74,552.607 110.578,551.749 112.808,550.569L 116.4,548.642C 118.6,547.282 120.013,546.602 120.638,546.602C 121.523,546.602 122.198,547.017 122.663,547.847C 123.128,548.677 123.36,549.396 123.36,550.007C 123.36,550.507 123.081,551.015 122.521,551.529C 121.291,556.27 120.483,560.052 120.098,562.877C 119.713,565.702 119.521,568.477 119.521,571.202C 120.36,571.097 122.341,570.652 125.46,569.867C 127.325,569.396 129.238,569.162 131.198,569.162C 131.733,570.232 132,570.952 132,571.322C 132,571.857 131.88,572.277 131.64,572.582C 131.4,572.887 130.814,573.197 129.882,573.512C 128.949,573.827 127.378,574.137 125.168,574.442C 122.853,574.812 121.268,575.172 120.413,575.521 Z "/>
		<path fill="#000000" fill-opacity="1" stroke-linejoin="round" d="M 139.088,578.282C 138.143,578.282 137.445,578.092 136.995,577.712C 136.545,577.332 136.32,576.329 136.32,574.704C 136.32,573.799 136.36,573.107 136.44,572.627C 136.52,572.146 136.903,571.77 137.588,571.494C 138.273,571.22 139.263,571.082 140.558,571.082C 141.523,571.082 142.258,571.313 142.763,571.775C 143.268,572.238 143.52,572.744 143.52,573.294C 143.52,574.204 143.382,574.902 143.104,575.387C 142.827,575.872 142.227,576.476 141.304,577.198C 140.382,577.921 139.643,578.282 139.088,578.282 Z "/>
		<path fill="#000000" fill-opacity="1" stroke-linejoin="round" d="M 154.41,579.242C 151.8,579.242 149.733,578.374 148.208,576.64C 146.683,574.904 145.92,572.692 145.92,570.002C 145.92,566.937 146.858,563.574 148.733,559.914C 150.608,556.254 153.395,553.201 157.095,550.753C 160.795,548.306 164.115,547.082 167.055,547.082C 169.255,547.082 171.62,547.828 174.15,549.32C 176.68,550.813 178.368,552.396 179.213,554.072C 180.058,555.747 180.48,557.874 180.48,560.454C 180.48,564.579 177.773,568.742 172.358,572.942C 166.943,577.142 160.96,579.242 154.41,579.242 Z M 170.498,552.97C 170.073,553.204 169.49,553.322 168.75,553.322C 168.56,553.322 168.198,553.159 167.663,552.834C 167.113,552.52 166.75,552.362 166.575,552.362C 164.955,552.362 163.623,552.646 162.578,553.213C 161.533,553.78 160.164,554.867 158.471,556.472C 156.779,558.077 155.304,559.938 154.047,562.056C 152.789,564.173 152.16,566.374 152.16,568.659C 152.16,569.579 152.274,570.444 152.501,571.254C 152.729,572.064 152.993,572.589 153.293,572.829C 153.593,573.069 154.108,573.318 154.838,573.576C 155.568,573.833 156.365,573.962 157.23,573.962C 158.945,573.962 161.231,573.176 164.089,571.604C 166.946,570.03 169.433,568.193 171.548,566.091C 173.663,563.988 174.72,562.299 174.72,561.024C 174.72,560.31 174.59,559.414 174.33,558.339C 174.07,557.265 173.834,556.56 173.622,556.225C 173.409,555.89 172.929,555.337 172.181,554.567C 171.434,553.797 170.873,553.265 170.498,552.97 Z "/>
		<path fill="#000000" fill-opacity="1" stroke-linejoin="round" d="M 189.45,579.242C 186.84,579.242 184.773,578.374 183.248,576.64C 181.723,574.904 180.96,572.692 180.96,570.002C 180.96,566.937 181.898,563.574 183.773,559.914C 185.648,556.254 188.435,553.201 192.135,550.753C 195.835,548.306 199.155,547.082 202.095,547.082C 204.295,547.082 206.66,547.828 209.19,549.32C 211.72,550.813 213.408,552.396 214.253,554.072C 215.098,555.747 215.52,557.874 215.52,560.454C 215.52,564.579 212.813,568.742 207.398,572.942C 201.983,577.142 196,579.242 189.45,579.242 Z M 205.538,552.97C 205.113,553.204 204.53,553.322 203.791,553.322C 203.6,553.322 203.238,553.159 202.703,552.834C 202.153,552.52 201.791,552.362 201.615,552.362C 199.995,552.362 198.663,552.646 197.618,553.213C 196.573,553.78 195.204,554.867 193.511,556.472C 191.819,558.077 190.344,559.938 189.087,562.056C 187.829,564.173 187.2,566.374 187.2,568.659C 187.2,569.579 187.314,570.444 187.542,571.254C 187.769,572.064 188.033,572.589 188.333,572.829C 188.633,573.069 189.148,573.318 189.878,573.576C 190.608,573.833 191.405,573.962 192.27,573.962C 193.985,573.962 196.271,573.176 199.129,571.604C 201.986,570.03 204.473,568.193 206.588,566.091C 208.703,563.988 209.76,562.299 209.76,561.024C 209.76,560.31 209.63,559.414 209.37,558.339C 209.11,557.265 208.874,556.56 208.662,556.225C 208.449,555.89 207.969,555.337 207.221,554.567C 206.474,553.797 205.913,553.265 205.538,552.97 Z "/>
		<path fill="#000000" fill-opacity="1" stroke-linejoin="round" d="M 261.12,557.454C 261.12,559.18 260.263,560.042 258.548,560.042C 258.073,560.042 257.495,559.944 256.815,559.749C 256.305,559.624 255.958,559.562 255.773,559.562C 255.633,559.562 255.355,559.602 254.94,559.682C 254.505,559.771 254.118,559.817 253.778,559.817L 249.563,559.39L 240.975,560.042C 239.045,560.187 238.08,559.43 238.08,557.77C 238.08,555.765 240.31,554.762 244.77,554.762L 247.688,554.949C 247.983,554.97 248.922,554.945 250.504,554.878C 252.086,554.811 253.488,554.612 254.708,554.282C 254.813,554.237 255.09,554.214 255.54,554.214L 256.695,554.214C 257.625,554.214 258.584,554.479 259.571,555.006C 260.559,555.533 261.075,556.342 261.12,557.432L 261.12,557.454 Z M 261.6,568.532C 261.6,569.157 261.391,569.738 260.974,570.275C 260.556,570.813 260.138,571.082 259.718,571.082C 259.178,571.082 258.395,571.047 257.37,570.977C 256.445,570.922 255.703,570.895 255.143,570.895L 241.14,571.082C 240.675,571.082 240.129,570.697 239.501,569.927C 238.874,569.157 238.56,568.504 238.56,567.97C 238.56,567.14 239.188,566.57 240.443,566.263C 241.698,565.956 242.75,565.802 243.6,565.802C 244.84,565.802 246.613,565.802 248.918,565.802C 249.288,565.817 250.51,565.725 252.585,565.524C 254.54,565.334 256.524,565.489 258.537,565.989C 260.549,566.489 261.57,567.329 261.6,568.51L 261.6,568.532 Z "/>
		<path fill="#000000" fill-opacity="1" stroke-linejoin="round" d="M 305.693,575.521L 305.76,576.437C 305.855,577.667 304.465,578.282 301.59,578.282C 301.03,578.282 300.488,577.907 299.963,577.157C 299.863,577.017 299.788,576.947 299.738,576.947C 299.448,576.947 298.235,577.299 296.1,578.004C 295.655,578.159 295.325,578.252 295.11,578.282C 293.345,578.922 292.018,579.242 291.128,579.242C 290.193,579.242 289.438,578.968 288.863,578.421C 288.288,577.873 288,577.319 288,576.76C 288,575.989 288.444,575.362 289.332,574.877C 290.219,574.392 291.84,573.939 294.195,573.52C 296.676,572.984 298.291,572.549 299.041,572.214C 299.13,571.414 299.203,570.607 299.258,569.792C 299.433,567.152 300.36,561.767 302.041,553.637C 301.91,553.667 300.551,554.372 297.96,555.752C 295.61,557.012 293.43,557.642 291.42,557.642C 290.1,557.642 289.44,557.095 289.44,555.999C 289.44,555.314 289.662,554.788 290.104,554.421C 290.547,554.053 291.371,553.627 292.575,553.142C 294.02,552.607 295.858,551.749 298.088,550.569L 301.68,548.642C 303.88,547.282 305.293,546.602 305.918,546.602C 306.803,546.602 307.478,547.017 307.943,547.847C 308.408,548.677 308.64,549.396 308.64,550.007C 308.64,550.507 308.36,551.015 307.801,551.529C 306.57,556.27 305.763,560.052 305.378,562.877C 304.993,565.702 304.801,568.477 304.801,571.202C 305.64,571.097 307.621,570.652 310.74,569.867C 312.605,569.396 314.518,569.162 316.478,569.162C 317.013,570.232 317.28,570.952 317.28,571.322C 317.28,571.857 317.16,572.277 316.92,572.582C 316.68,572.887 316.094,573.197 315.162,573.512C 314.229,573.827 312.658,574.137 310.448,574.442C 308.133,574.812 306.548,575.172 305.693,575.521 Z "/>
		<path fill="#000000" fill-opacity="1" stroke-linejoin="round" d="M 346.373,567.602C 348.963,562.822 351.199,559.567 353.082,557.837C 354.964,556.107 356.868,555.242 358.793,555.242C 360.118,555.242 361.223,555.693 362.108,556.596C 362.993,557.498 363.638,559.845 364.043,563.635C 364.213,565.439 364.43,566.896 364.695,568.007C 364.96,569.117 365.258,570.1 365.588,570.954C 365.918,571.81 366.388,572.614 366.998,573.369C 367.463,573.97 367.695,574.547 367.695,575.102C 367.695,575.657 367.427,576.166 366.889,576.628C 366.352,577.091 365.73,577.322 365.025,577.322C 363.635,577.322 362.402,576.579 361.324,575.095C 360.247,573.609 359.605,571.56 359.4,568.944C 359.15,565.744 358.88,563.701 358.59,562.813C 358.3,561.926 357.82,561.482 357.15,561.482C 356.245,561.482 354.484,563.265 351.867,566.829C 349.249,570.395 347.363,573.247 346.208,575.387C 345.488,577.002 344.933,578.048 344.543,578.525C 344.153,579.003 343.668,579.242 343.088,579.242C 342.133,579.242 341.359,579.008 340.767,578.541C 340.174,578.073 339.878,577.412 339.878,576.557C 339.878,576.132 340.088,574.814 340.508,572.604C 342.103,564.234 343.408,555.329 344.423,545.89C 344.673,543.614 345.154,542.044 345.867,541.18C 346.579,540.314 347.23,539.882 347.82,539.882C 348.65,539.882 349.37,540.202 349.98,540.842C 350.59,541.482 350.895,542.369 350.895,543.504C 350.895,545.249 350.684,547.26 350.262,549.534C 349.839,551.81 349.05,555.439 347.895,560.424C 347.19,563.435 346.683,565.827 346.373,567.602 Z "/>
		<path fill="#000000" fill-opacity="1" stroke-linejoin="round" d="M 376.665,567.302L 377.07,566.552C 378.96,562.771 380.995,559.702 383.175,557.342C 385.355,554.982 387.483,553.802 389.558,553.802C 391.153,553.802 392.454,554.24 393.462,555.118C 394.469,555.996 394.973,557.039 394.973,558.249C 394.973,559.004 394.802,559.652 394.459,560.192C 394.117,560.732 393.64,561.002 393.03,561.002C 392.06,561.002 391.178,560.614 390.383,559.839C 389.818,559.334 389.37,559.082 389.04,559.082C 387.87,559.082 385.91,560.888 383.16,564.501C 380.41,568.113 378.755,572.177 378.195,576.692C 378.021,577.992 377.637,578.902 377.044,579.422C 376.452,579.942 375.648,580.202 374.633,580.202C 373.553,580.202 372.787,579.586 372.334,578.354C 371.882,577.121 371.655,575.109 371.655,572.319C 371.655,571.174 371.685,569.629 371.745,567.685C 371.81,565.85 371.99,563.607 372.285,560.957C 372.365,560.267 372.42,559.725 372.45,559.329C 372.59,557.794 372.75,556.74 372.93,556.168C 373.11,555.596 373.528,555.058 374.183,554.556C 374.838,554.053 375.565,553.802 376.365,553.802C 377.21,553.802 377.852,554.047 378.289,554.537C 378.727,555.027 378.945,555.564 378.945,556.149C 378.945,556.89 378.593,558.427 377.888,560.762C 377.638,561.567 377.428,562.532 377.258,563.657L 376.665,567.302 Z "/>
	</g>
</svg>
