<?xml version="1.0" encoding="utf-8"?>
<!DOCTYPE svg PUBLIC "-//W3C//DTD SVG 1.1//EN" "http://www.w3.org/Graphics/SVG/1.1/DTD/svg11.dtd">
<svg xmlns="http://www.w3.org/2000/svg" xmlns:xlink="http://www.w3.org/1999/xlink" version="1.1" baseProfile="full" width="625" height="539.658" viewBox="0 0 625.00 539.66" enable-background="new 0 0 625.00 539.66" xml:space="preserve">
	<path fill="#EEEEEE" fill-opacity="1" stroke-width="0.2" stroke-linejoin="round" d="M 312.5,402.805C 485.087,402.805 625,433.44 625,471.231C 625,509.022 485.089,539.658 312.5,539.658C 139.911,539.658 -0.000169481,509.022 -0.000169481,471.231C -0.000169481,433.44 139.913,402.805 312.5,402.805 Z "/>
	<rect x="380.366" y="339.037" fill="#4C4C4C" fill-opacity="1" stroke-linejoin="round" stroke="#000000" stroke-opacity="1" width="6" height="111.765"/>
	<rect x="531.866" y="376.538" fill="#4C4C4C" fill-opacity="1" stroke-linejoin="round" stroke="#000000" stroke-opacity="1" width="6" height="102.216"/>
	<rect x="356.916" y="392.145" fill="#4C4C4C" fill-opacity="1" stroke-linejoin="round" stroke="#000000" stroke-opacity="1" width="6" height="125.658"/>
	<rect x="230.366" y="355.969" fill="#4C4C4C" fill-opacity="1" stroke-linejoin="round" stroke="#000000" stroke-opacity="1" width="6" height="94.7841"/>
	<linearGradient id="SVGID_Fill1_" gradientUnits="objectBoundingBox" x1="0.0219538" y1="0.443381" x2="1.00141" y2="0.443381">
		<stop offset="0" stop-color="#CCCCCC" stop-opacity="1"/>
		<stop offset="1" stop-color="#F6F6F6" stop-opacity="1"/>
	</linearGradient>
	<path fill="url(#SVGID_Fill1_)" stroke-linejoin="round" stroke="#1A1A1A" stroke-opacity="1" d="M 206.338,353.469L 355.671,419.303L 560.616,378.646L 371.671,323.803L 206.338,353.469 Z "/>
	<path fill="#222222" fill-opacity="1" stroke-width="0.2" stroke-linejoin="round" d="M 179.904,469.817L 179.904,469.817C 179.904,461.905 184.658,455.491 190.522,455.491L 214.155,455.491C 220.019,455.491 224.773,461.905 224.773,469.817L 224.773,469.817"/>
	<path fill="#333333" fill-opacity="1" stroke-width="0.2" stroke-linejoin="round" d="M 176.843,475.554L 176.843,475.554C 176.843,467.642 181.747,461.228 187.797,461.228L 212.18,461.228C 218.23,461.228 223.135,467.642 223.135,475.554L 223.135,475.554"/>
	<path fill="#FFFFFF" fill-opacity="1" stroke-width="0.2" stroke-linejoin="round" d="M 344.753,294.632L 317.655,291.21C 317.655,291.21 315.089,312.991 324.009,319.505C 332.929,326.02 344.411,299.091 344.753,294.632 Z "/>
	<path fill="#333333" fill-opacity="1" stroke-width="0.2" stroke-linejoin="round" d="M 162.823,355.974C 162.823,355.974 173.823,392.974 176.823,398.974C 179.823,404.974 177.823,468.974 177.823,468.974L 209.823,465.974L 206.823,394.974L 221.823,359.974L 162.823,355.974 Z "/>
	<path fill="#A09C9B" fill-opacity="1" stroke-linejoin="round" stroke="#032540" stroke-opacity="1" d="M 338.275,303.777L 343.991,300.361L 333.647,293.944L 329.564,299.361L 338.184,303.361"/>
	<path fill="#FFAC58" fill-opacity="1" stroke-linejoin="round" stroke="#000000" stroke-opacity="1" d="M 283.379,303.861L 287.099,306.861C 287.099,306.861 287.553,310.194 286.918,310.361C 286.283,310.528 278.025,310.694 277.753,311.111C 277.481,311.528 269.95,318.694 269.95,318.694C 269.95,318.694 262.6,317.194 263.054,316.944C 263.508,316.694 273.761,306.278 273.761,306.278C 273.761,306.278 282.562,302.527 283.288,303.278"/>
	<path fill="#A09C9B" fill-opacity="1" stroke-linejoin="round" stroke="#032540" stroke-opacity="1" d="M 294.54,302.194L 306.97,301.777L 306.335,304.361L 294.177,304.361L 294.54,302.194 Z "/>
	<path fill="#2E6D96" fill-opacity="1" stroke-linejoin="round" stroke="#032540" stroke-opacity="1" d="M 294.721,299.694C 296.808,299.861 297.08,300.111 296.989,302.277C 296.899,304.444 291.817,306.778 291.817,306.778L 274.033,306.778L 271.855,302.028L 294.721,299.694 Z "/>
	<path fill="#FFAC58" fill-opacity="1" stroke-linejoin="round" stroke="#000000" stroke-opacity="1" d="M 266.048,304.944C 266.048,304.944 265.141,301.444 266.865,301.611C 268.589,301.778 269.496,304.778 272.944,304.944C 276.392,305.111 278.57,303.694 277.935,301.444C 277.3,299.194 273.489,297.194 270.676,297.028C 267.863,296.861 261.965,299.111 261.874,300.194C 261.784,301.278 262.328,306.528 262.328,306.528L 266.139,306.361L 266.048,304.944 Z "/>
	<path fill="none" stroke-linejoin="round" stroke="#000000" stroke-opacity="1" d="M 331.47,292.944L 340.452,281.194C 340.452,281.194 341.269,277.611 339.727,277.528C 338.184,277.444 347.076,280.111 347.53,280.194C 347.984,280.278 345.08,272.111 345.08,272.111L 349.526,268.944C 349.526,268.944 347.167,265.861 346.26,264.944"/>
	<path fill="#A09C9B" fill-opacity="1" stroke-linejoin="round" stroke="#032540" stroke-opacity="1" d="M 330.925,298.278L 310.419,327.861L 297.352,317.861L 309.148,289.278L 330.925,298.278 Z "/>
	<path fill="#0DC8FB" fill-opacity="1" stroke-linejoin="round" stroke="#032540" stroke-opacity="1" d="M 326.025,300.527L 321.216,305.611L 308.513,299.528L 310.963,294.194L 326.025,300.527 Z "/>
	<path fill="#A09C9B" fill-opacity="1" stroke-linejoin="round" stroke="#032540" stroke-opacity="1" d="M 330.29,298.277L 343.356,306.944L 336.188,318.194L 329.292,317.194L 315.137,329.611L 310.691,327.944L 330.29,298.277 Z "/>
	<path fill="#E22A36" fill-opacity="1" stroke-linejoin="round" stroke="#032540" stroke-opacity="1" d="M 308.967,308.444C 306.561,308.444 304.611,310.235 304.611,312.444C 304.611,314.654 306.561,316.444 308.967,316.444C 311.372,316.444 313.322,314.654 313.322,312.444C 313.322,310.235 311.372,308.444 308.967,308.444 Z "/>
	<path fill="#000000" fill-opacity="1" stroke-linejoin="round" d="M 345.262,263.028C 343.958,263.028 342.902,263.587 342.902,264.278C 342.902,264.968 343.959,265.528 345.262,265.528C 346.564,265.528 347.621,264.968 347.621,264.278C 347.621,263.587 346.565,263.028 345.262,263.028 Z "/>
	<path fill="#A09C9B" fill-opacity="1" stroke-linejoin="round" stroke="#032540" stroke-opacity="1" d="M 318.222,292.361C 318.313,291.944 319.946,286.611 319.946,286.611L 333.466,293.778L 330.653,298.278L 318.222,292.361 Z "/>
	<path fill="none" stroke-linejoin="round" stroke="#000000" stroke-opacity="1" d="M 341.723,308.944C 341.723,308.944 348.299,313.359 350.842,315.695C 351.558,316.352 351.954,316.844 351.795,317.027C 351.069,317.861 349.435,321.027 347.711,320.278C 345.987,319.528 343.537,317.527 344.626,317.111C 345.715,316.695 358.328,316.694 358.691,316.694C 359.053,316.694 365.224,320.194 362.592,321.111C 359.961,322.028 355.243,322.944 355.243,322.944C 355.243,322.944 358.055,324.527 359.416,324.778C 360.777,325.028 362.229,326.277 362.139,326.611C 362.048,326.944 357.42,327.944 356.876,328.444C 356.331,328.944 355.878,330.777 355.878,331.611"/>
	<path fill="none" stroke-linejoin="round" stroke="#000000" stroke-opacity="1" d="M 342.176,309.694C 342.176,309.694 349.526,304.527 353.7,304.777C 357.874,305.028 360.142,306.194 359.235,308.278C 358.328,310.361 356.059,312.777 355.333,311.944C 354.607,311.111 355.061,307.111 355.787,306.278C 356.513,305.444 361.14,303.527 362.139,303.611C 363.137,303.694 367.492,306.444 368.399,308.694C 369.307,310.944 365.133,312.444 363.227,313.028C 361.322,313.611 358.872,311.694 362.411,310.694C 365.949,309.694 370.123,310.444 370.033,313.361C 369.942,316.278 367.492,316.944 366.675,317.111C 365.859,317.278 377.201,316.777 375.749,323.944"/>
	<path fill="#FFAC58" fill-opacity="1" stroke-linejoin="round" stroke="#000000" stroke-opacity="1" d="M 271.129,311.944C 271.129,311.944 275.394,310.361 272.672,308.444C 269.95,306.528 261.239,303.028 259.969,304.278C 258.699,305.528 255.432,309.861 255.432,309.861L 271.129,311.944 Z "/>
	<path fill="#FFAC58" fill-opacity="1" stroke-linejoin="round" stroke="#000000" stroke-opacity="1" d="M 249.08,317.194L 258.154,316.194L 259.606,319.194C 259.606,319.194 250.532,310.528 254.162,308.528C 257.791,306.528 273.035,308.194 272.309,310.861C 271.583,313.528 270.857,316.861 266.502,315.528C 262.146,314.194 261.784,310.194 261.784,310.194C 261.784,310.194 258.88,315.194 262.146,315.528C 265.413,315.861 276.664,318.861 274.124,322.528C 271.583,326.194 277.027,326.861 270.857,327.528C 264.687,328.194 261.421,319.861 259.243,320.861C 257.065,321.861 244.725,322.861 244.725,322.861L 243.999,316.528L 249.08,317.194 Z "/>
	<path fill="#2B682B" fill-opacity="1" stroke-width="0.2" stroke-linejoin="round" d="M 171.453,314.626L 206.95,328.096L 250.166,329.762L 248.717,310.762L 209.606,312.096L 175.074,300.626L 171.453,314.626 Z "/>
	<path fill="#439243" fill-opacity="1" stroke-width="0.2" stroke-linejoin="round" d="M 160.823,302.974L 162.823,357.974L 221.823,361.974L 223.823,295.974"/>
	<path fill="#FFAC58" fill-opacity="1" stroke-linejoin="round" stroke="#032540" stroke-opacity="1" d="M 289.82,329.861C 290.436,329.528 300.595,328.861 300.595,328.861L 294.592,320.361C 294.592,320.361 301.519,315.361 304.136,316.028C 306.753,316.695 310.139,319.195 308.754,321.195C 307.368,323.195 308.292,326.861 305.983,325.528C 303.674,324.195 301.519,324.028 301.519,324.028L 317.682,337.028C 317.682,337.028 312.91,333.361 314.911,330.695C 316.912,328.028 318.605,327.695 319.683,327.695C 320.761,327.695 321.53,323.195 323.224,323.028C 324.917,322.861 334.615,323.195 336,324.695C 337.385,326.195 342.003,327.195 340.156,330.528C 338.309,333.861 336.462,335.695 335.076,334.195C 333.691,332.695 329.227,329.695 329.227,329.695C 329.227,329.695 331.998,333.195 329.535,334.361C 327.072,335.528 320.607,331.361 320.607,331.361C 320.607,331.361 328.303,336.528 325.686,338.861C 323.07,341.195 320.299,341.695 317.528,340.528C 314.757,339.361 307.984,334.195 307.368,334.695C 306.753,335.195 291.051,335.195 291.051,335.195L 289.666,329.028"/>
	<path fill="#347A34" fill-opacity="1" stroke-width="0.2" stroke-linejoin="round" d="M 187.99,328.558L 235.534,342.028L 293.416,343.694L 291.476,324.694L 239.091,326.028L 192.84,314.558L 187.99,328.558 Z "/>
	<path fill="#FFAC58" fill-opacity="1" stroke-linejoin="round" stroke="#000000" stroke-opacity="1" d="M 187.316,142.738C 232.811,142.738 269.694,179.621 269.694,225.116C 269.694,270.611 232.812,307.493 187.316,307.493C 141.821,307.493 104.939,270.611 104.939,225.116C 104.939,179.621 141.822,142.738 187.316,142.738 Z "/>
	<path fill="#FFFFFF" fill-opacity="1" stroke-width="0.2" stroke-linejoin="round" d="M 244.254,209.434C 251.879,209.434 258.059,215.614 258.059,223.238C 258.059,230.862 251.878,237.042 244.254,237.042C 236.631,237.042 230.45,230.862 230.45,223.238C 230.45,215.614 236.63,209.434 244.254,209.434 Z "/>
	<path fill="#D57533" fill-opacity="1" stroke-width="0.2" stroke-linejoin="round" d="M 229.03,221.271C 229.03,221.27 243.47,213.117 258.473,219.31C 259.979,213.043 251.779,201.825 242.507,203.67C 233.236,205.516 228.507,212.883 229.03,221.271 Z "/>
	<path fill="#000000" fill-opacity="1" stroke-width="0.2" stroke-linejoin="round" d="M 252.685,226.682C 254.176,226.682 255.386,227.891 255.386,229.382C 255.386,230.874 254.177,232.083 252.685,232.083C 251.193,232.083 249.984,230.874 249.984,229.382C 249.984,227.891 251.194,226.682 252.685,226.682 Z "/>
	<path fill="#202020" fill-opacity="1" stroke-width="0.2" stroke-linejoin="round" d="M 222.923,197.599L 224.661,203.187C 224.661,203.186 232.936,197.977 240.136,196.057C 246.63,194.328 256.634,196.858 256.634,196.858L 255.894,188.917C 255.894,188.917 244.769,187.506 237.328,189.348C 229.887,191.19 222.869,197.929 222.923,197.599 Z "/>
	<path fill="#202020" fill-opacity="1" stroke-width="0.2" stroke-linejoin="round" d="M 111.299,263.571C 112.558,265.55 141.832,253.766 145.86,249.17C 149.888,244.575 175.801,190.903 177.753,194.239C 179.705,197.575 243.065,186.474 242.781,182.163C 242.497,177.851 254.467,162.339 254.467,162.339C 254.467,162.339 194.54,104.383 139.136,152.252C 85.1225,198.92 99.3821,223.982 111.299,263.571 Z "/>
	<path fill="#000000" fill-opacity="1" stroke-width="0.2" stroke-linejoin="round" d="M 254.437,276.699C 254.62,276.363 216.548,271.069 216.729,262.425C 216.729,262.425 241.687,272.79 254.437,276.699 Z "/>
	<path fill="#DC8C6B" fill-opacity="1" stroke-linejoin="round" stroke="#000000" stroke-opacity="1" d="M 244.411,273.232C 244.411,273.232 245.337,267.364 246.262,261.897C 247.188,256.43 241.944,251.629 236.854,252.429C 231.764,253.229 231.455,258.163 232.227,260.83C 232.998,263.497 232.227,269.365 232.227,269.365L 244.411,273.232 Z "/>
	<path fill="#DC8C6B" fill-opacity="1" stroke-linejoin="round" stroke="#000000" stroke-opacity="1" d="M 239.191,263.275C 239.191,263.275 237.957,270.076 237.494,270.609"/>
	<path fill="#FFAC58" fill-opacity="1" stroke-linejoin="round" stroke="#000000" stroke-opacity="1" d="M 174.645,217.819C 174.645,217.819 166.69,194.458 156.123,198.638C 145.556,202.819 143.982,218.352 148.464,221.55C 152.945,224.748 170.281,232.801 173.618,231.481"/>
	<path fill="#FFAC58" fill-opacity="1" stroke-linejoin="round" stroke="#000000" stroke-opacity="1" d="M 262.648,237.377C 262.648,237.377 267.035,237.51 270.647,236.137C 281.503,232.008 285.323,251.811 276.96,252.094C 268.596,252.376 258.616,246.936 261.355,246.194"/>
	<path fill="#8A898F" fill-opacity="1" stroke-linejoin="round" stroke="#000000" stroke-opacity="1" d="M 348.241,351.854C 348.567,351.451 364.411,348.009 367.574,349.187C 376.074,352.354 375.074,366.187 373.407,368.021C 371.74,369.854 347.907,373.854 345.574,373.354C 343.241,372.854 335.74,354.187 348.241,351.854 Z "/>
	<path fill="#A2A2A4" fill-opacity="1" stroke-linejoin="round" stroke="#000000" stroke-opacity="1" d="M 348.074,353.104C 338.907,351.187 340.074,369.687 345.407,372.687C 351.089,375.883 356.074,355.604 348.074,353.104 Z "/>
	<path fill="#CBA799" fill-opacity="1" stroke-linejoin="round" stroke="#000000" stroke-opacity="1" d="M 360.407,365.187L 375.907,388.52C 375.907,388.521 386.407,392.187 383.574,385.354C 380.74,378.521 364.574,362.187 364.574,362.187C 364.574,362.187 360.74,361.521 360.407,365.187 Z "/>
	<path fill="#988274" fill-opacity="1" stroke-linejoin="round" stroke="#000000" stroke-opacity="1" d="M 375.907,387.937C 375.907,387.937 375.741,383.104 381.407,383.854C 383.993,384.196 384.072,386.392 383.74,387.354C 382.907,389.77 379.574,390.27 377.574,388.937C 375.574,387.604 374.991,388.104 375.907,387.937 Z "/>
	<path fill="#000000" fill-opacity="1" stroke-width="1.33333" stroke-linejoin="round" d="M 162.374,91.629C 161.117,91.6085 160.071,90.6128 160.012,89.3397C 159.628,81.4688 156.822,79.2197 153.272,76.3715C 148.628,72.6494 143.361,68.4331 142.614,53.1737C 142.227,45.3632 145.189,37.7775 150.954,31.8239C 157.749,24.7979 167.46,20.8658 177.603,21.0313C 187.798,21.1974 197.417,25.4747 203.991,32.7665C 209.524,38.9043 212.198,46.5566 211.524,54.3121C 210.232,69.0918 205.004,73.1171 200.399,76.6654C 197.769,78.6879 195.5,80.4376 194.087,84.3066C 193.625,85.5563 192.236,86.2012 190.997,85.7418C 189.747,85.2823 189.104,83.899 189.559,82.6519C 191.458,77.4708 194.645,75.0157 197.46,72.8485C 201.651,69.6193 205.613,66.5673 206.723,53.8901C 207.284,47.4852 205.042,41.1274 200.415,35.993C 194.812,29.7836 186.254,25.9904 177.524,25.848C 168.839,25.7064 160.199,29.1918 154.416,35.1727C 149.587,40.1605 147.102,46.4713 147.426,52.9359C 148.068,66.0306 152.059,69.2299 156.287,72.6136C 160.245,75.785 164.333,79.0663 164.824,89.1044C 164.887,90.433 163.865,91.563 162.374,91.629 Z "/>
	<path fill="#000000" fill-opacity="1" stroke-width="1.33333" stroke-linejoin="round" d="M 162.49,114.73C 161.421,114.713 160.462,113.982 160.191,112.894C 159.876,111.601 160.665,110.299 161.957,109.981L 190.969,102.876C 192.264,102.563 193.566,103.353 193.884,104.642C 194.199,105.938 193.405,107.239 192.115,107.557L 163.106,114.66C 162.901,114.712 162.69,114.734 162.49,114.73 Z "/>
	<path fill="#000000" fill-opacity="1" stroke-width="1.33333" stroke-linejoin="round" d="M 162.667,103.843C 161.598,103.825 160.639,103.094 160.371,102.006C 160.053,100.716 160.842,99.4115 162.135,99.0938L 191.147,91.9882C 192.442,91.6708 193.744,92.462 194.059,93.7545C 194.377,95.0472 193.582,96.3517 192.292,96.6669L 163.283,103.772C 163.079,103.824 162.868,103.846 162.667,103.843 Z "/>
	<path fill="#000000" fill-opacity="1" stroke-width="1.33333" stroke-linejoin="round" d="M 162.845,92.9551C 161.776,92.9376 160.817,92.2069 160.548,91.121C 160.231,89.8285 161.02,88.5239 162.312,88.2086L 191.324,81.1007C 192.619,80.7856 193.921,81.5747 194.236,82.8672C 194.554,84.1597 193.76,85.4642 192.47,85.7794L 163.461,92.8849C 163.256,92.9366 163.045,92.9584 162.845,92.9551 Z "/>
	<path fill="#000000" fill-opacity="1" stroke-width="1.33333" stroke-linejoin="round" d="M 175.988,120.404C 171.773,120.336 167.878,118.415 165.557,115.266C 164.769,114.194 164.997,112.687 166.066,111.899C 167.146,111.111 168.648,111.341 169.436,112.41C 170.869,114.356 173.35,115.543 176.067,115.587C 180.424,115.658 184.015,112.773 184.074,109.156C 184.095,107.826 185.192,106.763 186.524,106.784C 187.859,106.806 188.912,107.905 188.89,109.234C 188.788,115.509 183.002,120.519 175.988,120.404 Z "/>
	<path fill="#000000" fill-opacity="1" stroke-width="1.33333" stroke-linejoin="round" d="M 178.695,14.5233C 177.365,14.5015 176.306,13.4053 176.328,12.0757L 176.486,2.36926C 176.508,1.03955 177.602,-0.0216064 178.932,0C 180.264,0.0218506 181.325,1.11804 181.303,2.44775L 181.145,12.1543C 181.123,13.4838 180.027,14.5449 178.695,14.5233 Z "/>
	<path fill="#000000" fill-opacity="1" stroke-width="1.33333" stroke-linejoin="round" d="M 206.89,25.5621C 206.273,25.5522 205.665,25.3063 205.201,24.8296C 204.276,23.8734 204.3,22.3481 205.257,21.4227L 212.23,14.673C 213.186,13.7476 214.709,13.7725 215.634,14.7285C 216.56,15.6846 216.535,17.2074 215.579,18.1328L 208.603,24.8849C 208.123,25.3466 207.507,25.5723 206.89,25.5621 Z "/>
	<path fill="#000000" fill-opacity="1" stroke-width="1.33333" stroke-linejoin="round" d="M 229.254,56.8756L 219.552,56.7174C 218.22,56.6958 217.164,55.5995 217.186,54.2697C 217.207,52.9403 218.299,51.8789 219.631,51.9008L 229.332,52.059C 230.662,52.0806 231.723,53.1769 231.701,54.5063C 231.68,55.8361 230.584,56.8973 229.254,56.8756 Z "/>
	<path fill="#000000" fill-opacity="1" stroke-width="1.33333" stroke-linejoin="round" d="M 211.256,92.817C 210.642,92.807 210.028,92.5612 209.564,92.0844L 202.815,85.1108C 201.889,84.1548 201.914,82.6271 202.87,81.7017C 203.826,80.7762 205.349,80.8009 206.275,81.7572L 213.027,88.7329C 213.952,89.689 213.927,91.2144 212.971,92.1398C 212.492,92.6014 211.871,92.8271 211.256,92.817 Z "/>
	<path fill="#000000" fill-opacity="1" stroke-width="1.33333" stroke-linejoin="round" d="M 149.576,24.6254C 148.964,24.6152 148.351,24.3695 147.887,23.8926L 141.135,16.9191C 140.209,15.9655 140.234,14.4401 141.19,13.5146C 142.146,12.5894 143.669,12.6141 144.594,13.5702L 151.349,20.5411C 152.275,21.4972 152.25,23.0226 151.294,23.9481C 150.814,24.4097 150.193,24.6354 149.576,24.6254 Z "/>
	<path fill="#000000" fill-opacity="1" stroke-width="1.33333" stroke-linejoin="round" d="M 134.541,53.3502L 124.837,53.192C 123.505,53.1703 122.444,52.0739 122.466,50.7441C 122.488,49.4121 123.584,48.3534 124.916,48.375L 134.62,48.5332C 135.952,48.5551 137.013,49.6489 136.992,50.9811C 136.97,52.3107 135.873,53.3719 134.541,53.3502 Z "/>
	<path fill="#000000" fill-opacity="1" stroke-width="1.33333" stroke-linejoin="round" d="M 140.222,91.661C 139.605,91.6509 138.992,91.4052 138.527,90.9282C 137.602,89.9722 137.627,88.4468 138.583,87.5215L 145.559,80.7694C 146.515,79.8439 148.038,79.8687 148.963,80.8248C 149.889,81.7809 149.864,83.3063 148.908,84.2318L 141.934,90.9838C 141.455,91.4453 140.834,91.671 140.222,91.661 Z "/>
	<path fill="#000000" fill-opacity="1" stroke-width="1.33333" stroke-linejoin="round" d="M 175.541,74.1724C 174.871,74.1615 174.239,73.8751 173.79,73.3759L 166.526,65.3026C 165.631,64.3168 165.717,62.7925 166.705,61.9003C 167.688,61.0153 169.212,61.0905 170.107,62.0811L 175.554,68.1349L 193.231,47.9312C 194.113,46.9292 195.631,46.8311 196.63,47.7054C 197.63,48.5801 197.733,50.1024 196.861,51.1019L 177.391,73.3492C 176.939,73.869 176.284,74.1669 175.541,74.1724 Z "/>
	<path fill="#8A898F" fill-opacity="1" stroke-linejoin="round" stroke="#000000" stroke-opacity="1" d="M 315.754,362.625L 323.254,363.125C 323.254,363.125 324.421,359.791 323.421,359.458C 322.421,359.125 315.921,358.958 315.921,358.958L 315.754,362.625 Z "/>
	<path fill="#BEBEBE" fill-opacity="1" stroke-linejoin="round" stroke="#000000" stroke-opacity="1" d="M 315.921,357.625C 315.921,357.625 310.421,355.458 310.087,358.291C 309.754,361.125 309.754,364.458 311.921,364.458C 314.087,364.458 316.921,363.458 317.254,362.458C 317.587,361.458 315.921,357.791 315.921,357.625 Z "/>
</svg>
