<?xml version="1.0" encoding="utf-8"?>
<!DOCTYPE svg PUBLIC "-//W3C//DTD SVG 1.1//EN" "http://www.w3.org/Graphics/SVG/1.1/DTD/svg11.dtd">
<svg xmlns="http://www.w3.org/2000/svg" xmlns:xlink="http://www.w3.org/1999/xlink" version="1.1" baseProfile="full" width="852" height="651.793" viewBox="0 0 852.00 651.79" enable-background="new 0 0 852.00 651.79" xml:space="preserve">
	<path fill="#F0F0F0" fill-opacity="1" stroke-width="0.2" stroke-linejoin="round" d="M 396.818,564.794C 533.219,564.794 643.796,584.269 643.796,608.294C 643.796,632.318 533.22,651.793 396.818,651.793C 260.417,651.793 149.841,632.318 149.841,608.294C 149.841,584.269 260.418,564.794 396.818,564.794 Z "/>
	<path fill="#FFAC58" fill-opacity="1" stroke-linejoin="round" d="M 478.675,473.39L 477.351,478.132L 477.795,486.281L 474.14,490.752C 474.14,490.752 472.708,493.887 472.726,494.012C 472.744,494.137 472.596,499.315 472.552,499.448C 472.507,499.582 472.608,502.687 472.573,502.883C 472.537,503.079 473.026,506.018 473.16,506.285C 473.294,506.552 474.192,507.683 474.446,507.678C 474.7,507.674 476.846,508.062 476.846,508.062C 476.846,508.062 478.615,508.236 478.949,508.347C 479.283,508.458 480.633,508.162 480.597,507.912C 480.561,507.663 480.542,506.463 480.542,506.463L 479.974,504.801L 479.648,501.866L 480.96,499.223L 483.034,497.182L 486.883,496.768L 487.542,498.191L 487.656,499.662L 486.831,501.659L 485.603,502.699L 484.238,503.498L 485.507,502.593L 486.527,501.225L 487.33,499.77L 487.221,498.489L 486.831,497.361L 483.792,497.71L 483.141,498.577L 481.774,499.727L 480.361,501.732C 480.361,501.732 479.698,503.101 479.743,503.412C 479.787,503.724 479.855,504.861 479.887,505.079C 479.918,505.297 480.436,506.687 480.449,506.78C 480.463,506.874 481.215,507.944 481.215,507.944L 482.358,508.57C 482.358,508.57 484.661,509.527 485.986,509.101C 488.941,508.151 496.213,504.014 495.189,500.214C 494.166,496.414 490.785,480.248 490.785,480.248L 491.082,470.906L 478.675,473.39 Z "/>
	<path fill="#333333" fill-opacity="1" stroke-width="0.2" stroke-linejoin="round" d="M 410.556,599.461L 410.721,517.245L 375.832,517.245L 376.126,599.602L 358.993,598.617L 358.992,575.578L 358.992,517.216C 341.886,516.586 327.414,505.642 321.607,490.42L 467.215,490.42C 461.234,506.103 446.052,517.245 428.268,517.245L 427.571,517.245L 427.571,577.581L 427.572,598.69"/>
	<path fill="#439243" fill-opacity="1" stroke-width="0.2" stroke-linejoin="round" d="M 310.086,485.903C 310.128,503.872 297.411,476.006 286.995,482.257C 293.721,457.862 275.318,401.305 321.313,392.069C 326.013,397.636 331.066,402.35 336.394,406.303L 457.211,406.071C 463.625,402.111 468.502,397.711 470.802,393.111C 493.72,385.298 494.994,477.569 494.994,477.569C 494.994,477.569 490.241,477.612 481.343,475.485C 478.608,475.832 472.423,481.736 472.423,481.736L 470.195,411.794L 470.192,476.281C 470.192,481.203 469.494,485.941 468.201,490.386L 321.131,490.386C 319.838,485.941 319.14,481.203 319.14,476.281L 319.142,408.264L 310.086,485.903 Z "/>
	<path fill="#FFAC58" fill-opacity="1" stroke-width="0.2" stroke-linejoin="round" d="M 395.496,246.657C 448.138,246.657 490.816,289.335 490.816,341.977C 490.816,394.621 448.139,437.297 395.496,437.297C 342.852,437.297 300.176,394.621 300.176,341.977C 300.176,289.335 342.854,246.657 395.496,246.657 Z "/>
	<path fill="#202020" fill-opacity="1" stroke-width="0.2" stroke-linejoin="round" d="M 295.487,324.442L 343.071,287.379C 343.072,287.378 393.159,311.308 434.001,316.164C 474.843,321.022 492.374,319.763 492.374,319.763C 492.374,319.763 468.87,241.501 393.738,245.098C 318.605,248.696 304.735,313.104 295.487,324.442 Z "/>
	<path fill="#202020" fill-opacity="1" stroke-width="0.2" stroke-linejoin="round" d="M 335.449,340.106L 339.099,345.81C 339.098,345.808 346.738,337.462 354.184,333.116C 360.901,329.197 372.839,328.958 372.839,328.958L 369.581,320.324C 369.581,320.324 356.736,322.155 348.997,326.488C 341.258,330.822 335.49,340.491 335.449,340.106 Z "/>
	<path fill="#202020" fill-opacity="1" stroke-width="0.2" stroke-linejoin="round" d="M 424.468,320.719L 419.097,327.113C 419.098,327.112 433.745,335.157 435.932,337.634C 440.911,343.273 445.859,350.564 445.859,350.564L 453.162,344.216C 453.162,344.216 446.857,337.492 441.201,332.102C 435.545,326.713 424.469,320.719 424.468,320.719 Z "/>
	<path fill="#D57533" fill-opacity="1" stroke-width="0.2" stroke-linejoin="round" d="M 385.336,387.039C 385.336,387.039 392.107,394.332 396.622,394.505C 401.136,394.677 410.859,386.169 410.859,386.169C 410.859,386.169 402.872,389.643 397.143,389.815C 391.414,389.989 385.163,386.169 385.163,386.169"/>
	<path fill="#FFFFFF" fill-opacity="1" stroke-width="0.2" stroke-linejoin="round" d="M 362.852,345.278C 371.674,345.278 378.825,352.429 378.825,361.251C 378.825,370.073 371.673,377.225 362.852,377.225C 354.03,377.225 346.879,370.073 346.879,361.251C 346.879,352.429 354.03,345.278 362.852,345.278 Z "/>
	<path fill="#FFFFFF" fill-opacity="1" stroke-width="0.2" stroke-linejoin="round" d="M 423.879,346.497C 432.701,346.497 439.852,353.648 439.852,362.47C 439.852,371.292 432.701,378.443 423.879,378.443C 415.058,378.443 407.906,371.292 407.906,362.47C 407.906,353.648 415.057,346.497 423.879,346.497 Z "/>
	<path fill="#000000" fill-opacity="1" stroke-width="0.2" stroke-linejoin="round" d="M 362.393,356.363C 364.119,356.363 365.519,357.763 365.519,359.488C 365.519,361.214 364.119,362.613 362.393,362.613C 360.667,362.613 359.268,361.214 359.268,359.488C 359.268,357.763 360.668,356.363 362.393,356.363 Z "/>
	<path fill="#000000" fill-opacity="1" stroke-width="0.2" stroke-linejoin="round" d="M 424.632,358.457C 426.358,358.457 427.757,359.857 427.757,361.582C 427.757,363.307 426.358,364.707 424.632,364.707C 422.906,364.707 421.507,363.307 421.507,361.582C 421.507,359.857 422.907,358.457 424.632,358.457 Z "/>
	<path fill="#FFFFFF" fill-opacity="1" stroke-width="0.2" stroke-linejoin="round" d="M 363.308,414.695L 431.792,402.644L 431.961,403.604L 363.477,415.655L 363.308,414.695 Z "/>
	<path fill="#D57533" fill-opacity="1" stroke-width="0.2" stroke-linejoin="round" d="M 379.708,357.858C 379.708,357.858 361.477,351.868 345.851,362.286C 342.726,355.514 349.497,340.93 360.436,340.929C 371.374,340.929 378.406,348.221 379.708,357.858 Z "/>
	<path fill="#D57533" fill-opacity="1" stroke-width="0.2" stroke-linejoin="round" d="M 406.374,359.943C 406.374,359.942 424.605,353.952 440.231,364.37C 443.356,357.598 436.585,343.015 425.646,343.014C 414.708,343.014 407.676,350.306 406.374,359.943 Z "/>
	<path fill="#FFAC58" fill-opacity="1" stroke-linejoin="round" d="M 303.804,479.48L 305.789,483.986L 306.508,492.116L 310.762,496.021C 310.762,496.021 312.626,498.921 312.626,499.047C 312.626,499.173 313.508,504.277 313.571,504.403C 313.634,504.529 313.976,507.617 314.039,507.806C 314.102,507.995 314.036,510.973 313.942,511.257C 313.847,511.54 313.119,512.787 312.867,512.819C 312.615,512.85 310.547,513.54 310.547,513.54C 310.547,513.54 308.82,513.964 308.505,514.121C 308.19,514.279 306.812,514.178 306.812,513.925C 306.812,513.673 306.66,512.483 306.66,512.483L 306.986,510.758L 306.892,507.806L 305.217,505.376L 302.873,503.651L 299.004,503.789L 298.554,505.291L 298.952,506.929L 299.618,508.696L 301.115,509.477L 303.392,509.071L 301.359,508.94L 299.79,508.348L 299.166,506.903L 299.326,505.482L 299.928,504.356L 302.481,504.025L 303.52,504.686L 304.875,505.663L 306.167,507.774C 306.167,507.774 307.018,509.035 307.018,509.35C 307.018,509.665 307.112,510.799 307.112,511.019C 307.112,511.24 306.797,512.69 306.797,512.784C 306.797,512.878 306.797,514.265 306.797,514.265L 306.487,515.11C 306.487,515.11 304.91,516.676 303.524,516.802C 302.138,516.928 289.151,511.952 289.623,508.045C 290.096,504.138 292.792,487.992 292.792,487.992L 291.169,478.787L 303.804,479.48 Z "/>
	<path fill="#000000" fill-opacity="1" stroke-width="0.2" stroke-linejoin="round" d="M 291.161,516.966L 299.267,516.966L 299.267,504.046L 306.36,504.046L 306.36,516.966L 315.987,516.966L 315.987,588.404L 291.161,588.404L 291.161,516.966 Z "/>
	<path fill="#333333" fill-opacity="1" stroke-width="0.2" stroke-linejoin="round" d="M 336.9,609.287L 336.9,609.287C 336.9,601.375 341.653,594.961 347.517,594.961L 371.151,594.961C 377.015,594.961 381.768,601.375 381.768,609.287L 381.768,609.287"/>
	<path fill="#333333" fill-opacity="1" stroke-width="0.2" stroke-linejoin="round" d="M 404.838,610.024L 404.838,610.024C 404.838,602.112 409.742,595.698 415.792,595.698L 440.175,595.698C 446.225,595.698 451.13,602.112 451.13,610.024L 451.13,610.024"/>
	<path fill="#FFFFFF" fill-opacity="1" stroke-linejoin="round" stroke="#000000" stroke-opacity="1" d="M 372.503,183.856C 392.178,183.313 408.36,191.301 408.647,201.698C 408.934,212.096 393.217,220.964 373.542,221.507C 353.867,222.05 337.685,214.062 337.398,203.665C 337.111,193.268 352.828,184.399 372.503,183.856 Z "/>
	<path fill="#FFFFFF" fill-opacity="1" stroke-linejoin="round" stroke="#000000" stroke-opacity="1" d="M 406.5,4.52283C 468.595,4.52283 523.387,20.7682 555.989,45.5248C 569.598,19.3199 606.997,0.499878 651,0.499878C 706.504,0.499878 751.5,30.444 751.5,67.3812C 751.5,90.1573 734.392,110.274 708.262,122.351C 725.905,133.384 736.5,147.518 736.5,162.926C 736.5,170.055 734.232,176.912 730.047,183.314C 738.006,182.152 746.371,181.532 755,181.532C 808.295,181.532 851.5,205.172 851.5,234.333C 851.5,263.494 808.295,287.134 755,287.134C 701.704,287.134 658.5,263.494 658.5,234.333C 658.5,229.962 659.47,225.716 661.3,221.654C 646.323,224.96 629.826,226.79 612.5,226.79C 556.223,226.79 508.702,207.481 493.55,181.025C 467.722,188.4 438.054,192.595 406.5,192.595C 381.165,192.595 357.045,189.891 335.152,185.007C 314.937,209.643 269.861,226.79 217.5,226.79C 203.451,226.79 189.926,225.555 177.265,223.273C 183.808,230.21 187.5,238.072 187.5,246.402C 187.5,274.452 145.639,297.191 94,297.191C 42.3614,297.191 0.499977,274.452 0.499977,246.402C 0.499977,225.846 22.9808,208.142 55.3157,200.149C 32.9688,188.592 18.5001,170.128 18.5001,149.323C 18.5001,114.316 59.466,85.9371 110,85.9371C 126.195,85.9371 141.408,88.8519 154.604,93.9655C 173.211,88.2433 194.663,84.9816 217.5,84.9816C 220.803,84.9816 224.076,85.0497 227.317,85.1837C 239.815,39.5841 315.276,4.52283 406.5,4.52283 Z "/>
	<path fill="#FFFFFF" fill-opacity="1" stroke-linejoin="round" stroke="#000000" stroke-opacity="1" d="M 386.19,222.273C 395.995,220.919 404.553,224.232 405.305,229.673C 406.057,235.114 398.718,240.624 388.912,241.978C 379.107,243.333 370.549,240.02 369.797,234.579C 369.046,229.137 376.385,223.628 386.19,222.273 Z "/>
	<path fill="#000000" fill-opacity="1" stroke-width="1.92" stroke-linejoin="round" d="M 85.3792,153.411C 83.5104,153.411 82.3323,154.21 81.7897,155.846C 81.5425,156.59 81.4158,157.39 81.4158,158.229C 81.4158,159.917 81.9456,161.623 82.8718,162.907C 84.037,164.516 85.8147,165.458 88.0101,165.635C 88.6763,165.689 89.2419,166.144 89.4449,166.783C 92.8623,177.647 103.201,185.239 114.575,185.239L 116.111,185.239C 127.546,185.239 137.893,177.599 141.276,166.659C 141.474,166.02 142.038,165.564 142.704,165.507C 144.895,165.322 146.663,164.378 147.818,162.774C 148.741,161.495 149.271,159.795 149.271,158.109C 149.271,157.265 149.144,156.462 148.897,155.723C 148.351,154.083 147.176,153.287 145.304,153.287L 144.295,153.363C 143.835,153.433 143.369,153.305 143.01,153.009C 142.65,152.714 142.434,152.284 142.41,151.819C 141.771,138.746 131.492,128.025 118.485,126.853L 113.227,126.777C 99.8205,127.458 88.8648,138.498 88.2668,151.935C 88.2457,152.4 88.0328,152.834 87.6704,153.131C 87.3113,153.427 86.8449,153.557 86.3851,153.487L 85.3792,153.411 Z M 116.112,188.525L 114.576,188.525C 102.135,188.525 90.7975,180.456 86.6457,168.773C 83.9873,168.302 81.7268,166.927 80.2124,164.832C 78.8669,162.975 78.1274,160.629 78.1274,158.23C 78.1274,157.039 78.3111,155.887 78.6702,154.809C 79.6356,151.917 81.9706,150.222 85.1037,150.129C 85.7861,143.374 88.7599,137.059 93.5909,132.201C 98.812,126.945 105.746,123.855 113.115,123.494L 113.218,123.494L 113.827,123.503L 113.785,119.5L 113.759,118.151C 113.719,115.743 111.748,113.811 109.273,113.813C 107.508,113.84 106.096,115.304 106.124,117.069C 106.133,117.667 106.377,118.221 106.806,118.637C 107.235,119.048 107.805,119.287 108.397,119.264C 108.644,119.258 109.047,119.029 109.183,118.857C 108.78,118.076 109.057,117.095 109.83,116.659C 110.621,116.217 111.618,116.481 112.061,117.269C 112.637,118.288 112.637,119.446 112.064,120.446C 111.38,121.638 109.859,122.524 108.454,122.55C 106.99,122.579 105.581,122.025 104.525,121.002C 103.462,119.976 102.864,118.599 102.839,117.126C 102.779,113.549 105.638,110.587 109.216,110.525C 113.452,110.478 116.972,113.85 117.045,118.094L 117.071,119.44L 117.084,120.689C 119.223,118.193 122.668,115.63 127.138,117.162C 127.995,117.458 128.451,118.392 128.157,119.248C 127.861,120.111 126.929,120.566 126.071,120.274C 122.99,119.215 120.45,121.626 118.97,123.602C 132.957,124.947 144.105,136.126 145.568,150.006C 148.707,150.095 151.049,151.79 152.018,154.684C 152.377,155.758 152.557,156.911 152.557,158.11C 152.557,160.508 151.821,162.848 150.484,164.697C 148.981,166.784 146.733,168.159 144.086,168.64C 139.97,180.398 128.616,188.525 116.112,188.525 Z M 107.495,153.437C 107.495,155.554 105.777,157.272 103.658,157.272C 101.541,157.272 99.82,155.554 99.82,153.437C 99.82,151.316 101.541,149.597 103.658,149.597C 105.777,149.597 107.495,151.316 107.495,153.437 Z M 130.93,153.436C 130.93,155.554 129.212,157.271 127.09,157.271C 124.973,157.271 123.252,155.554 123.252,153.436C 123.252,151.316 124.973,149.597 127.09,149.597C 129.212,149.597 130.93,151.316 130.93,153.436 Z M 115.877,176.027C 109.949,176.027 105.044,172.709 104.225,168.14C 104.063,167.246 104.658,166.388 105.551,166.23C 106.444,166.068 107.298,166.664 107.456,167.555C 107.989,170.511 111.608,172.74 115.877,172.74C 120.149,172.74 123.766,170.511 124.301,167.555C 124.461,166.662 125.316,166.069 126.207,166.23C 127.099,166.388 127.692,167.246 127.534,168.14C 126.712,172.709 121.811,176.027 115.877,176.027 Z "/>
	<path fill="#000000" fill-opacity="1" stroke-width="1.92" stroke-linejoin="round" d="M 783.921,232.825C 784.492,232.825 784.951,233.289 784.951,233.857C 784.951,234.429 784.492,234.89 783.921,234.89C 783.351,234.89 782.891,234.429 782.891,233.857C 782.891,233.289 783.351,232.825 783.921,232.825 Z M 791.378,232.826C 791.948,232.826 792.408,233.29 792.408,233.858C 792.408,234.429 791.948,234.891 791.378,234.891C 790.807,234.891 790.348,234.429 790.348,233.858C 790.348,233.29 790.807,232.826 791.378,232.826 Z M 787.553,239.981C 784.289,239.999 782.27,240.508 781.214,241.591C 780.578,242.241 780.279,243.133 780.299,244.318C 780.328,245.912 783.129,247.516 784.981,248.578L 786.133,249.256C 786.801,249.67 787.291,250.172 787.649,250.699C 788.009,250.172 788.498,249.67 789.165,249.256L 790.318,248.578C 792.17,247.516 794.971,245.91 794.998,244.318C 795.02,243.131 794.72,242.241 794.083,241.588C 793.027,240.508 791.01,239.999 787.731,239.983L 787.553,239.981 Z M 785.129,250.877L 784.032,250.233C 781.672,248.881 778.442,247.029 778.393,244.353C 778.364,242.653 778.854,241.275 779.851,240.256C 781.308,238.767 783.685,238.094 787.56,238.078L 787.724,238.076C 791.614,238.094 793.991,238.767 795.449,240.256C 796.445,241.275 796.935,242.653 796.905,244.353C 796.858,247.029 793.626,248.881 791.266,250.233L 790.17,250.877C 789.25,251.448 788.849,252.297 788.687,253.056C 789.166,255.806 790.664,258.074 792.638,259.281C 792.73,259.317 792.814,259.367 792.889,259.427C 793.813,259.94 794.833,260.225 795.897,260.225C 802.646,260.225 803.376,251.653 803.376,247.964L 803.31,246.402C 802.843,240.68 799.415,228.053 796.833,223.855C 796.65,223.556 796.645,223.183 796.819,222.878C 797.685,221.374 798.996,220.512 800.416,220.512C 801.245,220.512 802.058,220.816 802.769,221.39C 805.17,223.325 805.429,225.941 805.677,228.471C 805.935,231.066 806.175,233.522 808.615,235.487C 809.326,236.06 809.611,236.087 809.662,236.087C 810.016,236.087 810.74,234.083 811.218,232.757L 811.417,232.207C 813.5,226.467 810.655,220.291 806.765,217.155C 805.469,216.11 803.931,215.558 802.32,215.558C 799.473,215.558 796.891,217.26 795.238,220.228C 795.106,220.464 794.883,220.631 794.621,220.694C 794.357,220.756 794.081,220.701 793.86,220.546C 792.607,219.674 791.019,219.365 787.796,219.365C 784.428,219.365 783.032,219.632 781.821,220.509L 781.629,220.656C 781.407,220.84 781.116,220.915 780.833,220.857C 780.552,220.798 780.309,220.618 780.176,220.365C 778.57,217.31 776.011,215.558 773.155,215.558C 771.284,215.558 769.455,216.32 768.008,217.702C 764.272,221.273 761.725,227.763 764.092,233.259L 764.157,233.409C 764.789,234.875 765.504,236.539 765.884,236.667C 765.908,236.667 766.201,236.643 767.024,235.858C 769.402,233.585 769.701,230.941 770.018,228.141C 770.32,225.493 770.631,222.752 772.881,220.604C 773.538,219.974 774.239,219.654 774.964,219.654C 776.408,219.654 777.667,220.881 778.707,223.297C 778.827,223.574 778.845,223.975 778.695,224.237C 776.27,228.429 772.601,241.213 772.035,246.393C 771.961,247.088 771.922,247.767 771.922,248.404C 771.922,251.958 772.651,260.225 779.398,260.225C 780.464,260.225 781.487,259.939 782.413,259.425C 782.486,259.366 782.568,259.318 782.656,259.283C 784.633,258.076 786.132,255.807 786.612,253.057C 786.449,252.297 786.049,251.449 785.129,250.877 Z M 795.897,262.133C 794.808,262.133 793.757,261.907 792.777,261.49C 791.929,262.612 790.002,263.358 787.649,263.358C 785.296,263.358 783.369,262.611 782.521,261.489C 781.541,261.907 780.488,262.133 779.398,262.133C 773.523,262.133 770.013,257 770.013,248.404C 770.013,247.698 770.057,246.951 770.14,246.185C 770.717,240.893 774.247,228.519 776.804,223.716C 776.049,222.119 775.375,221.563 774.964,221.563C 774.694,221.563 774.398,221.791 774.199,221.982C 772.447,223.653 772.2,225.833 771.914,228.357C 771.588,231.229 771.219,234.484 768.34,237.238C 767.359,238.174 766.623,238.573 765.88,238.573C 764.302,238.573 763.628,237.006 762.405,234.163L 762.341,234.013C 759.631,227.718 762.478,220.35 766.691,216.324C 768.495,214.601 770.789,213.651 773.155,213.651C 776.434,213.651 779.367,215.425 781.336,218.556C 782.946,217.639 784.858,217.457 787.796,217.457C 790.457,217.457 792.426,217.636 794.077,218.463C 796.087,215.391 799.047,213.651 802.32,213.651C 804.372,213.651 806.322,214.347 807.962,215.669C 812.379,219.231 815.599,226.276 813.209,232.858L 813.012,233.403C 811.979,236.266 811.355,237.996 809.662,237.996C 808.989,237.996 808.296,237.68 807.417,236.972C 804.357,234.504 804.051,231.396 803.781,228.658C 803.549,226.323 803.351,224.308 801.573,222.874C 800.637,222.119 799.56,222.351 798.766,223.387C 801.659,228.593 804.785,241.043 805.209,246.246L 805.283,247.964C 805.283,256.836 801.773,262.133 795.897,262.133 Z M 787.649,256.186C 786.86,257.985 785.662,259.488 784.211,260.533C 784.691,260.945 785.863,261.451 787.649,261.451C 789.435,261.451 790.607,260.945 791.087,260.533C 789.637,259.489 788.439,257.986 787.649,256.186 Z "/>
	<path fill="#000000" fill-opacity="1" stroke-width="1.33333" stroke-linejoin="round" d="M 69.7521,222.383C 69.5321,222.613 69.4109,222.914 69.4109,223.236L 69.3581,228.044L 79.8326,228.044C 80.4314,228.044 80.9176,228.529 80.9176,229.128L 80.9176,237.706C 80.9176,238.304 80.4314,238.789 79.8326,238.789L 69.24,238.789L 69.1958,242.821C 73.9649,243.596 78.4354,245.769 81.8686,248.997C 86.2348,253.101 88.6797,258.543 88.7523,264.322L 88.7473,264.723C 88.7328,266.308 88.5508,267.812 88.2064,269.286C 89.8009,269.62 91.4546,269.788 93.1645,269.788L 99.9732,269.788C 101.798,269.788 103.593,269.589 105.334,269.202C 105.004,267.758 104.829,266.271 104.815,264.774L 104.818,264.462C 104.868,258.585 107.308,253.121 111.686,249.007C 115.156,245.742 119.669,243.56 124.48,242.799L 124.601,238.492L 113.211,238.789L 113.183,238.789C 112.901,238.789 112.63,238.679 112.427,238.482C 112.22,238.278 112.099,237.997 112.099,237.706L 112.099,229.128C 112.099,228.529 112.585,228.044 113.183,228.044L 124.823,228.044L 124.692,223.789L 124.691,223.461L 124.621,223.303C 124.558,223.134 124.462,222.984 124.297,222.817C 124.069,222.608 123.776,222.495 123.459,222.492L 122.902,222.493L 70.7109,222.008C 70.3321,222.031 70.0171,222.121 69.7521,222.383 Z M 69.1685,245.318C 69.1685,251.871 71.7398,258.059 76.4072,262.726C 79.2923,265.612 82.5383,267.622 86.1092,268.74C 86.4093,267.439 86.5674,266.12 86.5837,264.812L 86.5887,264.235C 86.5212,259.166 84.3174,254.275 80.3838,250.578C 77.3414,247.717 73.3975,245.768 69.1718,245.018L 69.1685,245.318 Z M 117.385,262.551C 122.07,257.869 124.443,252.233 124.447,245.708L 124.45,245.005C 120.205,245.748 116.238,247.705 113.172,250.586C 109.229,254.293 107.033,259.202 106.985,264.409L 106.983,264.828C 106.995,266.077 107.147,267.366 107.428,268.63C 110.83,267.544 113.976,265.714 116.627,263.278L 117.385,262.551 Z M 99.9735,271.958L 93.1648,271.958C 90.8861,271.958 88.6995,271.686 86.6109,271.145L 86.6024,271.144C 85.2826,270.801 83.9991,270.35 82.7552,269.789C 80.4805,268.766 78.3425,267.382 76.3503,265.642L 74.8737,264.261L 74.8492,264.236C 69.7867,259.16 67,252.44 67,245.305L 67.016,243.836L 67.0179,243.663L 67.0837,237.635L 67.2412,223.225C 67.2437,222.326 67.5962,221.473 68.3275,220.751C 68.8612,220.212 69.675,219.867 70.5462,219.844L 70.6536,219.84L 122.918,220.323L 123.468,220.326C 124.377,220.328 125.228,220.683 125.928,221.39C 126.228,221.702 126.46,222.063 126.621,222.464L 126.716,222.634C 126.81,222.799 126.862,222.984 126.862,223.173L 126.862,223.728C 126.962,225.456 126.999,227.24 126.997,229.05L 127,229.129L 126.997,229.212C 126.99,231.957 126.897,234.757 126.806,237.502C 126.711,240.257 126.618,243.103 126.613,245.888C 126.59,252.882 124.001,259.004 118.917,264.086C 113.846,269.162 107.117,271.957 99.9735,271.958 Z M 114.269,230.215L 114.269,236.593L 124.673,236.321L 124.82,230.215L 114.269,230.215 Z M 78.7476,236.621L 78.7476,230.214L 69.3343,230.214L 69.264,236.621L 78.7476,236.621 Z "/>
	<path fill="#000000" fill-opacity="1" stroke-width="1.33333" stroke-linejoin="round" d="M 579.956,125.865C 579.814,125.854 576.529,125.564 575.304,122.808C 574.13,120.169 575.325,116.597 578.952,111.888C 583.213,106.352 583.223,103.718 582.849,102.642C 582.501,101.642 581.601,101.371 581.591,101.37C 580.838,101.183 580.382,100.42 580.572,99.6688C 580.764,98.9176 581.533,98.4601 582.276,98.652C 583.152,98.8732 584.818,99.7689 585.499,101.722C 586.491,104.584 585.038,108.58 581.176,113.599C 577.382,118.524 577.471,120.761 577.863,121.658C 578.397,122.89 580.167,123.067 580.185,123.07C 580.951,123.141 581.524,123.818 581.456,124.586C 581.394,125.316 580.785,125.87 580.065,125.87 Z "/>
	<path fill="#000000" fill-opacity="1" stroke-width="1.33333" stroke-linejoin="round" d="M 592.809,122.226C 592.57,122.207 590.48,121.99 589.652,120.129C 588.886,118.403 589.593,116.168 591.804,113.291C 594.271,110.088 594.011,108.812 593.934,108.589C 593.847,108.344 593.639,108.252 593.639,108.252C 592.885,108.06 592.43,107.299 592.621,106.548C 592.812,105.797 593.58,105.343 594.323,105.531C 594.492,105.575 596.006,106 596.581,107.67C 597.229,109.531 596.393,111.929 594.029,115.002C 591.819,117.87 592.171,118.882 592.217,118.989C 592.368,119.331 593.021,119.43 593.027,119.43C 593.8,119.491 594.377,120.166 594.316,120.937C 594.257,121.672 593.642,122.23 592.919,122.23 Z "/>
	<path fill="#000000" fill-opacity="1" stroke-width="1.33333" stroke-linejoin="round" d="M 565.354,139.192C 565.118,139.172 563.027,138.958 562.199,137.094C 561.432,135.369 562.138,133.133 564.352,130.26C 566.717,127.188 566.586,125.905 566.489,125.585C 566.405,125.318 566.199,125.228 566.137,125.206C 565.426,124.964 565,124.193 565.213,123.471C 565.428,122.751 566.15,122.315 566.868,122.5C 567.039,122.543 568.548,122.968 569.128,124.637C 569.776,126.499 568.94,128.899 566.576,131.97C 564.378,134.823 564.714,135.841 564.759,135.951C 564.893,136.263 565.451,136.382 565.592,136.399C 566.355,136.481 566.922,137.16 566.852,137.924C 566.784,138.649 566.182,139.197 565.467,139.197 Z "/>
	<path fill="#000000" fill-opacity="1" stroke-width="1.33333" stroke-linejoin="round" d="M 617.175,164.869L 622.158,157.657L 622.255,157.521C 625.497,152.947 628.625,148.734 631.022,145.606L 631.05,145.57C 633.078,142.924 634.578,141.061 635.173,140.423C 636.546,138.949 638.665,138.112 641.141,138.071L 641.36,138.065C 643.253,138.065 645.231,138.503 647.159,139.316L 653.821,125.131C 653.968,124.817 654.237,124.583 654.566,124.481C 654.898,124.378 655.25,124.414 655.549,124.586L 661.294,127.861C 661.594,128.036 661.808,128.322 661.886,128.66C 661.92,128.81 661.926,128.964 661.905,129.114L 663.509,127.278C 663.732,127.024 664.054,126.87 664.395,126.863C 664.722,126.854 665.068,126.98 665.31,127.22L 669.986,131.895C 670.227,132.137 670.356,132.47 670.345,132.81C 670.335,133.153 670.184,133.472 669.926,133.697L 667.914,135.455C 668.141,135.369 668.392,135.351 668.636,135.408C 668.974,135.481 669.261,135.694 669.429,135.995L 672.713,141.739C 672.883,142.037 672.92,142.393 672.816,142.722C 672.713,143.05 672.476,143.32 672.165,143.467L 657.93,150.153C 658.745,152.121 659.168,154.14 659.133,156.064C 659.089,158.538 658.251,160.652 656.776,162.024C 656.391,162.382 618.686,192.523 607.663,192.525C 606.686,192.525 605.923,192.289 605.41,191.778L 605.377,191.744C 604.231,190.594 601.783,187.774 617.175,164.869 Z M 653.537,143.659L 653.537,143.661L 653.544,143.667L 654.098,144.244L 667.304,132.711L 664.497,129.901L 652.959,143.103L 653.537,143.659 Z M 641.365,140.538L 641.186,140.538C 639.385,140.572 637.892,141.131 636.982,142.108C 636.473,142.653 635.282,144.125 633.654,146.231L 640.092,152.666C 640.573,153.149 640.573,153.934 640.092,154.415C 639.85,154.654 639.536,154.777 639.219,154.777C 638.901,154.777 638.585,154.654 638.344,154.415L 632.139,148.21C 630.045,150.969 627.488,154.427 624.822,158.17L 629.704,163.055C 630.189,163.536 630.189,164.321 629.704,164.803C 629.466,165.042 629.151,165.162 628.832,165.162C 628.519,165.162 628.202,165.042 627.96,164.803L 623.373,160.218L 619.222,166.25L 616.404,170.526L 619.317,173.436C 619.798,173.916 619.801,174.698 619.32,175.179C 619.076,175.421 618.761,175.544 618.445,175.544C 618.128,175.544 617.813,175.424 617.572,175.182L 615.045,172.66C 605.418,187.973 607.071,189.947 607.157,190.036L 607.158,190.036L 607.159,190.037C 607.239,190.116 608.651,191.248 617.964,186.064L 615.91,184.014C 615.427,183.53 615.426,182.751 615.906,182.266C 616.387,181.783 617.171,181.783 617.653,182.264L 620.184,184.795C 623.047,183.118 626.53,180.934 630.765,178.093L 626.295,173.626C 625.813,173.147 625.813,172.362 626.295,171.883C 626.778,171.401 627.56,171.401 628.043,171.883L 632.848,176.684C 636.434,174.238 639.893,171.779 642.976,169.529L 636.684,163.241C 636.202,162.761 636.202,161.979 636.684,161.494C 637.165,161.013 637.95,161.013 638.432,161.494L 644.988,168.052C 650.365,164.079 654.262,160.996 655.097,160.218C 656.075,159.309 656.633,157.818 656.664,156.02C 656.73,152.494 654.908,148.528 651.79,145.41L 651.762,145.382C 648.706,142.339 644.834,140.538 641.365,140.538 Z M 669.906,141.801L 667.951,138.38L 655.964,146.567L 656.833,147.938L 669.906,141.801 Z M 658.909,129.344L 655.489,127.391L 649.366,140.426C 649.829,140.698 650.286,140.991 650.734,141.305L 658.909,129.344 Z "/>
	<path fill="#000000" fill-opacity="1" stroke-width="1.33333" stroke-linejoin="round" d="M 618.71,166.634L 607.444,166.634L 549.505,166.634L 544.067,166.634C 543.292,166.634 542.663,166.007 542.663,165.233C 542.663,164.457 543.292,163.829 544.067,163.829L 546.879,163.829C 545.328,161.285 543.349,157.006 544.354,152.911C 545.125,149.776 547.447,147.365 551.265,145.749C 556.63,143.476 560.995,140.761 565.218,138.133C 570.962,134.563 575.92,131.476 581.813,130.541C 588.325,129.505 594.646,129.918 600.094,131.732C 600.831,131.977 601.226,132.772 600.982,133.506C 600.737,134.24 599.945,134.638 599.209,134.394C 594.258,132.747 588.238,132.362 582.256,133.312C 576.921,134.158 572.184,137.104 566.697,140.515C 562.586,143.074 557.926,145.972 552.358,148.33C 549.4,149.584 547.622,151.348 547.076,153.579C 546.082,157.633 549.137,162.301 550.25,163.829L 606.837,163.829C 615.336,154.688 616.15,150.599 610.742,145.063C 610.202,144.51 610.211,143.621 610.765,143.08C 611.319,142.54 612.208,142.548 612.746,143.101C 619.6,150.117 617.647,155.826 610.618,163.829L 618.71,163.829C 619.486,163.829 620.111,164.457 620.111,165.233C 620.111,166.007 619.486,166.634 618.71,166.634 Z M 611.574,177.337L 551.214,177.337C 550.663,177.337 550.164,177.013 549.936,176.513L 547.248,170.59C 546.926,169.887 547.24,169.054 547.943,168.736C 548.657,168.412 549.483,168.728 549.8,169.433L 552.119,174.532L 610.666,174.532L 612.983,169.372C 613.302,168.667 614.133,168.35 614.837,168.667C 615.544,168.982 615.859,169.813 615.544,170.52L 612.855,176.506C 612.629,177.012 612.127,177.337 611.574,177.337 Z M 602.331,159.049C 602.059,159.049 601.786,158.968 601.545,158.806C 600.904,158.37 600.737,157.5 601.171,156.859C 601.191,156.828 603.304,153.648 602.713,150.798C 602.457,149.562 601.729,148.571 600.486,147.773C 600.127,147.541 599.894,147.164 599.848,146.742C 599.804,146.321 599.951,145.9 600.251,145.601L 611.355,134.495C 611.647,134.205 612.059,134.059 612.464,134.089C 612.874,134.125 613.251,134.338 613.489,134.673C 613.873,135.209 614.439,135.534 615.081,135.586C 615.703,135.64 616.351,135.411 616.802,134.956C 617.699,134.059 617.547,132.98 617.104,132.27C 616.656,131.558 615.759,130.944 614.555,131.356C 614.052,131.53 613.489,131.402 613.11,131.022C 612.731,130.643 612.603,130.082 612.776,129.575C 613.186,128.375 612.572,127.472 611.864,127.029C 611.152,126.584 610.071,126.432 609.177,127.33C 608.714,127.792 608.485,128.432 608.551,129.083C 608.614,129.737 608.966,130.32 609.512,130.684C 609.864,130.917 610.091,131.294 610.133,131.713C 610.174,132.13 610.025,132.546 609.728,132.841L 598.609,143.959C 598.263,144.307 597.762,144.448 597.283,144.33C 597.189,144.307 588.073,142.136 581.951,146.505C 578.713,148.814 576.832,152.604 576.361,157.773C 576.29,158.545 575.618,159.109 574.836,159.042C 574.068,158.972 573.501,158.289 573.568,157.517C 574.119,151.494 576.395,147.016 580.338,144.212C 586.443,139.864 594.599,140.951 597.166,141.44L 606.737,131.868C 606.192,131.148 605.851,130.286 605.759,129.362C 605.61,127.869 606.131,126.406 607.192,125.345C 608.865,123.675 611.337,123.398 613.348,124.648C 614.742,125.521 615.572,126.917 615.693,128.439C 617.215,128.56 618.613,129.388 619.485,130.787C 620.739,132.797 620.456,135.268 618.787,136.939C 617.747,137.978 616.308,138.514 614.852,138.383C 613.942,138.307 613.084,137.984 612.356,137.461L 603.35,146.465C 604.457,147.516 605.167,148.783 605.464,150.249C 606.282,154.265 603.605,158.265 603.494,158.434C 603.22,158.832 602.779,159.049 602.331,159.049 Z "/>
	<path fill="#000000" fill-opacity="1" stroke-width="1.33333" stroke-linejoin="round" d="M 652.429,77.0602L 652.249,77.0514C 650.973,82.5824 646.007,86.7206 640.09,86.7206C 634.21,86.7206 629.265,82.629 627.955,77.1442L 621.634,77.1661L 621.612,77.1661C 618.705,77.1661 616.334,74.8087 616.317,71.8944C 616.317,71.4991 616.321,62.4008 616.433,59.7423C 616.579,56.3732 617.946,54.6442 622.247,49.6823C 622.366,49.5475 634.25,36.3473 638.342,35.861C 641.22,35.4352 665.04,31.9945 671.216,33.3805C 674.959,34.2191 678.082,38.7218 681.388,43.485C 683.95,47.182 686.853,51.369 689.16,51.9935L 693.231,52.9264C 699.587,54.2755 707.5,55.9547 708.271,61.5758C 709.292,69.1012 709.227,74.1207 705.732,75.8824C 703.851,76.8339 700.897,76.9774 697.85,76.923C 696.621,82.5184 691.623,86.7206 685.664,86.7206C 679.72,86.7206 674.735,82.5438 673.487,76.9738L 652.435,77.0602L 652.429,77.0602 Z M 673.211,73.4567C 673.62,66.944 679.048,61.7733 685.664,61.7733C 692.259,61.7733 697.678,66.9171 698.112,73.4059C 700.024,73.4376 702.879,73.3829 704.146,72.7404C 706.102,71.7535 705.108,64.4535 704.78,62.0519C 704.346,58.8849 697.501,57.4352 692.501,56.3751L 688.237,55.3956C 684.69,54.4318 681.679,50.0909 678.495,45.4972C 675.848,41.6805 672.847,37.3534 670.445,36.8156C 665.738,35.7609 646.02,38.288 638.701,39.3639C 637.061,39.8917 629.724,46.4342 624.911,51.9913C 620.641,56.913 620.04,57.8724 619.951,59.8947C 619.841,62.4779 619.839,71.796 619.839,71.8883C 619.845,72.8563 620.637,73.6483 621.613,73.6483L 621.62,73.6483L 627.63,73.6271C 627.954,67.0343 633.42,61.7733 640.09,61.7733C 646.735,61.7733 652.181,66.9891 652.548,73.5421L 673.211,73.4567 Z M 685.664,65.2936C 680.724,65.2936 676.708,69.3107 676.708,74.2474C 676.708,79.1862 680.724,83.2032 685.664,83.2032C 690.601,83.2032 694.618,79.1862 694.618,74.2474C 694.618,69.3107 690.601,65.2936 685.664,65.2936 Z M 640.09,65.2931C 635.152,65.2931 631.136,69.3102 631.136,74.2469C 631.136,79.1857 635.152,83.2028 640.09,83.2028C 645.029,83.2028 649.046,79.1857 649.046,74.2469C 649.046,69.3102 645.029,65.2931 640.09,65.2931 Z M 637.297,51.4718L 673.448,51.4718L 671.954,49.3436C 670.233,46.8531 668.089,43.7494 666.59,43.4105C 666.262,43.3353 665.585,43.2487 664.219,43.2487C 657.792,43.2487 644.611,45.1913 644.445,45.2186C 643.47,45.6329 640.206,48.4781 637.297,51.4718 Z M 677.159,54.9913L 633.307,54.9913C 632.621,54.9913 631.995,54.5924 631.709,53.9679C 631.422,53.3434 631.522,52.609 631.969,52.0848L 632.318,51.682C 632.397,51.5895 640.711,42.2325 643.961,41.7316C 644.513,41.6486 657.537,39.7286 664.219,39.7286C 665.593,39.7286 666.62,39.8075 667.366,39.9769C 670.204,40.6171 672.461,43.8807 674.851,47.3407C 676.041,49.0582 677.269,50.8397 678.414,51.994C 678.913,52.4991 679.059,53.2567 678.786,53.9117C 678.512,54.5656 677.87,54.9913 677.159,54.9913 Z M 643.278,74.245C 643.278,76.0033 641.852,77.4335 640.094,77.4335C 638.332,77.4335 636.905,76.0033 636.905,74.245C 636.905,72.4874 638.332,71.0604 640.094,71.0604C 641.852,71.0604 643.278,72.4874 643.278,74.245 Z M 688.849,74.2445C 688.849,76.0028 687.423,77.433 685.665,77.433C 683.903,77.433 682.476,76.0028 682.476,74.2445C 682.476,72.4869 683.903,71.0599 685.665,71.0599C 687.423,71.0599 688.849,72.4869 688.849,74.2445 Z "/>
	<path fill="#000000" fill-opacity="1" stroke-width="1.92" stroke-linejoin="round" d="M 706.437,216.325C 703.907,218.965 702.559,226.094 702.509,229.685L 702.494,232.87L 702.43,233.23C 701.658,235.335 701.265,237.545 701.265,239.797C 701.265,240.318 701.286,240.836 701.328,241.348L 711.429,243.004C 711.988,243.095 712.368,243.624 712.275,244.183C 712.194,244.687 711.757,245.044 711.263,245.044L 711.096,245.029L 701.624,243.476C 701.82,244.469 702.093,245.437 702.439,246.375L 711.298,246.676C 711.865,246.695 712.307,247.171 712.29,247.737C 712.271,248.292 711.814,248.729 711.229,248.727L 703.35,248.461C 706.884,255.414 714.533,260.24 723.379,260.24C 732.223,260.24 739.873,255.415 743.407,248.461L 735.495,248.729C 734.945,248.729 734.488,248.292 734.469,247.737C 734.451,247.171 734.894,246.695 735.46,246.676L 744.319,246.375C 744.664,245.437 744.938,244.469 745.134,243.476L 735.661,245.029L 735.495,245.044C 735.002,245.044 734.566,244.687 734.482,244.183C 734.39,243.624 734.77,243.095 735.33,243.004L 745.43,241.348C 745.472,240.836 745.493,240.318 745.493,239.797C 745.493,237.033 744.906,234.352 743.75,231.827L 743.656,231.4L 743.639,229.683C 743.549,223.259 741.679,218.321 739.711,216.318L 732.308,222.225C 732.029,222.45 731.659,222.51 731.324,222.392C 728.758,221.479 726.158,221.035 723.379,221.035C 720.514,221.035 717.607,221.562 714.972,222.564C 714.634,222.693 714.248,222.63 713.962,222.402L 706.437,216.325 Z M 723.379,262.293C 713.317,262.293 704.672,256.54 701.04,248.383L 697.559,248.265C 696.991,248.246 696.547,247.77 696.567,247.203C 696.587,246.637 697.118,246.196 697.628,246.211L 700.24,246.3C 699.905,245.27 699.648,244.21 699.474,243.124L 695.825,242.525C 695.265,242.433 694.886,241.906 694.98,241.346C 695.07,240.786 695.597,240.393 696.158,240.5L 699.245,241.006C 699.222,240.606 699.211,240.203 699.211,239.797C 699.211,237.364 699.624,234.978 700.438,232.698L 700.455,229.655C 700.506,225.968 701.926,216.942 705.813,214.151C 706.188,213.881 706.7,213.894 707.057,214.183L 714.8,220.439C 717.515,219.483 720.467,218.979 723.379,218.979C 726.199,218.979 728.852,219.403 731.468,220.269L 739.095,214.181C 739.455,213.897 739.96,213.881 740.336,214.151C 743.44,216.383 745.592,222.614 745.694,229.655L 745.711,231.172C 746.929,233.91 747.548,236.81 747.548,239.797C 747.548,240.203 747.537,240.606 747.514,241.006L 750.601,240.5C 751.157,240.393 751.689,240.786 751.779,241.346C 751.872,241.906 751.491,242.433 750.932,242.525L 747.284,243.124C 747.111,244.209 746.853,245.27 746.519,246.3L 749.13,246.211L 749.167,246.211C 749.718,246.211 750.172,246.648 750.192,247.203C 750.211,247.77 749.767,248.246 749.2,248.265L 745.718,248.383C 742.086,256.54 733.44,262.293 723.379,262.293 Z M 715.814,238.992C 714.768,238.992 713.918,238.141 713.918,237.094C 713.918,236.046 714.768,235.195 715.814,235.195C 716.859,235.195 717.71,236.046 717.71,237.094C 717.71,238.141 716.859,238.992 715.814,238.992 Z M 730.943,238.992C 729.898,238.992 729.046,238.141 729.046,237.094C 729.046,236.046 729.898,235.195 730.943,235.195C 731.99,235.195 732.841,236.046 732.841,237.094C 732.841,238.141 731.99,238.992 730.943,238.992 Z M 722.729,244.675L 723.444,245.809L 724.106,244.675L 722.729,244.675 Z M 726.799,252.707C 725.445,252.707 724.209,252.089 723.378,251.113C 722.549,252.089 721.312,252.707 719.958,252.707C 717.488,252.707 715.478,250.695 715.478,248.224C 715.478,247.657 715.937,247.196 716.505,247.196C 717.073,247.196 717.532,247.657 717.532,248.224C 717.532,249.561 718.62,250.651 719.958,250.651C 721.163,250.651 722.196,249.754 722.361,248.561L 722.504,248.163L 719.997,244.2C 719.798,243.881 719.785,243.483 719.966,243.152C 720.146,242.824 720.49,242.62 720.863,242.62L 725.894,242.62C 726.262,242.62 726.602,242.819 726.784,243.139C 726.968,243.455 726.965,243.848 726.781,244.165L 724.342,248.346L 724.396,248.561C 724.561,249.754 725.593,250.651 726.799,250.651C 728.137,250.651 729.227,249.561 729.227,248.224C 729.227,247.657 729.686,247.196 730.253,247.196C 730.821,247.196 731.281,247.657 731.281,248.224C 731.281,250.695 729.27,252.707 726.799,252.707 Z "/>
	<path fill="#000000" fill-opacity="1" stroke-width="1.33333" stroke-linejoin="round" d="M 262.858,181.794L 256.571,181.794C 254.573,181.794 253.009,179.924 253.009,177.54L 253.009,172.596C 251.348,172.906 249.657,173.097 247.962,173.161C 245.907,173.376 243.758,173.444 241.553,173.371L 241.553,177.54C 241.553,179.924 239.986,181.794 237.988,181.794L 231.701,181.794C 229.703,181.794 228.136,179.924 228.136,177.54L 228.136,171.323C 216.623,168.302 208.172,163.095 207.808,162.867C 207.374,162.599 207.105,162.13 207.094,161.62L 206.82,150.854C 206.808,150.389 207.01,149.945 207.368,149.648C 207.727,149.351 208.204,149.237 208.658,149.337C 208.695,149.345 212.847,150.16 214.151,148.041C 215.785,145.378 219.524,143.016 221.24,142.027L 220.217,127.408C 220.178,126.891 220.407,126.392 220.824,126.084C 221.24,125.776 221.784,125.702 222.265,125.885C 227.929,128.048 230.842,131.63 232.342,134.701C 234.021,133.911 235.803,133.261 237.665,132.767C 238.471,132.552 239.301,133.035 239.517,133.843C 239.73,134.653 239.249,135.482 238.441,135.696C 236.253,136.278 234.189,137.089 232.309,138.113C 231.922,138.323 231.465,138.353 231.051,138.198C 230.638,138.044 230.315,137.719 230.163,137.305C 229.298,134.963 227.438,131.906 223.415,129.734L 224.33,142.777C 224.372,143.38 224.052,143.95 223.517,144.228C 222.097,144.966 218.117,147.371 216.73,149.626C 215.112,152.262 211.932,152.605 209.892,152.516L 210.102,160.704C 212.413,162.035 220.258,166.287 230.01,168.672C 230.691,168.839 231.166,169.444 231.166,170.143L 231.166,177.54C 231.166,178.331 231.57,178.765 231.701,178.765L 237.988,178.765C 238.12,178.765 238.523,178.331 238.523,177.54L 238.523,171.782C 238.523,171.362 238.694,170.962 239.003,170.674C 239.306,170.389 239.712,170.242 240.136,170.269C 242.753,170.437 245.297,170.395 247.799,170.137C 249.949,170.055 252.09,169.759 254.16,169.25C 254.613,169.14 255.09,169.24 255.456,169.53C 255.825,169.818 256.036,170.257 256.036,170.72L 256.036,177.54C 256.036,178.331 256.439,178.765 256.571,178.765L 262.858,178.765C 262.99,178.765 263.391,178.331 263.391,177.54L 263.391,165.857C 263.391,165.386 263.609,164.942 263.982,164.654C 268.295,161.328 270.67,156.98 270.67,152.408C 270.67,145.524 265.171,139.195 256.66,136.288C 255.868,136.017 255.447,135.158 255.715,134.365C 255.986,133.573 256.847,133.151 257.64,133.42C 264.707,135.835 269.965,140.413 272.324,145.871L 276.252,145.256C 277.074,145.125 277.853,145.693 277.984,146.519C 278.113,147.345 277.549,148.122 276.72,148.249L 273.286,148.786C 273.559,149.969 273.7,151.18 273.7,152.408C 273.7,157.722 271.123,162.731 266.423,166.585L 266.423,177.54C 266.423,179.924 264.856,181.794 262.858,181.794 Z M 224.483,151.384C 224.483,152.48 223.595,153.367 222.501,153.367C 221.403,153.367 220.516,152.48 220.516,151.384C 220.516,150.288 221.403,149.4 222.501,149.4C 223.595,149.4 224.483,150.288 224.483,151.384 Z M 247.658,112.859C 242.534,112.859 238.365,117.03 238.365,122.154C 238.365,127.28 242.534,131.451 247.658,131.451C 252.784,131.451 256.954,127.28 256.954,122.154C 256.954,117.03 252.784,112.859 247.658,112.859 Z M 247.658,134.481C 240.864,134.481 235.333,128.952 235.333,122.154C 235.333,115.358 240.864,109.829 247.658,109.829C 254.455,109.829 259.985,115.358 259.985,122.154C 259.985,128.952 254.455,134.481 247.658,134.481 Z "/>
	<path fill="#000000" fill-opacity="1" stroke-width="1.33333" stroke-linejoin="round" d="M 378.338,144.033L 393.509,144.033L 393.509,124.796C 393.509,123.088 392.838,121.476 391.624,120.256C 390.409,119.045 388.797,118.375 387.089,118.375L 384.762,118.375C 383.054,118.375 381.442,119.045 380.223,120.26C 379.007,121.476 378.338,123.088 378.338,124.796L 378.338,144.033 Z M 395.229,147.476L 376.621,147.476L 376.017,147.367L 370.95,147.367C 366.33,147.367 362.568,143.302 362.568,138.308L 362.568,107.449C 361.245,107.772 359.938,107.783 358.771,107.465C 357.092,107.008 355.658,106.166 354.625,105.035C 353.562,103.872 352.997,102.464 352.993,100.969L 352.997,100.591L 353.016,100.407L 353.003,100.322L 352.985,100.058L 353.073,99.5052L 361.481,71.1007C 361.804,69.9982 362.676,68.8585 363.879,67.9818C 364.631,67.4379 365.797,66.7889 367.109,66.7889L 407.8,66.7889L 407.648,66.0809L 407.648,60.6989L 407.479,60.6989C 405.762,60.6989 404.372,59.3029 404.372,57.5885L 404.372,52.361C 404.372,50.6461 405.762,49.2521 407.479,49.2521L 423.765,49.2521C 425.486,49.2521 426.882,50.6461 426.882,52.361L 426.882,57.5885C 426.882,59.3029 425.486,60.6989 423.765,60.6989L 423.597,60.6989L 423.597,66.0807L 423.446,66.7889L 437.412,66.7889C 438.747,66.7889 439.915,67.4379 440.656,67.9799C 441.839,68.8422 442.705,69.9796 443.038,71.1046L 451.415,99.4049L 451.407,99.4088L 451.491,99.6737L 451.52,100.499L 451.537,100.743L 451.528,100.928C 451.512,102.497 450.902,103.907 449.759,105.094C 448.646,106.25 447.048,107.143 445.264,107.609C 444.11,107.91 442.852,107.932 441.598,107.686L 441.598,138.309C 441.598,143.302 437.841,147.367 433.221,147.367L 395.83,147.367L 395.229,147.476 Z M 411.089,66.0809L 410.937,66.7889L 420.312,66.7889L 420.16,66.0807L 420.16,60.6989L 423.597,60.6989L 423.597,58.9786C 423.597,58.028 422.831,57.2579 421.88,57.2579L 423.441,57.2579L 423.441,52.6915L 407.809,52.6915L 407.809,57.2579L 409.369,57.2582C 410.319,57.2582 411.089,58.0282 411.089,58.9789L 411.089,60.6989L 411.089,66.0809 Z M 366.009,138.308C 366.009,141.355 368.272,143.926 370.95,143.926L 374.9,143.926L 374.9,124.798C 374.9,122.172 375.927,119.696 377.787,117.828C 379.661,115.963 382.136,114.936 384.762,114.936L 387.088,114.936C 389.714,114.936 392.188,115.963 394.053,117.828C 395.921,119.696 396.948,122.172 396.948,124.798L 396.948,143.926L 433.221,143.926C 435.944,143.926 438.161,141.409 438.161,138.309L 438.161,106.289C 437.237,105.697 436.4,104.957 435.683,104.092L 435.435,103.839C 435.069,103.62 434.433,103.667 434.123,103.961C 433.084,105.123 431.737,106.154 430.335,106.864C 428.99,107.546 427.694,107.903 426.481,107.922L 426.473,107.922C 425.144,107.922 423.849,107.581 422.606,106.936C 421.29,106.25 420.124,105.287 419.229,104.144L 418.962,103.844C 418.588,103.62 417.954,103.667 417.646,103.957C 416.631,105.094 415.276,106.125 413.831,106.852C 412.463,107.542 411.149,107.909 409.913,107.946C 408.499,107.93 407.174,107.609 405.959,106.967C 404.636,106.271 403.517,105.283 402.723,104.121L 402.466,103.839C 402.113,103.628 401.472,103.672 401.164,103.961C 399.507,105.817 396.352,107.854 393.348,107.942L 393.138,107.942C 391.884,107.942 390.576,107.606 389.364,106.965C 388.081,106.283 387.011,105.324 386.174,104.016L 385.993,103.844C 385.627,103.624 384.991,103.667 384.681,103.961C 383.662,105.103 382.311,106.129 380.884,106.848C 380.149,107.221 378.743,107.825 377.287,107.907L 376.809,107.975C 375.827,107.975 373.38,107.096 373.072,106.936C 371.76,106.25 370.618,105.279 369.768,104.129L 369.507,103.839C 369.15,103.628 368.508,103.672 368.204,103.961C 367.54,104.7 366.801,105.347 366.009,105.887L 366.009,138.308 Z M 401.893,100.251C 402.739,100.251 403.56,100.474 404.259,100.899C 404.842,101.257 405.318,101.739 405.638,102.296C 406.037,102.873 406.745,103.491 407.568,103.924C 408.289,104.306 409.032,104.505 409.718,104.505C 410.527,104.486 411.381,104.232 412.281,103.78C 413.303,103.267 414.293,102.524 415.079,101.659C 416.41,100.175 418.976,99.8339 420.742,100.899C 421.278,101.226 421.719,101.655 422.044,102.174C 422.522,102.77 423.325,103.431 424.193,103.885C 424.951,104.277 425.699,104.486 426.364,104.486C 427.101,104.47 427.916,104.232 428.782,103.797C 429.78,103.289 430.739,102.561 431.561,101.659C 432.893,100.175 435.46,99.8339 437.223,100.899C 437.7,101.193 438.102,101.563 438.414,102.004C 438.834,102.507 439.352,102.965 439.935,103.345C 440.469,103.362 440.939,103.62 441.241,104.013L 441.377,104.063C 442.416,104.442 443.484,104.517 444.393,104.281C 445.572,103.971 446.603,103.411 447.284,102.704C 447.818,102.152 448.091,101.558 448.091,100.941L 448.075,100.696L 448.071,100.218L 439.739,72.076C 439.642,71.7516 439.26,71.2198 438.632,70.7599C 438.094,70.3676 437.64,70.2301 437.412,70.2301L 367.109,70.2301C 366.892,70.2301 366.446,70.3698 365.902,70.7657C 365.259,71.234 364.871,71.7699 364.783,72.0677L 356.457,100.203L 356.428,100.932C 356.428,101.581 356.679,102.179 357.167,102.716C 357.748,103.355 358.644,103.864 359.675,104.144C 360.424,104.349 361.383,104.273 362.352,103.928C 363.53,103.511 364.641,102.754 365.637,101.659C 366.964,100.175 369.534,99.8297 371.296,100.899C 371.852,101.24 372.314,101.694 372.626,102.22C 373.072,102.809 373.825,103.448 374.667,103.887L 376.665,104.497L 376.961,104.474C 377.587,104.474 378.47,104.213 379.336,103.776C 380.342,103.271 381.324,102.532 382.114,101.661C 383.443,100.179 386.017,99.8297 387.777,100.899C 388.383,101.269 388.876,101.774 389.196,102.376C 389.615,102.986 390.243,103.532 390.978,103.924C 391.695,104.301 392.44,104.505 393.138,104.505C 395.023,104.449 397.306,103.069 398.598,101.659C 399.399,100.764 400.598,100.251 401.893,100.251 Z M 408.39,116.15C 407.928,116.15 407.54,116.538 407.54,117L 407.54,122.537L 426.785,122.651L 426.785,117C 426.785,116.538 426.397,116.15 425.939,116.15L 408.39,116.15 Z M 407.54,134.545C 407.54,135.011 407.92,135.391 408.39,135.391L 415.409,135.391L 415.51,126.026L 407.54,125.978L 407.54,134.545 Z M 418.847,135.391L 425.939,135.391C 426.397,135.391 426.785,135.007 426.785,134.545L 426.785,126.093L 418.949,126.046L 418.847,135.391 Z M 425.939,138.832L 408.39,138.832C 406.025,138.832 404.103,136.911 404.103,134.545L 404.103,117C 404.103,114.635 406.025,112.709 408.39,112.709L 425.939,112.709C 428.3,112.709 430.222,114.635 430.222,117L 430.222,134.545C 430.222,136.911 428.3,138.832 425.939,138.832 Z "/>
</svg>
